<svg width="574" height="289" viewBox="0 0 574 289" fill="none" xmlns="http://www.w3.org/2000/svg">
<rect width="574" height="289" rx="20" fill="#202D3E"/>
<path d="M357.175 147.249C325.648 147.249 300 121.622 300 90.1209C300 58.6269 325.648 33 357.175 33C388.701 33 414.349 58.6269 414.349 90.1281C414.342 121.622 388.694 147.249 357.175 147.249ZM357.175 33.7146C326.041 33.7146 300.715 59.0199 300.715 90.1281C300.715 121.236 326.041 146.541 357.175 146.541C388.308 146.541 413.634 121.236 413.634 90.1281C413.634 59.0199 388.301 33.7146 357.175 33.7146Z" fill="#4F46E5"/>
<path d="M357.175 141.739C328.695 141.739 305.521 118.585 305.521 90.1282C305.521 61.6713 328.695 38.5171 357.175 38.5171C385.655 38.5171 408.828 61.6713 408.828 90.1282C408.82 118.585 385.655 141.739 357.175 141.739ZM357.175 39.9464C329.481 39.9464 306.952 62.4574 306.952 90.1282C306.952 117.799 329.481 140.31 357.175 140.31C384.868 140.31 407.397 117.799 407.397 90.1282C407.39 62.4574 384.861 39.9464 357.175 39.9464Z" fill="#4F46E5"/>
<path d="M357.175 127.403C336.605 127.403 319.869 110.681 319.869 90.128C319.869 69.575 336.605 52.8525 357.175 52.8525C377.744 52.8525 394.48 69.575 394.48 90.128C394.48 110.681 377.744 127.403 357.175 127.403ZM357.175 54.2747C337.392 54.2747 321.299 70.354 321.299 90.1208C321.299 109.888 337.392 125.967 357.175 125.967C376.957 125.967 393.05 109.888 393.05 90.1208C393.05 70.354 376.95 54.2747 357.175 54.2747Z" fill="#4F46E5"/>
<path d="M357.175 121C340.138 121 326.277 107.151 326.277 90.1282C326.277 73.1055 340.138 59.2559 357.175 59.2559C374.211 59.2559 388.072 73.1055 388.072 90.1282C388.072 107.151 374.211 121 357.175 121ZM357.175 59.9705C340.531 59.9705 326.992 73.4986 326.992 90.1282C326.992 106.758 340.531 120.286 357.175 120.286C373.818 120.286 387.357 106.758 387.357 90.1282C387.357 73.4986 373.811 59.9705 357.175 59.9705Z" fill="#4F46E5"/>
<path d="M357.175 109.33C346.575 109.33 337.957 100.719 337.957 90.1281C337.957 79.5372 346.575 70.9258 357.175 70.9258C367.774 70.9258 376.392 79.5372 376.392 90.1281C376.392 100.712 367.767 109.33 357.175 109.33ZM357.175 72.3479C347.369 72.3479 339.387 80.3233 339.387 90.1209C339.387 99.9186 347.369 107.894 357.175 107.894C366.98 107.894 374.962 99.9186 374.962 90.1209C374.962 80.3233 366.98 72.3479 357.175 72.3479Z" fill="#4F46E5"/>
<path d="M357.175 99.6685C351.911 99.6685 347.626 95.3878 347.626 90.1281C347.626 84.8684 351.911 80.5806 357.175 80.5806C362.439 80.5806 366.73 84.8612 366.73 90.1281C366.723 95.3878 362.439 99.6685 357.175 99.6685ZM357.175 81.2952C352.304 81.2952 348.342 85.2543 348.342 90.1281C348.342 95.0019 352.304 98.9539 357.175 98.9539C362.045 98.9539 366.015 94.9948 366.015 90.1281C366.015 85.2614 362.045 81.2952 357.175 81.2952Z" fill="#4F46E5"/>
<path d="M252.485 110.196C250.838 111.843 248.173 111.843 246.525 110.196C244.878 108.548 244.878 105.883 246.525 104.236C248.173 102.588 250.838 102.588 252.485 104.236C254.133 105.883 254.133 108.548 252.485 110.196ZM270.308 122.059C268.66 120.411 265.995 120.411 264.348 122.059C262.7 123.706 262.7 126.371 264.348 128.019C265.995 129.666 268.66 129.666 270.308 128.019C271.955 126.371 271.955 123.706 270.308 122.059ZM288.13 139.881C286.483 138.234 283.818 138.234 282.17 139.881C280.523 141.529 280.523 144.194 282.17 145.841C283.818 147.489 286.483 147.489 288.13 145.841C289.778 144.194 289.778 141.529 288.13 139.881ZM305.953 157.704C304.305 156.057 301.64 156.057 299.993 157.704C298.345 159.352 298.345 162.017 299.993 163.664C301.64 165.312 304.305 165.312 305.953 163.664C307.6 162.017 307.6 159.352 305.953 157.704ZM323.775 175.527C322.128 173.88 319.463 173.88 317.815 175.527C316.168 177.175 316.168 179.84 317.815 181.487C319.463 183.135 322.128 183.135 323.775 181.487C325.408 179.84 325.408 177.175 323.775 175.527ZM234.663 122.059C233.015 120.411 230.351 120.411 228.703 122.059C227.055 123.706 227.055 126.371 228.703 128.019C230.351 129.666 233.015 129.666 234.663 128.019C236.31 126.371 236.31 123.706 234.663 122.059ZM252.485 139.881C250.838 138.234 248.173 138.234 246.525 139.881C244.878 141.529 244.878 144.194 246.525 145.841C248.173 147.489 250.838 147.489 252.485 145.841C254.133 144.194 254.133 141.529 252.485 139.881ZM270.308 157.704C268.66 156.057 265.995 156.057 264.348 157.704C262.7 159.352 262.7 162.017 264.348 163.664C265.995 165.312 268.66 165.312 270.308 163.664C271.955 162.017 271.955 159.352 270.308 157.704ZM288.13 175.527C286.483 173.88 283.818 173.88 282.17 175.527C280.523 177.175 280.523 179.84 282.17 181.487C283.818 183.135 286.483 183.135 288.13 181.487C289.778 179.84 289.778 177.175 288.13 175.527ZM305.953 193.35C304.305 191.702 301.64 191.702 299.993 193.35C298.345 194.998 298.345 197.662 299.993 199.31C301.64 200.958 304.305 200.958 305.953 199.31C307.6 197.662 307.6 194.998 305.953 193.35ZM216.84 139.881C215.193 138.234 212.528 138.234 210.881 139.881C209.233 141.529 209.233 144.194 210.881 145.841C212.528 147.489 215.193 147.489 216.84 145.841C218.488 144.194 218.488 141.529 216.84 139.881ZM234.663 157.704C233.015 156.057 230.351 156.057 228.703 157.704C227.055 159.352 227.055 162.017 228.703 163.664C230.351 165.312 233.015 165.312 234.663 163.664C236.31 162.017 236.31 159.352 234.663 157.704ZM252.485 175.527C250.838 173.88 248.173 173.88 246.525 175.527C244.878 177.175 244.878 179.84 246.525 181.487C248.173 183.135 250.838 183.135 252.485 181.487C254.133 179.84 254.133 177.175 252.485 175.527ZM270.308 193.35C268.66 191.702 265.995 191.702 264.348 193.35C262.7 194.998 262.7 197.662 264.348 199.31C265.995 200.958 268.66 200.958 270.308 199.31C271.955 197.662 271.955 194.998 270.308 193.35ZM288.13 211.173C286.483 209.525 283.818 209.525 282.17 211.173C280.523 212.82 280.523 215.485 282.17 217.133C283.818 218.781 286.483 218.781 288.13 217.133C289.778 215.485 289.778 212.806 288.13 211.173ZM199.018 157.704C197.37 156.057 194.706 156.057 193.058 157.704C191.411 159.352 191.411 162.017 193.058 163.664C194.706 165.312 197.37 165.312 199.018 163.664C200.666 162.017 200.666 159.352 199.018 157.704ZM216.84 175.527C215.193 173.88 212.528 173.88 210.881 175.527C209.233 177.175 209.233 179.84 210.881 181.487C212.528 183.135 215.193 183.135 216.84 181.487C218.488 179.84 218.488 177.175 216.84 175.527ZM234.663 193.35C233.015 191.702 230.351 191.702 228.703 193.35C227.055 194.998 227.055 197.662 228.703 199.31C230.351 200.958 233.015 200.958 234.663 199.31C236.31 197.662 236.31 194.998 234.663 193.35ZM252.485 211.173C250.838 209.525 248.173 209.525 246.525 211.173C244.878 212.82 244.878 215.485 246.525 217.133C248.173 218.781 250.838 218.781 252.485 217.133C254.133 215.485 254.133 212.806 252.485 211.173ZM270.308 228.996C268.66 227.348 265.995 227.348 264.348 228.996C262.7 230.643 262.7 233.308 264.348 234.956C265.995 236.603 268.66 236.603 270.308 234.956C271.955 233.308 271.955 230.629 270.308 228.996ZM181.196 175.527C179.548 173.88 176.883 173.88 175.236 175.527C173.588 177.175 173.588 179.84 175.236 181.487C176.883 183.135 179.548 183.135 181.196 181.487C182.843 179.84 182.843 177.175 181.196 175.527ZM199.018 193.35C197.37 191.702 194.706 191.702 193.058 193.35C191.411 194.998 191.411 197.662 193.058 199.31C194.706 200.958 197.37 200.958 199.018 199.31C200.666 197.662 200.666 194.998 199.018 193.35ZM216.84 211.173C215.193 209.525 212.528 209.525 210.881 211.173C209.233 212.82 209.233 215.485 210.881 217.133C212.528 218.781 215.193 218.781 216.84 217.133C218.488 215.485 218.488 212.806 216.84 211.173ZM234.663 228.996C233.015 227.348 230.351 227.348 228.703 228.996C227.055 230.643 227.055 233.308 228.703 234.956C230.351 236.603 233.015 236.603 234.663 234.956C236.31 233.308 236.31 230.629 234.663 228.996ZM252.485 246.804C250.838 245.157 248.173 245.157 246.525 246.804C244.878 248.452 244.878 251.117 246.525 252.764C248.173 254.412 250.838 254.412 252.485 252.764C254.133 251.131 254.133 248.452 252.485 246.804Z" fill="#4F46E5"/>
<path d="M328.456 174.321C333.798 174.321 338.128 169.991 338.128 164.649C338.128 159.307 333.798 154.977 328.456 154.977C323.114 154.977 318.784 159.307 318.784 164.649C318.784 169.991 323.114 174.321 328.456 174.321Z" fill="#F8FAFC"/>
<path d="M328.456 174.583C318.896 174.583 311.001 181.654 309.71 190.84C314.63 195.386 321.216 198.174 328.456 198.174C335.696 198.174 342.281 195.386 347.201 190.84C345.911 181.654 338.016 174.583 328.456 174.583Z" fill="#F8FAFC"/>
<path d="M278.598 188.539C278.336 188.502 278.074 188.445 277.831 188.389L276.297 188.034L275.53 187.847L274.763 187.622L273.715 191.439L274.538 191.663L275.362 191.85L277.008 192.225C277.289 192.299 277.569 192.337 277.831 192.393L278.673 192.543C279.234 192.636 279.795 192.748 280.338 192.842L280.937 188.932C280.413 188.857 279.889 188.745 279.384 188.651L278.598 188.539Z" fill="white"/>
<path d="M291.469 189.512L290.684 189.531L289.093 189.568L287.503 189.531L286.718 189.512L286.325 189.493L285.932 189.456L285.707 193.403L286.138 193.441L286.568 193.459L287.41 193.478L289.112 193.516L290.815 193.478L291.657 193.459C291.937 193.459 292.218 193.441 292.498 193.422L292.274 189.475C291.993 189.493 291.731 189.512 291.469 189.512Z" fill="white"/>
<path d="M302.657 187.866L301.89 188.034L300.356 188.39C299.851 188.521 299.327 188.577 298.803 188.689C298.279 188.782 297.774 188.876 297.25 188.951L297.83 192.861C298.392 192.786 298.953 192.674 299.495 192.58C300.057 192.468 300.618 192.393 301.16 192.262L302.807 191.888L303.63 191.701L304.453 191.476L303.424 187.66L302.657 187.866Z" fill="white"/>
<path d="M248.758 171.608L247.729 170.411L247.205 169.812L246.719 169.195L243.632 171.664L244.156 172.338L244.717 172.974L245.821 174.265C246.195 174.695 246.588 175.088 246.981 175.5C247.374 175.911 247.748 176.323 248.16 176.716L250.928 173.909C250.536 173.554 250.199 173.142 249.825 172.768C249.469 172.375 249.095 172.001 248.758 171.608Z" fill="white"/>
<path d="M252.163 180.307C253.941 181.711 255.736 183.095 257.663 184.292L259.796 180.962C258 179.84 256.316 178.568 254.67 177.239L252.163 180.307Z" fill="white"/>
<path d="M265.521 184.199L264.118 183.469L262.303 186.968L263.819 187.735L265.371 188.446C266.4 188.932 267.467 189.325 268.514 189.737L269.88 186.07C268.907 185.677 267.916 185.321 266.962 184.854L265.521 184.199Z" fill="white"/>
<path d="M236.56 148.99L232.744 149.981C233.343 152.17 233.997 154.34 234.858 156.436L238.544 154.995C237.72 153.049 237.122 151.029 236.56 148.99Z" fill="white"/>
<path d="M242.846 163.713C242.547 163.283 242.304 162.796 242.042 162.347C241.78 161.88 241.499 161.431 241.256 160.963L240.527 159.56L236.991 161.337L237.758 162.852C238.02 163.358 238.319 163.844 238.6 164.33C238.88 164.817 239.142 165.322 239.46 165.79L240.377 167.212L243.67 165.041L242.846 163.713Z" fill="white"/>
<path d="M241.294 109.478C241.537 109.01 241.817 108.561 242.079 108.093C242.585 107.158 243.165 106.278 243.744 105.399L240.452 103.229C239.834 104.183 239.217 105.119 238.674 106.129C238.394 106.615 238.113 107.102 237.833 107.607L237.066 109.122L240.601 110.899L241.294 109.478Z" fill="white"/>
<path d="M238.525 115.483L234.839 114.042C233.997 116.138 233.324 118.308 232.725 120.497L236.542 121.488C237.122 119.468 237.739 117.447 238.525 115.483Z" fill="white"/>
<path d="M234.97 131.086C235.008 130.562 235.045 130.038 235.101 129.514L235.307 127.943C235.363 127.419 235.438 126.895 235.532 126.371L231.64 125.735C231.528 126.297 231.472 126.858 231.397 127.419L231.191 129.103C231.135 129.664 231.098 130.225 231.06 130.787C231.023 131.348 230.967 131.909 230.948 132.489L234.895 132.676C234.877 132.152 234.933 131.628 234.97 131.086Z" fill="white"/>
<path d="M265.577 86.2981L267.018 85.6433C267.972 85.1943 268.963 84.8201 269.936 84.4272L268.552 80.7417C267.504 81.172 266.438 81.5462 265.409 82.0326L263.856 82.7248L262.341 83.4918L264.155 86.9903L265.577 86.2981Z" fill="white"/>
<path d="M252.182 90.1894L254.689 93.2388C256.335 91.9293 258.019 90.6384 259.815 89.5159L257.682 86.1858C255.774 87.4205 253.959 88.7863 252.182 90.1894Z" fill="white"/>
<path d="M247.898 94.062L247.598 94.3614L247.018 94.9787C246.626 95.3903 246.233 95.8019 245.858 96.2135L244.755 97.5044L244.193 98.1404C244.006 98.3649 243.838 98.5894 243.67 98.8139L246.756 101.283C246.925 101.078 247.075 100.872 247.243 100.666L247.767 100.067L248.796 98.8701C249.151 98.4772 249.525 98.103 249.881 97.7102L250.423 97.1302L250.704 96.8496L250.985 96.5689L248.216 93.7627L247.898 94.062Z" fill="white"/>
<path d="M299.626 81.9765C299.888 82.0139 300.15 82.07 300.393 82.1262L301.927 82.4816L302.694 82.6687L303.461 82.8932L304.509 79.0767L303.686 78.8522L302.863 78.6651L301.216 78.291C300.936 78.2161 300.655 78.1787 300.393 78.1226L299.551 77.9729C298.99 77.8794 298.429 77.7671 297.886 77.6736L297.288 81.5836C297.812 81.6585 298.335 81.7707 298.841 81.8643L299.626 81.9765Z" fill="white"/>
<path d="M291.675 77.0561L290.833 77.0374L289.131 77L287.428 77.0374L286.587 77.0561C286.306 77.0561 286.025 77.0748 285.745 77.0935L285.969 81.041C286.231 81.0223 286.493 81.0036 286.755 81.0036L287.541 80.9849L289.131 80.9475L290.721 80.9849L291.507 81.0036L291.9 81.0223L292.293 81.0597L292.517 77.1123L292.087 77.0748L291.675 77.0561Z" fill="white"/>
<path d="M275.567 82.6499L276.334 82.4815L277.868 82.1261C278.374 81.9951 278.897 81.939 279.421 81.8267C279.945 81.7332 280.45 81.6397 280.974 81.5648L280.394 77.6548C279.833 77.7296 279.272 77.8419 278.729 77.9354C278.168 78.0477 277.607 78.1225 277.064 78.2535L275.418 78.6276L274.595 78.8147L273.771 79.0392L274.8 82.8557L275.567 82.6499Z" fill="white"/>
<path d="M329.466 98.9262L330.495 100.124L331.019 100.722L331.505 101.34L334.592 98.8701L334.068 98.1966L333.507 97.5605L332.403 96.2696C332.029 95.8393 331.636 95.4465 331.243 95.0349C330.85 94.6233 330.476 94.2117 330.065 93.8188L327.296 96.6251C327.689 96.9806 328.026 97.3921 328.4 97.7663C328.736 98.1592 329.129 98.5333 329.466 98.9262Z" fill="white"/>
<path d="M326.061 90.208C324.284 88.8049 322.488 87.4205 320.561 86.2231L318.428 89.5532C320.224 90.6757 321.908 91.9479 323.554 93.2762L326.061 90.208Z" fill="white"/>
<path d="M342.917 127.999L343.123 129.571C343.179 130.094 343.198 130.618 343.254 131.142C343.254 131.292 343.273 131.423 343.292 131.572C342.169 131.348 341.047 131.142 339.905 130.918C338.259 130.6 337.043 132.152 337.791 133.668C339.307 136.736 340.822 139.804 342.319 142.872C342.88 144.013 344.433 143.995 345.256 143.246C347.8 140.964 350.345 138.663 352.889 136.38C353.488 135.838 353.581 135.202 353.394 134.641C353.319 134.004 352.908 133.425 352.066 133.256C350.476 132.957 348.885 132.639 347.295 132.339C347.276 131.834 347.22 131.348 347.183 130.843C347.145 130.282 347.108 129.72 347.052 129.159L346.846 127.475C346.771 126.914 346.715 126.353 346.603 125.792L342.712 126.428C342.805 126.951 342.861 127.475 342.917 127.999ZM347.52 136.193C346.528 137.091 345.518 137.989 344.526 138.906C343.928 137.69 343.329 136.493 342.749 135.277C344.339 135.595 345.929 135.894 347.52 136.193Z" fill="white"/>
<path d="M341.664 121.526L345.48 120.534C344.882 118.345 344.227 116.175 343.366 114.08L339.681 115.52C340.485 117.466 341.103 119.487 341.664 121.526Z" fill="white"/>
<path d="M335.378 106.802C335.677 107.233 335.92 107.719 336.182 108.168C336.444 108.636 336.725 109.085 336.968 109.553L337.698 110.956L341.234 109.178L340.467 107.663C340.205 107.158 339.905 106.671 339.625 106.185C339.344 105.699 339.082 105.193 338.764 104.726L337.847 103.304L334.555 105.474L335.378 106.802Z" fill="white"/>
<path d="M338.558 142.835C327.015 138.55 313.452 142.273 305.688 151.815C297.868 161.431 296.745 175.275 303.274 185.901C309.71 196.415 322.245 201.822 334.312 199.446C347.987 196.752 357.847 184.348 357.959 170.542C357.865 158.232 350.139 147.138 338.558 142.835ZM337.174 194.806C326.978 198.417 315.528 195.237 308.606 186.968C301.665 178.68 300.861 166.482 306.399 157.277C311.936 148.092 322.993 143.153 333.526 145.304C345.48 147.755 354.105 158.4 354.217 170.56C354.124 181.28 347.37 191.214 337.174 194.806Z" fill="white"/>
<path d="M229.077 149.121C232.912 148.204 236.748 147.306 240.583 146.389C241.874 146.09 242.491 144.163 241.406 143.265C238.768 141.076 236.13 138.906 233.492 136.717C232.669 136.043 231.079 135.894 230.555 137.091C229.208 140.159 227.861 143.227 226.514 146.277C225.784 147.287 226.402 149.027 227.749 149.252C228.198 149.42 228.684 149.383 229.077 149.121ZM231.247 144.743C231.79 143.508 232.332 142.273 232.875 141.039C233.923 141.899 234.952 142.76 235.999 143.62C234.428 143.995 232.838 144.369 231.247 144.743Z" fill="white"/>
<path d="M275.1 150.374C275.1 149.233 275.1 148.092 275.1 146.95C275.1 145.136 272.293 145.136 272.293 146.95C272.293 148.092 272.293 149.233 272.293 150.374C272.293 152.189 275.1 152.189 275.1 150.374Z" fill="white"/>
<path d="M275.1 158.494C275.1 157.352 275.1 156.211 275.1 155.07C275.1 153.255 272.293 153.255 272.293 155.07C272.293 156.211 272.293 157.352 272.293 158.494C272.293 160.308 275.1 160.308 275.1 158.494Z" fill="white"/>
<path d="M271.04 151.31C269.899 151.31 268.757 151.31 267.616 151.31C265.802 151.31 265.802 154.116 267.616 154.116C268.757 154.116 269.899 154.116 271.04 154.116C272.836 154.135 272.855 151.31 271.04 151.31Z" fill="white"/>
<path d="M279.777 151.31C278.636 151.31 277.494 151.31 276.353 151.31C274.538 151.31 274.538 154.116 276.353 154.116C277.494 154.116 278.636 154.116 279.777 154.116C281.591 154.135 281.591 151.31 279.777 151.31Z" fill="white"/>
<path d="M311.487 89.9837C314.78 89.9837 317.231 87.402 317.549 84.259C317.568 84.1467 317.586 84.0158 317.586 83.8848C317.586 83.7538 317.586 83.6229 317.549 83.5106C317.231 80.3676 314.78 77.7859 311.487 77.7859C308.176 77.7859 305.388 80.5734 305.388 83.8848C305.388 87.1962 308.176 89.9837 311.487 89.9837ZM314.78 83.8848C314.593 88.0942 308.213 88.1503 308.195 83.8848C308.176 79.6193 314.593 79.6567 314.78 83.8848Z" fill="white"/>
<path d="M288.121 107.27C289.433 107.27 290.497 106.206 290.497 104.894C290.497 103.582 289.433 102.518 288.121 102.518C286.808 102.518 285.745 103.582 285.745 104.894C285.745 106.206 286.808 107.27 288.121 107.27Z" fill="white"/>
<path d="M243.632 136.006C258.893 136.006 271.264 123.635 271.264 108.374C271.264 93.1131 258.893 80.7417 243.632 80.7417C228.371 80.7417 216 93.1131 216 108.374C216 123.635 228.371 136.006 243.632 136.006Z" fill="#F8FAFC" fill-opacity="0.2"/>
<path d="M243.744 112.172C249.086 112.172 253.417 107.841 253.417 102.499C253.417 97.1575 249.086 92.8271 243.744 92.8271C238.403 92.8271 234.072 97.1575 234.072 102.499C234.072 107.841 238.403 112.172 243.744 112.172Z" fill="white"/>
<path d="M243.744 112.434C235.363 112.434 228.273 117.878 225.766 125.398C230.274 130.113 236.598 133.069 243.632 133.069C250.741 133.069 257.158 130.057 261.667 125.23C259.104 117.784 252.051 112.434 243.744 112.434Z" fill="white"/>
<path d="M445.801 94H389.829V156.312H445.801V94Z" fill="#FFF3DB"/>
<path d="M434.855 118.816V173.501H377V103.015H419.004L434.855 118.816Z" fill="#4F46E5"/>
<path d="M434.855 118.816H419.004V103.015L434.855 118.816Z" fill="#FFC24D"/>
<path d="M419.153 118.717H434.558L419.153 103.312V118.717ZM435.152 118.965H418.905V102.718L435.152 118.965Z" fill="#FC9D4F"/>
<path d="M435.251 104.303H440.898V102.024C440.898 100.191 439.61 98.7054 438.074 98.7054C436.489 98.7054 435.251 100.191 435.251 102.024V104.303ZM441.641 104.996H434.508V101.975C434.508 99.7454 436.093 97.9128 438.074 97.9128C440.055 97.9128 441.641 99.7454 441.641 101.975V104.996Z" fill="white"/>
<path d="M442.582 103.461H433.567V110.197H442.582V103.461Z" fill="white"/>
<path d="M438.074 109.207C437.876 109.207 437.728 109.058 437.728 108.86V107.423C437.728 107.225 437.876 107.077 438.074 107.077C438.272 107.077 438.421 107.225 438.421 107.423V108.86C438.421 109.008 438.272 109.207 438.074 109.207Z" fill="#FFBF26"/>
<path d="M438.074 105.69C437.728 105.69 437.48 105.987 437.48 106.284C437.48 106.631 437.777 106.878 438.074 106.878C438.421 106.878 438.668 106.581 438.668 106.284C438.718 105.987 438.421 105.69 438.074 105.69ZM438.074 107.671C437.331 107.671 436.737 107.077 436.737 106.334C436.737 105.591 437.331 104.996 438.074 104.996C438.817 104.996 439.412 105.591 439.412 106.334C439.412 107.077 438.817 107.671 438.074 107.671Z" fill="#FFC24D"/>
<path d="M454.9 212.497H447.817C447.618 212.497 447.47 212.349 447.47 212.15C447.47 211.952 447.618 211.804 447.817 211.804H454.9C462.825 211.804 466.639 205.166 466.639 205.067C466.639 205.018 468.422 202.293 469.71 195.557C470.206 192.832 470.354 189.068 470.057 184.412C469.809 180.251 468.67 179.657 467.58 179.657C466.788 179.657 464.955 179.904 464.757 181.985C464.757 183.718 464.806 184.808 464.806 184.808C464.806 184.957 464.707 185.105 464.559 185.155C464.41 185.205 464.262 185.155 464.163 185.056C464.113 185.006 464.113 185.006 464.113 184.858C464.063 184.61 464.063 183.966 464.063 182.331C464.063 182.232 464.063 182.133 464.063 182.034C464.063 181.291 464.063 180.449 464.063 179.508C464.063 178.121 463.023 176.685 461.339 176.685C459.061 176.685 458.516 178.468 458.516 179.161C458.417 183.322 458.417 184.214 458.417 184.214C458.417 184.412 458.268 184.56 458.07 184.56C457.872 184.56 457.723 184.412 457.723 184.214C457.723 184.214 457.575 180.301 457.426 176.883C457.377 175.892 456.683 174.406 454.9 174.406C453.464 174.406 452.671 175.248 452.522 176.932C452.225 179.904 452.126 182.331 452.126 183.52V184.263C452.126 184.461 451.977 184.61 451.779 184.61C451.581 184.61 451.433 184.461 451.433 184.263C451.433 184.263 451.433 183.966 451.433 183.52L451.68 167.075C451.68 167.075 451.68 165.094 450.59 163.955C450.095 163.459 449.402 163.162 448.609 163.162C447.767 163.162 447.123 163.41 446.628 163.955C445.587 165.094 445.736 167.125 445.736 167.125C445.736 167.125 445.736 167.125 445.736 167.174L445.885 190.901C445.885 191.049 445.786 191.198 445.637 191.247C445.488 191.297 445.34 191.247 445.241 191.099C445.241 191.049 442.962 187.631 440.337 185.105C438.306 183.174 437.316 183.619 436.721 184.114C434.641 185.848 437.167 189.167 437.167 189.167C437.266 189.316 437.266 189.563 437.118 189.662C436.969 189.761 436.721 189.761 436.622 189.613C435.582 188.275 434.145 185.304 436.275 183.57C438.157 181.935 440.188 183.916 440.882 184.56C442.715 186.344 444.349 188.523 445.241 189.712L445.043 167.125C445.043 166.927 444.894 164.747 446.133 163.41C446.727 162.766 447.569 162.419 448.609 162.419C449.649 162.419 450.491 162.766 451.135 163.41C452.423 164.747 452.423 166.927 452.423 167.026L452.274 175.149C452.77 174.159 453.711 173.614 454.949 173.614C456.98 173.614 458.169 175.248 458.218 176.784C458.218 177.081 458.218 177.378 458.268 177.725C458.763 176.784 459.754 175.892 461.438 175.892C463.37 175.892 464.856 177.428 464.856 179.409C464.856 179.607 464.856 179.855 464.856 180.053C465.401 179.36 466.293 178.914 467.679 178.914C470.206 178.914 470.701 181.787 470.849 184.313C471.147 189.018 470.998 192.832 470.453 195.606C469.165 202.343 467.432 205.166 467.283 205.364C467.085 205.761 463.073 212.497 454.9 212.497Z" fill="#4F46E5"/>
<path d="M415.091 133.23H382.994V138.58H415.091V133.23Z" fill="#F7F8F9"/>
<path d="M415.091 119.955H382.994V125.305H415.091V119.955Z" fill="#F7F8F9"/>
<path d="M405.977 147.05H382.994V152.399H405.977V147.05Z" fill="#F7F8F9"/>
<path d="M423.659 208.123H422.223C421.232 208.123 420.44 207.331 420.44 206.34V204.904C420.44 203.913 421.232 203.121 422.223 203.121H423.808C424.7 203.121 425.443 203.863 425.443 204.755V206.34C425.492 207.331 424.65 208.123 423.659 208.123Z" fill="white"/>
<path d="M444.672 210.36C443.879 210.36 443.236 211.005 443.236 211.797V213.234C443.236 214.026 443.879 214.67 444.672 214.67H446.108C446.901 214.67 447.545 214.026 447.545 213.234V211.649C447.545 210.955 446.95 210.36 446.257 210.36H444.672ZM446.108 215.413H444.672C443.483 215.413 442.492 214.422 442.492 213.234V211.797C442.492 210.608 443.483 209.618 444.672 209.618H446.257C447.347 209.618 448.288 210.509 448.288 211.649V213.234C448.288 214.422 447.297 215.413 446.108 215.413Z" fill="#FFC24D"/>
<path d="M187.688 114.123H148.313C147.656 114.123 147 113.755 147 113.203V104.459C147 103.999 147.525 103.539 148.313 103.539H187.688C188.344 103.539 189 103.907 189 104.459V113.203C189 113.755 188.344 114.123 187.688 114.123Z" fill="#FC9D4F"/>
<path d="M187.684 130H160.316C159.658 130 159 129.632 159 129.08V120.336C159 119.876 159.526 119.415 160.316 119.415H187.684C188.342 119.415 189 119.783 189 120.336V129.08C189 129.632 188.342 130 187.684 130Z" fill="#FC9D4F"/>
<path d="M161.178 88.385C161.049 88.385 160.921 88.4769 160.921 88.5695V97.3381C160.921 97.4308 161.049 97.5227 161.178 97.5227H187.822C187.95 97.5227 188.078 97.4308 188.078 97.3381V88.5695C188.078 88.4769 187.95 88.385 187.822 88.385H161.178ZM187.822 98.9077H161.178C160.025 98.9077 159 98.1688 159 97.3381V88.5695C159 87.7388 160.025 87 161.178 87H187.822C188.975 87 190 87.7388 190 88.5695V97.3381C190 98.1688 188.975 98.9077 187.822 98.9077Z" fill="#FC9D4F"/>
</svg>
