<svg width="574" height="289" viewBox="0 0 574 289" fill="none" xmlns="http://www.w3.org/2000/svg">
<rect width="574" height="289" rx="20" fill="#202D3E"/>
<path d="M270.179 207.434H315.575" stroke="#4F46E5" stroke-opacity="0.38" stroke-width="5" stroke-linecap="square"/>
<path d="M302.807 254.248L315.291 207.15" stroke="#4F46E5" stroke-opacity="0.38" stroke-width="5" stroke-linecap="square"/>
<path d="M315.575 207.434L352.459 222.187" stroke="#4F46E5" stroke-opacity="0.38" stroke-width="5" stroke-linecap="square"/>
<path d="M335.152 160.052L315.575 207.434" stroke="#4F46E5" stroke-opacity="0.38" stroke-width="5" stroke-linecap="square"/>
<path d="M359.552 187.857L315.575 207.434" stroke="#4F46E5" stroke-opacity="0.38" stroke-width="5" stroke-linecap="square"/>
<path d="M189.839 139.268L202.049 178.838" stroke="#4F46E5" stroke-opacity="0.38" stroke-width="5" stroke-linecap="square"/>
<path d="M201.725 178.603L162.986 169.801" stroke="#4F46E5" stroke-opacity="0.38" stroke-width="5" stroke-linecap="square"/>
<path d="M206.624 214.243L201.725 178.603" stroke="#4F46E5" stroke-opacity="0.38" stroke-width="5" stroke-linecap="square"/>
<path d="M264.22 143.595L201.725 178.603" stroke="#4F46E5" stroke-opacity="0.38" stroke-width="5" stroke-linecap="square"/>
<path d="M264.504 143.879L315.575 207.434" stroke="#4F46E5" stroke-opacity="0.38" stroke-width="5" stroke-linecap="square"/>
<path d="M161.352 204.819L201.725 178.603" stroke="#4F46E5" stroke-opacity="0.38" stroke-width="5" stroke-linecap="square"/>
<path d="M333.352 113.407L300.653 87.9963" stroke="#4F46E5" stroke-opacity="0.38" stroke-width="5" stroke-linecap="square"/>
<path d="M301.054 88.0037L337.835 72.9946" stroke="#4F46E5" stroke-opacity="0.38" stroke-width="5" stroke-linecap="square"/>
<path d="M228.187 103.022L301.054 88.0037" stroke="#4F46E5" stroke-opacity="0.38" stroke-width="5" stroke-linecap="square"/>
<path d="M242.373 53.6541L231.592 103.022" stroke="#4F46E5" stroke-opacity="0.38" stroke-width="5" stroke-linecap="square"/>
<path d="M231.592 103.022L264.504 143.879" stroke="#4F46E5" stroke-opacity="0.38" stroke-width="5" stroke-linecap="square"/>
<path d="M185.628 79.1895L231.592 102.455" stroke="#4F46E5" stroke-opacity="0.38" stroke-width="5" stroke-linecap="square"/>
<path d="M217.973 138.772L231.592 102.455" stroke="#4F46E5" stroke-opacity="0.38" stroke-width="5" stroke-linecap="square"/>
<path d="M264.22 143.595L301.054 88.0037" stroke="#4F46E5" stroke-opacity="0.38" stroke-width="5" stroke-linecap="square"/>
<path d="M319.09 43.3716L301.054 88.004" stroke="#4F46E5" stroke-opacity="0.38" stroke-width="5" stroke-linecap="square"/>
<path d="M315.291 214.527C319.365 214.527 322.668 211.224 322.668 207.15C322.668 203.076 319.365 199.773 315.291 199.773C311.217 199.773 307.914 203.076 307.914 207.15C307.914 211.224 311.217 214.527 315.291 214.527Z" fill="#FC9D4F"/>
<path d="M200.896 171.553C196.872 172.19 194.126 175.969 194.764 179.993C195.401 184.017 199.18 186.763 203.204 186.125C207.228 185.488 209.973 181.709 209.336 177.685C208.699 173.661 204.92 170.916 200.896 171.553Z" fill="#FC9D4F"/>
<path d="M236.433 108.046C239.363 105.216 239.445 100.545 236.615 97.6148C233.785 94.6841 229.115 94.6026 226.184 97.4327C223.253 100.263 223.172 104.933 226.002 107.864C228.832 110.794 233.502 110.876 236.433 108.046Z" fill="#FC9D4F"/>
<path d="M269.328 214.527C273.402 214.527 276.704 211.224 276.704 207.15C276.704 203.076 273.402 199.773 269.328 199.773C265.253 199.773 261.951 203.076 261.951 207.15C261.951 211.224 265.253 214.527 269.328 214.527Z" fill="#4F46E5"/>
<path d="M335.152 167.429C339.226 167.429 342.529 164.126 342.529 160.052C342.529 155.978 339.226 152.675 335.152 152.675C331.078 152.675 327.775 155.978 327.775 160.052C327.775 164.126 331.078 167.429 335.152 167.429Z" fill="#4F46E5"/>
<path d="M387.757 212.572C406.669 212.572 422 197.241 422 178.329C422 159.418 406.669 144.087 387.757 144.087C368.845 144.087 353.514 159.418 353.514 178.329C353.514 197.241 368.845 212.572 387.757 212.572Z" fill="#4F46E5"/>
<path d="M352.176 229.28C356.25 229.28 359.552 225.977 359.552 221.903C359.552 217.829 356.25 214.526 352.176 214.526C348.101 214.526 344.799 217.829 344.799 221.903C344.799 225.977 348.101 229.28 352.176 229.28Z" fill="#4F46E5"/>
<path d="M302.807 261.625C306.881 261.625 310.184 258.323 310.184 254.248C310.184 250.174 306.881 246.872 302.807 246.872C298.733 246.872 295.43 250.174 295.43 254.248C295.43 258.323 298.733 261.625 302.807 261.625Z" fill="#4F46E5"/>
<path d="M206.372 205.697C198.342 206.969 192.863 214.51 194.135 222.541C195.407 230.571 202.948 236.05 210.978 234.778C219.009 233.506 224.488 225.965 223.216 217.935C221.944 209.904 214.403 204.425 206.372 205.697Z" fill="#4F46E5"/>
<path d="M160.286 198.094C156.262 198.731 153.517 202.51 154.154 206.534C154.791 210.558 158.57 213.303 162.594 212.666C166.618 212.028 169.363 208.25 168.726 204.226C168.089 200.202 164.31 197.456 160.286 198.094Z" fill="#4F46E5"/>
<path d="M162.158 162.751C158.134 163.388 155.388 167.167 156.025 171.191C156.663 175.215 160.442 177.96 164.466 177.323C168.489 176.685 171.235 172.907 170.598 168.883C169.96 164.859 166.181 162.113 162.158 162.751Z" fill="#4F46E5"/>
<path d="M188.401 131.698C184.377 132.335 181.632 136.114 182.269 140.138C182.906 144.162 186.685 146.907 190.709 146.27C194.733 145.633 197.478 141.854 196.841 137.83C196.204 133.806 192.425 131.061 188.401 131.698Z" fill="#4F46E5"/>
<path d="M263.067 136.31C259.043 136.947 256.297 140.726 256.935 144.75C257.572 148.774 261.351 151.519 265.375 150.882C269.399 150.245 272.144 146.466 271.507 142.442C270.869 138.418 267.091 135.673 263.067 136.31Z" fill="#4F46E5"/>
<path d="M247.214 59.2444C250.145 56.4143 250.227 51.7442 247.396 48.8135C244.566 45.8828 239.896 45.8013 236.965 48.6314C234.035 51.4616 233.953 56.1317 236.783 59.0623C239.614 61.993 244.284 62.0745 247.214 59.2444Z" fill="#4F46E5"/>
<path d="M190.469 84.2124C193.4 81.3823 193.481 76.7122 190.651 73.7815C187.821 70.8509 183.151 70.7693 180.22 73.5995C177.29 76.4296 177.208 81.0997 180.038 84.0304C182.868 86.961 187.538 87.0426 190.469 84.2124Z" fill="#4F46E5"/>
<path d="M323.819 48.27C326.75 45.4399 326.832 40.7698 324.002 37.8392C321.171 34.9085 316.501 34.827 313.571 37.6571C310.64 40.4872 310.558 45.1573 313.389 48.088C316.219 51.0187 320.889 51.1002 323.819 48.27Z" fill="#4F46E5"/>
<path d="M387.502 82.1007C399.626 70.3933 399.963 51.0747 388.255 38.9514C376.548 26.828 357.229 26.4908 345.106 38.1982C332.983 49.9055 332.646 69.2242 344.353 81.3475C356.06 93.4708 375.379 93.808 387.502 82.1007Z" fill="#4F46E5"/>
<path d="M222.814 144.363C225.745 141.532 225.826 136.862 222.996 133.932C220.166 131.001 215.496 130.919 212.565 133.75C209.634 136.58 209.553 141.25 212.383 144.181C215.213 147.111 219.883 147.193 222.814 144.363Z" fill="#4F46E5"/>
<path d="M338.872 118.784C341.803 115.954 341.884 111.284 339.054 108.353C336.224 105.422 331.554 105.341 328.623 108.171C325.692 111.001 325.611 115.671 328.441 118.602C331.271 121.533 335.941 121.614 338.872 118.784Z" fill="#4F46E5"/>
<path d="M305.777 93.3035C308.708 90.4734 308.789 85.8033 305.959 82.8726C303.129 79.9419 298.459 79.8604 295.528 82.6905C292.597 85.5207 292.516 90.1907 295.346 93.1214C298.176 96.0521 302.846 96.1336 305.777 93.3035Z" fill="#4F46E5"/>
<path d="M365.944 78.4253L355.22 62.4956L366.237 69.108L376.814 62.4956L365.944 78.4253ZM365.944 66.4029L354.927 59.7905L365.65 41.0054L376.667 59.7905L365.944 66.4029ZM366.972 48.3692V60.3916L371.379 57.386L366.972 48.3692Z" fill="white"/>
<path d="M388.145 198.452C387.188 198.452 386.549 197.811 386.549 196.851V192.529H378.41C377.452 192.529 376.814 191.889 376.814 190.928V190.128C376.814 189.167 377.452 188.527 378.41 188.527H380.644V168.838H378.41C377.452 168.838 376.814 168.198 376.814 167.237V166.437C376.814 165.477 377.452 164.836 378.41 164.836H386.709V160.514C386.709 159.554 387.347 158.914 388.305 158.914H388.943C389.901 158.914 390.539 159.554 390.539 160.514V164.836H391.976C394.37 164.676 396.924 165.316 398.839 166.757C400.275 168.038 401.233 169.959 401.073 171.879C401.073 173.32 400.594 174.761 399.637 175.881C398.679 176.842 397.402 177.642 396.125 177.802V178.122C397.243 178.122 398.2 178.442 399.158 179.083C400.115 179.723 400.913 180.363 401.392 181.324C402.031 182.444 402.35 183.565 402.19 184.845C402.19 186.286 401.871 187.567 401.073 188.847C400.275 190.128 399.158 190.928 397.881 191.568C396.285 192.209 394.37 192.689 392.614 192.529H390.539V196.851C390.539 197.811 389.901 198.452 388.943 198.452H388.145ZM386.709 187.727H391.497C392.774 187.887 394.051 187.567 395.008 186.766C395.806 186.126 396.125 185.165 396.125 184.205C396.125 183.085 395.647 182.124 394.849 181.324C393.891 180.523 392.774 180.203 391.497 180.203H386.549L386.709 187.727ZM386.709 176.361H391.018C392.135 176.361 393.093 176.041 394.051 175.401C394.849 174.761 395.327 173.8 395.168 172.84C395.168 171.879 394.849 171.079 394.051 170.439C393.253 169.798 392.135 169.478 391.018 169.478H386.549L386.709 176.361Z" fill="white"/>
<path d="M208.815 214.936L198.186 225.987L208.815 209.042L219.367 225.987L208.815 214.936ZM204.108 223.408L205.778 222.082H211.776L213.446 223.408H204.108ZM206.082 220.83L208.739 218.251L211.396 220.83H206.082Z" fill="white"/>
<path d="M238 171.513L276.977 194.018L315.954 171.513V126.504L276.977 104L238 126.504V171.513Z" fill="#4F46E5"/>
<path d="M272.986 109.382L244.682 125.715C244.728 126.225 244.728 126.737 244.682 127.246L272.94 143.58C275.325 141.816 278.582 141.816 280.967 143.58L309.225 127.246C309.179 126.737 309.179 126.225 309.225 125.715L281.014 109.382C278.628 111.146 275.372 111.146 272.986 109.382ZM311.963 131.747L283.659 148.266C283.973 151.205 282.363 154.013 279.668 155.226L279.714 187.707C280.172 187.909 280.608 188.158 281.014 188.449L309.272 172.116C308.957 169.177 310.567 166.369 313.262 165.156V132.49C312.81 132.278 312.376 132.029 311.963 131.747ZM241.991 131.933C241.584 132.225 241.149 132.474 240.691 132.675V165.342C243.423 166.514 245.051 169.352 244.682 172.302L272.94 188.635C273.346 188.343 273.782 188.094 274.239 187.892V155.226C271.507 154.054 269.88 151.216 270.249 148.266L241.991 131.933Z" fill="#DFDEF2"/>
<path d="M276.977 108.872L311.824 129.01V169.24L276.977 189.378L242.13 169.24V128.964L276.977 108.872ZM276.977 104.093L238 126.597V171.606L276.977 194.111L315.954 171.606V126.597L276.977 104.093Z" fill="#4F46E5"/>
<path d="M277.255 156.665H276.698C274.765 156.67 272.909 155.904 271.542 154.537C270.174 153.17 269.408 151.314 269.413 149.38V148.823C269.408 146.89 270.174 145.034 271.542 143.667C272.909 142.299 274.765 141.533 276.698 141.538H277.255C279.189 141.533 281.045 142.299 282.412 143.667C283.779 145.034 284.545 146.89 284.54 148.823V149.38C284.545 151.314 283.779 153.17 282.412 154.537C281.045 155.904 279.189 156.67 277.255 156.665ZM277.255 186.594H276.698C274.063 186.586 271.63 188.006 270.341 190.306L276.977 194.111L283.612 190.306C282.324 188.006 279.891 186.586 277.255 186.594ZM316 164.089H315.722C313.788 164.084 311.932 164.85 310.565 166.217C309.198 167.585 308.432 169.441 308.437 171.374V171.931C308.43 173.168 308.75 174.384 309.365 175.457L316 171.606V164.089ZM309.365 122.792C308.756 123.868 308.436 125.083 308.437 126.319V126.876C308.432 128.809 309.198 130.665 310.565 132.032C311.932 133.4 313.788 134.166 315.722 134.161H316V126.597L309.365 122.792ZM276.977 104.093L270.341 107.898C271.624 110.209 274.055 111.647 276.698 111.656H277.255C279.891 111.664 282.324 110.243 283.612 107.944L276.977 104.093ZM244.635 122.746L238 126.597V134.161H238.278C240.212 134.166 242.068 133.4 243.435 132.032C244.802 130.665 245.568 128.809 245.563 126.876V126.319C245.548 125.07 245.229 123.844 244.635 122.746ZM238.278 164.089H238V171.606L244.635 175.457C245.244 174.382 245.564 173.167 245.563 171.931V171.374C245.568 169.441 244.802 167.585 243.435 166.217C242.068 164.85 240.212 164.084 238.278 164.089Z" fill="#4F46E5"/>
<path d="M276.977 194.343V149.287L238 126.783V171.838L276.977 194.343Z" fill="#4F46E5" fill-opacity="0.04"/>
<path d="M316 171.421V126.412L277.023 148.916V193.971L316 171.421Z" fill="#083B54" fill-opacity="0.05"/>
</svg>
