<svg width="574" height="289" viewBox="0 0 574 289" fill="none" xmlns="http://www.w3.org/2000/svg">
<rect width="574" height="289" rx="20" fill="#202D3E"/>
<path d="M161 169.75L211.5 199L262 169.75V111.25L211.5 82L161 111.25V169.75Z" stroke="#4F46E5" stroke-width="2" stroke-miterlimit="10"/>
<path d="M324 169.75L374.5 199L425 169.75V111.25L374.5 82L324 111.25V169.75Z" stroke="#4F46E5" stroke-width="2" stroke-miterlimit="10"/>
<path d="M354 208L375 220L396 208V184L375 172L354 184V208Z" fill="#4F46E5"/>
<path d="M150 119L160.5 125L171 119V107L160.5 101L150 107V119Z" fill="#4F46E5"/>
<g clip-path="url(#clip0_9665_46783)">
<path d="M312.127 122.004L312.109 129.785V131.573V134.044L312.074 146.101C312.074 146.136 312.057 146.154 312.022 146.171L291.184 158.281C291.131 158.316 291.044 158.281 291.044 158.211L291.114 134.114C291.114 134.079 291.131 134.061 291.166 134.044L312.004 121.934C312.039 121.899 312.127 121.934 312.127 122.004Z" fill="#F8FAFC" fill-opacity="0.2"/>
<path d="M313.862 141.562C313.879 138.39 313.879 135.236 313.897 132.063C313.897 129.768 310.322 129.75 310.322 132.063C310.322 134.605 310.304 137.146 310.304 139.669C310.304 141.282 310.287 142.877 310.287 144.489C310.287 144.647 310.269 144.822 310.252 145.015C309.796 145.295 309.288 145.698 309.007 145.856C307.798 146.557 306.606 147.258 305.397 147.959C302.26 149.782 299.123 151.604 295.968 153.427C294.934 154.023 293.918 154.619 292.884 155.214C293.024 148.555 292.866 141.878 292.884 135.218C292.884 135.183 292.884 135.165 292.884 135.113C293.007 135.043 293.129 134.973 293.252 134.885C299 131.695 304.643 128.296 310.322 124.966C310.322 125.667 310.322 126.385 310.322 127.086C310.322 129.382 313.897 129.4 313.897 127.086C313.897 126.087 313.897 125.088 313.897 124.107C313.897 123.161 314.107 121.864 313.616 121.023C313.529 120.865 313.406 120.725 313.266 120.602C312.775 120.059 312.039 119.743 311.373 119.358C309.726 118.411 308.078 117.447 306.431 116.501C302.47 114.205 298.51 111.927 294.531 109.631C293.673 109.14 292.814 108.527 291.92 108.124C290.676 107.563 289.817 108.229 288.783 108.825C285.12 110.945 281.457 113.084 277.812 115.204C275.008 116.834 271.889 118.289 269.242 120.181C268.664 120.602 268.384 121.075 268.331 121.566C268.191 122.074 268.156 122.635 268.156 123.126C268.138 127.314 268.138 131.485 268.121 135.674C268.103 139.091 267.928 142.544 268.086 145.961C268.156 147.24 268.944 147.679 269.891 148.239C271.363 149.081 272.835 149.939 274.307 150.78C278.373 153.129 282.456 155.477 286.522 157.826C287.626 158.457 288.695 159.14 289.817 159.736C290.062 159.859 290.29 159.946 290.518 159.981C290.693 160.034 290.886 160.069 291.079 160.069C291.85 160.069 292.516 159.561 293.164 159.193C294.251 158.562 295.338 157.931 296.442 157.3C299.666 155.425 302.908 153.549 306.133 151.674C308.306 150.412 310.549 149.221 312.688 147.871C314.528 146.697 313.844 143.437 313.862 141.562ZM289.274 146.802C289.274 149.308 289.256 151.814 289.256 154.338C289.256 154.654 289.256 154.969 289.256 155.267C287.714 154.373 286.172 153.479 284.63 152.586C280.914 150.43 277.181 148.292 273.466 146.136C272.923 145.821 272.379 145.505 271.819 145.19C271.801 145.172 271.748 145.155 271.713 145.12C271.713 144.804 271.678 144.489 271.678 144.191C271.696 140.02 271.696 135.849 271.713 131.678C271.713 129.452 271.731 127.226 271.731 125.001C271.731 124.983 271.731 124.948 271.731 124.931C271.801 124.966 271.871 125.001 271.941 125.053C272.555 125.404 273.186 125.772 273.799 126.122C276.393 127.612 278.986 129.119 281.58 130.609C283.052 131.45 284.507 132.309 285.979 133.15C287.083 133.798 288.187 134.464 289.309 135.078C289.309 135.271 289.309 135.463 289.309 135.674C289.309 139.389 289.291 143.104 289.274 146.802ZM292.516 131.17C292.06 131.433 291.57 131.678 291.096 131.941C290.763 131.766 290.43 131.608 290.168 131.45C286.592 129.382 283 127.314 279.425 125.246C277.882 124.352 276.358 123.476 274.815 122.582C274.377 122.337 273.957 122.092 273.519 121.846C278.759 118.814 283.981 115.765 289.221 112.733C289.764 112.418 290.308 112.102 290.851 111.787C290.869 111.769 290.904 111.752 290.956 111.734C291.237 111.892 291.517 112.015 291.762 112.172C295.39 114.275 299.018 116.361 302.646 118.464C304.608 119.603 306.589 120.742 308.552 121.864C307.097 122.705 305.642 123.546 304.188 124.405C301.734 125.824 299.298 127.244 296.845 128.664C295.513 129.435 294.181 130.206 292.849 130.977C292.744 131.047 292.621 131.1 292.516 131.17Z" fill="white"/>
<path d="M289.204 90.3883C289.204 92.3511 289.204 94.3139 289.204 96.2768C289.204 98.5726 292.779 98.5901 292.779 96.2768C292.779 94.3139 292.779 92.3511 292.779 90.3883C295.811 89.6172 297.984 86.9183 298.264 83.7287C298.282 83.606 298.299 83.4658 298.299 83.3256C298.299 83.1854 298.299 83.0452 298.264 82.9225C297.949 79.1195 294.934 76 290.991 76C287.013 76 283.683 79.3298 283.683 83.3081C283.701 86.6554 286.067 89.5646 289.204 90.3883ZM294.724 83.3081C294.549 88.11 287.276 88.1275 287.276 83.3081C287.276 78.4711 294.549 78.5061 294.724 83.3081Z" fill="white"/>
<path d="M290.991 99.5015C290.027 99.5365 289.204 100.29 289.204 101.289C289.204 102.113 289.204 102.919 289.204 103.743C289.204 104.671 290.027 105.583 290.991 105.53C291.955 105.495 292.779 104.742 292.779 103.743C292.779 102.919 292.779 102.113 292.779 101.289C292.779 100.343 291.973 99.4489 290.991 99.5015Z" fill="white"/>
<path d="M298.282 184.289C298.001 181.099 295.828 178.4 292.796 177.612C292.796 173.16 292.796 168.709 292.796 164.275C292.796 161.979 289.221 161.962 289.221 164.275C289.221 168.726 289.221 173.178 289.221 177.629C286.084 178.453 283.701 181.345 283.701 184.709C283.701 188.67 287.031 192.035 291.009 192.018C294.952 192 297.949 188.916 298.282 185.13C298.299 185.007 298.317 184.867 298.317 184.727C298.317 184.552 298.299 184.412 298.282 184.289ZM287.276 184.692C287.276 179.872 294.549 179.908 294.724 184.692C294.549 189.476 287.276 189.511 287.276 184.692Z" fill="white"/>
<path d="M247.616 133.991C247.599 130.048 244.514 127.051 240.729 126.718C240.606 126.701 240.466 126.683 240.326 126.683C240.185 126.683 240.045 126.683 239.922 126.718C236.12 127.051 233 130.066 233 133.991C233 137.97 236.33 141.299 240.308 141.299C244.269 141.299 247.634 137.97 247.616 133.991ZM240.308 137.724C235.489 137.724 235.524 130.451 240.308 130.276C245.092 130.451 245.128 137.724 240.308 137.724Z" fill="white"/>
<path d="M250.876 132.204C248.58 132.204 248.562 135.779 250.876 135.779C254.171 135.779 257.448 135.779 260.743 135.779C263.038 135.779 263.056 132.204 260.743 132.204C257.448 132.204 254.153 132.204 250.876 132.204Z" fill="white"/>
<path d="M342.095 126.718C341.972 126.701 341.832 126.683 341.692 126.683C341.552 126.683 341.412 126.683 341.289 126.718C338.099 126.999 335.4 129.172 334.612 132.204C330.16 132.204 325.709 132.204 321.275 132.204C318.979 132.204 318.962 135.779 321.275 135.779C325.726 135.779 330.178 135.779 334.629 135.779C335.453 138.916 338.345 141.299 341.709 141.299C345.67 141.299 349.035 137.97 349.018 133.991C348.982 130.066 345.898 127.051 342.095 126.718ZM341.692 137.724C336.872 137.724 336.908 130.451 341.692 130.276C346.476 130.451 346.511 137.724 341.692 137.724Z" fill="white"/>
<path d="M263.652 158.825C262.705 159.771 261.777 160.7 260.83 161.646C256.957 158.912 251.735 159.508 248.282 162.61C248.212 162.663 248.142 162.733 248.072 162.803C247.984 162.89 247.914 162.978 247.844 163.048C245.128 166.098 244.356 170.374 246.109 174.124C247.826 177.822 251.875 180.17 255.941 179.802C260.129 179.417 263.757 176.455 264.808 172.337C265.527 169.48 264.931 166.536 263.319 164.187C264.265 163.241 265.212 162.295 266.158 161.348C267.805 159.718 265.282 157.177 263.652 158.825ZM259.691 174.37C257.202 176.841 253.102 176.841 250.63 174.37C248.107 171.846 248.229 167.85 250.63 165.309C253.172 162.89 257.167 162.785 259.691 165.309C262.162 167.78 262.162 171.916 259.691 174.37Z" fill="white"/>
<path d="M268.331 154.128C267.77 154.689 267.209 155.249 266.649 155.81C265.983 156.476 265.93 157.685 266.649 158.334C267.367 158.982 268.471 159.035 269.172 158.334C269.733 157.773 270.294 157.212 270.855 156.651C271.521 155.986 271.573 154.776 270.855 154.128C270.154 153.479 269.032 153.427 268.331 154.128Z" fill="white"/>
<path d="M313.669 113.855C316.175 111.349 318.681 108.842 321.17 106.354C323.045 107.651 325.341 108.317 327.654 108.106C331.843 107.721 335.47 104.759 336.522 100.641C337.538 96.6098 335.926 92.3687 332.561 89.9677C328.688 87.1987 323.431 87.7946 319.978 90.8965C319.908 90.9491 319.838 91.0192 319.768 91.0893C319.68 91.1769 319.61 91.2646 319.54 91.3347C316.824 94.3841 316.052 98.6602 317.805 102.411C318.033 102.901 318.313 103.375 318.611 103.813C316.105 106.319 313.616 108.807 311.11 111.314C309.498 112.961 312.039 115.485 313.669 113.855ZM331.37 93.613C333.841 96.084 333.841 100.22 331.37 102.674C328.881 105.145 324.78 105.145 322.309 102.674C319.785 100.15 319.908 96.1541 322.309 93.613C324.85 91.212 328.846 91.1068 331.37 93.613Z" fill="white"/>
<path d="M333.911 162.785C333.823 162.698 333.735 162.628 333.665 162.558C330.616 159.841 326.34 159.07 322.589 160.823C322.099 161.05 321.625 161.331 321.187 161.629C318.681 159.123 316.193 156.634 313.686 154.128C312.057 152.498 309.533 155.022 311.163 156.651C313.669 159.158 316.175 161.664 318.664 164.152C317.367 166.028 316.701 168.323 316.911 170.637C317.297 174.825 320.258 178.453 324.377 179.504C328.408 180.521 332.649 178.909 335.05 175.544C337.819 171.671 337.223 166.413 334.121 162.961C334.033 162.908 333.981 162.838 333.911 162.785ZM331.37 174.37C328.898 176.841 324.762 176.841 322.309 174.37C319.838 171.881 319.838 167.78 322.309 165.309C324.833 162.785 328.828 162.908 331.37 165.309C333.788 167.85 333.893 171.846 331.37 174.37Z" fill="white"/>
<path d="M252.663 107.826C255.52 108.545 258.464 107.949 260.813 106.336C263.319 108.842 265.825 111.349 268.331 113.855C269.961 115.485 272.485 112.961 270.855 111.331C268.349 108.825 265.86 106.336 263.354 103.83C266.088 99.9571 265.492 94.7346 262.39 91.2821C262.337 91.212 262.267 91.1419 262.197 91.0718C262.11 90.9842 262.022 90.9141 261.952 90.844C258.902 88.1276 254.626 87.3564 250.876 89.109C247.195 90.844 244.83 94.8923 245.198 98.9582C245.601 103.147 248.545 106.792 252.663 107.826ZM250.613 93.613C253.137 91.0893 257.132 91.212 259.674 93.613C262.092 96.1541 262.197 100.15 259.674 102.674C257.202 105.145 253.066 105.145 250.613 102.674C248.142 100.202 248.142 96.1016 250.613 93.613Z" fill="white"/>
</g>
<path d="M224.15 167.146C224.15 176.584 216.443 184.293 207.004 184.293C197.566 184.293 189.858 176.584 189.858 167.146C189.858 157.708 197.566 150 207.004 150C216.521 150 224.15 157.708 224.15 167.146Z" fill="#FC9D4F"/>
<path d="M211.173 220L199.768 213.157V173.989H211.173V220Z" fill="#FC9D4F"/>
<path d="M215.735 216.775L212.589 219.921V213.708L215.735 216.775Z" fill="#FC9D4F"/>
<path d="M215.735 209.696L212.589 212.764V206.551L215.735 209.696Z" fill="#FC9D4F"/>
<path d="M215.735 202.539L212.589 205.685V199.393L215.735 202.539Z" fill="#FC9D4F"/>
<path d="M218.016 195.382L212.589 198.528V192.236L218.016 195.382Z" fill="#FC9D4F"/>
<path d="M218.016 188.225L212.589 191.37V185.157L218.016 188.225Z" fill="#FC9D4F"/>
<path d="M411.931 130.465C411.931 133.341 409.631 135.93 406.466 135.93C403.59 135.93 401 133.627 401 130.465C401 127.587 403.301 125 406.466 125C409.631 125 411.931 127.301 411.931 130.465Z" fill="#4F46E5"/>
<path d="M427.467 130.465C427.467 133.341 425.166 135.93 422.004 135.93C419.125 135.93 416.538 133.627 416.538 130.465C416.538 127.587 418.839 125 422.004 125C425.166 125 427.467 127.301 427.467 130.465Z" fill="#4F46E5"/>
<path d="M443 130.465C443 133.341 440.699 135.93 437.534 135.93C434.656 135.93 432.069 133.627 432.069 130.465C432.069 127.587 434.369 125 437.534 125C440.699 125 443 127.301 443 130.465Z" fill="#4F46E5"/>
<defs>
<clipPath id="clip0_9665_46783">
<rect width="116" height="116" fill="white" transform="translate(233 76)"/>
</clipPath>
</defs>
</svg>
