<svg width="574" height="289" viewBox="0 0 574 289" fill="none" xmlns="http://www.w3.org/2000/svg">
<rect width="574" height="289" rx="20" fill="#202D3E"/>
<path d="M257.432 60.7013C254.619 60.7013 252.327 58.4224 252.327 55.6006C252.327 52.7781 254.606 50.5 257.432 50.5C260.245 50.5 262.537 52.7789 262.537 55.6006C262.537 58.4232 260.258 60.7013 257.432 60.7013Z" fill="#FFD2A4" fill-opacity="0.27" stroke="#4F46E5"/>
<path d="M257.432 90.7196C254.619 90.7196 252.327 88.4407 252.327 85.6189C252.327 82.8095 254.607 80.5183 257.432 80.5183C260.245 80.5183 262.537 82.7972 262.537 85.6189C262.537 88.4284 260.257 90.7196 257.432 90.7196Z" fill="#FFD2A4" fill-opacity="0.27" stroke="#4F46E5"/>
<path d="M257.432 120.738C254.619 120.738 252.327 118.459 252.327 115.637C252.327 112.815 254.606 110.537 257.432 110.537C260.245 110.537 262.537 112.816 262.537 115.637C262.537 118.46 260.258 120.738 257.432 120.738Z" fill="#FFD2A4" fill-opacity="0.27" stroke="#4F46E5"/>
<path d="M257.432 150.742C254.619 150.742 252.327 148.464 252.327 145.642C252.327 142.819 254.606 140.541 257.432 140.541C260.245 140.541 262.537 142.82 262.537 145.642C262.537 148.464 260.258 150.742 257.432 150.742Z" fill="#1D262D" fill-opacity="0.16" stroke="#4F46E5"/>
<path d="M257.432 180.761C254.619 180.761 252.327 178.482 252.327 175.66C252.327 172.851 254.607 170.56 257.432 170.56C260.245 170.56 262.537 172.838 262.537 175.66C262.537 178.483 260.258 180.761 257.432 180.761Z" fill="#FFD2A4" fill-opacity="0.27" stroke="#4F46E5"/>
<path d="M257.432 210.779C254.619 210.779 252.327 208.5 252.327 205.678C252.327 202.856 254.606 200.578 257.432 200.578C260.245 200.578 262.537 202.857 262.537 205.678C262.537 208.501 260.258 210.779 257.432 210.779Z" fill="#FFD2A4" fill-opacity="0.27" stroke="#4F46E5"/>
<path d="M257.432 240.797C254.619 240.797 252.327 238.518 252.327 235.697C252.327 232.874 254.606 230.596 257.432 230.596C260.245 230.596 262.537 232.875 262.537 235.697C262.537 238.519 260.258 240.797 257.432 240.797Z" fill="#1D262D" fill-opacity="0.16" stroke="#4F46E5"/>
<path d="M239.337 55.6006C239.337 58.4173 237.052 60.7013 234.232 60.7013C231.412 60.7013 229.127 58.4173 229.127 55.6006C229.127 52.784 231.412 50.5 234.232 50.5C237.052 50.5 239.337 52.784 239.337 55.6006Z" fill="#FFD2A4" fill-opacity="0.27" stroke="#4F46E5"/>
<path d="M234.232 91.2196C231.144 91.2196 228.627 88.7181 228.627 85.6189C228.627 82.5337 231.13 80.0183 234.232 80.0183C237.32 80.0183 239.837 82.5198 239.837 85.6189C239.837 88.7042 237.32 91.2196 234.232 91.2196Z" stroke="#4F46E5" stroke-miterlimit="10"/>
<path d="M239.337 115.637C239.337 118.454 237.052 120.738 234.232 120.738C231.412 120.738 229.127 118.454 229.127 115.637C229.127 112.821 231.412 110.537 234.232 110.537C237.052 110.537 239.337 112.821 239.337 115.637Z" fill="#FFD2A4" fill-opacity="0.27" stroke="#4F46E5"/>
<path d="M239.337 145.656C239.337 148.472 237.052 150.756 234.232 150.756C231.412 150.756 229.127 148.472 229.127 145.656C229.127 142.839 231.412 140.555 234.232 140.555C237.052 140.555 239.337 142.839 239.337 145.656Z" fill="#FFD2A4" fill-opacity="0.27" stroke="#4F46E5"/>
<path d="M234.232 180.761C231.419 180.761 229.127 178.482 229.127 175.66C229.127 172.851 231.407 170.56 234.232 170.56C237.045 170.56 239.337 172.838 239.337 175.66C239.337 178.482 237.045 180.761 234.232 180.761Z" fill="#FFD2A4" fill-opacity="0.27" stroke="#4F46E5"/>
<path d="M234.232 211.293C237.328 211.293 239.837 208.785 239.837 205.692C239.837 202.599 237.328 200.092 234.232 200.092C231.136 200.092 228.627 202.599 228.627 205.692C228.627 208.785 231.136 211.293 234.232 211.293Z" stroke="#4F46E5" stroke-miterlimit="10"/>
<path d="M239.337 235.711C239.337 238.527 237.052 240.811 234.232 240.811C231.412 240.811 229.127 238.527 229.127 235.711C229.127 232.894 231.412 230.61 234.232 230.61C237.052 230.61 239.337 232.894 239.337 235.711Z" fill="#FFD2A4" fill-opacity="0.27" stroke="#4F46E5"/>
<path d="M216.124 55.6006C216.124 58.4173 213.839 60.7013 211.019 60.7013C208.199 60.7013 205.913 58.4173 205.913 55.6006C205.913 52.784 208.199 50.5 211.019 50.5C213.839 50.5 216.124 52.784 216.124 55.6006Z" fill="#FFD2A4" fill-opacity="0.27" stroke="#4F46E5"/>
<path d="M211.019 90.7196C208.206 90.7196 205.913 88.4407 205.913 85.6189C205.913 82.8095 208.194 80.5183 211.019 80.5183C213.845 80.5183 216.124 82.7964 216.124 85.6189C216.124 88.4284 213.844 90.7196 211.019 90.7196Z" fill="#FFD2A4" fill-opacity="0.27" stroke="#4F46E5"/>
<path d="M216.124 115.637C216.124 118.454 213.839 120.738 211.019 120.738C208.199 120.738 205.913 118.454 205.913 115.637C205.913 112.821 208.199 110.537 211.019 110.537C213.839 110.537 216.124 112.821 216.124 115.637Z" fill="#FFD2A4" fill-opacity="0.27" stroke="#4F46E5"/>
<path d="M216.124 145.656C216.124 148.472 213.839 150.756 211.019 150.756C208.199 150.756 205.913 148.472 205.913 145.656C205.913 142.839 208.199 140.555 211.019 140.555C213.839 140.555 216.124 142.839 216.124 145.656Z" fill="#FFD2A4" fill-opacity="0.27" stroke="#4F46E5"/>
<path d="M211.019 180.761C208.206 180.761 205.913 178.482 205.913 175.66C205.913 172.851 208.194 170.56 211.019 170.56C213.845 170.56 216.124 172.838 216.124 175.66C216.124 178.483 213.845 180.761 211.019 180.761Z" fill="#1D262D" fill-opacity="0.16" stroke="#4F46E5"/>
<path d="M216.124 205.692C216.124 208.509 213.839 210.793 211.019 210.793C208.199 210.793 205.913 208.509 205.913 205.692C205.913 202.876 208.199 200.592 211.019 200.592C213.839 200.592 216.124 202.876 216.124 205.692Z" fill="#FFD2A4" fill-opacity="0.27" stroke="#4F46E5"/>
<path d="M216.124 235.711C216.124 238.527 213.839 240.811 211.019 240.811C208.199 240.811 205.913 238.527 205.913 235.711C205.913 232.894 208.199 230.61 211.019 230.61C213.839 230.61 216.124 232.894 216.124 235.711Z" fill="#FFD2A4" fill-opacity="0.27" stroke="#4F46E5"/>
<path d="M192.91 55.6006C192.91 58.4173 190.625 60.7013 187.805 60.7013C184.985 60.7013 182.7 58.4173 182.7 55.6006C182.7 52.784 184.985 50.5 187.805 50.5C190.625 50.5 192.91 52.784 192.91 55.6006Z" fill="#FFD2A4" fill-opacity="0.27" stroke="#4F46E5"/>
<path d="M187.805 90.7196C184.992 90.7196 182.7 88.4407 182.7 85.6189C182.7 82.8095 184.98 80.5183 187.805 80.5183C190.631 80.5183 192.91 82.7964 192.91 85.6189C192.91 88.4284 190.63 90.7196 187.805 90.7196Z" fill="#1D262D" fill-opacity="0.16" stroke="#4F46E5"/>
<path d="M192.91 115.637C192.91 118.454 190.625 120.738 187.805 120.738C184.985 120.738 182.7 118.454 182.7 115.637C182.7 112.821 184.985 110.537 187.805 110.537C190.625 110.537 192.91 112.821 192.91 115.637Z" fill="#FFD2A4" fill-opacity="0.27" stroke="#4F46E5"/>
<path d="M187.805 151.256C190.9 151.256 193.41 148.749 193.41 145.656C193.41 142.562 190.9 140.055 187.805 140.055C184.709 140.055 182.2 142.562 182.2 145.656C182.2 148.749 184.709 151.256 187.805 151.256Z" stroke="#4F46E5" stroke-miterlimit="10"/>
<path d="M187.805 180.761C184.992 180.761 182.7 178.482 182.7 175.66C182.7 172.851 184.98 170.56 187.805 170.56C190.631 170.56 192.91 172.838 192.91 175.66C192.91 178.483 190.631 180.761 187.805 180.761Z" fill="#FFD2A4" fill-opacity="0.27" stroke="#4F46E5"/>
<path d="M192.91 205.692C192.91 208.509 190.625 210.793 187.805 210.793C184.985 210.793 182.7 208.509 182.7 205.692C182.7 202.876 184.985 200.592 187.805 200.592C190.625 200.592 192.91 202.876 192.91 205.692Z" fill="#FFD2A4" fill-opacity="0.27" stroke="#4F46E5"/>
<path d="M192.91 235.711C192.91 238.527 190.625 240.811 187.805 240.811C184.985 240.811 182.7 238.527 182.7 235.711C182.7 232.894 184.985 230.61 187.805 230.61C190.625 230.61 192.91 232.894 192.91 235.711Z" fill="#FFD2A4" fill-opacity="0.27" stroke="#4F46E5"/>
<path d="M164.605 61.2013C167.701 61.2013 170.21 58.6938 170.21 55.6006C170.21 52.5075 167.701 50 164.605 50C161.51 50 159 52.5075 159 55.6006C159 58.6938 161.51 61.2013 164.605 61.2013Z" stroke="#4F46E5" stroke-miterlimit="10"/>
<path d="M164.605 90.7196C161.792 90.7196 159.5 88.4407 159.5 85.6189C159.5 82.8095 161.78 80.5183 164.605 80.5183C167.418 80.5183 169.71 82.7972 169.71 85.6189C169.71 88.4276 167.417 90.7196 164.605 90.7196Z" fill="#FFD2A4" fill-opacity="0.27" stroke="#4F46E5"/>
<path d="M169.71 115.637C169.71 118.454 167.425 120.738 164.605 120.738C161.785 120.738 159.5 118.454 159.5 115.637C159.5 112.821 161.785 110.537 164.605 110.537C167.425 110.537 169.71 112.821 169.71 115.637Z" fill="#FFD2A4" fill-opacity="0.27" stroke="#4F46E5"/>
<path d="M169.71 145.656C169.71 148.472 167.425 150.756 164.605 150.756C161.785 150.756 159.5 148.472 159.5 145.656C159.5 142.839 161.785 140.555 164.605 140.555C167.425 140.555 169.71 142.839 169.71 145.656Z" fill="#FFD2A4" fill-opacity="0.27" stroke="#4F46E5"/>
<path d="M164.605 180.761C161.792 180.761 159.5 178.482 159.5 175.66C159.5 172.851 161.78 170.56 164.605 170.56C167.418 170.56 169.71 172.838 169.71 175.66C169.71 178.482 167.418 180.761 164.605 180.761Z" fill="#FFD2A4" fill-opacity="0.27" stroke="#4F46E5"/>
<path d="M169.71 205.692C169.71 208.509 167.425 210.793 164.605 210.793C161.785 210.793 159.5 208.509 159.5 205.692C159.5 202.876 161.785 200.592 164.605 200.592C167.425 200.592 169.71 202.876 169.71 205.692Z" fill="#FFD2A4" fill-opacity="0.27" stroke="#4F46E5"/>
<path d="M169.71 235.711C169.71 238.527 167.425 240.811 164.605 240.811C161.785 240.811 159.5 238.527 159.5 235.711C159.5 232.894 161.785 230.61 164.605 230.61C167.425 230.61 169.71 232.894 169.71 235.711Z" fill="#FFD2A4" fill-opacity="0.27" stroke="#4F46E5"/>
<path d="M426.24 160.706C426.24 158.581 427.964 156.849 430.101 156.849C432.238 156.849 433.961 158.571 433.961 160.706C433.961 162.83 432.237 164.563 430.101 164.563C427.963 164.563 426.24 162.84 426.24 160.706Z" fill="#FFD2A4" fill-opacity="0.27" stroke="#4F46E5"/>
<path d="M402.866 160.706C402.866 158.581 404.59 156.849 406.727 156.849C408.854 156.849 410.588 158.572 410.588 160.706C410.588 162.83 408.863 164.563 406.727 164.563C404.6 164.563 402.866 162.84 402.866 160.706Z" fill="#FFD2A4" fill-opacity="0.27" stroke="#4F46E5"/>
<path d="M379.493 160.706C379.493 158.581 381.217 156.849 383.354 156.849C385.491 156.849 387.215 158.571 387.215 160.706C387.215 162.83 385.49 164.563 383.354 164.563C381.217 164.563 379.493 162.84 379.493 160.706Z" fill="#FFD2A4" fill-opacity="0.27" stroke="#4F46E5"/>
<path d="M356.13 160.706C356.13 158.581 357.855 156.849 359.991 156.849C362.129 156.849 363.852 158.571 363.852 160.706C363.852 162.83 362.128 164.563 359.991 164.563C357.854 164.563 356.13 162.84 356.13 160.706Z" fill="#1D262D" fill-opacity="0.16" stroke="#4F46E5"/>
<path d="M332.757 160.706C332.757 158.581 334.481 156.849 336.618 156.849C338.745 156.849 340.479 158.572 340.479 160.706C340.479 162.83 338.754 164.563 336.618 164.563C334.48 164.563 332.757 162.84 332.757 160.706Z" fill="#FFD2A4" fill-opacity="0.27" stroke="#4F46E5"/>
<path d="M309.383 160.706C309.383 158.581 311.108 156.849 313.244 156.849C315.381 156.849 317.105 158.571 317.105 160.706C317.105 162.83 315.381 164.563 313.244 164.563C311.107 164.563 309.383 162.84 309.383 160.706Z" fill="#FFD2A4" fill-opacity="0.27" stroke="#4F46E5"/>
<path d="M286.01 160.706C286.01 158.581 287.735 156.849 289.871 156.849C292.008 156.849 293.732 158.571 293.732 160.706C293.732 162.83 292.008 164.563 289.871 164.563C287.734 164.563 286.01 162.84 286.01 160.706Z" fill="#1D262D" fill-opacity="0.16" stroke="#4F46E5"/>
<path d="M430.101 146.529C427.968 146.529 426.24 144.801 426.24 142.671C426.24 140.541 427.968 138.814 430.101 138.814C432.233 138.814 433.961 140.541 433.961 142.671C433.961 144.801 432.233 146.529 430.101 146.529Z" fill="#FFD2A4" fill-opacity="0.27" stroke="#4F46E5"/>
<path d="M402.366 142.671C402.366 140.271 404.314 138.314 406.727 138.314C409.129 138.314 411.088 140.26 411.088 142.671C411.088 145.072 409.14 147.029 406.727 147.029C404.325 147.029 402.366 145.072 402.366 142.671Z" stroke="#4F46E5" stroke-miterlimit="10"/>
<path d="M383.354 146.529C381.221 146.529 379.493 144.801 379.493 142.671C379.493 140.541 381.221 138.814 383.354 138.814C385.487 138.814 387.215 140.541 387.215 142.671C387.215 144.801 385.487 146.529 383.354 146.529Z" fill="#FFD2A4" fill-opacity="0.27" stroke="#4F46E5"/>
<path d="M359.98 146.529C357.848 146.529 356.12 144.801 356.12 142.671C356.12 140.541 357.848 138.814 359.98 138.814C362.113 138.814 363.841 140.541 363.841 142.671C363.841 144.801 362.113 146.529 359.98 146.529Z" fill="#FFD2A4" fill-opacity="0.27" stroke="#4F46E5"/>
<path d="M332.757 142.671C332.757 140.547 334.481 138.814 336.618 138.814C338.745 138.814 340.479 140.537 340.479 142.671C340.479 144.796 338.754 146.529 336.618 146.529C334.481 146.529 332.757 144.796 332.757 142.671Z" fill="#FFD2A4" fill-opacity="0.27" stroke="#4F46E5"/>
<path d="M308.873 142.671C308.873 145.078 310.825 147.029 313.234 147.029C315.642 147.029 317.595 145.078 317.595 142.671C317.595 140.265 315.642 138.314 313.234 138.314C310.825 138.314 308.873 140.265 308.873 142.671Z" stroke="#4F46E5" stroke-miterlimit="10"/>
<path d="M289.86 146.529C287.728 146.529 285.999 144.801 285.999 142.671C285.999 140.541 287.728 138.814 289.86 138.814C291.993 138.814 293.721 140.541 293.721 142.671C293.721 144.801 291.993 146.529 289.86 146.529Z" fill="#FFD2A4" fill-opacity="0.27" stroke="#4F46E5"/>
<path d="M430.101 128.483C427.968 128.483 426.24 126.756 426.24 124.626C426.24 122.496 427.968 120.768 430.101 120.768C432.233 120.768 433.961 122.496 433.961 124.626C433.961 126.756 432.233 128.483 430.101 128.483Z" fill="#FFD2A4" fill-opacity="0.27" stroke="#4F46E5"/>
<path d="M402.866 124.625C402.866 122.501 404.59 120.768 406.727 120.768C408.854 120.768 410.588 122.492 410.588 124.625C410.588 126.76 408.864 128.483 406.727 128.483C404.6 128.483 402.866 126.759 402.866 124.625Z" fill="#FFD2A4" fill-opacity="0.27" stroke="#4F46E5"/>
<path d="M383.354 128.483C381.221 128.483 379.493 126.756 379.493 124.626C379.493 122.496 381.221 120.768 383.354 120.768C385.487 120.768 387.215 122.496 387.215 124.626C387.215 126.756 385.487 128.483 383.354 128.483Z" fill="#FFD2A4" fill-opacity="0.27" stroke="#4F46E5"/>
<path d="M359.98 128.483C357.848 128.483 356.12 126.755 356.12 124.625C356.12 122.495 357.848 120.768 359.98 120.768C362.113 120.768 363.841 122.495 363.841 124.625C363.841 126.755 362.113 128.483 359.98 128.483Z" fill="#FFD2A4" fill-opacity="0.27" stroke="#4F46E5"/>
<path d="M332.757 124.626C332.757 122.501 334.481 120.768 336.618 120.768C338.745 120.768 340.479 122.492 340.479 124.626C340.479 126.76 338.755 128.483 336.618 128.483C334.48 128.483 332.757 126.76 332.757 124.626Z" fill="#1D262D" fill-opacity="0.16" stroke="#4F46E5"/>
<path d="M313.234 128.483C311.101 128.483 309.373 126.755 309.373 124.625C309.373 122.495 311.101 120.768 313.234 120.768C315.366 120.768 317.095 122.495 317.095 124.625C317.095 126.755 315.366 128.483 313.234 128.483Z" fill="#FFD2A4" fill-opacity="0.27" stroke="#4F46E5"/>
<path d="M289.86 128.483C287.728 128.483 285.999 126.756 285.999 124.626C285.999 122.496 287.728 120.768 289.86 120.768C291.993 120.768 293.721 122.496 293.721 124.626C293.721 126.756 291.993 128.483 289.86 128.483Z" fill="#FFD2A4" fill-opacity="0.27" stroke="#4F46E5"/>
<path d="M430.101 110.437C427.968 110.437 426.24 108.71 426.24 106.58C426.24 104.45 427.968 102.723 430.101 102.723C432.233 102.723 433.961 104.45 433.961 106.58C433.961 108.71 432.233 110.437 430.101 110.437Z" fill="#FFD2A4" fill-opacity="0.27" stroke="#4F46E5"/>
<path d="M402.866 106.58C402.866 104.455 404.59 102.723 406.727 102.723C408.854 102.723 410.588 104.446 410.588 106.58C410.588 108.715 408.864 110.437 406.727 110.437C404.6 110.437 402.866 108.714 402.866 106.58Z" fill="#1D262D" fill-opacity="0.16" stroke="#4F46E5"/>
<path d="M383.354 110.437C381.221 110.437 379.493 108.71 379.493 106.58C379.493 104.45 381.221 102.723 383.354 102.723C385.487 102.723 387.215 104.45 387.215 106.58C387.215 108.71 385.487 110.437 383.354 110.437Z" fill="#FFD2A4" fill-opacity="0.27" stroke="#4F46E5"/>
<path d="M355.62 106.58C355.62 108.986 357.572 110.937 359.98 110.937C362.389 110.937 364.341 108.986 364.341 106.58C364.341 104.173 362.389 102.223 359.98 102.223C357.572 102.223 355.62 104.173 355.62 106.58Z" stroke="#4F46E5" stroke-miterlimit="10"/>
<path d="M332.757 106.58C332.757 104.455 334.481 102.723 336.618 102.723C338.745 102.723 340.479 104.446 340.479 106.58C340.479 108.715 338.755 110.437 336.618 110.437C334.48 110.437 332.757 108.715 332.757 106.58Z" fill="#FFD2A4" fill-opacity="0.27" stroke="#4F46E5"/>
<path d="M313.234 110.437C311.101 110.437 309.373 108.71 309.373 106.58C309.373 104.45 311.101 102.723 313.234 102.723C315.366 102.723 317.095 104.45 317.095 106.58C317.095 108.71 315.366 110.437 313.234 110.437Z" fill="#FFD2A4" fill-opacity="0.27" stroke="#4F46E5"/>
<path d="M289.86 110.437C287.728 110.437 285.999 108.71 285.999 106.58C285.999 104.45 287.728 102.723 289.86 102.723C291.993 102.723 293.721 104.45 293.721 106.58C293.721 108.71 291.993 110.437 289.86 110.437Z" fill="#FFD2A4" fill-opacity="0.27" stroke="#4F46E5"/>
<path d="M425.74 88.5452C425.74 90.9517 427.692 92.9025 430.101 92.9025C432.509 92.9025 434.461 90.9517 434.461 88.5452C434.461 86.1387 432.509 84.1879 430.101 84.1879C427.692 84.1879 425.74 86.1387 425.74 88.5452Z" stroke="#4F46E5" stroke-miterlimit="10"/>
<path d="M402.866 88.5452C402.866 86.4206 404.59 84.6879 406.727 84.6879C408.854 84.6879 410.588 86.4114 410.588 88.5452C410.588 90.6698 408.863 92.4025 406.727 92.4025C404.6 92.4025 402.866 90.669 402.866 88.5452Z" fill="#FFD2A4" fill-opacity="0.27" stroke="#4F46E5"/>
<path d="M383.354 92.4025C381.221 92.4025 379.493 90.6751 379.493 88.5452C379.493 86.4152 381.221 84.6879 383.354 84.6879C385.487 84.6879 387.215 86.4152 387.215 88.5452C387.215 90.6751 385.487 92.4025 383.354 92.4025Z" fill="#FFD2A4" fill-opacity="0.27" stroke="#4F46E5"/>
<path d="M359.98 92.4025C357.848 92.4025 356.12 90.6751 356.12 88.5452C356.12 86.4152 357.848 84.6879 359.98 84.6879C362.113 84.6879 363.841 86.4152 363.841 88.5452C363.841 90.6751 362.113 92.4025 359.98 92.4025Z" fill="#FFD2A4" fill-opacity="0.27" stroke="#4F46E5"/>
<path d="M332.757 88.5452C332.757 86.4206 334.481 84.6879 336.618 84.6879C338.745 84.6879 340.479 86.4114 340.479 88.5452C340.479 90.6698 338.754 92.4025 336.618 92.4025C334.481 92.4025 332.757 90.6698 332.757 88.5452Z" fill="#FFD2A4" fill-opacity="0.27" stroke="#4F46E5"/>
<path d="M313.234 92.4025C311.101 92.4025 309.373 90.6751 309.373 88.5452C309.373 86.4152 311.101 84.6879 313.234 84.6879C315.366 84.6879 317.095 86.4152 317.095 88.5452C317.095 90.6751 315.366 92.4025 313.234 92.4025Z" fill="#FFD2A4" fill-opacity="0.27" stroke="#4F46E5"/>
<path d="M289.86 92.4025C287.728 92.4025 285.999 90.6751 285.999 88.5452C285.999 86.4152 287.728 84.6879 289.86 84.6879C291.993 84.6879 293.721 86.4152 293.721 88.5452C293.721 90.6751 291.993 92.4025 289.86 92.4025Z" fill="#FFD2A4" fill-opacity="0.27" stroke="#4F46E5"/>
<path d="M398.528 167.896C398.399 167.896 398.14 167.767 398.01 167.637C397.75 167.377 397.75 166.858 398.01 166.599L425.255 139.354C425.514 139.094 426.033 139.094 426.294 139.354C426.553 139.613 426.553 140.132 426.294 140.392L399.047 167.637C398.918 167.767 398.659 167.896 398.528 167.896Z" fill="#4F46E5"/>
<path d="M393.34 169.063C393.34 171.269 395.156 173.085 397.362 173.085C399.568 173.085 401.384 171.269 401.384 169.063C401.384 166.859 399.568 165.042 397.362 165.042C395.156 165.042 393.34 166.859 393.34 169.063Z" fill="white"/>
<path d="M397.362 165.819C395.546 165.819 394.119 167.247 394.119 169.063C394.119 170.88 395.546 172.307 397.362 172.307C399.178 172.307 400.606 170.88 400.606 169.063C400.606 167.247 399.178 165.819 397.362 165.819ZM397.362 173.734C394.768 173.734 392.691 171.659 392.691 169.063C392.691 166.469 394.768 164.393 397.362 164.393C399.957 164.393 402.032 166.469 402.032 169.063C402.032 171.659 399.957 173.734 397.362 173.734Z" fill="#FFC24D"/>
<path d="M395.934 208.764C417.86 208.764 435.764 190.86 435.764 168.934C435.764 147.008 417.86 129.104 395.934 129.104C374.008 129.104 356.104 147.008 356.104 168.934H343C343 139.742 366.743 116 395.934 116C425.126 116 448.868 139.742 448.868 168.934C448.868 198.126 425.126 221.868 395.934 221.868V208.764Z" fill="#4F46E5"/>
<path d="M448.498 169.434C448.23 197.954 425.085 221.098 396.566 221.366V209.261C418.373 208.994 436.126 191.241 436.393 169.434H448.498Z" fill="white" stroke="#4F46E5"/>
<path d="M331.376 118.856C331.251 118.928 331.125 119 331 119.071C329.762 119.788 328.543 120.506 327.306 121.223C326.786 121.528 326.266 121.886 325.728 122.173C325.728 122.675 325.674 123.195 325.638 123.679C325.62 124.164 325.602 124.63 325.602 125.096C325.602 127.929 325.584 130.762 325.584 133.595C325.584 135.173 325.584 136.751 325.566 138.329C325.566 140.337 325.549 142.328 325.549 144.336C327.7 143.081 329.834 141.843 331.986 140.588C333.241 139.871 334.478 139.136 335.733 138.419C335.787 138.383 335.859 138.347 335.913 138.311C336.379 137.988 336.935 137.719 337.455 137.415C337.993 137.11 338.53 136.787 339.068 136.482C339.284 136.357 339.517 136.231 339.732 136.106C339.75 136.088 339.768 136.088 339.786 136.07C341.077 135.317 342.368 134.563 343.659 133.81C343.999 133.613 344.322 133.398 344.663 133.219C344.663 132.466 344.663 131.712 344.663 130.959C344.663 129.059 344.681 127.158 344.681 125.257C344.681 124.648 344.627 124.02 344.681 123.446C344.681 123.375 344.681 123.303 344.681 123.213C344.681 122.496 344.681 121.779 344.681 121.079C344.681 119.071 344.699 117.063 344.699 115.055C344.699 113.764 344.699 112.491 344.717 111.2C342.457 112.526 340.126 113.8 337.867 115.109C335.715 116.346 333.546 117.601 331.376 118.856Z" fill="#F8FAFC" fill-opacity="0.3"/>
<path d="M346.51 146.918C346.259 146.649 345.954 146.398 345.595 146.201C342.619 144.479 339.642 142.758 336.666 141.054C338.979 139.71 341.31 138.365 343.623 137.002C345.29 136.034 347.317 135.388 347.352 133.201C347.406 130.403 347.37 127.588 347.37 124.791C347.37 122.478 343.784 122.478 343.784 124.791C343.784 127.158 343.766 129.543 343.766 131.91C343.766 132.143 343.748 132.394 343.73 132.645C343.139 132.986 342.493 133.523 342.135 133.721C338.817 135.657 335.5 137.576 332.183 139.512C331.537 139.889 330.892 140.265 330.246 140.642C328.991 141.359 327.754 142.094 326.499 142.812C326.427 142.848 326.355 142.883 326.302 142.937C326.302 141.108 326.32 139.279 326.32 137.45C326.32 137.397 326.32 137.361 326.32 137.307C326.338 132.824 326.481 128.324 326.409 123.823C326.445 123.464 326.463 123.07 326.481 122.711C326.875 122.46 327.27 122.191 327.611 121.994C328.005 121.761 328.382 121.546 328.776 121.313C331.806 119.555 334.837 117.798 337.867 116.023C339.804 114.893 341.74 113.764 343.695 112.634C343.748 112.598 343.802 112.562 343.874 112.526C343.874 112.993 343.874 113.441 343.874 113.907C343.874 115.324 343.874 116.722 343.856 118.139C343.856 120.452 347.442 120.452 347.442 118.139C347.442 116.579 347.442 115.019 347.46 113.459C347.46 112.06 347.872 109.891 347.137 108.635C347.119 108.6 347.084 108.564 347.066 108.528C346.635 107.846 345.757 107.38 345.039 106.968C343.444 106.053 341.848 105.121 340.252 104.207C336.271 101.911 332.291 99.6162 328.31 97.321C327.377 96.7831 326.445 96.1197 325.459 95.6714C324.024 95.008 322.877 95.9762 321.675 96.6755C319.183 98.1279 316.709 99.5624 314.216 101.015C314.216 98.8272 314.234 96.6217 314.234 94.4342C314.234 92.9639 314.7 90.5611 313.929 89.1984C313.911 89.1804 313.911 89.1625 313.893 89.1446C313.481 88.3377 312.477 87.8894 311.688 87.4411C307.958 85.2894 304.229 83.1377 300.499 80.986C297.792 79.426 295.084 77.5254 292.251 76.2164C290.942 75.6426 290.045 76.324 288.988 76.9337C287.392 77.8481 285.814 78.7805 284.218 79.695C280.237 82.0081 276.257 84.3212 272.276 86.6343C271.361 87.1722 270.357 87.6384 269.497 88.248C268.923 88.6604 268.636 89.1266 268.564 89.6108C268.421 89.9515 268.331 90.3639 268.331 90.7942C268.259 94.2011 268.277 97.6079 268.295 101.015C266.556 100.011 264.835 99.0066 263.095 98.0204C261.768 97.2493 260.442 96.3169 259.043 95.6714C257.752 95.0797 256.855 95.7431 255.78 96.3707C254.184 97.2852 252.606 98.2176 251.01 99.1321C247.029 101.445 243.049 103.758 239.068 106.071C238.154 106.609 237.149 107.075 236.289 107.685C235.823 108.026 235.554 108.402 235.428 108.779C235.159 109.424 235.123 110.249 235.123 110.949C235.123 112.742 235.105 114.535 235.105 116.328C235.087 120.99 235.087 125.652 235.069 130.296C235.069 131.39 234.962 132.519 235.051 133.613C235.177 135.155 236.486 135.621 237.651 136.303C240.359 137.863 243.049 139.476 245.738 141.072C244.232 141.951 242.744 142.812 241.238 143.69C240.269 144.246 237.293 145.501 235.948 147.007C235.518 147.276 235.213 147.761 235.123 148.55C234.944 150.11 235.105 151.777 235.105 153.355C235.105 155.668 238.691 155.668 238.691 153.355C238.691 152.692 238.691 152.046 238.691 151.383C239.05 151.598 239.427 151.813 239.785 152.01C240.287 152.297 240.771 152.584 241.273 152.871C244.573 154.772 247.872 156.672 251.171 158.591C252.283 159.236 253.395 159.882 254.506 160.527C255.009 160.814 255.636 161.298 256.246 161.657C256.174 163.342 256.3 165.1 256.3 166.767C256.282 170.551 256.282 174.334 256.264 178.1C256.264 179.337 256.264 180.574 256.246 181.811C256.138 181.74 256.013 181.686 255.905 181.614C253.735 180.359 251.566 179.122 249.414 177.866C247.119 176.54 244.824 175.213 242.529 173.886C241.291 173.169 239.965 172.182 238.638 171.555C238.638 171.519 238.638 171.501 238.638 171.465C238.638 170.246 238.638 169.044 238.656 167.825C238.656 165.512 235.069 165.512 235.069 167.825C235.069 169.349 234.926 170.945 235.051 172.469C235.159 173.742 235.93 174.191 236.898 174.747C239.839 176.45 242.78 178.135 245.702 179.839C248.948 181.704 252.175 183.586 255.421 185.451C256.084 185.828 256.82 186.402 257.591 186.527C257.77 186.563 257.931 186.563 258.093 186.545C258.111 186.545 258.129 186.545 258.146 186.545C258.989 186.545 259.617 186.061 260.316 185.666C261.446 185.003 262.575 184.357 263.705 183.694C265.229 182.815 266.753 181.919 268.277 181.04C268.242 184.626 268.08 188.248 268.259 191.835C268.331 193.215 269.192 193.664 270.214 194.255C271.72 195.116 273.226 195.995 274.732 196.855C278.785 199.186 282.819 201.535 286.872 203.866C287.912 204.476 288.934 205.121 290.01 205.677C290.368 205.857 290.709 205.946 291.032 205.964C291.139 205.982 291.247 206 291.354 206C292.376 206 293.381 205.193 294.223 204.709C295.945 203.705 297.666 202.719 299.369 201.715C303.207 199.491 307.044 197.25 310.881 195.026C311.634 194.596 312.477 194.201 313.176 193.699C314.485 192.731 314.145 190.974 314.145 189.522C314.145 186.688 314.162 183.855 314.162 181.04C315.669 181.901 317.175 182.78 318.663 183.64C319.99 184.411 321.317 185.164 322.626 185.935C322.984 186.133 323.361 186.294 323.738 186.384C323.989 186.509 324.258 186.581 324.526 186.581C325.549 186.581 326.553 185.774 327.395 185.29C329.117 184.286 330.838 183.3 332.542 182.295C336.379 180.072 340.216 177.831 344.053 175.607C344.806 175.177 345.649 174.782 346.348 174.28C347.478 173.438 347.317 172.236 347.317 170.999C347.335 166.785 347.335 162.571 347.352 158.358C347.352 155.973 347.37 153.606 347.37 151.221C347.37 150.11 347.639 148.55 347.048 147.527C346.958 147.276 346.743 147.061 346.51 146.918ZM313.266 105.713C315.938 104.153 318.609 102.611 321.281 101.051C322.07 100.584 322.859 100.136 323.648 99.67C323.755 99.5983 324.114 99.4548 324.455 99.2755C324.724 99.419 324.993 99.5445 325.226 99.6879C328.848 101.768 332.452 103.866 336.074 105.946C338.01 107.058 339.929 108.169 341.866 109.281C341.919 109.317 341.991 109.353 342.045 109.389C341.686 109.586 341.328 109.801 340.987 109.998C339.786 110.697 338.602 111.397 337.401 112.078C334.353 113.853 331.286 115.628 328.238 117.404C327.557 117.798 326.875 118.193 326.194 118.587C325.71 118.856 325.046 119.143 324.473 119.466C324.186 119.304 323.881 119.143 323.594 118.982C322.68 118.462 321.765 117.924 320.851 117.404C318.34 115.951 315.83 114.499 313.32 113.064C311.186 111.827 309.052 110.608 306.936 109.371C307.51 109.03 308.084 108.707 308.658 108.366C310.146 107.524 311.831 106.735 313.266 105.713ZM314.198 128.951C314.198 128.879 314.18 128.826 314.162 128.754C314.162 128.736 314.145 128.7 314.145 128.682C314.127 128.592 314.091 128.503 314.073 128.413C314.073 128.395 314.055 128.377 314.055 128.359C314.019 128.252 313.965 128.162 313.911 128.055C313.911 128.055 313.911 128.055 313.911 128.037C313.84 127.893 313.75 127.768 313.66 127.642C313.642 127.624 313.642 127.606 313.625 127.588C313.248 127.104 312.62 126.835 312.1 126.53C311.132 125.975 310.164 125.419 309.196 124.845C307.833 124.056 306.488 123.285 305.125 122.496C305.125 121.438 305.125 120.362 305.143 119.304C305.179 118.856 305.143 118.39 305.143 117.906C305.143 116.22 305.161 114.535 305.161 112.849C305.161 112.724 305.161 112.598 305.161 112.473C310.433 115.521 315.722 118.569 320.994 121.617C321.514 121.922 322.142 122.424 322.769 122.765C322.769 123.052 322.787 123.357 322.787 123.626C322.769 127.732 322.769 131.838 322.751 135.926C322.751 138.239 322.733 140.57 322.733 142.883C321.335 142.076 319.936 141.27 318.538 140.463C317.103 139.638 315.669 138.813 314.234 137.988C314.234 136.536 314.234 135.066 314.252 133.613C314.252 132.663 314.252 131.712 314.252 130.762C314.216 130.188 314.288 129.561 314.198 128.951ZM310.594 144.892C310.594 146.631 310.576 148.37 310.576 150.109C310.576 150.809 310.576 151.49 310.576 152.189C310.271 152.369 309.967 152.566 309.662 152.745C308.478 153.427 307.295 154.126 306.111 154.807C306.094 154.825 306.076 154.825 306.058 154.843C305.86 154.969 305.663 155.076 305.448 155.202C304.964 155.489 304.462 155.776 303.978 156.063C303.512 156.332 302.992 156.583 302.561 156.887C302.507 156.923 302.454 156.959 302.4 156.977C301.252 157.64 300.123 158.304 298.975 158.967C297.021 160.115 295.048 161.245 293.094 162.392C293.094 160.563 293.112 158.734 293.112 156.905C293.112 155.471 293.112 154.018 293.13 152.584C293.13 150.002 293.147 147.402 293.147 144.82C293.147 144.39 293.165 143.959 293.183 143.529C293.219 143.099 293.273 142.614 293.273 142.166C293.757 141.897 294.241 141.574 294.707 141.288C295.837 140.624 296.967 139.979 298.096 139.315C298.222 139.243 298.33 139.172 298.455 139.118C300.427 137.97 302.418 136.823 304.39 135.657C306.47 134.456 308.586 133.308 310.648 132.089C310.648 133.272 310.648 134.438 310.63 135.621C310.63 137.45 310.612 139.297 310.612 141.126C310.612 141.772 310.612 142.435 310.612 143.081C310.612 143.152 310.612 143.224 310.612 143.278C310.558 143.762 310.594 144.336 310.594 144.892ZM268.331 129.292C268.331 129.417 268.331 129.525 268.331 129.65C268.331 129.758 268.331 129.866 268.331 129.991C268.331 130.493 268.331 130.995 268.331 131.479C268.331 133.667 268.313 135.854 268.313 138.024C267.47 138.508 266.628 139.01 265.767 139.494C265.032 139.925 264.315 140.337 263.579 140.768C262.342 141.485 261.105 142.202 259.886 142.919C259.886 141.09 259.904 139.261 259.904 137.432C259.922 133.165 259.922 128.879 259.94 124.612C259.94 124.092 260.047 123.339 260.047 122.675C260.531 122.406 261.015 122.084 261.482 121.797C264.745 119.896 268.026 117.995 271.29 116.095C271.989 115.682 272.688 115.288 273.37 114.875C274.481 114.23 275.611 113.566 276.723 112.921C276.92 112.813 277.153 112.688 277.404 112.562C277.404 114.194 277.386 115.844 277.386 117.475C277.386 119.161 277.368 120.864 277.368 122.55C275.862 123.428 274.338 124.307 272.832 125.186C272.025 125.652 270.608 126.244 269.604 127.05C269.389 127.14 269.192 127.284 269.013 127.481C268.851 127.642 268.744 127.839 268.672 128.037C268.546 128.198 268.439 128.395 268.385 128.628C268.331 128.861 268.313 129.077 268.331 129.292ZM271.864 150.378C271.864 149.661 271.864 148.944 271.864 148.227C271.864 147.205 271.864 146.183 271.864 145.161C271.864 143.206 271.881 141.252 271.881 139.297C271.881 139.19 271.881 139.064 271.881 138.957C271.971 138.024 271.881 137.056 271.881 136.123C271.881 135.962 271.881 135.819 271.881 135.657C271.881 135.334 271.881 135.012 271.881 134.689C271.881 134.402 271.881 134.097 271.881 133.81C271.881 133.201 271.881 132.573 271.881 131.963C272.33 132.232 272.778 132.483 273.226 132.752C274.338 133.398 275.468 134.043 276.579 134.689C280.13 136.733 283.698 138.795 287.248 140.839C287.517 141.001 287.804 141.162 288.073 141.341C288.503 141.628 289.005 141.987 289.49 142.256C289.49 142.543 289.508 142.848 289.508 143.116C289.49 147.223 289.49 151.329 289.472 155.417C289.472 157.73 289.454 160.061 289.454 162.374C288.736 161.962 288.019 161.549 287.302 161.137C286.029 160.402 284.756 159.667 283.483 158.931C282.353 158.268 281.206 157.623 280.076 156.959C277.799 155.65 275.521 154.323 273.226 153.014C273.119 152.943 273.011 152.889 272.886 152.817C272.563 152.638 272.204 152.351 271.828 152.136C271.828 151.992 271.828 151.849 271.828 151.723C271.864 151.275 271.864 150.827 271.864 150.378ZM281.116 133.111C280.937 133.003 280.757 132.914 280.578 132.806C278.319 131.497 276.059 130.099 273.782 128.808C274.338 128.485 274.894 128.162 275.432 127.839C276.956 126.961 278.623 126.172 280.058 125.15C280.076 125.15 280.076 125.132 280.094 125.132C280.309 125.006 280.542 124.881 280.757 124.737C282.927 123.482 285.097 122.209 287.266 120.954C288.234 120.38 289.221 119.824 290.189 119.25C290.476 119.089 290.906 118.91 291.283 118.695C293.847 120.165 296.411 121.653 298.957 123.124C299.746 123.572 300.517 124.02 301.306 124.486C301.629 124.666 301.952 124.863 302.274 125.042C302.292 125.06 302.31 125.06 302.328 125.078C302.346 125.078 302.364 125.096 302.364 125.096C303.852 125.957 305.323 126.817 306.811 127.66C307.456 128.037 308.12 128.413 308.765 128.79C308.389 129.041 308.048 129.274 307.725 129.453C306.058 130.421 304.408 131.39 302.74 132.34C301.79 132.896 300.822 133.452 299.872 134.008C298.509 134.797 297.164 135.586 295.801 136.374C295.622 136.482 295.425 136.59 295.245 136.697C294.743 136.984 294.223 137.289 293.721 137.576C292.986 138.006 292.054 138.401 291.229 138.903C290.942 138.741 290.637 138.58 290.35 138.419C287.302 136.679 284.2 134.886 281.116 133.111ZM310.612 97.1955C310.612 99.1679 310.594 101.14 310.594 103.113C308.676 104.206 306.721 105.264 304.82 106.394C304.121 106.753 303.35 107.183 302.758 107.667C302.4 107.9 302.131 108.205 301.952 108.546C301.844 108.725 301.772 108.904 301.701 109.12C301.252 110.429 301.521 112.365 301.521 113.477C301.521 115.18 301.503 116.884 301.503 118.587C300.965 118.91 300.409 119.215 299.872 119.537C297.648 118.246 295.407 116.973 293.183 115.682C293.147 115.664 293.13 115.646 293.094 115.628C293.094 113.387 293.112 111.146 293.112 108.886C293.112 108.08 293.112 107.255 293.112 106.448C293.112 105.784 293.112 105.103 293.112 104.44C293.112 104.099 293.13 103.758 293.13 103.4C293.13 103.382 293.13 103.346 293.13 103.328C293.506 103.077 293.901 102.79 294.026 102.7C295.712 101.732 297.379 100.746 299.065 99.7776C301.718 98.2355 304.39 96.6755 307.044 95.1335C308.227 94.4521 309.393 93.7707 310.576 93.0714C310.63 94.4521 310.63 95.8328 310.612 97.1955ZM278.372 87.2618C282.102 85.0922 285.85 82.9226 289.579 80.7529C290.063 80.484 290.727 80.1971 291.301 79.8743C291.587 80.0357 291.892 80.1971 292.179 80.3585C295.747 82.4205 299.316 84.4826 302.884 86.5446C304.82 87.6563 306.739 88.768 308.676 89.8797C308.729 89.9156 308.801 89.9515 308.855 89.9873C308.604 90.1308 308.353 90.2742 308.102 90.4356C305.699 91.8342 303.314 93.2149 300.912 94.6135C299.603 95.3666 298.312 96.1197 297.003 96.8907C295.156 97.9666 293.147 98.9348 291.336 100.118C290.512 99.6162 289.633 99.1859 288.808 98.7197C286.441 97.3569 284.074 95.9942 281.726 94.6314C279.699 93.4659 277.673 92.3004 275.665 91.1349C275.019 90.7584 274.374 90.3818 273.728 90.0053C275.27 89.0549 276.812 88.1584 278.372 87.2618ZM271.917 97.1776C271.917 95.8149 271.917 94.4342 271.935 93.0714C276.597 95.779 281.241 98.5583 285.939 101.212C287.105 101.929 288.27 102.664 289.472 103.238C289.382 104.493 289.561 105.856 289.561 106.824C289.561 109.675 289.543 112.526 289.543 115.377C288.485 115.915 287.445 116.704 286.764 117.117C285.383 117.906 284.021 118.713 282.64 119.502C282.102 119.197 281.564 118.874 281.026 118.569C281.026 118.426 281.026 118.282 281.026 118.139C281.026 116.83 281.026 115.503 281.044 114.194C281.044 113.136 281.044 112.078 281.062 111.002C281.062 110.572 281.098 110.142 281.062 109.729C281.062 109.675 281.044 109.622 281.044 109.586C281.044 109.55 281.044 109.514 281.026 109.478C281.008 109.389 280.99 109.317 280.972 109.227C280.972 109.209 280.972 109.209 280.972 109.191C280.954 109.102 280.919 109.012 280.883 108.922V108.904C280.847 108.815 280.793 108.725 280.739 108.617C280.686 108.528 280.614 108.438 280.542 108.349C280.237 107.918 279.771 107.542 279.269 107.219C278.319 106.591 277.189 106.089 276.49 105.695C274.966 104.816 273.441 103.938 271.917 103.059C271.899 101.122 271.899 99.15 271.917 97.1776ZM245.164 106.699C248.894 104.529 252.642 102.36 256.371 100.19C256.855 99.9031 257.537 99.6341 258.111 99.2934C258.738 99.6521 259.366 100.011 259.993 100.387C263.059 102.162 266.108 103.92 269.174 105.695C270.662 106.555 272.133 107.416 273.621 108.259C274.266 108.635 274.93 109.012 275.575 109.389C275.199 109.64 274.858 109.873 274.535 110.052C273.298 110.769 272.061 111.486 270.824 112.204C270.393 112.455 269.981 112.688 269.55 112.939C268.044 113.817 266.538 114.678 265.032 115.557C263.526 116.435 262.02 117.314 260.513 118.175C259.778 118.605 258.864 118.999 258.039 119.484C257.662 119.286 257.286 119.107 256.981 118.928C256.802 118.82 256.64 118.73 256.461 118.623C256.156 118.444 255.869 118.282 255.564 118.103C253.198 116.74 250.831 115.377 248.482 114.015C246.115 112.652 243.748 111.289 241.399 109.926C241.166 109.783 240.933 109.657 240.682 109.514C240.61 109.478 240.538 109.424 240.467 109.389C242.062 108.492 243.622 107.595 245.164 106.699ZM241.704 134.51C240.771 133.972 239.731 133.147 238.691 132.645C238.691 132.34 238.656 132.053 238.656 131.766C238.674 127.66 238.674 123.554 238.691 119.466C238.691 117.224 238.709 114.983 238.709 112.742C238.709 112.67 238.709 112.598 238.709 112.526C244.16 115.7 249.593 118.946 255.116 122.03C255.493 122.299 255.923 122.586 256.335 122.819C256.335 123.106 256.353 123.41 256.353 123.679C256.335 127.786 256.335 131.892 256.317 135.98C256.317 138.293 256.3 140.624 256.3 142.937C255.708 142.596 255.134 142.256 254.542 141.915C253.144 141.108 251.727 140.301 250.329 139.477C247.46 137.827 244.573 136.159 241.704 134.51ZM258.146 158.465C258.093 158.429 258.039 158.411 257.985 158.376C257.196 157.909 256.407 157.461 255.6 156.995C253.233 155.632 250.867 154.269 248.518 152.907C246.151 151.544 243.784 150.181 241.435 148.818C241.13 148.639 240.825 148.46 240.502 148.281C241.74 147.563 242.959 146.846 244.196 146.147C245.9 145.161 247.603 144.174 249.289 143.188C251.655 144.569 254.04 145.914 256.443 147.187C256.551 147.241 256.658 147.312 256.766 147.366C256.802 147.384 256.837 147.402 256.873 147.42C256.891 147.438 256.927 147.438 256.945 147.456C256.981 147.474 257.017 147.492 257.053 147.492C257.304 147.581 257.555 147.653 257.806 147.671C257.913 147.689 258.021 147.707 258.146 147.707C258.254 147.707 258.38 147.689 258.487 147.671C258.505 147.671 258.523 147.671 258.523 147.671C258.613 147.653 258.72 147.635 258.81 147.599C258.828 147.599 258.846 147.581 258.864 147.581C258.917 147.563 258.989 147.545 259.043 147.51C259.617 147.294 260.155 146.9 260.675 146.613C261.607 146.075 262.522 145.537 263.454 144.999C264.53 144.372 265.606 143.744 266.682 143.134C267.219 143.439 267.757 143.762 268.295 144.067C268.295 145.752 268.277 147.438 268.277 149.123C268.277 150.109 268.08 151.436 268.224 152.62C266.359 153.696 264.512 154.789 262.647 155.865C262.557 155.919 262.468 155.973 262.36 156.027C261.069 156.78 259.778 157.533 258.487 158.286C258.38 158.34 258.254 158.394 258.146 158.465ZM269.282 166.247C268.959 166.462 268.726 166.803 268.582 167.216C268.564 167.251 268.546 167.287 268.546 167.323C268.026 168.632 268.331 170.658 268.313 171.788C268.313 172.344 268.313 172.9 268.313 173.438C268.313 174.585 268.313 175.733 268.295 176.898C266.628 177.866 264.96 178.835 263.293 179.803C262.145 180.466 261.015 181.13 259.868 181.793C259.886 177.131 259.886 172.469 259.904 167.807C259.904 166.427 259.904 165.046 259.922 163.683C259.922 163.235 259.957 162.769 259.975 162.285C260.119 162.159 260.208 161.89 260.155 161.442C263.562 159.451 266.986 157.479 270.393 155.489C271.702 156.242 273.011 156.995 274.302 157.748C275.324 158.34 276.364 158.931 277.386 159.523C277.386 160.151 277.386 160.778 277.386 161.424C277.225 161.514 277.063 161.603 276.902 161.693C275.557 162.482 274.195 163.271 272.85 164.06C271.971 164.598 270.268 165.279 269.282 166.247ZM289.525 194.596C289.525 196.013 289.525 197.447 289.508 198.864C289.508 199.366 289.508 199.886 289.508 200.388C289.508 200.675 289.508 200.961 289.508 201.266C287.983 200.388 286.459 199.509 284.917 198.612C281.17 196.443 277.422 194.291 273.675 192.122C273.173 191.835 272.527 191.315 271.899 190.974C271.917 190.346 271.864 189.683 271.881 189.055C271.899 185.38 271.899 181.686 271.917 178.01C271.917 177.956 271.917 177.884 271.917 177.831C272.007 176.898 271.917 175.93 271.917 174.998C271.917 174.962 271.917 174.926 271.917 174.89C271.917 174.442 271.917 173.993 271.917 173.563C271.917 172.649 271.917 171.734 271.917 170.838C272.222 171.017 272.527 171.196 272.832 171.358C275.199 172.72 277.566 174.083 279.915 175.446C280.578 175.822 281.241 176.217 281.905 176.593C282.73 177.078 283.572 177.562 284.397 178.028C286.083 178.996 287.768 180.162 289.525 181.058C289.525 181.327 289.543 181.578 289.543 181.811C289.543 186.079 289.525 190.328 289.525 194.596ZM291.283 177.831C290.978 177.669 290.655 177.508 290.386 177.346C288.647 176.342 286.89 175.32 285.15 174.316C281.349 172.111 277.53 169.923 273.728 167.718C273.782 167.682 273.836 167.664 273.89 167.628C273.908 167.61 273.944 167.592 273.961 167.574C275.486 166.696 277.01 165.799 278.534 164.92C279 164.651 279.52 164.4 279.95 164.096C280.004 164.06 280.058 164.024 280.112 164.006C280.954 163.522 281.797 163.038 282.64 162.536C284.2 163.432 285.778 164.347 287.338 165.243C288.216 165.745 289.095 166.301 289.992 166.785C290.171 166.929 290.404 167.036 290.655 167.072C290.87 167.126 291.068 167.126 291.265 167.108C291.283 167.108 291.319 167.108 291.336 167.108C291.552 167.144 291.785 167.126 292.018 167.054C292.125 167.018 292.233 166.982 292.323 166.947C293.614 166.516 294.976 165.405 295.981 164.813C297.29 164.06 298.598 163.289 299.889 162.536C300.732 163.02 301.557 163.504 302.4 163.988C303.888 164.849 305.358 165.709 306.847 166.552C306.9 166.588 306.954 166.624 307.008 166.642C307.582 166.965 308.138 167.305 308.711 167.628C308.765 167.664 308.801 167.682 308.855 167.718C303.673 170.73 298.491 173.742 293.309 176.755C292.753 177.095 291.982 177.418 291.283 177.831ZM310.63 172.684C310.63 174.406 310.612 176.127 310.612 177.849C310.594 181.058 310.594 184.268 310.576 187.459C310.576 188.374 310.576 189.288 310.576 190.203C310.576 190.328 310.522 190.705 310.505 191.082C310.236 191.243 309.967 191.422 309.716 191.566C306.165 193.628 302.615 195.69 299.083 197.752C297.146 198.881 295.21 200.011 293.255 201.141C293.219 201.159 293.183 201.177 293.147 201.212C293.273 195.062 293.165 188.876 293.147 182.726C293.165 182.224 293.255 181.578 293.255 181.004C293.739 180.735 294.223 180.413 294.69 180.126C295.64 179.57 296.572 179.032 297.523 178.476C297.863 178.279 298.186 178.082 298.527 177.884C300.517 176.719 302.507 175.571 304.498 174.406C306.183 173.42 307.869 172.451 309.572 171.465C309.841 171.304 310.218 171.124 310.63 170.909C310.63 171.501 310.63 172.093 310.63 172.684ZM322.715 175.141C322.715 176.558 322.715 177.992 322.698 179.409C322.698 179.911 322.698 180.431 322.698 180.933C322.698 181.22 322.698 181.506 322.698 181.811C321.55 181.148 320.384 180.484 319.237 179.803C317.569 178.835 315.884 177.866 314.216 176.898C314.216 175.589 314.216 174.28 314.234 172.971C314.234 171.734 314.234 170.479 314.252 169.242C314.252 168.829 314.27 168.435 314.252 168.04C314.252 167.987 314.234 167.951 314.234 167.897C314.234 167.861 314.234 167.825 314.216 167.771C314.198 167.7 314.18 167.628 314.162 167.556C314.162 167.538 314.162 167.52 314.145 167.502C314.127 167.413 314.091 167.341 314.055 167.269C314.055 167.251 314.055 167.251 314.037 167.233C314.001 167.144 313.965 167.054 313.911 166.965C313.911 166.965 313.911 166.965 313.911 166.947C313.768 166.642 313.553 166.391 313.302 166.193C313.194 166.104 313.087 166.032 312.979 165.942C311.545 165.028 310.02 164.239 308.55 163.378C307.403 162.715 306.255 162.051 305.125 161.406C305.125 160.778 305.125 160.151 305.125 159.505C306.058 158.967 307.008 158.411 307.94 157.874C308.389 157.605 308.837 157.354 309.285 157.085C310.236 156.529 311.204 155.973 312.154 155.417C315.346 157.264 318.556 159.111 321.747 160.958C322.088 161.155 322.411 161.37 322.751 161.567C322.751 161.854 322.769 162.123 322.769 162.356C322.733 166.642 322.733 170.891 322.715 175.141ZM324.509 158.429C324.293 158.322 324.096 158.214 323.899 158.107C322.841 157.497 321.783 156.887 320.725 156.278C318.556 155.023 316.386 153.767 314.216 152.53C314.324 151.347 314.145 150.038 314.162 149.141C314.162 147.456 314.18 145.77 314.18 144.085C314.718 143.78 315.238 143.475 315.776 143.152C318.018 144.497 320.277 145.824 322.572 147.043C322.769 147.151 322.967 147.258 323.182 147.366C323.469 147.51 323.755 147.599 324.06 147.635C324.222 147.689 324.383 147.707 324.562 147.707C324.634 147.707 324.724 147.707 324.795 147.689C324.831 147.689 324.867 147.689 324.903 147.671C324.939 147.671 324.975 147.653 325.011 147.653C325.064 147.635 325.136 147.635 325.19 147.617C325.244 147.599 325.298 147.581 325.351 147.563H325.369C326.051 147.33 326.696 146.846 327.288 146.505C328.166 145.985 329.045 145.483 329.924 144.963C330.982 144.354 332.022 143.744 333.08 143.134C334.837 144.139 336.576 145.161 338.333 146.165C339.57 146.882 340.808 147.599 342.045 148.316C337.15 151.167 332.255 154 327.36 156.852C327.019 157.049 326.696 157.246 326.355 157.425C325.782 157.748 325.1 158.053 324.509 158.429ZM343.82 156.618C343.802 160.922 343.802 165.225 343.784 169.529C343.784 169.816 343.641 170.891 343.641 171.68C343.39 171.824 343.157 172.003 342.924 172.129C339.373 174.191 335.823 176.253 332.291 178.315C330.354 179.444 328.417 180.574 326.463 181.704C326.427 181.722 326.391 181.74 326.355 181.757C326.338 180.843 326.284 179.911 326.302 179.032C326.302 178.118 326.302 177.221 326.302 176.306C326.302 175.428 326.302 174.549 326.302 173.671C326.302 171.68 326.32 169.69 326.32 167.7C326.32 166.265 326.338 164.831 326.338 163.414C326.338 162.894 326.445 162.195 326.445 161.567C327.36 161.065 328.238 160.474 329.117 159.954C332.022 158.268 334.926 156.583 337.831 154.897C339.319 154.036 340.808 153.158 342.296 152.297C342.798 152.01 343.318 151.723 343.82 151.436C343.82 153.158 343.82 154.897 343.82 156.618Z" fill="white"/>
<path d="M238.691 162.446C238.691 161.334 238.709 160.223 238.709 159.111C238.727 156.798 235.123 156.798 235.123 159.111C235.123 160.223 235.105 161.334 235.105 162.446C235.087 164.759 238.674 164.759 238.691 162.446Z" fill="white"/>
<path d="M298.419 139.064C298.294 139.136 298.186 139.207 298.061 139.261C296.931 139.925 295.801 140.57 294.672 141.234C294.205 141.503 293.721 141.825 293.237 142.112C293.237 142.561 293.183 143.045 293.148 143.475C293.13 143.905 293.112 144.354 293.112 144.766C293.112 147.348 293.094 149.948 293.094 152.53C293.094 153.965 293.094 155.417 293.076 156.851C293.076 158.68 293.058 160.509 293.058 162.338C295.012 161.191 296.985 160.061 298.939 158.913C300.087 158.25 301.216 157.587 302.364 156.923C302.418 156.887 302.472 156.851 302.525 156.833C302.956 156.529 303.458 156.296 303.942 156.009C304.426 155.722 304.928 155.435 305.412 155.148C305.61 155.022 305.807 154.915 306.022 154.789C306.04 154.771 306.058 154.771 306.076 154.754C307.259 154.072 308.443 153.373 309.626 152.691C309.931 152.512 310.236 152.315 310.541 152.136C310.541 151.436 310.541 150.755 310.541 150.056C310.541 148.316 310.558 146.577 310.558 144.838C310.558 144.282 310.523 143.708 310.558 143.17C310.558 143.098 310.558 143.027 310.558 142.973C310.558 142.327 310.558 141.664 310.558 141.018C310.558 139.19 310.576 137.343 310.576 135.514C310.576 134.33 310.576 133.165 310.594 131.981C308.514 133.201 306.398 134.348 304.336 135.55C302.382 136.769 300.41 137.916 298.419 139.064Z" fill="#F8FAFC" fill-opacity="0.3"/>
<path d="M273.388 114.875C272.688 115.288 271.989 115.682 271.308 116.095C268.044 117.995 264.763 119.896 261.5 121.797C261.033 122.066 260.549 122.388 260.065 122.675C260.065 123.339 259.958 124.074 259.958 124.612C259.94 128.879 259.94 133.165 259.922 137.432C259.922 139.261 259.904 141.09 259.904 142.919C261.141 142.202 262.378 141.485 263.598 140.768C264.333 140.337 265.05 139.925 265.785 139.494C266.628 139.01 267.471 138.508 268.331 138.024C268.331 135.837 268.349 133.649 268.349 131.479C268.349 130.977 268.349 130.475 268.349 129.991C268.349 129.883 268.349 129.758 268.349 129.65C268.349 129.525 268.349 129.417 268.349 129.292C268.331 129.077 268.349 128.861 268.421 128.628C268.475 128.395 268.582 128.198 268.708 128.037C268.78 127.839 268.887 127.66 269.048 127.481C269.228 127.283 269.425 127.14 269.64 127.05C270.644 126.244 272.061 125.652 272.868 125.186C274.374 124.307 275.898 123.428 277.404 122.55C277.404 120.864 277.422 119.161 277.422 117.475C277.422 115.844 277.44 114.194 277.44 112.562C277.189 112.688 276.956 112.813 276.759 112.921C275.629 113.566 274.517 114.23 273.388 114.875Z" fill="#F8FAFC" fill-opacity="0.3"/>
<path d="M299.119 99.7774C297.433 100.746 295.765 101.732 294.08 102.7C293.937 102.772 293.56 103.077 293.183 103.328C293.183 103.346 293.183 103.382 293.183 103.399C293.183 103.74 293.166 104.099 293.166 104.439C293.166 105.103 293.166 105.784 293.166 106.448C293.166 107.255 293.166 108.079 293.166 108.886C293.166 111.128 293.148 113.369 293.148 115.628C293.183 115.646 293.201 115.664 293.237 115.682C295.461 116.973 297.702 118.246 299.925 119.537C300.463 119.215 301.019 118.91 301.557 118.587C301.557 116.883 301.575 115.18 301.575 113.477C301.575 112.383 301.306 110.428 301.754 109.119C301.808 108.904 301.898 108.725 302.005 108.546C302.185 108.205 302.472 107.918 302.812 107.667C303.404 107.165 304.175 106.753 304.874 106.394C306.775 105.264 308.729 104.206 310.648 103.113C310.648 101.14 310.666 99.1678 310.666 97.1954C310.666 95.8327 310.666 94.452 310.684 93.0892C309.501 93.7706 308.335 94.452 307.152 95.1513C304.444 96.6933 301.772 98.2354 299.119 99.7774Z" fill="#F8FAFC" fill-opacity="0.3"/>
<path d="M304.498 174.406C302.507 175.571 300.517 176.719 298.527 177.884C298.186 178.082 297.863 178.279 297.523 178.476C296.572 179.032 295.64 179.57 294.69 180.126C294.223 180.395 293.739 180.717 293.255 181.004C293.255 181.596 293.166 182.224 293.148 182.726C293.166 188.876 293.273 195.062 293.148 201.212C293.183 201.195 293.219 201.177 293.255 201.141C295.192 200.011 297.128 198.881 299.083 197.752C302.633 195.69 306.183 193.628 309.716 191.566C309.967 191.422 310.236 191.243 310.505 191.082C310.523 190.705 310.576 190.328 310.576 190.203C310.576 189.288 310.576 188.374 310.576 187.459C310.594 184.25 310.594 181.04 310.612 177.849C310.612 176.127 310.63 174.406 310.63 172.684C310.63 172.093 310.63 171.519 310.63 170.927C310.218 171.124 309.859 171.322 309.572 171.483C307.887 172.451 306.201 173.438 304.498 174.406Z" fill="#F8FAFC" fill-opacity="0.3"/>
<path d="M342.314 152.297C340.826 153.158 339.337 154.036 337.849 154.897C334.944 156.583 332.04 158.268 329.135 159.954C328.256 160.474 327.36 161.047 326.463 161.567C326.463 162.195 326.355 162.912 326.355 163.414C326.355 164.849 326.338 166.283 326.338 167.7C326.338 169.69 326.32 171.68 326.32 173.671C326.32 174.549 326.32 175.428 326.32 176.307C326.32 177.221 326.32 178.118 326.32 179.032C326.32 179.929 326.356 180.843 326.373 181.757C326.409 181.74 326.445 181.722 326.481 181.704C328.418 180.574 330.354 179.444 332.309 178.315C335.859 176.253 339.409 174.191 342.942 172.129C343.175 172.003 343.408 171.824 343.659 171.68C343.659 170.891 343.802 169.816 343.802 169.529C343.82 165.225 343.82 160.922 343.838 156.618C343.838 154.897 343.856 153.158 343.856 151.436C343.318 151.723 342.816 152.01 342.314 152.297Z" fill="#F8FAFC" fill-opacity="0.3"/>
<path d="M270.411 155.489C267.004 157.479 263.58 159.451 260.173 161.442C260.244 161.89 260.155 162.159 259.993 162.285C259.975 162.751 259.94 163.235 259.94 163.683C259.94 165.064 259.94 166.445 259.922 167.807C259.904 172.469 259.904 177.131 259.886 181.793C261.033 181.13 262.163 180.466 263.311 179.803C264.978 178.835 266.646 177.866 268.313 176.898C268.313 175.751 268.313 174.603 268.331 173.438C268.331 172.882 268.331 172.326 268.331 171.788C268.331 170.658 268.044 168.632 268.564 167.323C268.582 167.287 268.582 167.251 268.6 167.216C268.744 166.803 268.959 166.462 269.3 166.247C270.286 165.279 271.971 164.598 272.886 164.06C274.23 163.271 275.593 162.482 276.938 161.693C277.099 161.603 277.261 161.514 277.422 161.424C277.422 160.796 277.422 160.169 277.422 159.523C276.4 158.931 275.36 158.34 274.338 157.748C273.011 156.995 271.702 156.242 270.411 155.489Z" fill="#F8FAFC" fill-opacity="0.3"/>
<path d="M151.887 149.576C151.787 149.576 151.686 149.475 151.686 149.375V140.31C151.686 140.209 151.787 140.109 151.887 140.109H176.965C177.067 140.109 177.167 140.209 177.167 140.31V149.375C177.167 149.475 177.067 149.576 176.965 149.576H151.887Z" fill="white"/>
<path d="M107.201 167.768C107.1 167.768 107 167.668 107 167.567V158.301C107 158.201 107.1 158.099 107.201 158.099H128.956C129.056 158.099 129.157 158.201 129.157 158.301V167.567C129.157 167.668 129.056 167.768 128.956 167.768H107.201Z" fill="#F8FAFC"/>
<path d="M118.012 132.407C117.911 132.407 117.811 132.407 117.71 132.306L107.639 126.364C107.336 126.163 107.034 125.76 107.034 125.357C107.034 124.954 107.236 124.551 107.537 124.349L117.609 118.105C117.911 117.903 118.214 118.004 118.415 118.306C118.616 118.609 118.515 118.91 118.214 119.112L108.142 125.357L118.214 131.299C118.515 131.501 118.616 131.803 118.415 132.105C118.415 132.306 118.214 132.407 118.012 132.407Z" fill="#4F46E5"/>
<path d="M135.171 132.407C134.969 132.407 134.767 132.306 134.667 132.105C134.466 131.803 134.566 131.501 134.868 131.299L144.939 125.357L134.868 119.112C134.566 118.91 134.466 118.609 134.667 118.306C134.868 118.004 135.171 117.903 135.473 118.105L145.544 124.349C145.846 124.551 146.048 124.954 146.048 125.357C146.048 125.76 145.846 126.163 145.443 126.364L135.372 132.306C135.372 132.407 135.271 132.407 135.171 132.407Z" fill="#4F46E5"/>
<path d="M123.616 132.34C123.514 132.34 123.414 132.34 123.414 132.34C123.112 132.24 123.011 131.837 123.112 131.534L128.954 118.34C129.054 118.038 129.457 117.937 129.759 118.038C130.061 118.138 130.162 118.542 130.061 118.844L124.22 132.038C124.119 132.24 123.917 132.34 123.616 132.34Z" fill="#4F46E5"/>
<path d="M146.212 150.352H107.84C107.437 150.352 107.034 150.05 107.034 149.546V140.481C107.034 140.078 107.337 139.675 107.84 139.675H146.212C146.615 139.675 147.018 139.978 147.018 140.481V149.546C146.918 149.948 146.615 150.352 146.212 150.352Z" fill="#4F46E5"/>
<path d="M186.268 168.326H134.501C134.098 168.326 133.695 168.025 133.695 167.521V158.255C133.695 157.852 133.998 157.449 134.501 157.449H186.268C186.671 157.449 187.074 157.751 187.074 158.255V167.521C186.974 168.025 186.671 168.326 186.268 168.326Z" fill="#FC9D4F"/>
<path d="M146.212 186H107.84C107.437 186 107.034 185.697 107.034 185.194V176.029C107.034 175.626 107.336 175.223 107.84 175.223H146.212C146.615 175.223 147.018 175.525 147.018 176.029V185.194C146.917 185.697 146.615 186 146.212 186Z" fill="#4F46E5"/>
</svg>
