<svg width="574" height="289" viewBox="0 0 574 289" fill="none" xmlns="http://www.w3.org/2000/svg">
<rect width="574" height="289" rx="20" fill="#202D3E"/>
<path d="M233.659 189.308C230.604 191.355 227.472 191.755 224.417 189.398C221.388 187.067 221.105 183.873 222.278 179.958C218.308 180.821 214.738 180.795 212.392 177.266C210.381 174.24 210.871 171.277 212.856 168.418C213.101 168.174 213.346 167.942 213.59 167.697C215.008 166.68 216.658 165.688 218.308 166.023C221.324 166.628 220.77 165.237 220.937 163.112C221.156 160.176 220.847 158.978 217.56 159.455C216.362 159.622 214.982 158.566 213.694 158.064C213.345 157.716 212.997 157.368 212.649 157.034C210.909 154.11 210.368 151.135 212.482 148.186C214.828 144.915 218.14 144.631 222.213 145.713C221.182 141.708 221.337 138.192 224.856 135.861C227.872 133.878 230.836 134.367 233.672 136.337C233.917 136.582 234.149 136.827 234.394 137.071C234.974 138.501 236.224 140.034 236.005 141.321C235.425 144.799 237.075 144.168 239.485 144.361C242.385 144.593 242.63 143.807 242.553 141.334C242.501 139.931 243.609 138.501 244.189 137.071C244.447 136.814 244.705 136.543 244.963 136.286C248.005 134.148 251.137 133.787 254.192 136.106C257.233 138.424 257.594 141.592 256.421 145.481C260.288 144.812 263.897 144.644 266.269 148.212C268.279 151.238 267.815 154.2 265.908 157.085C265.611 157.381 265.315 157.665 265.031 157.961C263.588 158.527 262.08 159.687 260.713 159.532C257.762 159.197 257.8 160.24 257.839 162.739C257.878 165.16 257.736 166.319 260.726 165.984C262.093 165.83 263.601 167.002 265.031 167.568C265.328 167.865 265.624 168.161 265.934 168.457C267.97 171.496 268.37 174.626 266.037 177.652C263.717 180.653 260.597 181.13 256.666 179.842C257.465 183.886 257.337 187.569 253.599 189.887C250.724 191.665 247.889 191.175 245.156 189.437C244.782 189.063 244.421 188.69 244.048 188.329C242.604 186.191 242.23 183.808 242.63 181.323C238.518 180.859 235.103 180.975 235.528 186.423C235.579 187.08 234.858 187.788 234.484 188.471C234.2 188.767 233.93 189.037 233.659 189.308ZM253.354 176.777C250.995 175.347 255.944 170.852 250.686 170.827C248.005 170.814 247.373 171.728 247.399 174.214C247.438 179.43 251.871 174.497 253.354 176.777ZM225.448 176.841C226.905 174.871 232.151 179.546 231.236 173.132C230.501 168.032 227.266 172.05 225.474 170.737C226.209 172.862 225.436 174.639 225.448 176.841ZM253.534 148.881C247.309 149.525 247.463 149.551 247.283 150.993C246.677 156.003 250.467 154.303 253.405 155.089C252.529 152.758 253.212 150.852 253.534 148.881ZM225.397 148.611C225.745 150.878 225.964 152.822 225.616 155.012C227.33 153.479 230.772 157.265 231.352 152.217C232.061 145.971 226.789 150.929 225.397 148.611ZM236.946 162.404C237.049 163.731 236.043 165.637 238.763 165.096C240.142 164.825 241.921 165.804 241.689 162.945C241.534 161 241.431 160.24 239.201 160.382C237.526 160.485 236.327 160.318 236.946 162.404Z" fill="#4F46E5"/>
<path d="M234.419 137.072C234.174 136.827 233.942 136.582 233.698 136.338C233.659 136.028 233.698 135.681 233.582 135.41C231.996 131.92 231.945 128.623 235.193 126.073C237.835 124 240.812 123.987 243.468 126.047C246.729 128.572 246.69 131.882 245.143 135.372C245.027 135.642 245.053 135.99 245.014 136.299C244.757 136.557 244.499 136.827 244.241 137.085C240.954 138.411 237.68 138.385 234.419 137.072Z" fill="#4F46E5"/>
<path d="M265.934 168.47C265.637 168.174 265.341 167.878 265.031 167.581C263.652 164.374 263.678 161.181 265.031 157.974C265.328 157.678 265.624 157.394 265.908 157.098C266.952 156.776 267.97 156.377 269.04 156.171C272.069 155.591 274.673 156.325 276.413 159.017C277.998 161.477 277.998 164.065 276.425 166.525C274.698 169.217 272.082 169.964 269.053 169.384C267.996 169.204 266.978 168.792 265.934 168.47Z" fill="#4F46E5"/>
<path d="M244.035 188.342C244.409 188.716 244.769 189.089 245.143 189.45C245.349 190.197 245.556 190.956 245.749 191.703C246.6 194.897 246.084 197.744 243.249 199.714C240.645 201.517 237.835 201.478 235.27 199.611C232.486 197.576 232.035 194.717 232.976 191.549C233.195 190.802 233.44 190.055 233.659 189.308C233.93 189.038 234.2 188.754 234.471 188.484C237.642 187.144 240.838 187.183 244.035 188.342Z" fill="#4F46E5"/>
<path d="M213.603 167.698C213.358 167.942 213.113 168.174 212.869 168.419C209.04 169.642 205.199 170.737 202.351 166.616C200.688 164.22 200.65 161.606 202.235 159.133C204.955 154.922 208.808 155.849 212.675 157.008C213.023 157.356 213.371 157.704 213.719 158.038C214.969 161.284 214.853 164.504 213.603 167.698Z" fill="#4F46E5"/>
<path d="M277.289 183.577C277.366 187.119 274.17 190.312 270.625 190.248C267.261 190.184 264.258 187.196 264.194 183.822C264.116 180.267 267.3 177.086 270.857 177.15C274.209 177.228 277.212 180.216 277.289 183.577Z" fill="#4F46E5"/>
<path d="M207.984 190.197C204.478 190.235 201.32 187.029 201.436 183.538C201.539 180.203 204.529 177.267 207.868 177.228C211.373 177.189 214.531 180.396 214.415 183.886C214.325 187.222 211.322 190.158 207.984 190.197Z" fill="#4F46E5"/>
<path d="M224.907 193.931C225.049 197.434 221.917 200.667 218.385 200.667C215.047 200.667 212.018 197.731 211.876 194.395C211.734 190.892 214.866 187.659 218.398 187.659C221.749 187.659 224.778 190.583 224.907 193.931Z" fill="#4F46E5"/>
<path d="M270.367 148.392C266.81 148.173 263.871 144.76 264.232 141.27C264.58 137.896 267.777 135.14 271.089 135.346C274.647 135.565 277.585 138.991 277.225 142.468C276.889 145.842 273.693 148.598 270.367 148.392Z" fill="#4F46E5"/>
<path d="M207.7 135.385C211 135.256 214.132 138.063 214.402 141.412C214.686 144.876 211.683 148.225 208.151 148.366C204.658 148.508 201.423 145.391 201.436 141.876C201.449 138.54 204.362 135.513 207.7 135.385Z" fill="#4F46E5"/>
<path d="M266.797 131.444C266.784 134.985 263.523 138.102 260.005 137.934C256.64 137.78 253.727 134.741 253.74 131.379C253.753 127.838 257.014 124.721 260.533 124.888C263.897 125.043 266.81 128.095 266.797 131.444Z" fill="#4F46E5"/>
<path d="M218.424 124.927C221.943 124.94 225.049 128.185 224.881 131.675C224.727 135.024 221.685 137.922 218.359 137.896C214.841 137.883 211.734 134.637 211.889 131.147C212.057 127.812 215.098 124.901 218.424 124.927Z" fill="#4F46E5"/>
<path d="M266.797 194.086C266.849 197.628 263.639 200.783 260.108 200.693C256.744 200.603 253.779 197.602 253.74 194.24C253.689 190.699 256.885 187.543 260.43 187.646C263.794 187.737 266.746 190.725 266.797 194.086Z" fill="#4F46E5"/>
<path d="M222.819 204.248C223.348 200.564 225.436 198.594 229.148 198.632C232.692 198.671 235.283 201.685 234.832 205.239C234.355 208.961 232.035 210.829 228.361 210.571C224.611 210.301 222.922 207.879 222.819 204.248Z" fill="#4F46E5"/>
<path d="M281.194 179.327C277.508 179.005 275.356 177.086 275.175 173.351C275.008 169.797 277.895 166.963 281.452 167.221C285.164 167.491 287.278 169.668 287.201 173.377C287.136 177.112 284.868 179.018 281.194 179.327Z" fill="#4F46E5"/>
<path d="M203.472 173.184C203.189 176.867 201.32 179.134 197.53 179.159C193.78 179.185 191.588 177.073 191.537 173.313C191.498 169.565 193.625 167.388 197.376 167.324C201.165 167.272 203.111 169.488 203.472 173.184Z" fill="#4F46E5"/>
<path d="M255.893 204.556C255.622 208.201 253.753 210.506 250.015 210.622C246.316 210.725 244.099 208.665 243.777 204.943C243.468 201.388 246.277 198.465 249.835 198.593C253.573 198.735 255.519 200.86 255.893 204.556Z" fill="#4F46E5"/>
<path d="M281.104 158.412C277.405 158.025 275.291 156.055 275.175 152.32C275.072 148.766 278.011 145.971 281.568 146.306C285.28 146.654 287.343 148.869 287.214 152.565C287.072 156.313 284.752 158.154 281.104 158.412Z" fill="#4F46E5"/>
<path d="M197.711 146.332C201.397 146.782 203.524 148.817 203.382 152.565C203.24 156.325 200.959 158.373 197.234 158.244C193.47 158.116 191.434 155.836 191.55 152.101C191.666 148.315 194.012 146.525 197.711 146.332Z" fill="#4F46E5"/>
<path d="M234.922 120.819C234.523 124.747 232.563 126.962 228.787 126.898C225.023 126.833 222.884 124.631 222.935 120.87C222.987 117.11 225.204 114.985 228.954 115.01C232.77 115.036 234.574 117.38 234.922 120.819Z" fill="#4F46E5"/>
<path d="M255.854 121.025C255.506 124.695 253.573 126.82 249.835 126.949C246.265 127.078 243.506 124.206 243.803 120.638C244.099 116.929 246.29 114.882 249.99 114.985C253.728 115.088 255.584 117.367 255.854 121.025Z" fill="#4F46E5"/>
<path d="M208.087 210.133C204.8 209.759 202.609 208.034 202.531 204.737C202.467 201.453 204.529 199.315 207.803 199.237C211.09 199.16 213.229 201.234 213.307 204.505C213.41 207.802 211.257 209.592 208.087 210.133Z" fill="#4F46E5"/>
<path d="M239.42 220.616C236.185 220.23 233.981 218.504 233.904 215.194C233.839 211.897 235.927 209.747 239.201 209.656C242.501 209.579 244.653 211.665 244.744 214.95C244.847 218.285 242.694 220.088 239.42 220.616Z" fill="#4F46E5"/>
<path d="M292.06 157.278C294.986 157.755 296.984 159.506 297.164 162.79C297.319 165.765 294.238 168.663 291.325 168.264C288.116 167.826 286.234 165.83 286.195 162.546C286.144 159.738 289.005 157.201 292.06 157.278Z" fill="#4F46E5"/>
<path d="M192.491 162.739C191.962 166.126 190.158 168.238 186.871 168.148C183.61 168.058 181.548 165.933 181.625 162.662C181.702 159.404 183.842 157.356 187.116 157.42C190.416 157.485 192.065 159.725 192.491 162.739Z" fill="#4F46E5"/>
<path d="M239.253 104.991C242.475 105.364 244.666 107.09 244.718 110.387C244.782 113.671 242.707 115.809 239.433 115.873C236.146 115.938 234.02 113.864 233.942 110.593C233.865 107.296 236.005 105.506 239.253 104.991Z" fill="#4F46E5"/>
<path d="M213.41 120.87C213.049 124.077 211.335 126.241 208.048 126.318C204.774 126.382 202.647 124.335 202.57 121.076C202.493 117.805 204.555 115.68 207.816 115.603C211.103 115.513 212.894 117.625 213.41 120.87Z" fill="#4F46E5"/>
<path d="M276.271 204.724C275.729 207.982 273.925 210.133 270.612 210.043C267.326 209.953 265.238 207.802 265.315 204.505C265.405 201.221 267.558 199.135 270.857 199.212C274.17 199.276 275.897 201.491 276.271 204.724Z" fill="#4F46E5"/>
<path d="M270.651 115.422C273.886 115.809 276.09 117.534 276.168 120.844C276.232 124.141 274.144 126.292 270.857 126.369C267.558 126.447 265.405 124.347 265.328 121.063C265.225 117.753 267.377 115.95 270.651 115.422Z" fill="#4F46E5"/>
<path d="M197.414 188.677C200.804 189.192 202.918 190.995 202.828 194.279C202.751 197.537 200.624 199.598 197.35 199.534C194.089 199.456 192.04 197.331 192.091 194.06C192.156 190.75 194.385 189.102 197.414 188.677Z" fill="#4F46E5"/>
<path d="M281.285 136.943C278.049 136.557 275.845 134.818 275.781 131.508C275.716 128.211 277.805 126.061 281.104 125.983C284.404 125.906 286.543 128.005 286.634 131.289C286.711 134.625 284.546 136.428 281.285 136.943Z" fill="#4F46E5"/>
<path d="M202.944 131.251C202.57 134.535 200.856 136.711 197.569 136.776C194.295 136.84 192.169 134.779 192.091 131.521C192.014 128.25 194.076 126.138 197.337 126.048C200.65 125.958 202.415 128.108 202.944 131.251Z" fill="#4F46E5"/>
<path d="M286.763 194.279C286.234 197.486 284.468 199.482 281.182 199.637C278.204 199.791 275.317 196.7 275.717 193.777C276.168 190.57 278.178 188.535 281.452 188.703C284.713 188.883 286.415 191.072 286.763 194.279Z" fill="#4F46E5"/>
<path d="M291.828 136.84C295.037 137.175 296.79 138.939 296.636 142.146C296.468 145.391 294.445 147.014 291.274 146.821C288.296 146.641 286.659 144.799 286.698 141.811C286.737 138.578 288.657 137.007 291.828 136.84Z" fill="#4F46E5"/>
<path d="M291.802 188.78C288.451 188.471 286.621 186.809 286.672 183.628C286.724 180.447 288.567 178.67 291.738 178.709C294.922 178.747 296.674 180.602 296.674 183.77C296.662 187.015 294.69 188.509 291.802 188.78Z" fill="#4F46E5"/>
<path d="M186.794 188.689C183.636 188.329 181.909 186.577 182.089 183.396C182.27 180.177 184.28 178.593 187.425 178.799C190.39 178.992 191.975 180.833 191.911 183.783C191.859 187.015 189.939 188.535 186.794 188.689Z" fill="#4F46E5"/>
<path d="M260.262 105.493C263.433 105.738 265.276 107.386 265.212 110.606C265.134 113.839 263.227 115.526 260.043 115.436C257.066 115.345 255.377 113.594 255.326 110.619C255.274 107.386 257.092 105.738 260.262 105.493Z" fill="#4F46E5"/>
<path d="M187.322 146.859C183.971 146.666 182.076 145.095 182.076 141.875C182.089 138.669 183.906 136.917 187.103 136.956C190.068 136.981 191.782 138.669 191.911 141.631C192.052 144.863 190.235 146.486 187.322 146.859Z" fill="#4F46E5"/>
<path d="M265.328 215.079C264.954 218.479 263.162 220.217 259.966 220.037C256.718 219.857 255.107 217.809 255.313 214.641C255.506 211.653 257.375 210.056 260.353 210.094C263.639 210.159 265.096 212.155 265.328 215.079Z" fill="#4F46E5"/>
<path d="M218.566 220.101C215.176 219.818 213.358 218.131 213.461 214.911C213.565 211.679 215.498 210.017 218.682 210.133C221.659 210.249 223.309 212.026 223.348 215.001C223.399 218.285 221.466 219.805 218.566 220.101Z" fill="#4F46E5"/>
<path d="M223.386 110.696C223.025 113.851 221.272 115.577 218.089 115.397C214.866 115.216 213.281 113.207 213.487 110.065C213.681 107.103 215.524 105.519 218.475 105.583C221.711 105.635 223.232 107.554 223.386 110.696Z" fill="#4F46E5"/>
<path d="M302.101 177.794C299.239 177.241 297.474 175.669 297.718 172.913C297.95 170.234 299.806 168.56 302.591 168.844C305.078 169.088 306.664 170.814 306.573 173.351C306.47 176.12 304.588 177.459 302.101 177.794Z" fill="#4F46E5"/>
<path d="M176.547 177.627C173.879 177.356 172.164 175.875 172.229 173.106C172.28 170.582 173.917 168.959 176.456 168.947C179.215 168.934 180.903 170.634 180.852 173.403C180.787 175.914 179.137 177.318 176.547 177.627Z" fill="#4F46E5"/>
<path d="M249.667 95.615C252.104 95.7824 253.882 97.0317 254.127 99.5817C254.385 102.376 252.774 104.218 250.028 104.373C247.257 104.527 245.491 102.801 245.453 100.032C245.414 97.4824 247.051 96.0271 249.667 95.615Z" fill="#4F46E5"/>
<path d="M306.664 152.179C306.406 154.844 304.988 156.699 302.23 156.75C299.484 156.802 297.744 155.038 297.706 152.294C297.68 149.77 299.33 148.07 301.817 147.903C304.575 147.722 306.135 149.448 306.664 152.179Z" fill="#4F46E5"/>
<path d="M176.405 147.954C178.815 148.109 180.568 149.332 180.813 151.869C181.071 154.638 179.485 156.467 176.753 156.622C174.008 156.763 172.255 155.089 172.216 152.32C172.19 149.783 173.788 148.34 176.405 147.954Z" fill="#4F46E5"/>
<path d="M233.35 225.446C233.079 228.086 231.648 229.915 228.916 229.928C226.196 229.94 224.482 228.202 224.482 225.472C224.482 222.96 226.132 221.299 228.606 221.157C231.339 221.003 232.886 222.703 233.35 225.446Z" fill="#4F46E5"/>
<path d="M233.285 99.955C233.092 102.428 231.777 104.166 229.238 104.36C226.454 104.566 224.611 102.93 224.52 100.174C224.417 97.405 226.17 95.6664 228.954 95.6793C231.494 95.705 232.924 97.3664 233.285 99.955Z" fill="#4F46E5"/>
<path d="M249.809 230.018C247.128 229.67 245.337 228.189 245.401 225.446C245.465 222.729 247.27 221.054 250.002 221.145C252.49 221.235 254.14 222.896 254.191 225.395C254.256 228.151 252.516 229.632 249.809 230.018Z" fill="#4F46E5"/>
<path d="M291.622 208.626C289.031 208.42 287.588 207.029 287.704 204.376C287.807 201.968 289.263 200.628 291.661 200.654C294.329 200.68 295.721 202.225 295.618 204.853C295.54 207.287 294.045 208.472 291.622 208.626Z" fill="#4F46E5"/>
<path d="M280.821 106.498C283.63 106.639 285.151 107.901 285.126 110.567C285.1 112.963 283.746 114.366 281.349 114.418C278.72 114.482 277.263 113.053 277.25 110.426C277.263 107.991 278.733 106.82 280.821 106.498Z" fill="#4F46E5"/>
<path d="M281.259 211.073C283.682 211.279 285.126 212.516 285.164 214.95C285.203 217.59 283.759 219.071 281.104 219.045C278.694 219.019 277.302 217.641 277.237 215.22C277.186 212.554 278.681 211.228 281.259 211.073Z" fill="#4F46E5"/>
<path d="M291.312 116.929C294.122 117.071 295.656 118.346 295.63 121.025C295.605 123.433 294.251 124.85 291.828 124.901C289.186 124.966 287.703 123.523 287.703 120.87C287.703 118.436 289.173 117.238 291.312 116.929Z" fill="#4F46E5"/>
<path d="M201.397 110.58C201.165 112.95 199.915 114.379 197.492 114.367C194.824 114.354 193.432 112.782 193.599 110.181C193.741 107.786 195.275 106.523 197.672 106.626C200.095 106.729 201.255 108.211 201.397 110.58Z" fill="#4F46E5"/>
<path d="M187.142 200.667C189.526 200.925 190.931 202.2 190.892 204.647C190.841 207.338 189.243 208.703 186.613 208.51C184.19 208.343 182.953 206.772 183.081 204.363C183.236 201.916 184.744 200.77 187.142 200.667Z" fill="#4F46E5"/>
<path d="M274.466 99.9036C274.273 102.067 273.139 103.561 270.973 103.677C268.563 103.806 267.055 102.338 267.081 99.9294C267.106 97.7658 268.537 96.4006 270.715 96.3748C272.92 96.362 274.092 97.7915 274.466 99.9036Z" fill="#4F46E5"/>
<path d="M211.631 100.045C211.322 102.158 210.175 103.639 208.022 103.652C205.651 103.664 204.168 102.158 204.31 99.7879C204.439 97.6886 205.883 96.3235 208.061 96.4136C210.226 96.5038 211.348 97.9462 211.631 100.045Z" fill="#4F46E5"/>
<path d="M197.453 211.125C199.85 211.292 201.333 212.503 201.371 214.95C201.41 217.615 199.902 219.071 197.247 218.968C194.811 218.878 193.509 217.384 193.56 214.975C193.612 212.528 195.056 211.318 197.453 211.125Z" fill="#4F46E5"/>
<path d="M302.114 197.949C299.807 197.627 298.311 196.365 298.44 193.944C298.556 191.793 299.961 190.428 302.127 190.454C304.524 190.493 305.955 191.974 305.852 194.382C305.748 196.558 304.292 197.692 302.114 197.949Z" fill="#4F46E5"/>
<path d="M176.25 190.441C178.557 190.699 180.053 191.819 180.143 193.957C180.246 196.327 178.764 197.834 176.392 197.782C174.265 197.744 172.912 196.301 172.899 194.15C172.886 191.948 174.407 190.892 176.25 190.441Z" fill="#4F46E5"/>
<path d="M187.142 124.914C184.525 124.631 183.094 123.394 183.12 120.973C183.146 118.307 184.719 116.929 187.335 117.097C189.732 117.251 190.983 118.784 190.88 121.179C190.776 123.626 189.204 124.682 187.142 124.914Z" fill="#4F46E5"/>
<path d="M301.907 135.165C299.678 134.689 298.208 133.388 298.479 130.993C298.711 128.906 300.167 127.567 302.32 127.722C304.666 127.902 306.045 129.434 305.8 131.804C305.581 133.929 304.099 135.037 301.907 135.165Z" fill="#4F46E5"/>
<path d="M211.67 225.69C211.283 227.802 210.097 229.219 207.906 229.193C205.728 229.168 204.31 227.79 204.297 225.626C204.284 223.218 205.805 221.762 208.203 221.904C210.342 222.02 211.476 223.527 211.67 225.69Z" fill="#4F46E5"/>
<path d="M270.483 221.737C272.997 222.097 274.505 223.321 274.415 225.716C274.324 227.841 272.932 229.219 270.78 229.207C268.408 229.194 266.99 227.725 267.042 225.343C267.106 223.192 268.653 222.162 270.483 221.737Z" fill="#4F46E5"/>
<path d="M180.207 131.508C179.808 133.646 178.609 135.089 176.405 134.986C174.239 134.895 172.86 133.453 172.938 131.277C173.028 129.113 174.459 127.735 176.65 127.812C178.828 127.902 179.962 129.383 180.207 131.508Z" fill="#4F46E5"/>
<path d="M315.905 162.701C315.686 164.826 314.591 166.049 312.58 166.023C310.569 165.998 309.345 164.761 309.37 162.752C309.396 160.743 310.634 159.532 312.644 159.545C314.668 159.558 315.699 160.846 315.905 162.701Z" fill="#4F46E5"/>
<path d="M263.137 235.633C263.059 237.552 262.234 238.659 260.61 238.814C258.754 238.994 257.53 238.016 257.465 236.109C257.401 234.216 258.522 233.16 260.404 233.186C262.093 233.212 262.853 234.345 263.137 235.633Z" fill="#4F46E5"/>
<path d="M236.121 236.058C236.417 233.804 237.603 232.697 239.614 232.864C241.663 233.031 242.669 234.422 242.462 236.406C242.282 238.17 241.096 239.2 239.266 239.149C237.203 239.097 236.288 237.796 236.121 236.058Z" fill="#4F46E5"/>
<path d="M221.247 235.98C221.04 237.758 220.099 238.865 218.23 238.788C216.619 238.711 215.614 237.68 215.614 236.071C215.614 234.229 216.722 233.16 218.566 233.224C220.19 233.276 221.027 234.358 221.247 235.98Z" fill="#4F46E5"/>
<path d="M221.208 89.6009C220.989 91.2107 220.125 92.3054 218.488 92.3183C216.619 92.3312 215.511 91.1721 215.666 89.3175C215.795 87.7335 216.89 86.7289 218.553 86.8319C220.177 86.9221 221.015 87.991 221.208 89.6009Z" fill="#4F46E5"/>
<path d="M242.475 89.5878C242.217 91.8544 240.954 92.859 238.931 92.6658C237.1 92.4855 236.121 91.2491 236.237 89.4203C236.366 87.2953 237.719 86.3166 239.743 86.5097C241.586 86.6643 242.411 87.9393 242.475 89.5878Z" fill="#4F46E5"/>
<path d="M263.15 89.4716C262.814 91.4806 261.77 92.5496 259.94 92.3564C258.381 92.189 257.375 91.1072 257.491 89.4844C257.607 87.6428 258.78 86.6382 260.61 86.8057C262.209 86.9473 262.943 88.1322 263.15 89.4716Z" fill="#4F46E5"/>
<path d="M168.865 141.863C168.671 143.472 167.808 144.58 166.184 144.606C164.315 144.644 163.206 143.498 163.322 141.631C163.425 140.034 164.521 139.042 166.171 139.106C167.821 139.197 168.658 140.266 168.865 141.863Z" fill="#4F46E5"/>
<path d="M315.506 141.566C315.377 143.627 314.449 144.709 312.567 144.709C310.93 144.709 309.899 143.781 309.77 142.172C309.615 140.356 310.53 139.158 312.412 139.016C314.307 138.888 315.209 140.021 315.506 141.566Z" fill="#4F46E5"/>
<path d="M169.148 162.803C169.019 164.774 167.95 165.92 165.887 165.843C164.057 165.778 163.013 164.684 163 162.855C162.987 160.781 164.16 159.674 166.222 159.738C168.066 159.79 169.006 160.91 169.148 162.803Z" fill="#4F46E5"/>
<path d="M168.865 183.783C168.62 185.38 167.743 186.475 166.106 186.449C164.237 186.423 163.142 185.251 163.322 183.397C163.477 181.825 164.598 180.821 166.248 180.95C167.872 181.078 168.723 182.16 168.865 183.783Z" fill="#4F46E5"/>
<path d="M315.493 183.641C315.377 185.457 314.449 186.552 312.567 186.552C310.93 186.552 309.899 185.624 309.77 184.015C309.615 182.199 310.53 180.988 312.412 180.859C314.268 180.743 315.274 181.787 315.493 183.641Z" fill="#4F46E5"/>
<path d="M381.44 103.028C379.865 104.084 378.25 104.29 376.674 103.074C375.112 101.872 374.966 100.225 375.571 98.2058C373.524 98.6508 371.682 98.6375 370.472 96.8176C369.435 95.2568 369.688 93.7291 370.712 92.2547C370.838 92.1285 370.964 92.0089 371.091 91.8827C371.822 91.358 372.673 90.8466 373.524 91.0193C375.079 91.3314 374.793 90.6141 374.88 89.5182C374.993 88.0039 374.833 87.3862 373.138 87.6319C372.52 87.7183 371.809 87.1736 371.144 86.9146C370.964 86.7352 370.785 86.5559 370.605 86.3832C369.708 84.8755 369.429 83.3413 370.519 81.8203C371.729 80.1332 373.437 79.9871 375.538 80.545C375.006 78.4794 375.086 76.6662 376.9 75.464C378.456 74.4411 379.985 74.6935 381.447 75.7097C381.573 75.8359 381.693 75.9621 381.819 76.0883C382.118 76.8256 382.763 77.616 382.65 78.2801C382.351 80.0735 383.202 79.748 384.445 79.8476C385.941 79.9672 386.067 79.562 386.027 78.2868C386 77.5628 386.572 76.8256 386.871 76.0883C387.004 75.9555 387.137 75.816 387.27 75.6832C388.839 74.5806 390.454 74.3946 392.03 75.5902C393.598 76.7857 393.784 78.4196 393.18 80.4255C395.174 80.0801 397.035 79.9937 398.258 81.8335C399.295 83.3944 399.056 84.922 398.072 86.4098C397.919 86.5626 397.766 86.7087 397.62 86.8614C396.875 87.1537 396.098 87.7515 395.393 87.6718C393.871 87.4991 393.891 88.0371 393.911 89.3256C393.931 90.5743 393.858 91.172 395.4 90.9993C396.104 90.9196 396.882 91.524 397.62 91.8163C397.773 91.969 397.926 92.1218 398.085 92.2746C399.136 93.8421 399.342 95.456 398.138 97.0169C396.942 98.5644 395.333 98.8102 393.306 98.146C393.718 100.232 393.652 102.131 391.724 103.327C390.241 104.243 388.779 103.991 387.37 103.094C387.177 102.902 386.991 102.709 386.798 102.523C386.054 101.42 385.861 100.192 386.067 98.9098C383.946 98.6707 382.185 98.7305 382.404 101.54C382.431 101.879 382.059 102.244 381.866 102.596C381.72 102.749 381.58 102.888 381.44 103.028ZM391.598 96.5652C390.381 95.828 392.934 93.51 390.222 93.4967C388.839 93.49 388.513 93.9616 388.526 95.2435C388.546 97.9335 390.833 95.3896 391.598 96.5652ZM377.206 96.5984C377.957 95.5822 380.663 97.9932 380.191 94.6856C379.812 92.0554 378.143 94.1277 377.219 93.4502C377.598 94.5461 377.199 95.4627 377.206 96.5984ZM391.691 82.1789C388.48 82.511 388.56 82.5243 388.467 83.2682C388.154 85.8519 390.109 84.9751 391.624 85.3803C391.172 84.1781 391.524 83.1951 391.691 82.1789ZM377.18 82.0394C377.359 83.2084 377.472 84.2113 377.293 85.3405C378.177 84.5501 379.951 86.5028 380.251 83.8992C380.616 80.6779 377.897 83.235 377.18 82.0394ZM383.136 89.1529C383.189 89.837 382.67 90.82 384.073 90.5411C384.784 90.4016 385.701 90.9063 385.582 89.4319C385.502 88.4289 385.449 88.0371 384.299 88.1101C383.435 88.1633 382.816 88.0769 383.136 89.1529Z" fill="#4F46E5"/>
<path d="M381.833 76.0884C381.706 75.9622 381.587 75.836 381.46 75.7099C381.44 75.5504 381.46 75.3711 381.401 75.2316C380.583 73.4317 380.556 71.7314 382.232 70.4163C383.594 69.3469 385.13 69.3403 386.499 70.403C388.181 71.7048 388.161 73.4118 387.363 75.2117C387.303 75.3512 387.317 75.5305 387.297 75.6899C387.164 75.8228 387.031 75.9622 386.898 76.0951C385.203 76.7792 383.514 76.7659 381.833 76.0884Z" fill="#4F46E5"/>
<path d="M398.085 92.2811C397.932 92.1284 397.78 91.9756 397.62 91.8228C396.909 90.169 396.922 88.5218 397.62 86.868C397.773 86.7152 397.926 86.5691 398.072 86.4163C398.61 86.2503 399.136 86.0444 399.687 85.9381C401.249 85.6392 402.592 86.0178 403.49 87.406C404.307 88.6746 404.307 90.0096 403.496 91.2782C402.605 92.6663 401.256 93.0516 399.694 92.7527C399.149 92.6597 398.624 92.4472 398.085 92.2811Z" fill="#4F46E5"/>
<path d="M386.792 102.53C386.984 102.722 387.171 102.915 387.363 103.101C387.47 103.486 387.576 103.878 387.676 104.263C388.114 105.911 387.849 107.378 386.386 108.395C385.043 109.325 383.594 109.305 382.272 108.342C380.836 107.292 380.603 105.818 381.088 104.184C381.201 103.798 381.328 103.413 381.441 103.028C381.58 102.889 381.72 102.742 381.859 102.603C383.495 101.912 385.143 101.932 386.792 102.53Z" fill="#4F46E5"/>
<path d="M371.097 91.8825C370.971 92.0087 370.845 92.1283 370.718 92.2545C368.744 92.8855 366.763 93.45 365.294 91.3246C364.437 90.0892 364.417 88.7409 365.234 87.4657C366.637 85.2938 368.625 85.772 370.619 86.3698C370.798 86.5491 370.978 86.7284 371.157 86.9011C371.802 88.5749 371.742 90.2353 371.097 91.8825Z" fill="#4F46E5"/>
<path d="M403.942 100.072C403.981 101.899 402.333 103.546 400.505 103.513C398.77 103.479 397.221 101.938 397.188 100.198C397.148 98.3651 398.79 96.7246 400.625 96.7578C402.353 96.7977 403.902 98.3386 403.942 100.072Z" fill="#4F46E5"/>
<path d="M368.199 103.486C366.391 103.506 364.762 101.852 364.822 100.052C364.875 98.3321 366.418 96.8177 368.139 96.7978C369.947 96.7779 371.576 98.4317 371.516 100.232C371.469 101.952 369.921 103.466 368.199 103.486Z" fill="#4F46E5"/>
<path d="M376.927 105.412C377 107.219 375.385 108.886 373.563 108.886C371.842 108.886 370.28 107.372 370.207 105.651C370.133 103.845 371.749 102.178 373.57 102.178C375.298 102.178 376.86 103.685 376.927 105.412Z" fill="#4F46E5"/>
<path d="M400.372 81.9267C398.537 81.8138 397.022 80.0537 397.208 78.2537C397.387 76.5136 399.036 75.0922 400.744 75.1985C402.579 75.3114 404.094 77.0781 403.908 78.8714C403.735 80.6116 402.087 82.033 400.372 81.9267Z" fill="#4F46E5"/>
<path d="M368.053 75.218C369.754 75.1516 371.37 76.5995 371.509 78.3264C371.656 80.1131 370.107 81.84 368.285 81.913C366.484 81.9861 364.816 80.3788 364.822 78.5655C364.829 76.8453 366.331 75.2844 368.053 75.218Z" fill="#4F46E5"/>
<path d="M398.531 73.1858C398.524 75.0123 396.842 76.6197 395.028 76.5333C393.293 76.4536 391.79 74.8861 391.797 73.1526C391.804 71.3261 393.485 69.7187 395.3 69.8051C397.035 69.8848 398.537 71.4589 398.531 73.1858Z" fill="#4F46E5"/>
<path d="M373.583 69.8253C375.398 69.8319 377 71.5057 376.914 73.3056C376.834 75.0325 375.265 76.5269 373.55 76.5136C371.736 76.507 370.134 74.8333 370.213 73.0333C370.3 71.3131 371.868 69.812 373.583 69.8253Z" fill="#4F46E5"/>
<path d="M398.531 105.492C398.557 107.318 396.902 108.946 395.081 108.899C393.346 108.853 391.817 107.305 391.797 105.572C391.77 103.745 393.419 102.118 395.247 102.171C396.982 102.217 398.504 103.758 398.531 105.492Z" fill="#4F46E5"/>
<path d="M375.85 110.732C376.123 108.833 377.199 107.817 379.114 107.836C380.942 107.856 382.278 109.411 382.045 111.244C381.799 113.163 380.603 114.126 378.708 113.994C376.774 113.854 375.903 112.605 375.85 110.732Z" fill="#4F46E5"/>
<path d="M405.956 97.8804C404.055 97.7144 402.944 96.7247 402.851 94.7986C402.765 92.9654 404.254 91.5042 406.089 91.6371C408.003 91.7765 409.093 92.899 409.053 94.8119C409.02 96.738 407.85 97.721 405.956 97.8804Z" fill="#4F46E5"/>
<path d="M365.873 94.7122C365.726 96.6118 364.762 97.7808 362.808 97.794C360.874 97.8073 359.744 96.7181 359.717 94.7786C359.697 92.8459 360.794 91.7234 362.728 91.6902C364.683 91.6636 365.686 92.806 365.873 94.7122Z" fill="#4F46E5"/>
<path d="M392.907 110.892C392.767 112.771 391.804 113.96 389.876 114.02C387.968 114.073 386.825 113.011 386.659 111.091C386.499 109.258 387.948 107.75 389.783 107.817C391.711 107.89 392.714 108.986 392.907 110.892Z" fill="#4F46E5"/>
<path d="M405.909 87.0938C404.001 86.8946 402.911 85.8784 402.851 83.9522C402.798 82.1191 404.314 80.6778 406.148 80.8505C408.063 81.0298 409.126 82.1722 409.06 84.0784C408.987 86.0112 407.79 86.961 405.909 87.0938Z" fill="#4F46E5"/>
<path d="M362.901 80.8638C364.802 81.0962 365.899 82.1456 365.826 84.0784C365.753 86.0179 364.576 87.0739 362.655 87.0075C360.714 86.9411 359.664 85.7655 359.724 83.8393C359.784 81.8866 360.993 80.9634 362.901 80.8638Z" fill="#4F46E5"/>
<path d="M382.092 67.7063C381.886 69.7321 380.875 70.8745 378.928 70.8413C376.987 70.8081 375.883 69.6723 375.91 67.7329C375.937 65.7934 377.08 64.6975 379.014 64.7108C380.982 64.7241 381.912 65.9329 382.092 67.7063Z" fill="#4F46E5"/>
<path d="M392.887 67.8125C392.708 69.7054 391.711 70.8014 389.783 70.8678C387.942 70.9342 386.519 69.4531 386.672 67.6133C386.825 65.7004 387.955 64.6443 389.863 64.6975C391.79 64.7506 392.748 65.9262 392.887 67.8125Z" fill="#4F46E5"/>
<path d="M368.252 113.768C366.557 113.575 365.427 112.685 365.387 110.985C365.354 109.291 366.418 108.188 368.106 108.149C369.801 108.109 370.905 109.178 370.944 110.865C370.998 112.565 369.888 113.489 368.252 113.768Z" fill="#4F46E5"/>
<path d="M384.412 119.174C382.743 118.975 381.607 118.085 381.567 116.378C381.533 114.678 382.61 113.568 384.299 113.522C386 113.482 387.111 114.558 387.157 116.252C387.21 117.972 386.1 118.902 384.412 119.174Z" fill="#4F46E5"/>
<path d="M411.559 86.5094C413.068 86.7552 414.099 87.6585 414.192 89.3522C414.271 90.8864 412.683 92.3809 411.18 92.175C409.525 91.9491 408.555 90.9196 408.535 89.226C408.508 87.778 409.984 86.4696 411.559 86.5094Z" fill="#4F46E5"/>
<path d="M360.209 89.3254C359.937 91.0722 359.006 92.1615 357.311 92.115C355.629 92.0685 354.566 90.9726 354.605 89.2856C354.645 87.6052 355.749 86.5491 357.437 86.5823C359.139 86.6155 359.99 87.7712 360.209 89.3254Z" fill="#4F46E5"/>
<path d="M384.325 59.5435C385.987 59.7361 387.117 60.6261 387.144 62.3264C387.177 64.0201 386.107 65.1226 384.418 65.1558C382.723 65.1891 381.627 64.1197 381.587 62.4327C381.547 60.7324 382.65 59.8091 384.325 59.5435Z" fill="#4F46E5"/>
<path d="M370.998 67.7329C370.812 69.3867 369.927 70.5025 368.232 70.5424C366.544 70.5756 365.447 69.5195 365.407 67.8391C365.367 66.1521 366.431 65.0562 368.113 65.0163C369.808 64.9698 370.732 66.0591 370.998 67.7329Z" fill="#4F46E5"/>
<path d="M403.416 110.978C403.137 112.658 402.207 113.768 400.498 113.721C398.803 113.675 397.726 112.565 397.766 110.865C397.813 109.171 398.923 108.095 400.625 108.135C402.333 108.169 403.224 109.311 403.416 110.978Z" fill="#4F46E5"/>
<path d="M400.518 64.9233C402.187 65.1226 403.323 66.0126 403.363 67.7196C403.396 69.4199 402.32 70.5291 400.625 70.5689C398.923 70.6088 397.813 69.5262 397.773 67.8325C397.72 66.1255 398.83 65.1957 400.518 64.9233Z" fill="#4F46E5"/>
<path d="M362.748 102.702C364.496 102.968 365.587 103.898 365.54 105.592C365.5 107.272 364.403 108.335 362.715 108.301C361.033 108.262 359.976 107.166 360.003 105.479C360.036 103.772 361.186 102.922 362.748 102.702Z" fill="#4F46E5"/>
<path d="M406.002 76.022C404.334 75.8227 403.197 74.926 403.164 73.2191C403.13 71.5188 404.207 70.4096 405.909 70.3697C407.611 70.3299 408.714 71.4125 408.761 73.1062C408.801 74.8264 407.684 75.7563 406.002 76.022Z" fill="#4F46E5"/>
<path d="M365.6 73.0861C365.407 74.7798 364.523 75.9023 362.828 75.9355C361.14 75.9687 360.043 74.906 360.003 73.2256C359.963 71.5385 361.027 70.4493 362.708 70.4028C364.417 70.3563 365.327 71.4655 365.6 73.0861Z" fill="#4F46E5"/>
<path d="M408.827 105.592C408.555 107.245 407.644 108.275 405.949 108.355C404.414 108.434 402.924 106.84 403.131 105.333C403.363 103.679 404.4 102.629 406.089 102.716C407.77 102.809 408.648 103.938 408.827 105.592Z" fill="#4F46E5"/>
<path d="M411.44 75.9688C413.095 76.1414 413.999 77.0514 413.919 78.7052C413.833 80.379 412.789 81.2158 411.154 81.1162C409.618 81.0232 408.774 80.0734 408.794 78.5325C408.814 76.8654 409.804 76.0551 411.44 75.9688Z" fill="#4F46E5"/>
<path d="M411.426 102.755C409.698 102.596 408.754 101.739 408.781 100.099C408.807 98.458 409.758 97.5414 411.393 97.5614C413.035 97.5813 413.939 98.5377 413.939 100.172C413.932 101.845 412.915 102.616 411.426 102.755Z" fill="#4F46E5"/>
<path d="M357.271 102.709C355.642 102.523 354.752 101.62 354.845 99.979C354.938 98.3185 355.975 97.5016 357.597 97.6078C359.126 97.7075 359.943 98.6572 359.91 100.178C359.883 101.845 358.893 102.629 357.271 102.709Z" fill="#4F46E5"/>
<path d="M395.16 59.8022C396.796 59.9284 397.746 60.7786 397.713 62.4391C397.673 64.1062 396.689 64.9763 395.048 64.9298C393.512 64.8833 392.641 63.98 392.615 62.4457C392.588 60.7786 393.525 59.9284 395.16 59.8022Z" fill="#4F46E5"/>
<path d="M357.544 81.1362C355.815 81.0366 354.838 80.2263 354.838 78.5658C354.845 76.912 355.782 76.0087 357.431 76.0286C358.959 76.0419 359.843 76.912 359.91 78.4396C359.983 80.1068 359.046 80.9436 357.544 81.1362Z" fill="#4F46E5"/>
<path d="M397.773 116.318C397.58 118.072 396.656 118.968 395.008 118.875C393.332 118.782 392.502 117.726 392.608 116.092C392.708 114.551 393.671 113.728 395.207 113.748C396.902 113.781 397.653 114.81 397.773 116.318Z" fill="#4F46E5"/>
<path d="M373.657 118.908C371.908 118.762 370.971 117.892 371.024 116.232C371.077 114.565 372.075 113.708 373.716 113.768C375.252 113.827 376.103 114.744 376.123 116.278C376.149 117.972 375.152 118.756 373.657 118.908Z" fill="#4F46E5"/>
<path d="M376.143 62.4859C375.957 64.1132 375.053 65.0032 373.411 64.9102C371.749 64.8172 370.931 63.7811 371.038 62.1605C371.137 60.6329 372.088 59.8159 373.61 59.8491C375.279 59.8757 376.063 60.8653 376.143 62.4859Z" fill="#4F46E5"/>
<path d="M416.738 97.0902C415.262 96.8046 414.351 95.9942 414.477 94.5729C414.597 93.1914 415.554 92.3279 416.99 92.4741C418.273 92.6003 419.091 93.4903 419.044 94.7987C418.991 96.2267 418.02 96.9175 416.738 97.0902Z" fill="#4F46E5"/>
<path d="M351.986 97.0035C350.61 96.864 349.726 96.1002 349.76 94.6722C349.786 93.3704 350.63 92.5335 351.94 92.5269C353.362 92.5203 354.233 93.397 354.207 94.825C354.173 96.1201 353.322 96.8441 351.986 97.0035Z" fill="#4F46E5"/>
<path d="M389.696 54.708C390.953 54.7944 391.87 55.4386 391.996 56.7537C392.129 58.195 391.298 59.1448 389.883 59.2245C388.453 59.3042 387.543 58.4142 387.523 56.9862C387.503 55.6711 388.347 54.9205 389.696 54.708Z" fill="#4F46E5"/>
<path d="M419.091 83.8792C418.958 85.2541 418.227 86.2105 416.804 86.2371C415.388 86.2637 414.491 85.3537 414.471 83.939C414.458 82.6372 415.308 81.7605 416.591 81.6741C418.014 81.5811 418.818 82.4712 419.091 83.8792Z" fill="#4F46E5"/>
<path d="M351.913 81.7007C353.156 81.7804 354.06 82.4114 354.187 83.7198C354.319 85.1478 353.502 86.091 352.093 86.1707C350.677 86.2437 349.773 85.3803 349.753 83.9523C349.739 82.6438 350.564 81.8999 351.913 81.7007Z" fill="#4F46E5"/>
<path d="M381.281 121.665C381.141 123.027 380.404 123.97 378.994 123.976C377.592 123.983 376.708 123.086 376.708 121.678C376.708 120.383 377.558 119.526 378.835 119.453C380.244 119.374 381.042 120.25 381.281 121.665Z" fill="#4F46E5"/>
<path d="M381.248 56.9463C381.148 58.2216 380.47 59.1182 379.16 59.2179C377.725 59.3241 376.774 58.4806 376.728 57.0593C376.674 55.6313 377.578 54.7346 379.014 54.7412C380.324 54.7545 381.062 55.6113 381.248 56.9463Z" fill="#4F46E5"/>
<path d="M389.769 124.023C388.387 123.844 387.463 123.08 387.496 121.665C387.529 120.264 388.46 119.4 389.869 119.447C391.152 119.493 392.003 120.35 392.029 121.638C392.063 123.06 391.165 123.824 389.769 124.023Z" fill="#4F46E5"/>
<path d="M411.333 112.991C409.997 112.884 409.253 112.167 409.312 110.799C409.366 109.557 410.117 108.866 411.353 108.879C412.729 108.893 413.447 109.69 413.394 111.045C413.354 112.3 412.583 112.911 411.333 112.991Z" fill="#4F46E5"/>
<path d="M405.763 60.3206C407.212 60.3936 407.996 61.0445 407.983 62.4194C407.97 63.6548 407.272 64.3787 406.035 64.4053C404.679 64.4385 403.928 63.7013 403.922 62.3463C403.928 61.091 404.686 60.4866 405.763 60.3206Z" fill="#4F46E5"/>
<path d="M405.989 114.252C407.239 114.359 407.983 114.996 408.003 116.252C408.023 117.613 407.279 118.377 405.909 118.364C404.666 118.35 403.948 117.64 403.915 116.391C403.888 115.016 404.66 114.332 405.989 114.252Z" fill="#4F46E5"/>
<path d="M411.174 65.7004C412.623 65.7735 413.414 66.431 413.401 67.8126C413.387 69.0546 412.689 69.7852 411.44 69.8118C410.077 69.845 409.312 69.1011 409.312 67.7329C409.312 66.4775 410.07 65.8598 411.174 65.7004Z" fill="#4F46E5"/>
<path d="M364.802 62.4259C364.683 63.648 364.038 64.3852 362.788 64.3786C361.412 64.3719 360.694 63.5616 360.781 62.22C360.854 60.9846 361.645 60.3337 362.881 60.3868C364.131 60.4399 364.729 61.2037 364.802 62.4259Z" fill="#4F46E5"/>
<path d="M357.45 108.886C358.68 109.019 359.405 109.676 359.385 110.938C359.358 112.326 358.534 113.031 357.178 112.931C355.928 112.845 355.29 112.034 355.357 110.792C355.436 109.53 356.214 108.939 357.45 108.886Z" fill="#4F46E5"/>
<path d="M402.486 56.9198C402.386 58.0356 401.801 58.8061 400.684 58.8659C399.441 58.9323 398.664 58.1751 398.677 56.9331C398.69 55.8172 399.428 55.1132 400.551 55.0999C401.688 55.0933 402.293 55.8305 402.486 56.9198Z" fill="#4F46E5"/>
<path d="M370.08 56.9929C369.921 58.0821 369.329 58.8459 368.219 58.8526C366.996 58.8592 366.231 58.0821 366.305 56.86C366.371 55.7774 367.115 55.0734 368.239 55.1198C369.356 55.1663 369.934 55.9102 370.08 56.9929Z" fill="#4F46E5"/>
<path d="M362.768 114.279C364.005 114.366 364.769 114.99 364.789 116.252C364.809 117.627 364.031 118.377 362.662 118.324C361.406 118.278 360.734 117.507 360.761 116.265C360.787 115.003 361.532 114.379 362.768 114.279Z" fill="#4F46E5"/>
<path d="M416.744 107.484C415.554 107.318 414.783 106.667 414.85 105.419C414.91 104.31 415.634 103.606 416.751 103.619C417.987 103.639 418.725 104.403 418.672 105.645C418.619 106.767 417.868 107.352 416.744 107.484Z" fill="#4F46E5"/>
<path d="M351.833 103.612C353.023 103.745 353.794 104.323 353.841 105.426C353.894 106.648 353.13 107.425 351.907 107.398C350.81 107.378 350.112 106.634 350.105 105.525C350.099 104.389 350.883 103.845 351.833 103.612Z" fill="#4F46E5"/>
<path d="M357.45 69.8184C356.101 69.6723 355.363 69.0347 355.377 67.786C355.39 66.4112 356.201 65.7005 357.55 65.7868C358.787 65.8665 359.431 66.6569 359.378 67.8923C359.325 69.1543 358.514 69.6989 357.45 69.8184Z" fill="#4F46E5"/>
<path d="M416.638 75.1055C415.488 74.8597 414.73 74.1889 414.87 72.9535C414.989 71.8775 415.74 71.1868 416.85 71.2665C418.06 71.3595 418.772 72.1499 418.645 73.372C418.532 74.4679 417.768 75.0391 416.638 75.1055Z" fill="#4F46E5"/>
<path d="M370.1 121.791C369.901 122.88 369.289 123.611 368.159 123.598C367.036 123.584 366.305 122.874 366.298 121.758C366.291 120.516 367.076 119.765 368.312 119.838C369.416 119.898 370 120.675 370.1 121.791Z" fill="#4F46E5"/>
<path d="M400.432 119.752C401.728 119.938 402.506 120.569 402.459 121.804C402.413 122.9 401.695 123.611 400.585 123.604C399.361 123.598 398.63 122.84 398.657 121.612C398.69 120.502 399.488 119.971 400.432 119.752Z" fill="#4F46E5"/>
<path d="M353.874 73.2191C353.668 74.3216 353.05 75.0655 351.913 75.0124C350.796 74.9659 350.085 74.222 350.125 73.0995C350.172 71.9837 350.909 71.273 352.039 71.3129C353.163 71.3594 353.748 72.1232 353.874 73.2191Z" fill="#4F46E5"/>
<path d="M423.857 89.3055C423.744 90.4014 423.179 91.0324 422.142 91.0191C421.105 91.0059 420.473 90.3682 420.487 89.3321C420.5 88.296 421.138 87.6716 422.175 87.6783C423.219 87.6849 423.75 88.3491 423.857 89.3055Z" fill="#4F46E5"/>
<path d="M396.643 126.919C396.603 127.908 396.177 128.48 395.34 128.559C394.383 128.652 393.751 128.147 393.718 127.164C393.685 126.188 394.263 125.643 395.234 125.657C396.104 125.67 396.497 126.254 396.643 126.919Z" fill="#4F46E5"/>
<path d="M382.71 127.138C382.863 125.975 383.475 125.404 384.511 125.49C385.568 125.577 386.087 126.294 385.981 127.317C385.887 128.227 385.276 128.758 384.332 128.732C383.268 128.705 382.796 128.034 382.71 127.138Z" fill="#4F46E5"/>
<path d="M375.039 127.098C374.933 128.015 374.448 128.586 373.484 128.546C372.653 128.506 372.134 127.975 372.134 127.145C372.134 126.195 372.706 125.644 373.656 125.677C374.494 125.703 374.926 126.261 375.039 127.098Z" fill="#4F46E5"/>
<path d="M375.019 51.6065C374.906 52.4368 374.461 53.0013 373.617 53.008C372.653 53.0146 372.081 52.4168 372.161 51.4604C372.227 50.6435 372.792 50.1254 373.65 50.1785C374.487 50.225 374.92 50.7763 375.019 51.6065Z" fill="#4F46E5"/>
<path d="M385.987 51.5997C385.854 52.7687 385.203 53.2868 384.159 53.1871C383.215 53.0942 382.71 52.4565 382.77 51.5134C382.836 50.4175 383.534 49.9127 384.578 50.0123C385.529 50.092 385.954 50.7496 385.987 51.5997Z" fill="#4F46E5"/>
<path d="M396.649 51.5399C396.477 52.5761 395.938 53.1274 394.994 53.0277C394.19 52.9414 393.671 52.3835 393.731 51.5466C393.791 50.5968 394.396 50.0787 395.34 50.1651C396.164 50.2381 396.543 50.8492 396.649 51.5399Z" fill="#4F46E5"/>
<path d="M348.025 78.5591C347.925 79.3894 347.48 79.9606 346.642 79.9738C345.678 79.9938 345.106 79.4026 345.166 78.4396C345.219 77.616 345.784 77.1045 346.635 77.1378C347.486 77.1842 347.918 77.7355 348.025 78.5591Z" fill="#4F46E5"/>
<path d="M423.651 78.4062C423.584 79.4689 423.106 80.0268 422.135 80.0268C421.291 80.0268 420.759 79.5486 420.693 78.7183C420.613 77.7818 421.085 77.1641 422.055 77.0911C423.032 77.0247 423.498 77.6092 423.651 78.4062Z" fill="#4F46E5"/>
<path d="M348.171 89.359C348.104 90.3752 347.553 90.9663 346.489 90.9265C345.545 90.8933 345.007 90.3287 345 89.3855C344.993 88.3162 345.598 87.745 346.662 87.7782C347.612 87.8048 348.098 88.3826 348.171 89.359Z" fill="#4F46E5"/>
<path d="M348.025 100.178C347.898 101.002 347.446 101.567 346.602 101.553C345.638 101.54 345.073 100.936 345.166 99.9791C345.246 99.1688 345.824 98.6507 346.675 98.7171C347.513 98.7836 347.951 99.3415 348.025 100.178Z" fill="#4F46E5"/>
<path d="M423.644 100.105C423.584 101.042 423.106 101.606 422.135 101.606C421.291 101.606 420.759 101.128 420.693 100.298C420.613 99.3615 421.085 98.7372 422.055 98.6708C423.013 98.611 423.531 99.149 423.644 100.105Z" fill="#4F46E5"/>
<path d="M414.22 193.496H93.3688C85.9714 193.496 80 187.658 80 180.426V110.723C80 103.491 85.9714 97.6536 93.3688 97.6536H369.657" stroke="#4F46E5" stroke-width="2"/>
<path d="M416.894 79.3564H443.631C451.029 79.3564 457 85.1941 457 92.4258V135.99C457 143.222 451.029 149.06 443.631 149.06H399.069C391.671 149.06 385.7 143.222 385.7 135.99V118.565" stroke="#4F46E5" stroke-width="2"/>
<path d="M417.285 79.3565C417.285 81.4757 415.524 83.2129 413.329 83.2129C411.133 83.2129 409.372 81.4757 409.372 79.3565C409.372 77.2372 411.133 75.5 413.329 75.5C415.524 75.5 417.285 77.2372 417.285 79.3565Z" stroke="#4F46E5"/>
<path d="M413.329 82.8417C415.297 82.8417 416.894 81.2813 416.894 79.3565C416.894 77.4317 415.297 75.8713 413.329 75.8713C411.36 75.8713 409.764 77.4317 409.764 79.3565C409.764 81.2813 411.36 82.8417 413.329 82.8417Z" stroke="#4F46E5" stroke-width="2"/>
<path d="M364.31 97.6536H372.331C379.728 97.6536 385.7 103.491 385.7 110.723V118.565" stroke="#4F46E5" stroke-width="2"/>
<path d="M110.548 121.679H124.317C128.133 121.679 131.193 124.686 131.193 128.389V141.849C131.193 145.552 128.133 148.56 124.317 148.56H110.548C106.733 148.56 103.673 145.552 103.673 141.849V128.389C103.673 124.686 106.733 121.679 110.548 121.679Z" fill="#FC9D4F" stroke="#FC9D4F"/>
<path d="M110.548 121.659H124.317C128.103 121.659 131.201 124.688 131.201 128.389V141.849C131.201 145.551 128.103 148.579 124.317 148.579H110.548C106.762 148.579 103.664 145.551 103.664 141.849V128.389C103.664 124.688 106.762 121.659 110.548 121.659Z" fill="#FC9D4F" stroke="#FC9D4F" stroke-width="2"/>
<path d="M419.176 117.693V117.193H418.676H412.437C410.742 117.193 409.372 115.838 409.372 114.208C409.372 112.578 410.742 111.223 412.437 111.223H418.676H419.176V110.723V104.624C419.176 102.994 420.546 101.638 422.241 101.638C423.936 101.638 425.306 102.994 425.306 104.624V110.723V111.223H425.806H432.045C433.74 111.223 435.11 112.578 435.11 114.208C435.11 115.838 433.74 117.193 432.045 117.193H425.806H425.306V117.693V123.792C425.306 125.422 423.936 126.777 422.241 126.777C420.546 126.777 419.176 125.422 419.176 123.792V117.693Z" stroke="#4F46E5"/>
<path d="M419.176 117.693V117.193H418.676H412.437C410.742 117.193 409.372 115.838 409.372 114.208C409.372 112.578 410.742 111.223 412.437 111.223H418.676H419.176V110.723V104.624C419.176 102.994 420.546 101.638 422.241 101.638C423.936 101.638 425.306 102.994 425.306 104.624V110.723V111.223H425.806H432.045C433.74 111.223 435.11 112.578 435.11 114.208C435.11 115.838 433.74 117.193 432.045 117.193H425.806H425.306V117.693V123.792C425.306 125.422 423.936 126.777 422.241 126.777C420.546 126.777 419.176 125.422 419.176 123.792V117.693ZM422.241 126.035C423.487 126.035 424.524 125.037 424.524 123.792V116.45H432.045C433.291 116.45 434.327 115.453 434.327 114.208C434.327 112.963 433.291 111.965 432.045 111.965H424.524V104.624C424.524 103.378 423.487 102.381 422.241 102.381C420.995 102.381 419.959 103.378 419.959 104.624V111.965H412.437C411.192 111.965 410.155 112.963 410.155 114.208C410.155 115.453 411.192 116.45 412.437 116.45H419.959V123.792C419.959 125.037 420.995 126.035 422.241 126.035Z" fill="#DBDEE5" stroke="#4F46E5"/>
<path d="M166.5 228.519C180.583 228.519 192 217.434 192 203.759C192 190.085 180.583 179 166.5 179C152.417 179 141 190.085 141 203.759C141 217.434 152.417 228.519 166.5 228.519Z" fill="#4F46E5"/>
<path d="M166.5 227.78C180.175 227.78 191.261 217.025 191.261 203.759C191.261 190.493 180.175 179.739 166.5 179.739C152.825 179.739 141.739 190.493 141.739 203.759C141.739 217.025 152.825 227.78 166.5 227.78Z" stroke="#4F46E5" stroke-width="2"/>
<path d="M160.198 217.779C158.879 217.779 157.319 217.066 158.159 214.691C158.879 212.672 162.958 204.122 163.918 201.985C160.558 200.56 158.999 196.641 160.438 193.316C161.878 189.991 165.837 188.447 169.196 189.872C172.556 191.297 174.115 195.216 172.676 198.541C172.076 199.966 170.876 201.153 169.436 201.866C170.396 203.885 174.355 212.554 175.075 214.573C175.915 216.829 174.355 217.66 173.156 217.66L160.198 217.779Z" fill="#F7FAFB"/>
<path d="M401.608 204.456L401.608 204.456L401.617 204.465L414.214 217.063C415.501 218.349 415.501 220.33 414.214 221.617L401.617 234.214C400.33 235.501 398.349 235.501 397.063 234.214L384.465 221.617C383.178 220.33 383.178 218.349 384.465 217.063L397.063 204.465C398.355 203.173 400.402 203.187 401.608 204.456Z" stroke="#4F46E5"/>
<path d="M401.599 204.446L401.607 204.456L401.617 204.465L414.214 217.063C415.501 218.349 415.501 220.33 414.214 221.617L401.617 234.214C400.968 234.863 400.132 235.179 399.377 235.179C398.537 235.179 397.715 234.856 397.155 234.233L397.146 234.224L397.137 234.214L384.539 221.617C383.252 220.33 383.252 218.349 384.539 217.063L397.137 204.465L397.146 204.456L397.155 204.446C397.715 203.823 398.537 203.5 399.377 203.5C400.216 203.5 401.038 203.823 401.599 204.446ZM399.377 203.982C398.678 203.982 397.938 204.24 397.452 204.81L384.87 217.393C383.797 218.466 383.771 220.197 384.877 221.22L397.467 233.81C397.999 234.342 398.643 234.623 399.377 234.623C400.075 234.623 400.815 234.365 401.301 233.795L413.884 221.212C414.957 220.14 414.982 218.408 413.877 217.386L401.301 204.81C400.815 204.24 400.075 203.982 399.377 203.982Z" fill="#212225" stroke="#4F46E5"/>
<path d="M395.968 217.523L393.226 219.598L395.968 221.673" stroke="#4F46E5" stroke-width="1.5" stroke-linecap="round" stroke-linejoin="round"/>
<path d="M402.785 217.523L405.527 219.598L402.785 221.673" stroke="#4F46E5" stroke-width="1.5" stroke-linecap="round" stroke-linejoin="round"/>
<path d="M400.044 216.189L398.71 223.007" stroke="#4F46E5" stroke-width="1.5" stroke-linecap="round" stroke-linejoin="round"/>
<path d="M304.491 112.456H335.696C336.937 112.456 338.121 112.704 339.191 113.144V92.3658C339.191 86.713 334.607 82.1296 328.955 82.1296H241.451C235.798 82.1296 231.215 86.713 231.215 92.3658V122.749C245.232 124.831 255.984 136.901 255.984 151.51C255.984 164.343 247.658 175.229 236.123 179.086C237.67 180.041 239.503 180.576 241.451 180.576H328.974C334.627 180.576 339.21 175.993 339.21 170.34V144.387V140.453C338.121 140.892 336.937 141.14 335.715 141.14H304.491C296.566 141.14 290.149 134.723 290.149 126.798C290.149 118.892 296.566 112.456 304.491 112.456Z" fill="#F8FAFC" fill-opacity="0.2"/>
<path d="M304.166 131.687C306.866 131.687 309.055 129.498 309.055 126.798C309.055 124.098 306.866 121.909 304.166 121.909C301.466 121.909 299.277 124.098 299.277 126.798C299.277 129.498 301.466 131.687 304.166 131.687Z" fill="#4F46E5"/>
<path d="M307.356 167.246C298.59 167.246 289.805 167.246 281.04 167.246C279.779 167.246 278.519 167.246 277.258 167.246C273.573 167.246 273.554 172.975 277.258 172.975C286.024 172.975 294.809 172.975 303.574 172.975C304.835 172.975 306.095 172.975 307.356 172.975C311.041 172.994 311.041 167.246 307.356 167.246Z" fill="white"/>
<path d="M323.283 167.246C321.736 167.246 320.208 167.246 318.661 167.246C317.153 167.246 315.72 168.564 315.797 170.11C315.873 171.657 317.057 172.975 318.661 172.975C320.208 172.975 321.736 172.975 323.283 172.975C324.791 172.975 326.224 171.657 326.147 170.11C326.071 168.564 324.887 167.246 323.283 167.246Z" fill="white"/>
<path d="M344.404 114.767C343.488 113.602 342.361 112.685 341.12 111.998C341.12 105.638 341.12 99.2598 341.12 92.9004C341.12 90.074 341.139 87.2476 341.12 84.4212C341.081 79.3413 338.37 74.6052 333.71 72.3708C330.005 70.5948 325.651 71.0531 321.64 71.0531C315.052 71.0531 308.463 71.0531 301.875 71.0531C284.935 71.0531 268.015 71.0531 251.076 71.0531C245.672 71.0531 240.286 71.0531 234.882 71.0531C234.041 71.0531 233.182 71.034 232.342 71.0531C226.517 71.1486 221.265 74.9871 219.699 80.6781C219.069 82.9507 219.241 85.3761 219.241 87.7059C219.241 91.3917 219.241 95.0775 219.241 98.7632C219.241 106.192 219.241 113.64 219.241 121.069C219.241 121.222 219.241 121.393 219.241 121.546C212.92 123.17 207.114 126.722 202.913 131.916C194.777 142.018 193.651 156.494 200.449 167.628C206.102 176.871 216.243 182.371 226.823 182.447C226.956 182.466 227.09 182.486 227.243 182.486C233.296 182.486 239.331 182.486 245.385 182.486C258.142 182.486 270.899 182.486 283.675 182.486C295.305 182.486 306.916 182.486 318.547 182.486C321.411 182.486 324.295 182.486 327.159 182.486C333.08 182.486 338.35 179.411 340.413 173.663C341.158 171.6 341.139 169.48 341.139 167.341C341.139 164.649 341.139 161.975 341.139 159.282C341.139 153.572 341.139 147.862 341.139 142.133C341.139 141.961 341.139 141.789 341.139 141.617C342.838 140.682 344.29 139.326 345.321 137.607C346.715 135.277 346.887 132.775 346.887 130.14C346.849 125.041 347.784 119.025 344.404 114.767ZM205.892 168.697C198.654 159.989 197.833 147.175 203.638 137.492C209.444 127.848 221.017 122.635 232.093 124.831C244.774 127.352 253.96 138.6 254.055 151.491C253.979 162.739 246.894 173.166 236.218 177.005C225.428 180.92 213.225 177.539 205.892 168.697ZM337.3 169.098C337.262 174.656 333.041 178.647 327.561 178.666C325.059 178.666 322.557 178.666 320.055 178.666C309.036 178.666 297.998 178.666 286.979 178.666C274.241 178.666 261.503 178.666 248.746 178.666C246.474 178.666 244.182 178.647 241.909 178.609C251.496 173.223 257.817 162.815 257.894 151.51C257.798 138.543 249.644 126.855 237.46 122.387C232.819 120.687 227.873 120.209 223.079 120.821C223.079 108.923 223.079 97.0063 223.079 85.1087C223.079 81.4611 224.359 78.0809 227.682 76.1521C229.496 75.0826 231.425 74.8917 233.468 74.8917C237.861 74.8917 242.272 74.8917 246.665 74.8917C262.916 74.8917 279.149 74.8917 295.401 74.8917C306.191 74.8917 316.981 74.8344 327.771 74.8917C331.59 74.9108 335.123 76.9924 336.613 80.5826C337.606 82.9507 337.319 85.7198 337.319 88.2406C337.319 95.7268 337.319 103.213 337.319 110.718C336.784 110.642 336.231 110.584 335.696 110.584C334.626 110.565 333.538 110.584 332.468 110.584C327.408 110.584 322.347 110.584 317.286 110.584C313.218 110.584 309.151 110.584 305.083 110.584C298.838 110.604 292.937 113.735 290.073 119.426C286.635 126.263 288.411 134.8 294.446 139.555C297.349 141.847 300.863 143.031 304.548 143.088C305.541 143.107 306.515 143.088 307.508 143.088C316.694 143.088 325.88 143.088 335.066 143.088C335.295 143.088 335.524 143.088 335.753 143.088C335.83 143.088 335.906 143.088 335.982 143.069C336.441 143.05 336.899 143.012 337.338 142.935C337.3 151.644 337.338 160.371 337.3 169.098ZM343.01 132.355C342.781 136.251 339.515 139.135 335.696 139.23C328.076 139.23 320.475 139.23 312.856 139.23C310.067 139.23 307.279 139.268 304.491 139.23C297.902 139.154 292.25 133.921 292.04 127.237C291.83 120.477 297.215 114.576 304.014 114.366C306.668 114.289 309.342 114.366 311.996 114.366C319.864 114.366 327.771 114.213 335.639 114.366C339.038 114.423 342.017 116.676 342.819 120.018C343.297 122.005 343.01 124.315 343.01 126.321C343.029 128.326 343.125 130.369 343.01 132.355Z" fill="white"/>
<path d="M310.927 126.282C310.526 122.826 307.814 120.018 304.166 120.018C300.462 120.018 297.387 123.131 297.368 126.817C297.349 130.503 300.481 133.616 304.166 133.616C307.795 133.616 310.526 130.789 310.927 127.352C310.965 127.199 310.984 127.008 310.965 126.836C310.965 126.607 310.946 126.435 310.927 126.282ZM301.187 126.798C301.187 122.94 306.955 122.978 307.126 126.798C306.974 130.617 301.187 130.675 301.187 126.798Z" fill="white"/>
<path d="M231.119 172.593C241.145 170.683 248.326 161.593 248.422 151.51C248.326 142.477 242.673 134.399 234.175 131.267C225.791 128.192 215.975 130.942 210.342 137.836C204.651 144.807 203.81 154.852 208.489 162.605C213.168 170.321 222.277 174.274 231.119 172.593ZM213.302 162.796C208.508 157.105 207.954 148.683 211.793 142.343C215.574 136.098 223.118 132.699 230.298 134.15C238.567 135.812 244.487 143.107 244.583 151.51C244.507 158.843 239.923 165.661 232.953 168.143C225.944 170.626 218.095 168.487 213.302 162.796Z" fill="white"/>
<path d="M232.189 151.071C233.564 150.345 234.442 149.046 234.442 147.347C234.442 144.73 232.303 142.973 228.14 142.954V141.025H224.703V142.954H219.776V159.855H224.703V161.975H228.14V159.855H228.522C232.972 159.855 235.283 158.156 235.283 155.234C235.283 153.114 234.06 151.663 232.189 151.071ZM223.652 145.895H227.548C229.458 145.895 230.489 146.544 230.489 147.881C230.489 149.218 229.458 149.887 227.548 149.887H223.652V145.895ZM228.217 156.914H223.652V152.732H228.217C230.241 152.732 231.329 153.4 231.329 154.833C231.329 156.284 230.241 156.914 228.217 156.914Z" fill="white"/>
</svg>
