<svg width="836" height="368" viewBox="0 0 836 368" fill="none" xmlns="http://www.w3.org/2000/svg">
<path d="M457.845 208.219C452.491 211.808 447.002 212.508 441.647 208.377C436.339 204.291 435.842 198.693 437.897 191.831C430.939 193.343 424.681 193.298 420.57 187.113C417.046 181.809 417.904 176.617 421.383 171.606C421.812 171.177 422.242 170.771 422.671 170.342C425.156 168.558 428.048 166.82 430.939 167.407C436.226 168.468 435.254 166.03 435.548 162.306C435.932 157.159 435.39 155.06 429.629 155.895C427.528 156.189 425.111 154.338 422.852 153.457C422.242 152.848 421.632 152.238 421.022 151.651C417.972 146.527 417.023 141.313 420.728 136.144C424.84 130.41 430.646 129.914 437.784 131.81C435.977 124.79 436.248 118.627 442.416 114.542C447.702 111.065 452.898 111.923 457.868 115.377C458.297 115.806 458.704 116.235 459.133 116.663C460.15 119.169 462.341 121.855 461.957 124.113C460.94 130.207 463.832 129.101 468.057 129.44C473.14 129.846 473.569 128.469 473.433 124.135C473.343 121.675 475.286 119.169 476.302 116.663C476.754 116.212 477.206 115.738 477.658 115.287C482.989 111.539 488.479 110.907 493.833 114.971C499.165 119.034 499.797 124.587 497.741 131.404C504.519 130.23 510.844 129.936 515.001 136.189C518.525 141.494 517.712 146.685 514.369 151.742C513.849 152.261 513.329 152.757 512.832 153.277C510.302 154.27 507.659 156.301 505.264 156.031C500.091 155.444 500.159 157.272 500.227 161.651C500.294 165.895 500.046 167.926 505.287 167.34C507.682 167.069 510.325 169.123 512.832 170.116C513.352 170.635 513.872 171.154 514.414 171.674C517.983 177.001 518.684 182.486 514.595 187.791C510.528 193.05 505.061 193.885 498.171 191.628C499.571 198.716 499.345 205.172 492.794 209.235C487.756 212.35 482.786 211.492 477.997 208.445C477.342 207.79 476.709 207.135 476.054 206.503C473.524 202.756 472.869 198.58 473.569 194.224C466.362 193.411 460.376 193.614 461.121 203.163C461.211 204.314 459.946 205.555 459.291 206.752C458.794 207.271 458.32 207.745 457.845 208.219ZM492.365 186.256C488.231 183.75 496.906 175.872 487.688 175.827C482.989 175.804 481.882 177.407 481.928 181.764C481.995 190.906 489.767 182.26 492.365 186.256ZM443.455 186.368C446.008 182.915 455.202 191.109 453.598 179.868C452.311 170.929 446.64 177.971 443.5 175.669C444.788 179.394 443.432 182.509 443.455 186.368ZM492.681 137.363C481.769 138.491 482.041 138.537 481.724 141.065C480.662 149.846 487.304 146.866 492.455 148.243C490.919 144.157 492.116 140.816 492.681 137.363ZM443.364 136.889C443.974 140.862 444.358 144.27 443.748 148.107C446.753 145.421 452.785 152.058 453.802 143.209C455.044 132.261 445.804 140.952 443.364 136.889ZM463.606 161.064C463.787 163.389 462.025 166.73 466.792 165.782C469.209 165.308 472.326 167.024 471.92 162.012C471.649 158.604 471.468 157.272 467.56 157.52C464.623 157.701 462.522 157.408 463.606 161.064Z" fill="#4F46E5" fill-opacity="0.29"/>
<path d="M459.178 116.663C458.749 116.234 458.342 115.805 457.913 115.376C457.845 114.835 457.913 114.225 457.71 113.751C454.931 107.634 454.841 101.855 460.534 97.3858C465.165 93.7516 470.383 93.729 475.037 97.3407C480.753 101.765 480.685 107.566 477.974 113.683C477.771 114.157 477.816 114.767 477.748 115.309C477.296 115.76 476.844 116.234 476.393 116.686C470.632 119.011 464.894 118.965 459.178 116.663Z" fill="#4F46E5" fill-opacity="0.29"/>
<path d="M514.414 171.696C513.894 171.177 513.374 170.658 512.832 170.138C510.415 164.518 510.46 158.92 512.832 153.299C513.352 152.78 513.871 152.283 514.368 151.764C516.198 151.2 517.983 150.5 519.858 150.139C525.167 149.123 529.73 150.41 532.78 155.127C535.559 159.439 535.559 163.976 532.803 168.287C529.776 173.005 525.19 174.314 519.881 173.299C518.028 172.983 516.243 172.26 514.414 171.696Z" fill="#4F46E5" fill-opacity="0.29"/>
<path d="M476.031 206.525C476.686 207.179 477.319 207.834 477.974 208.466C478.336 209.775 478.697 211.107 479.036 212.416C480.527 218.014 479.623 223.003 474.653 226.456C470.09 229.617 465.165 229.549 460.669 226.276C455.79 222.709 454.999 217.698 456.648 212.145C457.032 210.836 457.461 209.527 457.845 208.218C458.32 207.743 458.794 207.247 459.269 206.773C464.826 204.425 470.429 204.493 476.031 206.525Z" fill="#4F46E5" fill-opacity="0.29"/>
<path d="M422.693 170.341C422.264 170.77 421.835 171.176 421.406 171.605C414.696 173.75 407.964 175.668 402.971 168.445C400.057 164.246 399.989 159.664 402.768 155.33C407.535 147.949 414.289 149.574 421.067 151.606C421.677 152.215 422.287 152.825 422.897 153.411C425.088 159.1 424.885 164.743 422.693 170.341Z" fill="#4F46E5" fill-opacity="0.29"/>
<path d="M534.317 198.174C534.452 204.382 528.85 209.98 522.637 209.867C516.741 209.754 511.477 204.517 511.364 198.603C511.228 192.373 516.808 186.798 523.044 186.91C528.917 187.046 534.181 192.283 534.317 198.174Z" fill="#4F46E5" fill-opacity="0.29"/>
<path d="M412.844 209.775C406.699 209.843 401.164 204.222 401.367 198.105C401.548 192.259 406.789 187.112 412.64 187.045C418.785 186.977 424.32 192.598 424.117 198.715C423.958 204.561 418.695 209.708 412.844 209.775Z" fill="#4F46E5" fill-opacity="0.29"/>
<path d="M442.506 216.323C442.754 222.462 437.265 228.128 431.075 228.128C425.224 228.128 419.915 222.982 419.666 217.135C419.418 210.995 424.907 205.33 431.097 205.33C436.971 205.33 442.28 210.454 442.506 216.323Z" fill="#4F46E5" fill-opacity="0.29"/>
<path d="M522.185 136.505C515.95 136.121 510.799 130.139 511.432 124.022C512.042 118.108 517.644 113.277 523.45 113.639C529.685 114.022 534.836 120.027 534.204 126.121C533.616 132.036 528.014 136.866 522.185 136.505Z" fill="#4F46E5" fill-opacity="0.29"/>
<path d="M412.347 113.706C418.13 113.48 423.62 118.401 424.094 124.27C424.591 130.342 419.327 136.211 413.137 136.459C407.015 136.707 401.345 131.245 401.367 125.082C401.39 119.236 406.495 113.931 412.347 113.706Z" fill="#4F46E5" fill-opacity="0.29"/>
<path d="M515.927 106.799C515.905 113.007 510.189 118.469 504.022 118.176C498.125 117.905 493.02 112.578 493.042 106.686C493.065 100.479 498.78 95.0162 504.948 95.3096C510.844 95.5805 515.95 100.93 515.927 106.799Z" fill="#4F46E5" fill-opacity="0.29"/>
<path d="M431.142 95.3773C437.31 95.3998 442.754 101.088 442.461 107.205C442.19 113.074 436.858 118.153 431.029 118.108C424.862 118.086 419.418 112.397 419.689 106.28C419.982 100.434 425.314 95.3321 431.142 95.3773Z" fill="#4F46E5" fill-opacity="0.29"/>
<path d="M515.927 216.592C516.018 222.8 510.392 228.33 504.202 228.172C498.306 228.014 493.11 222.755 493.042 216.863C492.952 210.656 498.555 205.125 504.767 205.306C510.663 205.464 515.837 210.701 515.927 216.592Z" fill="#4F46E5" fill-opacity="0.29"/>
<path d="M438.846 234.402C439.772 227.947 443.432 224.493 449.938 224.561C456.151 224.628 460.692 229.91 459.901 236.14C459.065 242.664 454.999 245.937 448.56 245.486C441.986 245.012 439.027 240.768 438.846 234.402Z" fill="#4F46E5" fill-opacity="0.29"/>
<path d="M541.162 190.725C534.701 190.16 530.928 186.797 530.612 180.251C530.318 174.021 535.378 169.055 541.613 169.506C548.12 169.98 551.825 173.795 551.689 180.296C551.576 186.842 547.6 190.183 541.162 190.725Z" fill="#4F46E5" fill-opacity="0.29"/>
<path d="M404.937 179.957C404.44 186.413 401.164 190.385 394.522 190.431C387.948 190.476 384.108 186.774 384.017 180.183C383.949 173.614 387.677 169.799 394.251 169.686C400.893 169.596 404.304 173.478 404.937 179.957Z" fill="#4F46E5" fill-opacity="0.29"/>
<path d="M496.815 234.944C496.341 241.332 493.065 245.373 486.514 245.576C480.03 245.757 476.144 242.145 475.579 235.621C475.037 229.391 479.962 224.267 486.197 224.493C492.749 224.741 496.16 228.466 496.815 234.944Z" fill="#4F46E5" fill-opacity="0.29"/>
<path d="M541.004 154.067C534.52 153.389 530.815 149.936 530.612 143.39C530.431 137.159 535.582 132.261 541.817 132.848C548.323 133.458 551.938 137.34 551.712 143.818C551.463 150.387 547.397 153.615 541.004 154.067Z" fill="#4F46E5" fill-opacity="0.29"/>
<path d="M394.839 132.893C401.3 133.683 405.027 137.249 404.779 143.818C404.53 150.409 400.532 153.998 394.003 153.772C387.406 153.547 383.837 149.551 384.04 143.005C384.243 136.369 388.355 133.231 394.839 132.893Z" fill="#4F46E5" fill-opacity="0.29"/>
<path d="M460.06 88.1759C459.359 95.0606 455.925 98.9432 449.306 98.8303C442.709 98.7174 438.959 94.8575 439.05 88.2662C439.14 81.6749 443.026 77.9504 449.6 77.9955C456.287 78.0407 459.45 82.149 460.06 88.1759Z" fill="#4F46E5" fill-opacity="0.29"/>
<path d="M496.748 88.537C496.138 94.9703 492.749 98.6948 486.197 98.9205C479.94 99.1462 475.105 94.1125 475.625 87.8598C476.144 81.3588 479.985 77.7698 486.468 77.9503C493.02 78.1309 496.273 82.1263 496.748 88.537Z" fill="#4F46E5" fill-opacity="0.29"/>
<path d="M413.024 244.719C407.264 244.065 403.423 241.04 403.287 235.261C403.175 229.505 406.789 225.758 412.527 225.623C418.288 225.487 422.038 229.122 422.174 234.855C422.355 240.634 418.582 243.771 413.024 244.719Z" fill="#4F46E5" fill-opacity="0.29"/>
<path d="M467.944 263.092C462.273 262.415 458.41 259.39 458.275 253.589C458.162 247.81 461.821 244.041 467.559 243.883C473.343 243.747 477.116 247.404 477.274 253.16C477.454 259.006 473.682 262.167 467.944 263.092Z" fill="#4F46E5" fill-opacity="0.29"/>
<path d="M560.206 152.08C565.334 152.915 568.836 155.985 569.152 161.741C569.423 166.955 564.024 172.034 558.919 171.334C553.293 170.567 549.995 167.068 549.927 161.312C549.837 156.391 554.852 151.944 560.206 152.08Z" fill="#4F46E5" fill-opacity="0.29"/>
<path d="M385.689 161.65C384.763 167.587 381.6 171.289 375.839 171.131C370.124 170.973 366.509 167.248 366.645 161.515C366.78 155.804 370.53 152.215 376.268 152.328C382.052 152.441 384.943 156.368 385.689 161.65Z" fill="#4F46E5" fill-opacity="0.29"/>
<path d="M467.65 60.4341C473.298 61.0887 477.138 64.1135 477.228 69.8921C477.341 75.6482 473.704 79.3953 467.966 79.5081C462.205 79.621 458.478 75.9868 458.342 70.2533C458.207 64.4746 461.957 61.337 467.65 60.4341Z" fill="#4F46E5" fill-opacity="0.29"/>
<path d="M422.354 88.2665C421.722 93.8871 418.717 97.6793 412.957 97.8148C407.218 97.9276 403.491 94.3386 403.355 88.6276C403.22 82.8941 406.834 79.1696 412.55 79.0342C418.311 78.8762 421.451 82.5781 422.354 88.2665Z" fill="#4F46E5" fill-opacity="0.29"/>
<path d="M532.532 235.238C531.583 240.949 528.42 244.718 522.614 244.56C516.854 244.402 513.194 240.632 513.329 234.854C513.487 229.098 517.26 225.441 523.044 225.576C528.849 225.689 531.877 229.572 532.532 235.238Z" fill="#4F46E5" fill-opacity="0.29"/>
<path d="M522.682 78.7178C528.353 79.395 532.216 82.4197 532.351 88.2209C532.464 93.9996 528.804 97.7693 523.044 97.9047C517.26 98.0401 513.487 94.3608 513.352 88.6047C513.171 82.8035 516.944 79.6433 522.682 78.7178Z" fill="#4F46E5" fill-opacity="0.29"/>
<path d="M394.319 207.113C400.26 208.016 403.965 211.176 403.807 216.932C403.672 222.643 399.944 226.255 394.206 226.142C388.49 226.006 384.898 222.282 384.989 216.548C385.102 210.747 389.01 207.858 394.319 207.113Z" fill="#4F46E5" fill-opacity="0.29"/>
<path d="M541.32 116.437C535.649 115.76 531.786 112.712 531.673 106.911C531.56 101.132 535.22 97.3627 541.004 97.2272C546.787 97.0918 550.537 100.771 550.695 106.527C550.831 112.374 547.035 115.534 541.32 116.437Z" fill="#4F46E5" fill-opacity="0.29"/>
<path d="M404.011 106.459C403.355 112.215 400.351 116.03 394.59 116.143C388.852 116.256 385.124 112.644 384.989 106.933C384.853 101.2 388.468 97.4978 394.183 97.3397C399.989 97.1817 403.084 100.951 404.011 106.459Z" fill="#4F46E5" fill-opacity="0.29"/>
<path d="M550.921 216.931C549.995 222.552 546.9 226.05 541.14 226.321C535.921 226.592 530.86 221.175 531.561 216.051C532.351 210.43 535.876 206.864 541.614 207.157C547.329 207.473 550.312 211.31 550.921 216.931Z" fill="#4F46E5" fill-opacity="0.29"/>
<path d="M559.8 116.255C565.425 116.842 568.497 119.935 568.226 125.555C567.932 131.244 564.386 134.088 558.828 133.749C553.61 133.433 550.741 130.205 550.808 124.968C550.876 119.303 554.242 116.549 559.8 116.255Z" fill="#4F46E5" fill-opacity="0.29"/>
<path d="M559.754 207.294C553.881 206.752 550.673 203.84 550.763 198.265C550.853 192.689 554.084 189.574 559.641 189.642C565.222 189.709 568.294 192.96 568.294 198.513C568.271 204.201 564.815 206.82 559.754 207.294Z" fill="#4F46E5" fill-opacity="0.29"/>
<path d="M375.704 207.134C370.169 206.502 367.142 203.432 367.458 197.857C367.774 192.214 371.298 189.437 376.811 189.798C382.007 190.137 384.785 193.365 384.672 198.534C384.582 204.2 381.216 206.863 375.704 207.134Z" fill="#4F46E5" fill-opacity="0.29"/>
<path d="M504.474 61.3135C510.031 61.7424 513.262 64.6317 513.149 70.2749C513.013 75.9407 509.67 78.8977 504.09 78.7397C498.871 78.5817 495.912 75.5118 495.821 70.2975C495.731 64.6317 498.916 61.7424 504.474 61.3135Z" fill="#4F46E5" fill-opacity="0.29"/>
<path d="M376.63 133.819C370.756 133.481 367.435 130.727 367.435 125.083C367.458 119.463 370.643 116.393 376.246 116.461C381.442 116.506 384.447 119.463 384.672 124.654C384.921 130.32 381.736 133.164 376.63 133.819Z" fill="#4F46E5" fill-opacity="0.29"/>
<path d="M513.352 253.386C512.697 259.346 509.556 262.393 503.954 262.077C498.261 261.761 495.437 258.172 495.798 252.619C496.137 247.382 499.413 244.583 504.632 244.651C510.392 244.763 512.945 248.262 513.352 253.386Z" fill="#4F46E5" fill-opacity="0.29"/>
<path d="M431.391 262.19C425.449 261.694 422.264 258.737 422.445 253.093C422.626 247.428 426.014 244.516 431.594 244.719C436.813 244.922 439.705 248.037 439.772 253.251C439.863 259.008 436.474 261.671 431.391 262.19Z" fill="#4F46E5" fill-opacity="0.29"/>
<path d="M439.84 70.434C439.208 75.9643 436.135 78.9891 430.555 78.6731C424.908 78.357 422.129 74.8357 422.49 69.3279C422.829 64.1361 426.06 61.3597 431.233 61.4725C436.904 61.5628 439.569 64.9262 439.84 70.434Z" fill="#4F46E5" fill-opacity="0.29"/>
<path d="M577.805 188.038C572.789 187.067 569.694 184.313 570.124 179.482C570.53 174.787 573.783 171.853 578.663 172.349C583.023 172.778 585.802 175.803 585.644 180.25C585.463 185.103 582.165 187.451 577.805 188.038Z" fill="#4F46E5" fill-opacity="0.29"/>
<path d="M357.744 187.745C353.067 187.271 350.062 184.675 350.175 179.822C350.266 175.398 353.135 172.553 357.585 172.531C362.42 172.508 365.379 175.488 365.289 180.341C365.176 184.743 362.284 187.203 357.744 187.745Z" fill="#4F46E5" fill-opacity="0.29"/>
<path d="M485.904 44.0005C490.173 44.2939 493.291 46.4835 493.72 50.9529C494.172 55.8512 491.348 59.0792 486.536 59.35C481.679 59.6209 478.584 56.5962 478.516 51.743C478.449 47.2736 481.318 44.7228 485.904 44.0005Z" fill="#4F46E5" fill-opacity="0.29"/>
<path d="M585.802 143.141C585.35 147.814 582.865 151.064 578.031 151.155C573.219 151.245 570.169 148.152 570.101 143.344C570.056 138.92 572.948 135.941 577.308 135.647C582.142 135.331 584.876 138.356 585.802 143.141Z" fill="#4F46E5" fill-opacity="0.29"/>
<path d="M357.495 135.737C361.72 136.008 364.792 138.153 365.222 142.599C365.673 147.453 362.895 150.658 358.105 150.929C353.293 151.177 350.221 148.243 350.153 143.39C350.108 138.943 352.909 136.414 357.495 135.737Z" fill="#4F46E5" fill-opacity="0.29"/>
<path d="M457.303 271.559C456.829 276.186 454.321 279.391 449.532 279.414C444.765 279.437 441.76 276.389 441.76 271.604C441.76 267.202 444.652 264.29 448.989 264.042C453.779 263.771 456.49 266.751 457.303 271.559Z" fill="#4F46E5" fill-opacity="0.29"/>
<path d="M457.19 51.6076C456.851 55.9416 454.547 58.9889 450.097 59.3275C445.217 59.6887 441.986 56.8219 441.828 51.9913C441.647 47.1382 444.72 44.0908 449.6 44.1134C454.05 44.1586 456.558 47.0704 457.19 51.6076Z" fill="#4F46E5" fill-opacity="0.29"/>
<path d="M486.152 279.572C481.453 278.963 478.313 276.367 478.426 271.559C478.539 266.796 481.702 263.861 486.491 264.019C490.851 264.177 493.743 267.089 493.833 271.468C493.946 276.299 490.896 278.895 486.152 279.572Z" fill="#4F46E5" fill-opacity="0.29"/>
<path d="M559.438 242.078C554.897 241.717 552.367 239.279 552.57 234.629C552.751 230.408 555.304 228.06 559.506 228.105C564.182 228.15 566.622 230.859 566.441 235.464C566.306 239.73 563.685 241.807 559.438 242.078Z" fill="#4F46E5" fill-opacity="0.29"/>
<path d="M540.507 63.0747C545.431 63.323 548.097 65.5352 548.052 70.2077C548.007 74.4063 545.635 76.8667 541.433 76.957C536.824 77.0699 534.271 74.5643 534.249 69.9594C534.271 65.6932 536.847 63.639 540.507 63.0747Z" fill="#4F46E5" fill-opacity="0.29"/>
<path d="M541.275 246.366C545.522 246.727 548.052 248.894 548.12 253.16C548.188 257.788 545.658 260.383 541.004 260.338C536.779 260.293 534.34 257.878 534.227 253.634C534.136 248.962 536.757 246.637 541.275 246.366Z" fill="#4F46E5" fill-opacity="0.29"/>
<path d="M558.896 81.3589C563.82 81.6072 566.509 83.8419 566.464 88.537C566.418 92.7582 564.046 95.2412 559.799 95.3315C555.168 95.4444 552.57 92.9162 552.57 88.2662C552.57 83.9999 555.145 81.9006 558.896 81.3589Z" fill="#4F46E5" fill-opacity="0.29"/>
<path d="M401.299 70.2306C400.893 74.384 398.701 76.8896 394.454 76.867C389.778 76.8445 387.338 74.0906 387.632 69.5309C387.88 65.3323 390.569 63.1202 394.77 63.3008C399.018 63.4814 401.051 66.0772 401.299 70.2306Z" fill="#4F46E5" fill-opacity="0.29"/>
<path d="M376.313 228.128C380.493 228.58 382.955 230.815 382.887 235.103C382.797 239.821 379.996 242.214 375.387 241.875C371.14 241.582 368.971 238.828 369.197 234.607C369.468 230.318 372.111 228.309 376.313 228.128Z" fill="#4F46E5" fill-opacity="0.29"/>
<path d="M529.369 51.5172C529.03 55.3094 527.042 57.9279 523.247 58.131C519.022 58.3568 516.379 55.7834 516.424 51.5623C516.469 47.7701 518.977 45.3773 522.795 45.3322C526.658 45.3096 528.714 47.8152 529.369 51.5172Z" fill="#4F46E5" fill-opacity="0.29"/>
<path d="M419.237 51.7665C418.695 55.4684 416.684 58.0643 412.911 58.0869C408.755 58.1095 406.157 55.4685 406.405 51.315C406.631 47.6357 409.161 45.2429 412.979 45.4009C416.774 45.5589 418.74 48.0871 419.237 51.7665Z" fill="#4F46E5" fill-opacity="0.29"/>
<path d="M394.386 246.457C398.588 246.75 401.186 248.872 401.254 253.161C401.322 257.833 398.679 260.384 394.025 260.203C389.755 260.045 387.473 257.427 387.564 253.206C387.654 248.917 390.184 246.795 394.386 246.457Z" fill="#4F46E5" fill-opacity="0.29"/>
<path d="M577.828 223.365C573.784 222.8 571.163 220.588 571.389 216.344C571.592 212.575 574.055 210.182 577.85 210.227C582.052 210.295 584.56 212.891 584.379 217.112C584.198 220.927 581.645 222.913 577.828 223.365Z" fill="#4F46E5" fill-opacity="0.29"/>
<path d="M357.224 210.204C361.268 210.656 363.889 212.619 364.047 216.367C364.227 220.52 361.629 223.161 357.473 223.071C353.745 223.003 351.373 220.475 351.35 216.705C351.328 212.845 353.994 210.994 357.224 210.204Z" fill="#4F46E5" fill-opacity="0.29"/>
<path d="M376.313 95.3545C371.727 94.8579 369.22 92.6909 369.265 88.4472C369.31 83.7747 372.066 81.3594 376.652 81.6528C380.854 81.9237 383.046 84.6099 382.865 88.8084C382.684 93.0973 379.928 94.9482 376.313 95.3545Z" fill="#4F46E5" fill-opacity="0.29"/>
<path d="M577.466 113.322C573.557 112.487 570.982 110.207 571.456 106.008C571.863 102.351 574.416 100.004 578.189 100.275C582.3 100.591 584.717 103.277 584.288 107.43C583.904 111.155 581.306 113.096 577.466 113.322Z" fill="#4F46E5" fill-opacity="0.29"/>
<path d="M419.305 271.988C418.627 275.689 416.548 278.172 412.708 278.127C408.89 278.082 406.405 275.667 406.382 271.875C406.36 267.654 409.026 265.103 413.228 265.351C416.978 265.554 418.966 268.195 419.305 271.988Z" fill="#4F46E5" fill-opacity="0.29"/>
<path d="M522.388 265.057C526.793 265.689 529.437 267.834 529.279 272.032C529.12 275.757 526.681 278.172 522.908 278.149C518.751 278.127 516.266 275.554 516.356 271.378C516.469 267.608 519.18 265.802 522.388 265.057Z" fill="#4F46E5" fill-opacity="0.29"/>
<path d="M364.16 106.912C363.459 110.659 361.358 113.187 357.495 113.007C353.7 112.849 351.282 110.321 351.418 106.506C351.576 102.714 354.084 100.298 357.924 100.434C361.742 100.592 363.73 103.188 364.16 106.912Z" fill="#4F46E5" fill-opacity="0.29"/>
<path d="M602 161.583C601.616 165.308 599.696 167.452 596.172 167.407C592.648 167.362 590.501 165.195 590.547 161.674C590.592 158.152 592.761 156.03 596.285 156.053C599.832 156.075 601.639 158.333 602 161.583Z" fill="#4F46E5" fill-opacity="0.29"/>
<path d="M509.511 289.412C509.376 292.776 507.93 294.717 505.083 294.988C501.83 295.304 499.684 293.588 499.571 290.247C499.458 286.929 501.424 285.078 504.722 285.123C507.682 285.169 509.014 287.155 509.511 289.412Z" fill="#4F46E5" fill-opacity="0.29"/>
<path d="M462.16 290.157C462.68 286.207 464.758 284.266 468.283 284.559C471.875 284.853 473.637 287.291 473.275 290.767C472.959 293.859 470.881 295.665 467.673 295.575C464.058 295.485 462.454 293.205 462.16 290.157Z" fill="#4F46E5" fill-opacity="0.29"/>
<path d="M436.09 290.023C435.728 293.138 434.079 295.079 430.804 294.944C427.98 294.808 426.218 293.003 426.218 290.181C426.218 286.953 428.16 285.079 431.391 285.192C434.237 285.283 435.706 287.179 436.09 290.023Z" fill="#4F46E5" fill-opacity="0.29"/>
<path d="M436.022 33.4596C435.638 36.2812 434.125 38.1999 431.256 38.2225C427.98 38.245 426.037 36.2135 426.308 32.963C426.534 30.1865 428.454 28.4259 431.369 28.6064C434.215 28.7645 435.683 30.638 436.022 33.4596Z" fill="#4F46E5" fill-opacity="0.29"/>
<path d="M473.298 33.4368C472.846 37.4096 470.632 39.1703 467.085 38.8317C463.877 38.5157 462.16 36.3487 462.364 33.1433C462.59 29.4188 464.962 27.7033 468.508 28.0419C471.739 28.3128 473.185 30.5475 473.298 33.4368Z" fill="#4F46E5" fill-opacity="0.29"/>
<path d="M509.534 33.233C508.947 36.7544 507.117 38.628 503.909 38.2894C501.176 37.9959 499.413 36.0998 499.617 33.2556C499.82 30.0277 501.876 28.267 505.084 28.5605C507.885 28.8088 509.173 30.8855 509.534 33.233Z" fill="#4F46E5" fill-opacity="0.29"/>
<path d="M344.279 125.059C343.94 127.881 342.427 129.822 339.58 129.867C336.305 129.935 334.362 127.926 334.565 124.653C334.746 121.854 336.666 120.115 339.558 120.228C342.449 120.386 343.918 122.26 344.279 125.059Z" fill="#4F46E5" fill-opacity="0.29"/>
<path d="M601.3 124.541C601.074 128.152 599.447 130.048 596.149 130.048C593.28 130.048 591.473 128.423 591.247 125.602C590.976 122.419 592.58 120.319 595.878 120.071C599.199 119.845 600.78 121.832 601.3 124.541Z" fill="#4F46E5" fill-opacity="0.29"/>
<path d="M344.776 161.764C344.55 165.217 342.675 167.226 339.061 167.091C335.853 166.978 334.023 165.059 334 161.854C333.978 158.22 336.033 156.279 339.648 156.391C342.879 156.482 344.528 158.446 344.776 161.764Z" fill="#4F46E5" fill-opacity="0.29"/>
<path d="M344.279 198.535C343.85 201.334 342.314 203.253 339.445 203.208C336.169 203.163 334.249 201.109 334.565 197.858C334.836 195.104 336.801 193.344 339.693 193.569C342.54 193.795 344.031 195.691 344.279 198.535Z" fill="#4F46E5" fill-opacity="0.29"/>
<path d="M601.277 198.287C601.074 201.47 599.447 203.389 596.149 203.389C593.28 203.389 591.473 201.763 591.247 198.942C590.976 195.759 592.58 193.637 595.878 193.411C599.131 193.208 600.893 195.037 601.277 198.287Z" fill="#4F46E5" fill-opacity="0.29"/>
<path d="M596.44 53.0275C594.865 54.0836 593.25 54.2895 591.674 53.074C590.112 51.8719 589.966 50.2247 590.571 48.2055C588.523 48.6505 586.682 48.6373 585.472 46.8174C584.435 45.2565 584.688 43.7289 585.712 42.2544C585.838 42.1282 585.964 42.0087 586.091 41.8825C586.822 41.3578 587.673 40.8463 588.523 41.019C590.079 41.3312 589.793 40.6139 589.879 39.518C589.992 38.0036 589.833 37.3859 588.138 37.6317C587.52 37.718 586.808 37.1734 586.144 36.9143C585.964 36.735 585.785 36.5557 585.605 36.383C584.708 34.8753 584.429 33.341 585.519 31.82C586.729 30.133 588.437 29.9869 590.538 30.5448C590.006 28.4792 590.086 26.6659 591.9 25.4637C593.456 24.4409 594.985 24.6933 596.447 25.7095C596.573 25.8357 596.693 25.9619 596.819 26.0881C597.118 26.8253 597.763 27.6157 597.65 28.2799C597.351 30.0732 598.202 29.7478 599.445 29.8474C600.941 29.9669 601.067 29.5618 601.027 28.2865C601 27.5626 601.572 26.8253 601.871 26.0881C602.004 25.9552 602.137 25.8158 602.27 25.6829C603.839 24.5804 605.454 24.3944 607.029 25.5899C608.598 26.7855 608.784 28.4194 608.179 30.4252C610.174 30.0798 612.035 29.9935 613.258 31.8333C614.295 33.3941 614.056 34.9218 613.072 36.4096C612.919 36.5623 612.766 36.7084 612.62 36.8612C611.875 37.1534 611.098 37.7512 610.393 37.6715C608.871 37.4988 608.891 38.0368 608.911 39.3253C608.931 40.574 608.857 41.1718 610.4 40.9991C611.104 40.9194 611.882 41.5238 612.62 41.816C612.773 41.9688 612.926 42.1216 613.085 42.2743C614.135 43.8418 614.341 45.4558 613.138 47.0166C611.942 48.5642 610.333 48.8099 608.306 48.1458C608.718 50.2313 608.651 52.1309 606.724 53.3264C605.241 54.243 603.779 53.9906 602.37 53.094C602.177 52.9013 601.991 52.7087 601.798 52.5227C601.054 51.4202 600.861 50.1914 601.067 48.9096C598.946 48.6705 597.185 48.7302 597.404 51.5398C597.431 51.8785 597.059 52.2438 596.866 52.5958C596.72 52.7486 596.58 52.8881 596.44 53.0275ZM606.597 46.565C605.381 45.8277 607.934 43.5097 605.221 43.4964C603.839 43.4898 603.513 43.9614 603.526 45.2433C603.546 47.9332 605.833 45.3894 606.597 46.565ZM592.206 46.5982C592.957 45.582 595.663 47.993 595.191 44.6853C594.812 42.0552 593.143 44.1274 592.219 43.45C592.598 44.5459 592.199 45.4624 592.206 46.5982ZM606.69 32.1787C603.48 32.5108 603.56 32.5241 603.467 33.2679C603.154 35.8516 605.108 34.9749 606.624 35.3801C606.172 34.1779 606.524 33.1949 606.69 32.1787ZM592.179 32.0392C592.359 33.2082 592.472 34.2111 592.292 35.3402C593.177 34.5498 594.951 36.5026 595.25 33.8989C595.616 30.6776 592.897 33.2347 592.179 32.0392ZM598.135 39.1527C598.189 39.8368 597.67 40.8198 599.073 40.5408C599.784 40.4013 600.701 40.9061 600.582 39.4316C600.502 38.4287 600.449 38.0368 599.299 38.1099C598.435 38.163 597.816 38.0767 598.135 39.1527Z" fill="#4F46E5"/>
<path d="M596.833 26.0887C596.706 25.9625 596.587 25.8363 596.46 25.7101C596.44 25.5507 596.46 25.3714 596.401 25.2319C595.583 23.4319 595.556 21.7316 597.232 20.4165C598.594 19.3472 600.13 19.3405 601.499 20.4032C603.181 21.705 603.161 23.412 602.363 25.212C602.303 25.3514 602.317 25.5308 602.297 25.6902C602.164 25.823 602.031 25.9625 601.898 26.0953C600.203 26.7794 598.514 26.7662 596.833 26.0887Z" fill="#4F46E5"/>
<path d="M613.085 42.2814C612.932 42.1286 612.78 41.9758 612.62 41.8231C611.909 40.1693 611.922 38.5221 612.62 36.8682C612.773 36.7155 612.926 36.5693 613.072 36.4166C613.61 36.2505 614.136 36.0446 614.687 35.9384C616.249 35.6395 617.592 36.0181 618.49 37.4062C619.307 38.6748 619.307 40.0098 618.496 41.2784C617.605 42.6666 616.256 43.0518 614.694 42.7529C614.149 42.66 613.624 42.4474 613.085 42.2814Z" fill="#4F46E5"/>
<path d="M601.792 52.5299C601.984 52.7225 602.171 52.9151 602.363 53.1011C602.47 53.4863 602.576 53.8782 602.676 54.2634C603.114 55.9106 602.849 57.3785 601.386 58.3947C600.043 59.3245 598.594 59.3046 597.272 58.3415C595.836 57.2921 595.603 55.8176 596.088 54.1837C596.201 53.7985 596.328 53.4132 596.441 53.028C596.58 52.8885 596.72 52.7424 596.859 52.6029C598.495 51.9122 600.143 51.9321 601.792 52.5299Z" fill="#4F46E5"/>
<path d="M586.097 41.8825C585.971 42.0087 585.845 42.1283 585.718 42.2545C583.744 42.8855 581.763 43.45 580.294 41.3246C579.437 40.0892 579.417 38.7409 580.234 37.4657C581.637 35.2938 583.624 35.772 585.619 36.3698C585.798 36.5491 585.978 36.7284 586.157 36.9011C586.802 38.5749 586.742 40.2353 586.097 41.8825Z" fill="#4F46E5"/>
<path d="M618.942 50.0721C618.981 51.8986 617.333 53.5458 615.505 53.5126C613.77 53.4794 612.221 51.9385 612.188 50.1983C612.148 48.3651 613.79 46.7246 615.625 46.7578C617.353 46.7977 618.902 48.3386 618.942 50.0721Z" fill="#4F46E5"/>
<path d="M583.199 53.4864C581.391 53.5063 579.762 51.8525 579.822 50.0525C579.875 48.3323 581.417 46.818 583.139 46.798C584.947 46.7781 586.576 48.4319 586.516 50.2319C586.469 51.9521 584.921 53.4665 583.199 53.4864Z" fill="#4F46E5"/>
<path d="M591.927 55.4123C592 57.2189 590.385 58.886 588.563 58.886C586.842 58.886 585.28 57.3717 585.206 55.6514C585.133 53.8449 586.749 52.1777 588.57 52.1777C590.298 52.1777 591.86 53.6854 591.927 55.4123Z" fill="#4F46E5"/>
<path d="M615.372 31.9267C613.537 31.8138 612.022 30.0537 612.208 28.2537C612.387 26.5136 614.036 25.0922 615.744 25.1985C617.579 25.3114 619.094 27.0781 618.908 28.8714C618.736 30.6116 617.087 32.033 615.372 31.9267Z" fill="#4F46E5"/>
<path d="M583.053 25.218C584.755 25.1516 586.37 26.5995 586.509 28.3264C586.656 30.1131 585.107 31.84 583.286 31.913C581.484 31.9861 579.816 30.3788 579.822 28.5655C579.829 26.8453 581.331 25.2844 583.053 25.218Z" fill="#4F46E5"/>
<path d="M613.531 23.1858C613.524 25.0123 611.842 26.6197 610.027 26.5333C608.293 26.4536 606.79 24.8861 606.797 23.1526C606.804 21.3261 608.485 19.7187 610.3 19.8051C612.035 19.8848 613.537 21.4589 613.531 23.1858Z" fill="#4F46E5"/>
<path d="M588.583 19.8253C590.398 19.8319 592 21.5057 591.914 23.3056C591.834 25.0325 590.265 26.5269 588.55 26.5136C586.736 26.507 585.134 24.8333 585.213 23.0333C585.3 21.3131 586.868 19.812 588.583 19.8253Z" fill="#4F46E5"/>
<path d="M613.531 55.4921C613.557 57.3186 611.902 58.9459 610.081 58.8994C608.346 58.8529 606.817 57.3054 606.797 55.5718C606.77 53.7453 608.419 52.1181 610.247 52.1712C611.982 52.2177 613.504 53.7586 613.531 55.4921Z" fill="#4F46E5"/>
<path d="M590.85 60.7321C591.123 58.8325 592.199 57.8163 594.114 57.8362C595.942 57.8562 597.278 59.4104 597.045 61.2435C596.799 63.163 595.603 64.1261 593.708 63.9933C591.774 63.8538 590.903 62.6051 590.85 60.7321Z" fill="#4F46E5"/>
<path d="M620.956 47.8807C619.055 47.7146 617.945 46.725 617.851 44.7988C617.765 42.9657 619.254 41.5045 621.089 41.6373C623.003 41.7768 624.093 42.8993 624.053 44.8121C624.02 46.7383 622.85 47.7213 620.956 47.8807Z" fill="#4F46E5"/>
<path d="M580.872 44.712C580.726 46.6116 579.762 47.7805 577.808 47.7938C575.874 47.8071 574.744 46.7178 574.717 44.7784C574.697 42.8456 575.794 41.7231 577.728 41.6899C579.683 41.6633 580.686 42.8058 580.872 44.712Z" fill="#4F46E5"/>
<path d="M607.907 60.8918C607.767 62.7714 606.804 63.9603 604.876 64.0201C602.968 64.0732 601.825 63.0105 601.659 61.091C601.499 59.2579 602.948 57.7501 604.783 57.8166C606.71 57.8896 607.714 58.9855 607.907 60.8918Z" fill="#4F46E5"/>
<path d="M620.909 37.0938C619.001 36.8946 617.911 35.8784 617.851 33.9522C617.798 32.1191 619.314 30.6778 621.149 30.8505C623.063 31.0298 624.126 32.1722 624.06 34.0784C623.987 36.0112 622.79 36.961 620.909 37.0938Z" fill="#4F46E5"/>
<path d="M577.901 30.8638C579.802 31.0962 580.899 32.1456 580.826 34.0784C580.753 36.0179 579.576 37.0739 577.655 37.0075C575.714 36.9411 574.664 35.7655 574.724 33.8393C574.784 31.8866 575.993 30.9634 577.901 30.8638Z" fill="#4F46E5"/>
<path d="M597.092 17.7066C596.886 19.7323 595.875 20.8747 593.928 20.8415C591.987 20.8083 590.883 19.6725 590.91 17.7331C590.936 15.7937 592.08 14.6978 594.014 14.7111C595.982 14.7243 596.912 15.9332 597.092 17.7066Z" fill="#4F46E5"/>
<path d="M607.887 17.8123C607.708 19.7052 606.711 20.8011 604.783 20.8675C602.942 20.9339 601.519 19.4528 601.672 17.613C601.825 15.7001 602.955 14.6441 604.863 14.6972C606.79 14.7504 607.748 15.926 607.887 17.8123Z" fill="#4F46E5"/>
<path d="M583.252 63.7676C581.557 63.575 580.427 62.685 580.387 60.9846C580.354 59.291 581.418 58.1884 583.106 58.1485C584.801 58.1087 585.904 59.178 585.944 60.8651C585.998 62.5654 584.887 63.4886 583.252 63.7676Z" fill="#4F46E5"/>
<path d="M599.412 69.1738C597.743 68.9746 596.607 68.0846 596.567 66.3776C596.533 64.6773 597.61 63.5681 599.299 63.5216C601 63.4817 602.11 64.5577 602.157 66.2514C602.21 67.9716 601.1 68.9015 599.412 69.1738Z" fill="#4F46E5"/>
<path d="M626.559 36.5097C628.068 36.7554 629.099 37.6587 629.192 39.3524C629.271 40.8867 627.683 42.3811 626.18 42.1752C624.525 41.9494 623.555 40.9199 623.535 39.2262C623.508 37.7783 624.984 36.4698 626.559 36.5097Z" fill="#4F46E5"/>
<path d="M575.209 39.3254C574.936 41.0722 574.006 42.1615 572.311 42.115C570.629 42.0685 569.565 40.9726 569.605 39.2856C569.645 37.6052 570.749 36.5491 572.437 36.5823C574.139 36.6155 574.99 37.7712 575.209 39.3254Z" fill="#4F46E5"/>
<path d="M599.325 9.54346C600.987 9.73607 602.117 10.6261 602.144 12.3264C602.177 14.0201 601.107 15.1226 599.418 15.1558C597.723 15.1891 596.627 14.1197 596.587 12.4327C596.547 10.7324 597.65 9.80913 599.325 9.54346Z" fill="#4F46E5"/>
<path d="M585.998 17.7326C585.812 19.3864 584.927 20.5023 583.232 20.5421C581.544 20.5753 580.447 19.5193 580.407 17.8389C580.367 16.1518 581.431 15.0559 583.113 15.0161C584.808 14.9696 585.732 16.0589 585.998 17.7326Z" fill="#4F46E5"/>
<path d="M618.416 60.9781C618.137 62.6585 617.207 63.7677 615.498 63.7212C613.803 63.6747 612.726 62.5655 612.766 60.8651C612.813 59.1715 613.923 58.0955 615.625 58.1353C617.333 58.1686 618.224 59.311 618.416 60.9781Z" fill="#4F46E5"/>
<path d="M615.518 14.9233C617.187 15.1226 618.323 16.0126 618.363 17.7196C618.396 19.4199 617.32 20.5291 615.625 20.5689C613.923 20.6088 612.813 19.5262 612.773 17.8325C612.72 16.1255 613.83 15.1957 615.518 14.9233Z" fill="#4F46E5"/>
<path d="M577.748 52.7021C579.496 52.9678 580.587 53.8977 580.54 55.5914C580.5 57.2718 579.403 58.3345 577.715 58.3012C576.033 58.2614 574.976 57.1655 575.003 55.4784C575.036 53.7715 576.186 52.9213 577.748 52.7021Z" fill="#4F46E5"/>
<path d="M621.002 26.022C619.334 25.8227 618.197 24.926 618.164 23.2191C618.13 21.5188 619.207 20.4096 620.909 20.3697C622.611 20.3299 623.714 21.4125 623.761 23.1062C623.8 24.8264 622.684 25.7563 621.002 26.022Z" fill="#4F46E5"/>
<path d="M580.6 23.0861C580.407 24.7798 579.523 25.9023 577.828 25.9355C576.14 25.9687 575.043 24.906 575.003 23.2256C574.963 21.5385 576.027 20.4493 577.708 20.4028C579.417 20.3563 580.327 21.4655 580.6 23.0861Z" fill="#4F46E5"/>
<path d="M623.827 55.5918C623.555 57.2457 622.644 58.2751 620.949 58.3548C619.413 58.4345 617.924 56.8405 618.131 55.3328C618.363 53.679 619.4 52.6295 621.089 52.7159C622.77 52.8089 623.648 53.938 623.827 55.5918Z" fill="#4F46E5"/>
<path d="M626.44 25.9688C628.095 26.1414 628.999 27.0514 628.919 28.7052C628.833 30.379 627.789 31.2158 626.154 31.1162C624.618 31.0232 623.774 30.0734 623.794 28.5325C623.814 26.8654 624.804 26.0551 626.44 25.9688Z" fill="#4F46E5"/>
<path d="M626.426 52.7553C624.698 52.5959 623.754 51.7391 623.781 50.0986C623.807 48.458 624.758 47.5414 626.393 47.5614C628.035 47.5813 628.939 48.5377 628.939 50.1716C628.932 51.8454 627.915 52.6158 626.426 52.7553Z" fill="#4F46E5"/>
<path d="M572.271 52.7088C570.642 52.5228 569.752 51.6195 569.845 49.979C569.938 48.3185 570.975 47.5016 572.597 47.6078C574.126 47.7075 574.943 48.6572 574.91 50.1782C574.883 51.8453 573.893 52.6291 572.271 52.7088Z" fill="#4F46E5"/>
<path d="M610.16 9.80225C611.796 9.92844 612.746 10.7786 612.713 12.4391C612.673 14.1062 611.689 14.9763 610.047 14.9298C608.512 14.8833 607.641 13.98 607.615 12.4457C607.588 10.7786 608.525 9.92844 610.16 9.80225Z" fill="#4F46E5"/>
<path d="M572.544 31.1362C570.815 31.0366 569.838 30.2263 569.838 28.5658C569.845 26.912 570.782 26.0087 572.431 26.0286C573.959 26.0419 574.844 26.912 574.91 28.4396C574.983 30.1068 574.046 30.9436 572.544 31.1362Z" fill="#4F46E5"/>
<path d="M612.773 66.3178C612.58 68.0713 611.656 68.9679 610.008 68.875C608.332 68.782 607.502 67.7259 607.608 66.092C607.708 64.5511 608.672 63.7275 610.207 63.7474C611.902 63.7806 612.653 64.8101 612.773 66.3178Z" fill="#4F46E5"/>
<path d="M588.656 68.9084C586.908 68.7623 585.971 67.8922 586.024 66.2317C586.077 64.5646 587.074 63.7078 588.716 63.7676C590.252 63.8274 591.103 64.7439 591.123 66.2782C591.149 67.9719 590.152 68.7556 588.656 68.9084Z" fill="#4F46E5"/>
<path d="M591.143 12.4859C590.957 14.1132 590.052 15.0032 588.411 14.9102C586.749 14.8172 585.931 13.7811 586.038 12.1605C586.137 10.6329 587.088 9.81591 588.61 9.84912C590.279 9.87569 591.063 10.8653 591.143 12.4859Z" fill="#4F46E5"/>
<path d="M631.738 47.0902C630.262 46.8046 629.351 45.9942 629.477 44.5729C629.597 43.1914 630.554 42.3279 631.99 42.4741C633.273 42.6003 634.091 43.4903 634.044 44.7987C633.991 46.2267 633.02 46.9175 631.738 47.0902Z" fill="#4F46E5"/>
<path d="M566.986 47.0035C565.61 46.864 564.726 46.1002 564.759 44.6722C564.786 43.3704 565.63 42.5335 566.94 42.5269C568.362 42.5203 569.233 43.397 569.206 44.825C569.173 46.1201 568.322 46.8441 566.986 47.0035Z" fill="#4F46E5"/>
<path d="M604.696 4.70801C605.953 4.79435 606.87 5.43862 606.996 6.75371C607.129 8.195 606.298 9.14478 604.883 9.22449C603.453 9.30419 602.543 8.41418 602.523 6.98618C602.503 5.67109 603.347 4.92055 604.696 4.70801Z" fill="#4F46E5"/>
<path d="M634.091 33.8792C633.958 35.2541 633.227 36.2105 631.804 36.2371C630.388 36.2637 629.491 35.3537 629.471 33.939C629.458 32.6372 630.308 31.7605 631.591 31.6741C633.014 31.5811 633.818 32.4712 634.091 33.8792Z" fill="#4F46E5"/>
<path d="M566.913 31.7007C568.156 31.7804 569.06 32.4114 569.187 33.7198C569.32 35.1478 568.502 36.091 567.093 36.1707C565.677 36.2437 564.773 35.3803 564.753 33.9523C564.74 32.6438 565.564 31.8999 566.913 31.7007Z" fill="#4F46E5"/>
<path d="M596.281 71.665C596.141 73.0266 595.403 73.9697 593.994 73.9764C592.592 73.983 591.708 73.0864 591.708 71.6783C591.708 70.3831 592.558 69.5263 593.835 69.4533C595.244 69.3736 596.042 70.2503 596.281 71.665Z" fill="#4F46E5"/>
<path d="M596.248 6.94635C596.148 8.22159 595.47 9.11825 594.16 9.21788C592.725 9.32415 591.774 8.48063 591.728 7.05927C591.674 5.63126 592.578 4.73461 594.014 4.74125C595.324 4.75453 596.062 5.61133 596.248 6.94635Z" fill="#4F46E5"/>
<path d="M604.769 74.0229C603.387 73.8435 602.463 73.0797 602.496 71.665C602.529 70.2636 603.46 69.4001 604.869 69.4466C606.152 69.4931 607.003 70.3499 607.029 71.6384C607.063 73.0598 606.165 73.8236 604.769 74.0229Z" fill="#4F46E5"/>
<path d="M626.333 62.9904C624.997 62.8841 624.253 62.1668 624.312 60.7986C624.366 59.5566 625.117 58.8658 626.353 58.8791C627.729 58.8924 628.447 59.6894 628.394 61.0444C628.354 62.2997 627.583 62.9107 626.333 62.9904Z" fill="#4F46E5"/>
<path d="M620.763 10.3203C622.212 10.3934 622.996 11.0443 622.983 12.4191C622.97 13.6545 622.272 14.3785 621.035 14.4051C619.679 14.4383 618.928 13.701 618.922 12.3461C618.928 11.0908 619.686 10.4864 620.763 10.3203Z" fill="#4F46E5"/>
<path d="M620.989 64.2524C622.239 64.3587 622.983 64.9963 623.003 66.2517C623.023 67.6132 622.278 68.377 620.909 68.3638C619.666 68.3505 618.948 67.6398 618.915 66.3911C618.888 65.0163 619.659 64.3321 620.989 64.2524Z" fill="#4F46E5"/>
<path d="M626.174 15.7002C627.623 15.7733 628.414 16.4308 628.401 17.8123C628.387 19.0543 627.689 19.785 626.44 19.8115C625.077 19.8447 624.312 19.1008 624.312 17.7326C624.312 16.4773 625.07 15.8596 626.174 15.7002Z" fill="#4F46E5"/>
<path d="M579.803 12.4259C579.683 13.648 579.038 14.3852 577.788 14.3786C576.412 14.3719 575.694 13.5616 575.781 12.22C575.854 10.9846 576.645 10.3337 577.881 10.3868C579.131 10.4399 579.729 11.2037 579.803 12.4259Z" fill="#4F46E5"/>
<path d="M572.45 58.8857C573.68 59.0186 574.405 59.6761 574.385 60.9381C574.358 62.3262 573.534 63.0303 572.178 62.9306C570.928 62.8443 570.29 62.034 570.357 60.792C570.436 59.53 571.214 58.9389 572.45 58.8857Z" fill="#4F46E5"/>
<path d="M617.486 6.91953C617.386 8.03537 616.801 8.80583 615.684 8.86561C614.441 8.93203 613.664 8.17485 613.677 6.93282C613.69 5.81698 614.428 5.11294 615.551 5.09965C616.688 5.09301 617.293 5.83026 617.486 6.91953Z" fill="#4F46E5"/>
<path d="M585.08 6.99286C584.92 8.08213 584.329 8.84595 583.219 8.85259C581.996 8.85923 581.231 8.08213 581.304 6.86003C581.371 5.7774 582.115 5.07335 583.239 5.11985C584.355 5.16634 584.934 5.91024 585.08 6.99286Z" fill="#4F46E5"/>
<path d="M577.768 64.2793C579.005 64.3656 579.769 64.99 579.789 66.2519C579.809 67.6268 579.031 68.3773 577.662 68.3242C576.406 68.2777 575.734 67.5072 575.761 66.2652C575.787 65.0033 576.532 64.3789 577.768 64.2793Z" fill="#4F46E5"/>
<path d="M631.744 57.4844C630.554 57.3183 629.783 56.6675 629.85 55.4188C629.91 54.3096 630.634 53.6056 631.751 53.6188C632.987 53.6388 633.725 54.4026 633.672 55.6446C633.619 56.7671 632.868 57.3516 631.744 57.4844Z" fill="#4F46E5"/>
<path d="M566.834 53.6123C568.023 53.7451 568.795 54.323 568.841 55.4255C568.894 56.6477 568.13 57.4248 566.907 57.3982C565.81 57.3783 565.112 56.6344 565.105 55.5252C565.099 54.3894 565.883 53.8448 566.834 53.6123Z" fill="#4F46E5"/>
<path d="M572.451 19.8184C571.101 19.6723 570.363 19.0347 570.377 17.786C570.39 16.4112 571.201 15.7005 572.55 15.7868C573.787 15.8665 574.431 16.6569 574.378 17.8923C574.325 19.1543 573.514 19.6989 572.451 19.8184Z" fill="#4F46E5"/>
<path d="M631.638 25.1055C630.488 24.8597 629.73 24.1889 629.87 22.9535C629.989 21.8775 630.74 21.1868 631.85 21.2665C633.06 21.3595 633.772 22.1499 633.645 23.372C633.532 24.4679 632.768 25.0391 631.638 25.1055Z" fill="#4F46E5"/>
<path d="M585.1 71.7911C584.901 72.8804 584.289 73.611 583.159 73.5977C582.036 73.5844 581.305 72.8737 581.298 71.7579C581.291 70.5159 582.076 69.7653 583.312 69.8384C584.415 69.8982 585 70.6753 585.1 71.7911Z" fill="#4F46E5"/>
<path d="M615.432 69.752C616.728 69.9379 617.505 70.5689 617.459 71.8043C617.412 72.9002 616.695 73.6109 615.584 73.6043C614.361 73.5976 613.63 72.8404 613.657 71.6117C613.69 70.5025 614.488 69.9711 615.432 69.752Z" fill="#4F46E5"/>
<path d="M568.874 23.2193C568.668 24.3219 568.05 25.0658 566.913 25.0126C565.797 24.9662 565.085 24.2223 565.125 23.0998C565.172 21.9839 565.91 21.2733 567.04 21.3131C568.163 21.3596 568.748 22.1234 568.874 23.2193Z" fill="#4F46E5"/>
<path d="M638.857 39.3055C638.744 40.4014 638.179 41.0324 637.142 41.0191C636.105 41.0059 635.473 40.3682 635.487 39.3321C635.5 38.296 636.138 37.6716 637.175 37.6783C638.219 37.6849 638.75 38.3491 638.857 39.3055Z" fill="#4F46E5"/>
<path d="M611.643 76.9184C611.603 77.9081 611.177 78.4793 610.34 78.559C609.383 78.652 608.751 78.1472 608.718 77.1642C608.685 76.1878 609.263 75.6432 610.233 75.6565C611.104 75.6698 611.496 76.2543 611.643 76.9184Z" fill="#4F46E5"/>
<path d="M597.71 77.1376C597.863 75.9753 598.474 75.4041 599.511 75.4905C600.568 75.5768 601.087 76.2941 600.98 77.317C600.887 78.2269 600.276 78.7583 599.332 78.7317C598.268 78.7051 597.796 78.0343 597.71 77.1376Z" fill="#4F46E5"/>
<path d="M590.039 77.0981C589.933 78.0146 589.448 78.5859 588.484 78.546C587.653 78.5062 587.134 77.9748 587.134 77.1446C587.134 76.1948 587.706 75.6435 588.656 75.6767C589.494 75.7033 589.926 76.2612 590.039 77.0981Z" fill="#4F46E5"/>
<path d="M590.019 1.60654C589.906 2.43677 589.461 3.00133 588.617 3.00798C587.653 3.01462 587.081 2.41685 587.161 1.46042C587.227 0.643466 587.792 0.125405 588.65 0.17854C589.488 0.225033 589.92 0.776305 590.019 1.60654Z" fill="#4F46E5"/>
<path d="M600.987 1.59973C600.854 2.7687 600.203 3.28677 599.159 3.18714C598.215 3.09416 597.71 2.45653 597.77 1.51339C597.836 0.417475 598.534 -0.087304 599.578 0.0123242C600.529 0.0920267 600.954 0.749572 600.987 1.59973Z" fill="#4F46E5"/>
<path d="M611.649 1.53994C611.477 2.57607 610.938 3.12735 609.994 3.02772C609.19 2.94138 608.671 2.38347 608.731 1.54659C608.791 0.5968 609.396 0.0787324 610.34 0.165077C611.164 0.238137 611.543 0.849185 611.649 1.53994Z" fill="#4F46E5"/>
<path d="M563.025 28.5591C562.925 29.3894 562.48 29.9606 561.642 29.9738C560.678 29.9938 560.107 29.4026 560.166 28.4396C560.22 27.616 560.785 27.1045 561.635 27.1378C562.486 27.1842 562.918 27.7355 563.025 28.5591Z" fill="#4F46E5"/>
<path d="M638.651 28.4062C638.584 29.4689 638.106 30.0268 637.135 30.0268C636.291 30.0268 635.759 29.5486 635.693 28.7183C635.613 27.7818 636.085 27.1641 637.055 27.0911C638.033 27.0247 638.498 27.6092 638.651 28.4062Z" fill="#4F46E5"/>
<path d="M563.171 39.359C563.104 40.3752 562.553 40.9663 561.489 40.9265C560.545 40.8933 560.007 40.3287 560 39.3855C559.993 38.3162 560.598 37.745 561.662 37.7782C562.612 37.8048 563.098 38.3826 563.171 39.359Z" fill="#4F46E5"/>
<path d="M563.025 50.1783C562.898 51.0019 562.446 51.5665 561.602 51.5532C560.638 51.5399 560.073 50.9355 560.166 49.9791C560.246 49.1688 560.824 48.6507 561.675 48.7171C562.513 48.7836 562.951 49.3415 563.025 50.1783Z" fill="#4F46E5"/>
<path d="M638.644 50.1052C638.584 51.0417 638.106 51.6062 637.135 51.6062C636.291 51.6062 635.759 51.128 635.693 50.2978C635.613 49.3613 636.085 48.7369 637.055 48.6705C638.013 48.6107 638.531 49.1487 638.644 50.1052Z" fill="#4F46E5"/>
<path d="M108.491 127.456H139.696C140.937 127.456 142.121 127.704 143.191 128.143V107.366C143.191 101.713 138.607 97.1294 132.955 97.1294H45.451C39.7982 97.1294 35.2148 101.713 35.2148 107.366V137.749C49.2322 139.831 59.984 151.9 59.984 166.51C59.984 179.343 51.6576 190.228 40.1228 194.086C41.6697 195.041 43.5031 195.576 45.451 195.576H132.974C138.626 195.576 143.21 190.992 143.21 185.34V159.386V155.452C142.121 155.892 140.937 156.14 139.715 156.14H108.491C100.566 156.14 94.149 149.723 94.149 141.798C94.149 133.892 100.566 127.456 108.491 127.456Z" fill="#4F46E5" fill-opacity="0.3"/>
<path d="M108.166 146.687C110.866 146.687 113.055 144.498 113.055 141.798C113.055 139.098 110.866 136.909 108.166 136.909C105.466 136.909 103.277 139.098 103.277 141.798C103.277 144.498 105.466 146.687 108.166 146.687Z" fill="#4F46E5"/>
<path d="M111.356 182.246C102.59 182.246 93.8053 182.246 85.0397 182.246C83.7793 182.246 82.5188 182.246 81.2584 182.246C77.5727 182.246 77.5536 187.975 81.2584 187.975C90.0241 187.975 98.8088 187.975 107.574 187.975C108.835 187.975 110.095 187.975 111.356 187.975C115.041 187.994 115.041 182.246 111.356 182.246Z" fill="#4F46E5"/>
<path d="M127.283 182.246C125.736 182.246 124.208 182.246 122.661 182.246C121.153 182.246 119.72 183.564 119.797 185.111C119.873 186.658 121.057 187.975 122.661 187.975C124.208 187.975 125.736 187.975 127.283 187.975C128.792 187.975 130.224 186.658 130.147 185.111C130.071 183.564 128.887 182.246 127.283 182.246Z" fill="#4F46E5"/>
<path d="M148.404 129.767C147.488 128.602 146.361 127.685 145.12 126.998C145.12 120.638 145.12 114.26 145.12 107.9C145.12 105.074 145.139 102.248 145.12 99.4212C145.081 94.3413 142.37 89.6052 137.71 87.3708C134.005 85.5948 129.651 86.0531 125.64 86.0531C119.052 86.0531 112.463 86.0531 105.875 86.0531C88.9355 86.0531 72.0153 86.0531 55.076 86.0531C49.6715 86.0531 44.2861 86.0531 38.8816 86.0531C38.0413 86.0531 37.1819 86.034 36.3416 86.0531C30.517 86.1486 25.2652 89.9871 23.6992 95.6781C23.069 97.9507 23.2409 100.376 23.2409 102.706C23.2409 106.392 23.2409 110.077 23.2409 113.763C23.2409 121.192 23.2409 128.64 23.2409 136.069C23.2409 136.222 23.2409 136.393 23.2409 136.546C16.9197 138.17 11.1142 141.722 6.91276 146.916C-1.22267 157.018 -2.3494 171.494 4.44922 182.628C10.102 191.871 20.2426 197.371 30.8225 197.447C30.9562 197.466 31.0899 197.486 31.2427 197.486C37.2965 197.486 43.3312 197.486 49.385 197.486C62.142 197.486 74.899 197.486 87.675 197.486C99.3053 197.486 110.916 197.486 122.547 197.486C125.411 197.486 128.295 197.486 131.159 197.486C137.08 197.486 142.35 194.411 144.413 188.663C145.158 186.6 145.139 184.48 145.139 182.341C145.139 179.649 145.139 176.975 145.139 174.282C145.139 168.572 145.139 162.862 145.139 157.133C145.139 156.961 145.139 156.789 145.139 156.617C146.838 155.682 148.29 154.326 149.321 152.607C150.715 150.277 150.887 147.775 150.887 145.14C150.849 140.041 151.784 134.025 148.404 129.767ZM9.89193 183.697C2.65407 174.989 1.83289 162.175 7.63846 152.492C13.444 142.848 25.017 137.635 36.0934 139.831C48.7739 142.352 57.9597 153.6 58.0552 166.491C57.9788 177.739 50.8937 188.166 40.2184 192.005C29.4284 195.92 17.2253 192.539 9.89193 183.697ZM141.3 184.098C141.262 189.656 137.041 193.647 131.561 193.666C129.059 193.666 126.557 193.666 124.055 193.666C113.036 193.666 101.998 193.666 90.9789 193.666C78.241 193.666 65.5031 193.666 52.7462 193.666C50.4736 193.666 48.1819 193.647 45.9093 193.609C55.4962 188.223 61.8174 177.815 61.8937 166.51C61.7983 153.543 53.6437 141.855 41.4597 137.387C36.8191 135.687 31.8729 135.209 27.0795 135.821C27.0795 123.923 27.0795 112.006 27.0795 100.109C27.0795 96.4611 28.359 93.0809 31.6819 91.1521C33.4961 90.0826 35.425 89.8917 37.4684 89.8917C41.8607 89.8917 46.2722 89.8917 50.6646 89.8917C66.9163 89.8917 83.149 89.8917 99.4007 89.8917C110.191 89.8917 120.981 89.8344 131.771 89.8917C135.59 89.9108 139.123 91.9924 140.613 95.5826C141.606 97.9507 141.319 100.72 141.319 103.241C141.319 110.727 141.319 118.213 141.319 125.718C140.784 125.642 140.231 125.584 139.696 125.584C138.626 125.565 137.538 125.584 136.468 125.584C131.408 125.584 126.347 125.584 121.286 125.584C117.218 125.584 113.151 125.584 109.083 125.584C102.838 125.604 96.9372 128.735 94.0726 134.426C90.6351 141.263 92.4111 149.8 98.4459 154.555C101.349 156.847 104.863 158.031 108.548 158.088C109.541 158.107 110.515 158.088 111.508 158.088C120.694 158.088 129.88 158.088 139.066 158.088C139.295 158.088 139.524 158.088 139.753 158.088C139.83 158.088 139.906 158.088 139.982 158.069C140.441 158.05 140.899 158.012 141.338 157.935C141.3 166.644 141.338 175.371 141.3 184.098ZM147.01 147.355C146.781 151.251 143.515 154.135 139.696 154.23C132.076 154.23 124.475 154.23 116.856 154.23C114.067 154.23 111.279 154.268 108.491 154.23C101.902 154.154 96.2497 148.921 96.0396 142.237C95.8296 135.477 101.215 129.576 108.014 129.366C110.668 129.289 113.342 129.366 115.996 129.366C123.864 129.366 131.771 129.213 139.639 129.366C143.038 129.423 146.017 131.676 146.819 135.018C147.297 137.005 147.01 139.315 147.01 141.321C147.029 143.326 147.125 145.369 147.01 147.355Z" fill="#4F46E5"/>
<path d="M114.927 141.282C114.526 137.826 111.814 135.019 108.166 135.019C104.462 135.019 101.387 138.131 101.368 141.817C101.349 145.503 104.481 148.616 108.166 148.616C111.795 148.616 114.526 145.789 114.927 142.352C114.965 142.199 114.984 142.008 114.965 141.836C114.965 141.607 114.946 141.435 114.927 141.282ZM105.187 141.798C105.187 137.94 110.955 137.979 111.126 141.798C110.974 145.618 105.187 145.675 105.187 141.798Z" fill="#4F46E5"/>
<path d="M35.1194 187.593C45.1454 185.683 52.326 176.593 52.4215 166.51C52.326 157.477 46.6732 149.399 38.1749 146.267C29.7912 143.192 19.9753 145.942 14.3416 152.836C8.65059 159.807 7.81031 169.852 12.4891 177.605C17.168 185.321 26.2773 189.274 35.1194 187.593ZM17.3016 177.796C12.5082 172.105 11.9544 163.683 15.793 157.343C19.5742 151.098 27.1176 147.699 34.2982 149.15C42.5673 150.812 48.4875 158.107 48.5829 166.51C48.5065 173.843 43.9232 180.661 36.9527 183.143C29.944 185.626 22.0951 183.487 17.3016 177.796Z" fill="#4F46E5"/>
<path d="M36.1888 166.071C37.5638 165.345 38.4423 164.046 38.4423 162.347C38.4423 159.73 36.3034 157.973 32.1402 157.954V156.025H28.7027V157.954H23.7756V174.855H28.7027V176.975H32.1402V174.855H32.5222C36.9718 174.855 39.2826 173.156 39.2826 170.234C39.2826 168.114 38.0604 166.663 36.1888 166.071ZM27.6524 160.895H31.5482C33.4579 160.895 34.4892 161.544 34.4892 162.881C34.4892 164.218 33.4579 164.887 31.5482 164.887H27.6524V160.895ZM32.2166 171.914H27.6524V167.732H32.2166C34.2409 167.732 35.3295 168.4 35.3295 169.833C35.3295 171.284 34.2409 171.914 32.2166 171.914Z" fill="#4F46E5"/>
<path d="M40.112 256L31.578 232.03H36.984L42.492 248.418L48.306 232.03H52.114L57.758 248.69L63.47 232.03H68.57L59.968 256H55.684L50.074 240.088L44.396 256H40.112ZM74.6082 256.374C73.3615 256.374 72.2622 256.136 71.3102 255.66C70.3582 255.184 69.5989 254.538 69.0322 253.722C68.4882 252.906 68.2162 251.988 68.2162 250.968C68.2162 249.767 68.5335 248.803 69.1682 248.078C69.8029 247.353 70.8342 246.843 72.2622 246.548C73.6902 246.231 75.5829 246.072 77.9402 246.072H79.1642V245.494C79.1642 244.497 78.9375 243.794 78.4842 243.386C78.0309 242.955 77.2602 242.74 76.1722 242.74C75.2655 242.74 74.3022 242.887 73.2822 243.182C72.2849 243.454 71.2875 243.873 70.2902 244.44L68.8962 241.006C69.4855 240.621 70.1995 240.269 71.0382 239.952C71.8995 239.635 72.7949 239.397 73.7242 239.238C74.6535 239.057 75.5375 238.966 76.3762 238.966C78.9602 238.966 80.8869 239.555 82.1562 240.734C83.4255 241.89 84.0602 243.692 84.0602 246.14V256H79.2662V253.484C78.9262 254.368 78.3482 255.071 77.5322 255.592C76.7389 256.113 75.7642 256.374 74.6082 256.374ZM75.7642 252.94C76.7162 252.94 77.5209 252.611 78.1782 251.954C78.8355 251.297 79.1642 250.447 79.1642 249.404V248.724H77.9742C76.2289 248.724 74.9935 248.883 74.2682 249.2C73.5429 249.495 73.1802 250.016 73.1802 250.764C73.1802 251.399 73.3955 251.92 73.8262 252.328C74.2795 252.736 74.9255 252.94 75.7642 252.94ZM94.112 256.374C91.9586 256.374 90.3833 255.819 89.386 254.708C88.3886 253.575 87.89 251.897 87.89 249.676V232.03H93.024V249.472C93.024 251.285 93.8286 252.192 95.438 252.192C95.6873 252.192 95.9253 252.181 96.152 252.158C96.4013 252.135 96.6393 252.09 96.866 252.022L96.798 256C95.9366 256.249 95.0413 256.374 94.112 256.374ZM105.434 256.374C103.281 256.374 101.706 255.819 100.708 254.708C99.7109 253.575 99.2122 251.897 99.2122 249.676V232.03H104.346V249.472C104.346 251.285 105.151 252.192 106.76 252.192C107.01 252.192 107.248 252.181 107.474 252.158C107.724 252.135 107.962 252.09 108.188 252.022L108.12 256C107.259 256.249 106.364 256.374 105.434 256.374ZM119.038 256.374C117.066 256.374 115.366 256.023 113.938 255.32C112.533 254.595 111.445 253.586 110.674 252.294C109.926 250.979 109.552 249.438 109.552 247.67C109.552 245.947 109.915 244.44 110.64 243.148C111.388 241.833 112.397 240.813 113.666 240.088C114.958 239.34 116.443 238.966 118.12 238.966C120.546 238.966 122.472 239.737 123.9 241.278C125.328 242.797 126.042 244.859 126.042 247.466V248.758H114.448C114.63 250.073 115.106 251.036 115.876 251.648C116.67 252.237 117.758 252.532 119.14 252.532C120.047 252.532 120.965 252.396 121.894 252.124C122.824 251.852 123.662 251.433 124.41 250.866L125.77 254.3C124.932 254.935 123.9 255.445 122.676 255.83C121.475 256.193 120.262 256.374 119.038 256.374ZM118.324 242.366C117.236 242.366 116.352 242.695 115.672 243.352C115.015 244.009 114.607 244.927 114.448 246.106H121.792C121.656 243.613 120.5 242.366 118.324 242.366ZM137.123 256.374C132.431 256.374 130.085 254.096 130.085 249.54V243.148H126.923V239.306H130.085V234.41H135.219V239.306H140.149V243.148H135.219V249.336C135.219 250.288 135.434 251.002 135.865 251.478C136.318 251.954 137.032 252.192 138.007 252.192C138.302 252.192 138.608 252.158 138.925 252.09C139.265 252.022 139.628 251.931 140.013 251.818L140.761 255.558C140.285 255.807 139.718 256 139.061 256.136C138.404 256.295 137.758 256.374 137.123 256.374Z" fill="#4F46E5"/>
<path d="M765.7 361.4C762.9 364.9 758.6 367 754 367H719C710.7 367 704 360.3 704 352V317C704 308.7 710.7 302 719 302H754C758.7 302 763.1 304.2 766 308" stroke="#4F46E5" stroke-width="2"/>
<path d="M698.7 361.4C695.9 364.9 691.6 367 687 367H652C643.7 367 637 360.3 637 352V317C637 308.7 643.7 302 652 302H687C691.7 302 696.1 304.2 699 308" stroke="#4F46E5" stroke-width="2" stroke-linecap="round"/>
<path d="M630.7 361.4C627.9 364.9 623.6 367 619 367H584C575.7 367 569 360.3 569 352V317C569 308.7 575.7 302 584 302H619C623.7 302 628.1 304.2 631 308" stroke="#4F46E5" stroke-width="2" stroke-linecap="round"/>
<path d="M608.923 338.072L603.303 346.123L597.689 337.97L603.247 341.231L603.505 341.383L603.761 341.227L608.923 338.072ZM604.447 326.777L603.5 327V335V335.934L604.277 335.416L607.277 333.416L607.645 333.171L607.447 332.777L604.447 326.777ZM603.297 338.418L596.483 334.421L603.106 323.082L609.915 334.429L603.297 338.418Z" fill="#212225" stroke="#4F46E5"/>
<path d="M670.7 343.3V342.8H670.2H665.1C664.914 342.8 664.797 342.74 664.729 342.671C664.66 342.603 664.6 342.486 664.6 342.3V341.8C664.6 341.613 664.66 341.497 664.729 341.428C664.797 341.36 664.914 341.3 665.1 341.3H666.5H667V340.8V328.5V328H666.5H665.1C664.914 328 664.797 327.94 664.729 327.871C664.66 327.803 664.6 327.686 664.6 327.5V327C664.6 326.813 664.66 326.697 664.729 326.628C664.797 326.56 664.914 326.5 665.1 326.5H670.3H670.8V326V323.3C670.8 323.113 670.86 322.997 670.929 322.928C670.997 322.86 671.114 322.8 671.3 322.8H671.7C671.887 322.8 672.003 322.86 672.072 322.928C672.14 322.997 672.2 323.113 672.2 323.3V326V326.5H672.7H673.6H673.617L673.633 326.499C675.024 326.406 676.494 326.777 677.583 327.587C678.384 328.306 678.886 329.354 678.802 330.358L678.8 330.379V330.4C678.8 331.185 678.54 331.96 678.033 332.56C677.481 333.107 676.784 333.523 676.138 333.604L675.7 333.658V334.1V334.3V334.8H676.2C676.791 334.8 677.296 334.964 677.823 335.316C678.41 335.707 678.815 336.047 679.053 336.523L679.059 336.536L679.066 336.548C679.427 337.179 679.587 337.771 679.504 338.438L679.5 338.469V338.5C679.5 339.315 679.322 340.022 678.876 340.735C678.446 341.422 677.841 341.868 677.095 342.243C676.136 342.625 675.028 342.891 674.045 342.802L674.023 342.8H674H672.7H672.2V343.3V346C672.2 346.186 672.14 346.303 672.072 346.371C672.003 346.44 671.887 346.5 671.7 346.5H671.2C671.014 346.5 670.897 346.44 670.829 346.371C670.76 346.303 670.7 346.186 670.7 346V343.3ZM669.8 340.31L669.811 340.8H670.3H673.27C674.178 340.905 675.106 340.677 675.816 340.087C676.464 339.566 676.7 338.803 676.7 338.1C676.7 337.242 676.328 336.52 675.754 335.946L675.738 335.93L675.72 335.916C675.012 335.325 674.19 335.1 673.3 335.1H670.2H669.689L669.7 335.61L669.8 340.31ZM669.8 333.211L669.812 333.7H670.3H673C673.809 333.7 674.505 333.464 675.177 333.016L675.196 333.004L675.212 332.99C675.805 332.516 676.216 331.767 676.1 330.96C676.091 330.243 675.834 329.606 675.212 329.109C674.604 328.622 673.785 328.4 673 328.4H670.2H669.688L669.7 328.911L669.8 333.211Z" fill="#212225" stroke="#4F46E5"/>
<path d="M739.467 330.66L739.101 330.266L738.735 330.659L728.065 342.09L739.099 323.964L750.042 342.073L739.467 330.66ZM742.822 341.2L743.799 342H734.301L735.279 341.2H742.822ZM741.293 338.5H736.707L739 336.207L741.293 338.5Z" fill="#212225" stroke="#4F46E5"/>
<path d="M786 302.5H821C829.024 302.5 835.5 308.976 835.5 317V352C835.5 360.024 829.024 366.5 821 366.5H786C777.976 366.5 771.5 360.024 771.5 352V317C771.5 308.976 777.976 302.5 786 302.5Z" fill="#4F46E5" stroke="#4F46E5"/>
<path d="M786 303H821C828.7 303 835 309.3 835 317V352C835 359.7 828.7 366 821 366H786C778.3 366 772 359.7 772 352V317C772 309.3 778.3 303 786 303Z" stroke="#4F46E5" stroke-width="2"/>
<path d="M765.7 361.4C762.9 364.9 758.6 367 754 367H719C710.7 367 704 360.3 704 352V317C704 308.7 710.7 302 719 302H754C758.7 302 763.1 304.2 766 308" stroke="#4F46E5" stroke-width="2" stroke-linecap="round"/>
<path d="M570 334H527C513.2 334 502 322.8 502 309V190C502 176.2 513.2 165 527 165H541" stroke="#4F46E5" stroke-width="2"/>
<path d="M536 165H654C667.8 165 679 176.2 679 190V198" stroke="#4F46E5" stroke-width="2"/>
<path d="M683.5 201C683.5 203.485 681.485 205.5 679 205.5C676.515 205.5 674.5 203.485 674.5 201C674.5 198.515 676.515 196.5 679 196.5C681.485 196.5 683.5 198.515 683.5 201Z" stroke="#4F46E5"/>
<path d="M679 205C681.209 205 683 203.209 683 201C683 198.791 681.209 197 679 197C676.791 197 675 198.791 675 201C675 203.209 676.791 205 679 205Z" stroke="#4F46E5" stroke-width="2"/>
<path d="M659 165H299C290.7 165 284 158.3 284 150V70C284 61.7 290.7 55 299 55H609" stroke="#4F46E5" stroke-width="2"/>
<path d="M662 34H692C700.3 34 707 40.7 707 49V99C707 107.3 700.3 114 692 114H642C633.7 114 627 107.3 627 99V79" stroke="#4F46E5" stroke-width="2"/>
<path d="M662.5 34C662.5 36.4853 660.485 38.5 658 38.5C655.515 38.5 653.5 36.4853 653.5 34C653.5 31.5147 655.515 29.5 658 29.5C660.485 29.5 662.5 31.5147 662.5 34Z" stroke="#4F46E5"/>
<path d="M658 38C660.209 38 662 36.2091 662 34C662 31.7909 660.209 30 658 30C655.791 30 654 31.7909 654 34C654 36.2091 655.791 38 658 38Z" stroke="#4F46E5" stroke-width="2"/>
<path d="M603 55H612C620.3 55 627 61.7 627 70V79" stroke="#4F46E5" stroke-width="2"/>
<path d="M325 82.5H353C361.024 82.5 367.5 88.9761 367.5 97V125C367.5 133.024 361.024 139.5 353 139.5H325C316.976 139.5 310.5 133.024 310.5 125V97C310.5 88.9761 316.976 82.5 325 82.5Z" fill="#4F46E5" stroke="#4F46E5"/>
<path d="M325 83H353C360.7 83 367 89.3 367 97V125C367 132.7 360.7 139 353 139H325C317.3 139 311 132.7 311 125V97C311 89.3 317.3 83 325 83Z" fill="#4F46E5" stroke="#4F46E5" stroke-width="2"/>
<path d="M664.5 78V77.5H664H657C655.076 77.5 653.5 75.9239 653.5 74C653.5 72.0761 655.076 70.5 657 70.5H664H664.5V70V63C664.5 61.0761 666.076 59.5 668 59.5C669.924 59.5 671.5 61.0761 671.5 63V70V70.5H672H679C680.924 70.5 682.5 72.0761 682.5 74C682.5 75.9239 680.924 77.5 679 77.5H672H671.5V78V85C671.5 86.9239 669.924 88.5 668 88.5C666.076 88.5 664.5 86.9239 664.5 85V78Z" stroke="#4F46E5"/>
<path d="M664.5 78V77.5H664H657C655.076 77.5 653.5 75.9239 653.5 74C653.5 72.0761 655.076 70.5 657 70.5H664H664.5V70V63C664.5 61.0761 666.076 59.5 668 59.5C669.924 59.5 671.5 61.0761 671.5 63V70V70.5H672H679C680.924 70.5 682.5 72.0761 682.5 74C682.5 75.9239 680.924 77.5 679 77.5H672H671.5V78V85C671.5 86.9239 669.924 88.5 668 88.5C666.076 88.5 664.5 86.9239 664.5 85V78ZM668 87.5C669.376 87.5 670.5 86.3761 670.5 85V76.5H679C680.376 76.5 681.5 75.3761 681.5 74C681.5 72.6239 680.376 71.5 679 71.5H670.5V63C670.5 61.6239 669.376 60.5 668 60.5C666.624 60.5 665.5 61.6239 665.5 63V71.5H657C655.624 71.5 654.5 72.6239 654.5 74C654.5 75.3761 655.624 76.5 657 76.5H665.5V85C665.5 86.3761 666.624 87.5 668 87.5Z" fill="#DBDEE5" stroke="#4F46E5"/>
<path d="M329.812 257.246C329.156 257.246 328.664 256.817 328.664 256.245L328.664 171.305C328.664 168.441 325.711 166.005 322.266 166.005L174.148 166.005C173.492 166.005 173 165.577 173 165.003C173 164.43 173.492 164 174.148 164L322.103 164C327.024 164 330.96 167.294 330.96 171.305L330.96 256.101C330.96 256.817 330.468 257.246 329.812 257.246Z" fill="#4F46E5"/>
<path d="M331.784 271.876L327.026 271.876C323.746 271.876 321.121 269.311 321.121 266.103L321.121 261.454C321.121 258.248 323.746 255.683 327.026 255.683L332.275 255.683C335.227 255.683 337.689 258.087 337.689 260.974L337.689 266.103C337.852 269.15 335.227 271.876 331.784 271.876Z" fill="white"/>
<path d="M327.19 256.646C324.566 256.646 322.432 258.732 322.432 261.297L322.432 265.946C322.432 268.511 324.566 270.594 327.19 270.594L331.947 270.594C334.571 270.594 336.703 268.511 336.703 265.946L336.703 260.815C336.703 258.571 334.735 256.646 332.438 256.646L327.19 256.646ZM331.782 273L327.026 273C323.09 273 319.808 269.793 319.808 265.946L319.808 261.297C319.808 257.448 323.09 254.242 327.026 254.242L332.275 254.242C335.883 254.242 339 257.128 339 260.815L339 265.946C339 269.793 335.883 273 331.782 273Z" fill="#FC9D4F"/>
<path d="M172.976 171.634L168.218 171.634C164.938 171.634 162.313 169.068 162.313 165.861L162.313 161.212C162.313 158.006 164.938 155.441 168.218 155.441L173.467 155.441C176.42 155.441 178.881 157.845 178.881 160.732L178.881 165.861C179.044 168.908 176.42 171.634 172.976 171.634Z" fill="white"/>
<path d="M168.382 156.404C165.758 156.404 163.625 158.489 163.625 161.054L163.625 165.703C163.625 168.268 165.758 170.352 168.382 170.352L173.139 170.352C175.763 170.352 177.895 168.268 177.895 165.703L177.895 160.573C177.895 158.328 175.927 156.404 173.63 156.404L168.382 156.404ZM172.974 172.758L168.218 172.758C164.282 172.758 161 169.55 161 165.703L161 161.054C161 157.206 164.282 154 168.218 154L173.467 154C177.075 154 180.192 156.886 180.192 160.573L180.192 165.703C180.192 169.55 177.075 172.758 172.974 172.758Z" fill="#FC9D4F"/>
<path d="M680.976 210.634L676.218 210.634C672.938 210.634 670.313 208.068 670.313 204.861L670.313 200.212C670.313 197.006 672.938 194.441 676.218 194.441L681.467 194.441C684.42 194.441 686.881 196.845 686.881 199.732L686.881 204.861C687.044 207.908 684.42 210.634 680.976 210.634Z" fill="white"/>
<path d="M676.382 195.404C673.758 195.404 671.625 197.489 671.625 200.054L671.625 204.703C671.625 207.268 673.758 209.352 676.382 209.352L681.139 209.352C683.763 209.352 685.895 207.268 685.895 204.703L685.895 199.573C685.895 197.328 683.927 195.404 681.63 195.404L676.382 195.404ZM680.974 211.758L676.218 211.758C672.282 211.758 669 208.55 669 204.703L669 200.054C669 196.206 672.282 193 676.218 193L681.467 193C685.075 193 688.192 195.886 688.192 199.573L688.192 204.703C688.192 208.55 685.075 211.758 680.974 211.758Z" fill="#FC9D4F"/>
<path d="M659.976 41.6336L655.218 41.6336C651.938 41.6336 649.313 39.0684 649.313 35.861L649.313 31.2121C649.313 28.0061 651.938 25.4409 655.218 25.4409L660.467 25.4409C663.42 25.4409 665.881 27.8451 665.881 30.7321L665.881 35.861C666.044 38.9075 663.42 41.6336 659.976 41.6336Z" fill="white"/>
<path d="M655.382 26.4042C652.758 26.4042 650.625 28.4893 650.625 31.0545L650.625 35.7034C650.625 38.2685 652.758 40.3522 655.382 40.3522L660.139 40.3522C662.763 40.3522 664.895 38.2685 664.895 35.7034L664.895 30.5731C664.895 28.3284 662.927 26.4042 660.63 26.4042L655.382 26.4042ZM659.974 42.7578L655.218 42.7578C651.282 42.7578 648 39.5504 648 35.7034L648 31.0545C648 27.2061 651.282 24 655.218 24L660.467 24C664.075 24 667.192 26.8856 667.192 30.5731L667.192 35.7034C667.192 39.5504 664.075 42.7578 659.974 42.7578Z" fill="#FC9D4F"/>
<path d="M760.968 220.519H714.543C710.381 220.519 707 216.477 707 211.503V156.014C707 151.04 710.381 147 714.543 147H760.968C765.13 147 768.511 151.04 768.511 156.014V211.503C768.511 216.477 765.13 220.519 760.968 220.519Z" fill="#FFEDD5"/>
<path d="M477.801 93C502.544 93 522.602 73.5244 522.602 49.5C522.602 25.4756 502.544 6 477.801 6C453.058 6 433 25.4756 433 49.5C433 73.5244 453.058 93 477.801 93Z" fill="#4F46E5"/>
<path d="M477.801 91.7008C501.827 91.7008 521.304 72.8066 521.304 49.4993C521.304 26.1921 501.827 7.29785 477.801 7.29785C453.775 7.29785 434.299 26.1921 434.299 49.4993C434.299 72.8066 453.775 91.7008 477.801 91.7008Z" stroke="#4F46E5" stroke-width="2"/>
<path d="M466.73 74.1309C464.411 74.1309 461.671 72.8791 463.146 68.7063C464.411 65.1595 471.578 50.1375 473.264 46.382C467.362 43.8784 464.622 36.9933 467.151 31.1514C469.681 25.3096 476.637 22.5973 482.539 25.1009C488.441 27.6046 491.181 34.4896 488.651 40.3315C487.597 42.8352 485.49 44.9216 482.96 46.1734C484.646 49.7203 491.602 64.9508 492.867 68.4977C494.343 72.4618 491.602 73.9223 489.494 73.9223L466.73 74.1309Z" fill="#F7FAFB"/>
<path d="M639.238 183.844L639.237 183.844L639.246 183.854L656.246 200.854C658.051 202.658 658.051 205.442 656.246 207.247L639.246 224.247C637.442 226.051 634.658 226.051 632.854 224.247L615.854 207.247C614.049 205.442 614.049 202.658 615.854 200.854L632.854 183.854C634.663 182.044 637.54 182.057 639.238 183.844Z" stroke="#4F46E5"/>
<path d="M639.228 183.834L639.237 183.844L639.247 183.854L656.247 200.854C658.051 202.658 658.051 205.442 656.247 207.247L639.247 224.247C638.339 225.154 637.166 225.6 636.1 225.6C634.924 225.6 633.765 225.147 632.972 224.266L632.963 224.256L632.954 224.247L615.954 207.247C614.149 205.442 614.149 202.658 615.954 200.854L632.954 183.854L632.963 183.844L632.972 183.834C633.765 182.953 634.924 182.5 636.1 182.5C637.276 182.5 638.435 182.953 639.228 183.834ZM636.1 183.5C635.195 183.5 634.247 183.836 633.631 184.562L616.647 201.546C615.263 202.93 615.237 205.154 616.654 206.461L633.647 223.454C634.334 224.141 635.159 224.5 636.1 224.5C637.006 224.5 637.953 224.164 638.569 223.438L655.554 206.454C656.937 205.07 656.963 202.846 655.546 201.539L638.569 184.562C637.953 183.836 637.006 183.5 636.1 183.5Z" fill="#212225" stroke="#4F46E5"/>
<path d="M631.5 201.599L627.8 204.399L631.5 207.199" stroke="#4F46E5" stroke-width="1.5" stroke-linecap="round" stroke-linejoin="round"/>
<path d="M640.7 201.599L644.4 204.399L640.7 207.199" stroke="#4F46E5" stroke-width="1.5" stroke-linecap="round" stroke-linejoin="round"/>
<path d="M637 199.799L635.2 208.999" stroke="#4F46E5" stroke-width="1.5" stroke-linecap="round" stroke-linejoin="round"/>
<path d="M610.5 292C609.7 292 609 291.3 609 290.5C609 289.7 609.7 289 610.5 289H616.5C617.3 289 618 289.7 618 290.5C618 291.3 617.3 292 616.5 292H610.5ZM598.5 292C597.7 292 597 291.3 597 290.5C597 289.7 597.7 289 598.5 289H604.5C605.3 289 606 289.7 606 290.5C606 291.3 605.3 292 604.5 292H598.5ZM617 284.5C617 283.7 617.7 283 618.5 283C619.3 283 620 283.7 620 284.5C620 285.3 619.3 286 618.5 286C617.7 286 617 285.3 617 284.5ZM607.5 286C606.7 286 606 285.3 606 284.5C606 283.7 606.7 283 607.5 283H612.5C613.3 283 614 283.7 614 284.5C614 285.3 613.3 286 612.5 286H607.5ZM584.5 286C583.7 286 583 285.3 583 284.5C583 283.7 583.7 283 584.5 283H601.5C602.3 283 603 283.7 603 284.5C603 285.3 602.3 286 601.5 286H584.5ZM607.5 280C606.7 280 606 279.3 606 278.5C606 277.7 606.7 277 607.5 277H627.5C628.3 277 629 277.7 629 278.5C629 279.3 628.3 280 627.5 280H607.5ZM600 278.5C600 277.7 600.7 277 601.5 277C602.3 277 603 277.7 603 278.5C603 279.3 602.3 280 601.5 280C600.7 280 600 279.3 600 278.5ZM589.5 280C588.7 280 588 279.3 588 278.5C588 277.7 588.7 277 589.5 277H595.5C596.3 277 597 277.7 597 278.5C597 279.3 596.3 280 595.5 280H589.5ZM607.5 274C606.7 274 606 273.3 606 272.5C606 271.7 606.7 271 607.5 271H626.5C627.3 271 628 271.7 628 272.5C628 273.3 627.3 274 626.5 274H607.5ZM578.5 274C577.7 274 577 273.3 577 272.5C577 271.7 577.7 271 578.5 271H601.5C602.3 271 603 271.7 603 272.5C603 273.3 602.3 274 601.5 274H578.5ZM571 272.5C571 271.7 571.7 271 572.5 271C573.3 271 574 271.7 574 272.5C574 273.3 573.3 274 572.5 274C571.7 274 571 273.3 571 272.5ZM610.5 268C609.7 268 609 267.3 609 266.5C609 265.7 609.7 265 610.5 265H616.5C617.3 265 618 265.7 618 266.5C618 267.3 617.3 268 616.5 268H610.5ZM598.5 268C597.7 268 597 267.3 597 266.5C597 265.7 597.7 265 598.5 265H604.5C605.3 265 606 265.7 606 266.5C606 267.3 605.3 268 604.5 268H598.5ZM582.5 268C581.7 268 581 267.3 581 266.5C581 265.7 581.7 265 582.5 265H592.5C593.3 265 594 265.7 594 266.5C594 267.3 593.3 268 592.5 268H582.5Z" fill="#4F46E5"/>
<path d="M717.1 260V223H718.1C723.6 223 728.1 227.5 728.1 233V260H717.1ZM759.1 214C753.6 214 749.1 209.5 749.1 204V145.5H759.1V196C759 200.9 762.9 204.9 767.7 205H823.1C823.1 210.5 818.6 214 813.1 214H759.1Z" fill="#4F46E5"/>
<path d="M685.1 243H769.8C793.6 243 794 230.5 794 222V206.5" stroke="#4F46E5" stroke-width="2"/>
<path d="M698 248.3C694.5 258.8 683.2 264.4 672.7 260.9C662.2 257.5 656.5 246.1 660 235.7C663.5 225.3 674.8 219.6 685.3 223.1C691 225 695.5 229.4 697.7 235" stroke="#DBDEE5" stroke-width="2"/>
<path d="M679 249C682.866 249 686 245.866 686 242C686 238.134 682.866 235 679 235C675.134 235 672 238.134 672 242C672 245.866 675.134 249 679 249Z" fill="#4F46E5"/>
<path d="M679 247C681.761 247 684 244.761 684 242C684 239.239 681.761 237 679 237C676.239 237 674 239.239 674 242C674 244.761 676.239 247 679 247Z" fill="#F7FAFB"/>
<path d="M769 113H823C828 113 832 117 832 122V197C832 202 828 206 823 206H769C764 206 760 202 760 197V122C760 117 764 113 769 113Z" stroke="#4F46E5" stroke-width="2"/>
<path d="M780.5 189C779.7 189 779 188.3 779 187.5C779 186.7 779.7 186 780.5 186H803.5C804.3 186 805 186.7 805 187.5C805 188.3 804.3 189 803.5 189H780.5ZM773 187.5C773 186.7 773.7 186 774.5 186C775.3 186 776 186.7 776 187.5C776 188.3 775.3 189 774.5 189C773.7 189 773 188.3 773 187.5ZM802 182.5C802 181.7 802.7 181 803.5 181C804.3 181 805 181.7 805 182.5C805 183.3 804.3 184 803.5 184C802.7 184 802 183.3 802 182.5ZM791.5 184C790.7 184 790 183.3 790 182.5C790 181.7 790.7 181 791.5 181H797.5C798.3 181 799 181.7 799 182.5C799 183.3 798.3 184 797.5 184H791.5ZM774.5 184C773.7 184 773 183.3 773 182.5C773 181.7 773.7 181 774.5 181H785.5C786.3 181 787 181.7 787 182.5C787 183.3 786.3 184 785.5 184H774.5ZM809.5 179C808.7 179 808 178.3 808 177.5C808 176.7 808.7 176 809.5 176H814.5C815.3 176 816 176.7 816 177.5C816 178.3 815.3 179 814.5 179H809.5ZM786.5 179C785.7 179 785 178.3 785 177.5C785 176.7 785.7 176 786.5 176H803.5C804.3 176 805 176.7 805 177.5C805 178.3 804.3 179 803.5 179H786.5ZM774.5 179C773.7 179 773 178.3 773 177.5C773 176.7 773.7 176 774.5 176H780.5C781.3 176 782 176.7 782 177.5C782 178.3 781.3 179 780.5 179H774.5ZM812.5 174C811.7 174 811 173.3 811 172.5C811 171.7 811.7 171 812.5 171H818.5C819.3 171 820 171.7 820 172.5C820 173.3 819.3 174 818.5 174H812.5ZM800.5 174C799.7 174 799 173.3 799 172.5C799 171.7 799.7 171 800.5 171H806.5C807.3 171 808 171.7 808 172.5C808 173.3 807.3 174 806.5 174H800.5ZM774.5 174C773.7 174 773 173.3 773 172.5C773 171.7 773.7 171 774.5 171H794.5C795.3 171 796 171.7 796 172.5C796 173.3 795.3 174 794.5 174H774.5ZM780.5 168C779.7 168 779 167.3 779 166.5C779 165.7 779.7 165 780.5 165H803.5C804.3 165 805 165.7 805 166.5C805 167.3 804.3 168 803.5 168H780.5ZM773 166.5C773 165.7 773.7 165 774.5 165C775.3 165 776 165.7 776 166.5C776 167.3 775.3 168 774.5 168C773.7 168 773 167.3 773 166.5ZM802 161.5C802 160.7 802.7 160 803.5 160C804.3 160 805 160.7 805 161.5C805 162.3 804.3 163 803.5 163C802.7 163 802 162.3 802 161.5ZM791.5 163C790.7 163 790 162.3 790 161.5C790 160.7 790.7 160 791.5 160H797.5C798.3 160 799 160.7 799 161.5C799 162.3 798.3 163 797.5 163H791.5ZM774.5 163C773.7 163 773 162.3 773 161.5C773 160.7 773.7 160 774.5 160H785.5C786.3 160 787 160.7 787 161.5C787 162.3 786.3 163 785.5 163H774.5ZM809.5 158C808.7 158 808 157.3 808 156.5C808 155.7 808.7 155 809.5 155H814.5C815.3 155 816 155.7 816 156.5C816 157.3 815.3 158 814.5 158H809.5ZM786.5 158C785.7 158 785 157.3 785 156.5C785 155.7 785.7 155 786.5 155H803.5C804.3 155 805 155.7 805 156.5C805 157.3 804.3 158 803.5 158H786.5ZM774.5 158C773.7 158 773 157.3 773 156.5C773 155.7 773.7 155 774.5 155H780.5C781.3 155 782 155.7 782 156.5C782 157.3 781.3 158 780.5 158H774.5ZM812.5 153C811.7 153 811 152.3 811 151.5C811 150.7 811.7 150 812.5 150H818.5C819.3 150 820 150.7 820 151.5C820 152.3 819.3 153 818.5 153H812.5ZM800.5 153C799.7 153 799 152.3 799 151.5C799 150.7 799.7 150 800.5 150H806.5C807.3 150 808 150.7 808 151.5C808 152.3 807.3 153 806.5 153H800.5ZM774.5 153C773.7 153 773 152.3 773 151.5C773 150.7 773.7 150 774.5 150H794.5C795.3 150 796 150.7 796 151.5C796 152.3 795.3 153 794.5 153H774.5Z" fill="#DBDEE5"/>
<path d="M802 135.5C802 134.7 802.7 134 803.5 134C804.3 134 805 134.7 805 135.5C805 136.3 804.3 137 803.5 137C802.7 137 802 136.3 802 135.5ZM791.5 137C790.7 137 790 136.3 790 135.5C790 134.7 790.7 134 791.5 134H797.5C798.3 134 799 134.7 799 135.5C799 136.3 798.3 137 797.5 137H791.5ZM774.5 137C773.7 137 773 136.3 773 135.5C773 134.7 773.7 134 774.5 134H785.5C786.3 134 787 134.7 787 135.5C787 136.3 786.3 137 785.5 137H774.5ZM809.5 132C808.7 132 808 131.3 808 130.5C808 129.7 808.7 129 809.5 129H814.5C815.3 129 816 129.7 816 130.5C816 131.3 815.3 132 814.5 132H809.5ZM786.5 132C785.7 132 785 131.3 785 130.5C785 129.7 785.7 129 786.5 129H803.5C804.3 129 805 129.7 805 130.5C805 131.3 804.3 132 803.5 132H786.5ZM774.5 132C773.7 132 773 131.3 773 130.5C773 129.7 773.7 129 774.5 129H780.5C781.3 129 782 129.7 782 130.5C782 131.3 781.3 132 780.5 132H774.5ZM812.5 127C811.7 127 811 126.3 811 125.5C811 124.7 811.7 124 812.5 124H818.5C819.3 124 820 124.7 820 125.5C820 126.3 819.3 127 818.5 127H812.5ZM800.5 127C799.7 127 799 126.3 799 125.5C799 124.7 799.7 124 800.5 124H806.5C807.3 124 808 124.7 808 125.5C808 126.3 807.3 127 806.5 127H800.5ZM774.5 127C773.7 127 773 126.3 773 125.5C773 124.7 773.7 124 774.5 124H794.5C795.3 124 796 124.7 796 125.5C796 126.3 795.3 127 794.5 127H774.5Z" fill="#DBDEE5"/>
<path d="M658 263L700 221" stroke="#DBDEE5" stroke-width="2"/>
<path d="M665 256L694 227" stroke="#4F46E5" stroke-width="2" stroke-linecap="round"/>
</svg>
