<svg width="886" height="399" viewBox="0 0 886 399" fill="none" xmlns="http://www.w3.org/2000/svg">
<path d="M795.781 14H331.219C326.209 14 322 17.8889 322 22.5185V315.112C322 319.741 326.209 323.63 331.219 323.63H548.067V386.222H456.678C454.072 386.222 452.069 388.074 452.069 390.482V399H687.155V390.482C687.155 388.074 685.151 386.222 682.546 386.222H579.332V323.63H795.781C800.791 323.63 805 319.741 805 315.112V22.5185C805 17.8889 800.791 14 795.781 14Z" fill="#CBD5E1" fill-opacity="0.19"/>
<path d="M280 203.195L357.5 248.417L435 203.195V112.75L357.5 67.5278L280 112.75V203.195Z" stroke="#4F46E5" stroke-width="2" stroke-miterlimit="10"/>
<path d="M404 203.195L481.5 248.417L559 203.195V112.75L481.5 67.5278L404 112.75V203.195Z" stroke="#4F46E5" stroke-width="2" stroke-miterlimit="10"/>
<path d="M531 203.195L608 248.417L685 203.195V112.75L608 67.5278L531 112.75V203.195Z" stroke="#4F46E5" stroke-width="2" stroke-miterlimit="10"/>
<path d="M35.0156 300V276.03H45.9636C48.6382 276.03 50.7009 276.71 52.1516 278.07C53.6022 279.407 54.3276 281.277 54.3276 283.68C54.3276 286.083 53.6022 287.964 52.1516 289.324C50.7009 290.684 48.6382 291.364 45.9636 291.364H40.2856V300H35.0156ZM40.2856 287.284H45.0796C47.8676 287.284 49.2616 286.083 49.2616 283.68C49.2616 281.323 47.8676 280.144 45.0796 280.144H40.2856V287.284ZM62.032 300.374C60.7853 300.374 59.686 300.136 58.734 299.66C57.782 299.184 57.0227 298.538 56.456 297.722C55.912 296.906 55.64 295.988 55.64 294.968C55.64 293.767 55.9573 292.803 56.592 292.078C57.2267 291.353 58.258 290.843 59.686 290.548C61.114 290.231 63.0067 290.072 65.364 290.072H66.588V289.494C66.588 288.497 66.3613 287.794 65.908 287.386C65.4547 286.955 64.684 286.74 63.596 286.74C62.6893 286.74 61.726 286.887 60.706 287.182C59.7087 287.454 58.7113 287.873 57.714 288.44L56.32 285.006C56.9093 284.621 57.6233 284.269 58.462 283.952C59.3233 283.635 60.2187 283.397 61.148 283.238C62.0773 283.057 62.9613 282.966 63.8 282.966C66.384 282.966 68.3107 283.555 69.58 284.734C70.8493 285.89 71.484 287.692 71.484 290.14V300H66.69V297.484C66.35 298.368 65.772 299.071 64.956 299.592C64.1627 300.113 63.188 300.374 62.032 300.374ZM63.188 296.94C64.14 296.94 64.9447 296.611 65.602 295.954C66.2593 295.297 66.588 294.447 66.588 293.404V292.724H65.398C63.6527 292.724 62.4173 292.883 61.692 293.2C60.9667 293.495 60.604 294.016 60.604 294.764C60.604 295.399 60.8193 295.92 61.25 296.328C61.7033 296.736 62.3493 296.94 63.188 296.94ZM76.4398 306.12L79.6358 299.082L72.7678 283.306H78.1738L82.3558 293.914L86.6738 283.306H91.7738L81.6758 306.12H76.4398ZM93.3447 300V283.306H98.3767V285.72C98.8754 284.859 99.5554 284.19 100.417 283.714C101.301 283.215 102.321 282.966 103.477 282.966C104.655 282.966 105.653 283.227 106.469 283.748C107.307 284.269 107.942 285.063 108.373 286.128C108.894 285.131 109.642 284.36 110.617 283.816C111.614 283.249 112.713 282.966 113.915 282.966C115.819 282.966 117.235 283.544 118.165 284.7C119.094 285.833 119.559 287.59 119.559 289.97V300H114.425V290.14C114.425 289.029 114.243 288.225 113.881 287.726C113.541 287.205 112.951 286.944 112.113 286.944C111.138 286.944 110.379 287.284 109.835 287.964C109.291 288.644 109.019 289.607 109.019 290.854V300H103.885V290.14C103.885 289.029 103.703 288.225 103.341 287.726C102.978 287.205 102.389 286.944 101.573 286.944C100.598 286.944 99.8387 287.284 99.2947 287.964C98.7507 288.644 98.4787 289.607 98.4787 290.854V300H93.3447ZM132.162 300.374C130.19 300.374 128.49 300.023 127.062 299.32C125.656 298.595 124.568 297.586 123.798 296.294C123.05 294.979 122.676 293.438 122.676 291.67C122.676 289.947 123.038 288.44 123.764 287.148C124.512 285.833 125.52 284.813 126.79 284.088C128.082 283.34 129.566 282.966 131.244 282.966C133.669 282.966 135.596 283.737 137.024 285.278C138.452 286.797 139.166 288.859 139.166 291.466V292.758H127.572C127.753 294.073 128.229 295.036 129 295.648C129.793 296.237 130.881 296.532 132.264 296.532C133.17 296.532 134.088 296.396 135.018 296.124C135.947 295.852 136.786 295.433 137.534 294.866L138.894 298.3C138.055 298.935 137.024 299.445 135.8 299.83C134.598 300.193 133.386 300.374 132.162 300.374ZM131.448 286.366C130.36 286.366 129.476 286.695 128.796 287.352C128.138 288.009 127.73 288.927 127.572 290.106H134.916C134.78 287.613 133.624 286.366 131.448 286.366ZM142.152 300V283.306H147.184V285.754C147.75 284.847 148.51 284.156 149.462 283.68C150.414 283.204 151.479 282.966 152.658 282.966C154.63 282.966 156.103 283.544 157.078 284.7C158.052 285.833 158.54 287.59 158.54 289.97V300H153.406V290.208C153.406 289.052 153.19 288.225 152.76 287.726C152.329 287.205 151.694 286.944 150.856 286.944C149.768 286.944 148.895 287.284 148.238 287.964C147.603 288.644 147.286 289.551 147.286 290.684V300H142.152ZM170.566 300.374C165.874 300.374 163.528 298.096 163.528 293.54V287.148H160.366V283.306H163.528V278.41H168.662V283.306H173.592V287.148H168.662V293.336C168.662 294.288 168.878 295.002 169.308 295.478C169.762 295.954 170.476 296.192 171.45 296.192C171.745 296.192 172.051 296.158 172.368 296.09C172.708 296.022 173.071 295.931 173.456 295.818L174.204 299.558C173.728 299.807 173.162 300 172.504 300.136C171.847 300.295 171.201 300.374 170.566 300.374Z" fill="#4F46E5"/>
<g clip-path="url(#clip0_9320_47683)">
<path d="M134.094 163.264L134.07 173.795V176.215V179.559L134.023 195.878C134.023 195.926 133.999 195.949 133.952 195.973L105.749 212.363C105.678 212.411 105.559 212.363 105.559 212.269L105.654 179.654C105.654 179.607 105.678 179.583 105.725 179.559L133.928 163.169C133.975 163.122 134.094 163.169 134.094 163.264Z" fill="#4F46E5" fill-opacity="0.3"/>
<path d="M136.442 189.735C136.466 185.442 136.466 181.172 136.49 176.879C136.49 173.772 131.651 173.748 131.651 176.879C131.651 180.318 131.627 183.758 131.627 187.173C131.627 189.355 131.603 191.514 131.603 193.696C131.603 193.91 131.58 194.147 131.556 194.408C130.939 194.787 130.251 195.333 129.872 195.546C128.235 196.495 126.622 197.444 124.986 198.393C120.74 200.859 116.494 203.326 112.224 205.793C110.825 206.6 109.449 207.406 108.05 208.212C108.24 199.199 108.026 190.162 108.05 181.148C108.05 181.101 108.05 181.077 108.05 181.006C108.216 180.911 108.382 180.816 108.548 180.698C116.328 176.381 123.966 171.779 131.651 167.272C131.651 168.221 131.651 169.194 131.651 170.143C131.651 173.25 136.49 173.274 136.49 170.143C136.49 168.791 136.49 167.439 136.49 166.11C136.49 164.829 136.774 163.074 136.11 161.936C135.992 161.722 135.825 161.532 135.636 161.366C134.972 160.631 133.975 160.204 133.074 159.682C130.844 158.401 128.615 157.097 126.385 155.816C121.024 152.709 115.664 149.625 110.279 146.518C109.117 145.854 107.955 145.023 106.745 144.478C105.061 143.719 103.899 144.62 102.499 145.427C97.542 148.297 92.5846 151.191 87.651 154.061C83.8558 156.267 79.6338 158.235 76.0521 160.797C75.2693 161.366 74.8898 162.007 74.8187 162.671C74.6289 163.359 74.5815 164.118 74.5815 164.782C74.5578 170.451 74.5578 176.096 74.534 181.765C74.5103 186.39 74.2731 191.063 74.4866 195.689C74.5815 197.42 75.6489 198.013 76.9297 198.772C78.9222 199.911 80.9146 201.073 82.9071 202.211C88.41 205.39 93.9367 208.568 99.4396 211.747C100.934 212.601 102.381 213.526 103.899 214.332C104.231 214.498 104.539 214.617 104.848 214.664C105.085 214.735 105.346 214.783 105.607 214.783C106.65 214.783 107.552 214.095 108.429 213.597C109.9 212.743 111.371 211.889 112.865 211.035C117.229 208.497 121.617 205.959 125.982 203.421C128.923 201.713 131.959 200.1 134.853 198.274C137.344 196.685 136.418 192.273 136.442 189.735ZM103.164 196.827C103.164 200.219 103.14 203.611 103.14 207.027C103.14 207.453 103.14 207.88 103.14 208.284C101.053 207.074 98.9652 205.864 96.8779 204.655C91.8493 201.737 86.7971 198.843 81.7685 195.926C81.0332 195.499 80.2979 195.072 79.5389 194.645C79.5152 194.621 79.444 194.597 79.3966 194.55C79.3966 194.123 79.3491 193.696 79.3491 193.293C79.3728 187.648 79.3728 182.002 79.3966 176.357C79.3966 173.345 79.4203 170.332 79.4203 167.32C79.4203 167.296 79.4203 167.249 79.4203 167.225C79.5152 167.272 79.61 167.32 79.7049 167.391C80.5351 167.865 81.389 168.364 82.2192 168.838C85.7297 170.854 89.2402 172.894 92.7507 174.91C94.7431 176.049 96.7119 177.211 98.7043 178.35C100.199 179.227 101.693 180.128 103.211 180.959C103.211 181.22 103.211 181.481 103.211 181.765C103.211 186.794 103.187 191.822 103.164 196.827ZM107.552 175.669C106.935 176.025 106.271 176.357 105.63 176.713C105.18 176.476 104.729 176.262 104.373 176.049C99.5345 173.25 94.672 170.451 89.8332 167.652C87.7459 166.442 85.6822 165.256 83.5949 164.047C83.0019 163.715 82.4327 163.382 81.8397 163.05C88.9318 158.947 96.0003 154.82 103.092 150.716C103.828 150.289 104.563 149.862 105.298 149.435C105.322 149.412 105.37 149.388 105.441 149.364C105.82 149.578 106.2 149.744 106.532 149.957C111.442 152.804 116.352 155.626 121.262 158.473C123.918 160.014 126.599 161.556 129.255 163.074C127.286 164.213 125.318 165.351 123.349 166.513C120.028 168.435 116.731 170.356 113.41 172.277C111.608 173.321 109.805 174.365 108.002 175.408C107.86 175.503 107.694 175.574 107.552 175.669Z" fill="#4F46E5"/>
<path d="M103.069 120.474C103.069 123.13 103.069 125.787 103.069 128.444C103.069 131.551 107.908 131.575 107.908 128.444C107.908 125.787 107.908 123.13 107.908 120.474C112.011 119.43 114.952 115.777 115.332 111.46C115.355 111.294 115.379 111.105 115.379 110.915C115.379 110.725 115.379 110.535 115.332 110.369C114.905 105.222 110.825 101 105.488 101C100.104 101 95.597 105.507 95.597 110.891C95.6208 115.422 98.8229 119.359 103.069 120.474ZM110.54 110.891C110.303 117.39 100.46 117.414 100.46 110.891C100.46 104.344 110.303 104.392 110.54 110.891Z" fill="#4F46E5"/>
<path d="M105.488 132.808C104.184 132.855 103.069 133.875 103.069 135.227C103.069 136.342 103.069 137.433 103.069 138.548C103.069 139.805 104.184 141.039 105.488 140.967C106.793 140.92 107.908 139.9 107.908 138.548C107.908 137.433 107.908 136.342 107.908 135.227C107.908 133.946 106.816 132.737 105.488 132.808Z" fill="#4F46E5"/>
<path d="M115.355 247.563C114.976 243.246 112.035 239.594 107.931 238.526C107.931 232.501 107.931 226.477 107.931 220.476C107.931 217.368 103.092 217.345 103.092 220.476C103.092 226.5 103.092 232.525 103.092 238.55C98.8466 239.665 95.6207 243.578 95.6207 248.133C95.6207 253.493 100.127 258.047 105.512 258.024C110.849 258 114.905 253.825 115.355 248.702C115.379 248.536 115.403 248.346 115.403 248.156C115.403 247.919 115.379 247.729 115.355 247.563ZM100.46 248.109C100.46 241.586 110.303 241.633 110.54 248.109C110.303 254.584 100.46 254.632 100.46 248.109Z" fill="#4F46E5"/>
<path d="M46.7821 179.488C46.7584 174.151 42.5838 170.095 37.4603 169.645C37.2943 169.621 37.1045 169.597 36.9148 169.597C36.725 169.597 36.5353 169.597 36.3692 169.645C31.2221 170.095 27 174.175 27 179.488C27 184.873 31.5067 189.379 36.8911 189.379C42.2517 189.379 46.8059 184.873 46.7821 179.488ZM36.8911 184.541C30.3682 184.541 30.4156 174.697 36.8911 174.46C43.3665 174.697 43.414 184.541 36.8911 184.541Z" fill="#4F46E5"/>
<path d="M51.194 177.069C48.0867 177.069 48.063 181.908 51.194 181.908C55.6533 181.908 60.0888 181.908 64.5481 181.908C67.6554 181.908 67.6791 177.069 64.5481 177.069C60.0888 177.069 55.6295 177.069 51.194 177.069Z" fill="#4F46E5"/>
<path d="M174.654 169.645C174.488 169.621 174.299 169.597 174.109 169.597C173.919 169.597 173.729 169.597 173.563 169.645C169.246 170.024 165.594 172.965 164.526 177.069C158.501 177.069 152.477 177.069 146.476 177.069C143.368 177.069 143.345 181.908 146.476 181.908C152.5 181.908 158.525 181.908 164.55 181.908C165.665 186.153 169.578 189.379 174.133 189.379C179.493 189.379 184.047 184.873 184.024 179.488C183.976 174.175 179.802 170.095 174.654 169.645ZM174.109 184.541C167.586 184.541 167.633 174.697 174.109 174.46C180.584 174.697 180.632 184.541 174.109 184.541Z" fill="#4F46E5"/>
<path d="M68.4855 213.099C67.2047 214.38 65.9475 215.637 64.6667 216.918C59.4246 213.217 52.3562 214.024 47.6834 218.222C47.5886 218.293 47.4937 218.388 47.3988 218.483C47.2802 218.602 47.1853 218.72 47.0905 218.815C43.4139 222.942 42.3703 228.73 44.7422 233.806C47.0667 238.811 52.546 241.989 58.0489 241.491C63.7179 240.969 68.6278 236.961 70.051 231.387C71.0235 227.52 70.2171 223.535 68.0349 220.357C69.3157 219.076 70.5966 217.795 71.8774 216.514C74.1071 214.308 70.6914 210.869 68.4855 213.099ZM63.1249 234.138C59.7567 237.482 54.2063 237.482 50.8619 234.138C47.4462 230.722 47.6123 225.314 50.8619 221.875C54.3012 218.602 59.7093 218.459 63.1249 221.875C66.4694 225.219 66.4694 230.817 63.1249 234.138Z" fill="#4F46E5"/>
<path d="M74.8187 206.742C74.0596 207.501 73.3006 208.26 72.5416 209.019C71.6402 209.92 71.5691 211.557 72.5416 212.435C73.5141 213.312 75.0084 213.383 75.9572 212.435C76.7162 211.676 77.4752 210.916 78.2343 210.157C79.1356 209.256 79.2068 207.619 78.2343 206.742C77.2855 205.864 75.7674 205.793 74.8187 206.742Z" fill="#4F46E5"/>
<path d="M136.181 152.234C139.573 148.842 142.965 145.451 146.333 142.082C148.871 143.838 151.979 144.739 155.11 144.454C160.779 143.933 165.689 139.924 167.112 134.35C168.487 128.894 166.305 123.154 161.751 119.905C156.509 116.157 149.393 116.963 144.72 121.162C144.626 121.233 144.531 121.328 144.436 121.423C144.317 121.541 144.222 121.66 144.127 121.755C140.451 125.882 139.407 131.669 141.779 136.745C142.088 137.41 142.467 138.05 142.87 138.643C139.478 142.035 136.11 145.403 132.718 148.795C130.536 151.025 133.975 154.44 136.181 152.234ZM160.138 124.838C163.483 128.183 163.483 133.781 160.138 137.101C156.77 140.446 151.22 140.446 147.875 137.101C144.459 133.686 144.626 128.278 147.875 124.838C151.314 121.589 156.723 121.446 160.138 124.838Z" fill="#4F46E5"/>
<path d="M163.577 218.459C163.459 218.341 163.34 218.246 163.245 218.151C159.118 214.475 153.331 213.431 148.255 215.803C147.59 216.111 146.95 216.491 146.357 216.894C142.965 213.502 139.597 210.134 136.205 206.742C133.999 204.536 130.583 207.952 132.789 210.158C136.181 213.549 139.573 216.941 142.941 220.31C141.186 222.848 140.285 225.955 140.569 229.086C141.091 234.755 145.1 239.665 150.674 241.088C156.13 242.464 161.87 240.281 165.119 235.727C168.867 230.485 168.06 223.369 163.862 218.697C163.743 218.625 163.672 218.531 163.577 218.459ZM160.138 234.138C156.794 237.483 151.196 237.483 147.875 234.138C144.531 230.77 144.531 225.22 147.875 221.875C151.291 218.459 156.699 218.625 160.138 221.875C163.411 225.314 163.554 230.722 160.138 234.138Z" fill="#4F46E5"/>
<path d="M53.6134 144.075C57.4797 145.047 61.4646 144.241 64.6431 142.059C68.035 145.45 71.4269 148.842 74.8188 152.234C77.0247 154.44 80.4403 151.025 78.2344 148.819C74.8425 145.427 71.4743 142.059 68.0824 138.667C71.7827 133.425 70.9762 126.356 66.7778 121.683C66.7067 121.589 66.6118 121.494 66.5169 121.399C66.3983 121.28 66.2797 121.185 66.1848 121.09C62.0576 117.414 56.27 116.37 51.194 118.742C46.2129 121.09 43.0108 126.57 43.5089 132.073C44.0545 137.742 48.0393 142.675 53.6134 144.075ZM50.8383 124.838C54.2539 121.423 59.6619 121.589 63.1013 124.838C66.3746 128.277 66.5169 133.686 63.1013 137.101C59.7568 140.446 54.159 140.446 50.8383 137.101C47.4938 133.757 47.4938 128.206 50.8383 124.838Z" fill="#4F46E5"/>
</g>
<path d="M703.206 144.603C703.206 146.498 701.689 148.205 699.603 148.205C697.707 148.205 696 146.687 696 144.603C696 142.705 697.517 141 699.603 141C701.689 141 703.206 142.517 703.206 144.603Z" fill="#4F46E5"/>
<path d="M713.447 144.603C713.447 146.498 711.93 148.205 709.846 148.205C707.948 148.205 706.243 146.687 706.243 144.603C706.243 142.705 707.759 141 709.846 141C711.93 141 713.447 142.517 713.447 144.603Z" fill="#4F46E5"/>
<path d="M723.687 144.603C723.687 146.498 722.17 148.205 720.083 148.205C718.186 148.205 716.48 146.687 716.48 144.603C716.48 142.705 717.997 141 720.083 141C722.17 141 723.687 142.517 723.687 144.603Z" fill="#4F46E5"/>
<path d="M333.277 189.581C332.709 189.581 332.14 189.014 332.14 188.444V173.275C332.14 172.705 332.709 172.137 333.277 172.137H348.448C349.017 172.137 349.586 172.705 349.586 173.275V188.444C349.586 189.014 349.017 189.581 348.448 189.581H333.277Z" fill="white"/>
<path d="M348.446 171H333.275C332.138 171 331 171.949 331 173.275V188.444C331 189.581 331.948 190.72 333.275 190.72H348.446C349.584 190.72 350.721 189.772 350.721 188.444V173.275C350.721 172.137 349.773 171 348.446 171ZM348.446 188.444H333.275V173.275H348.446V188.444Z" fill="#FC9D4F"/>
<path d="M569.062 309H458.878L349.827 308.863C347.182 308.863 344.725 308.177 342.835 306.805C340.944 305.432 340 303.649 340 301.727L340.566 190.171H342.835L342.267 301.727C342.267 303.237 343.023 304.609 344.535 305.707C346.048 306.805 347.938 307.354 350.017 307.354L459.066 307.49H569.25C572.274 307.49 574.731 305.707 574.731 303.511V134H577V303.375C576.81 306.531 573.409 309 569.062 309Z" fill="#4F46E5"/>
<path d="M866 133H608" stroke="#4F46E5" stroke-width="1.51"/>
<path d="M868.276 141.581C867.708 141.581 867.139 141.013 867.139 140.444V125.275C867.139 124.705 867.708 124.137 868.276 124.137H883.447C884.017 124.137 884.586 124.705 884.586 125.275V140.444C884.586 141.013 884.017 141.581 883.447 141.581H868.276Z" fill="white"/>
<path d="M883.446 123H868.275C867.138 123 866 123.949 866 125.275V140.444C866 141.581 866.949 142.72 868.275 142.72H883.446C884.583 142.72 885.722 141.772 885.722 140.444V125.275C885.722 124.137 884.774 123 883.446 123ZM883.446 140.444H868.275V125.275H883.446V140.444Z" fill="#FC9D4F"/>
<path d="M835 270H577" stroke="#4F46E5" stroke-width="1.51"/>
<path d="M837.276 278.581C836.708 278.581 836.139 278.013 836.139 277.444V262.275C836.139 261.705 836.708 261.137 837.276 261.137H852.447C853.017 261.137 853.586 261.705 853.586 262.275V277.444C853.586 278.013 853.017 278.581 852.447 278.581H837.276Z" fill="white"/>
<path d="M852.446 260H837.275C836.138 260 835 260.949 835 262.275V277.444C835 278.581 835.949 279.72 837.275 279.72H852.446C853.583 279.72 854.722 278.772 854.722 277.444V262.275C854.722 261.137 853.774 260 852.446 260ZM852.446 277.444H837.275V262.275H852.446V277.444Z" fill="#FC9D4F"/>
<path d="M582.793 307.963C582.793 311.755 579.758 314.79 575.966 314.79C572.173 314.79 569.139 311.755 569.139 307.963C569.139 304.172 572.173 301.137 575.966 301.137C579.758 301.137 582.793 304.172 582.793 307.963Z" fill="white"/>
<path d="M575.964 302.086C572.741 302.086 570.085 304.74 570.085 307.964C570.085 311.187 572.741 313.841 575.964 313.841C579.188 313.841 581.843 311.187 581.843 307.964C581.652 304.74 579.188 302.086 575.964 302.086ZM575.964 315.927C571.603 315.927 568 312.325 568 307.964C568 303.603 571.603 300 575.964 300C580.326 300 583.929 303.603 583.929 307.964C583.929 312.325 580.326 315.927 575.964 315.927Z" fill="#FC9D4F"/>
<path d="M575.694 104C576.091 104 576.389 103.71 576.389 103.324L576.389 4.92626C576.389 2.9947 578.174 1.35235 580.256 1.35235L706.306 1.35234C706.702 1.35234 707 1.06313 707 0.676155C707 0.290009 706.702 -7.61639e-06 706.306 -7.59905e-06C688.361 -6.81465e-06 598.3 -2.87796e-06 580.355 -2.09357e-06C577.381 -1.96355e-06 575 2.22159 575 4.92626L575 103.228C575 103.71 575.298 104 575.694 104Z" fill="#4F46E5"/>
<path d="M684.965 190.948C681.172 190.948 678.138 193.982 678.138 197.775C678.138 201.566 681.172 204.601 684.965 204.601C688.757 204.601 691.791 201.566 691.791 197.775C691.791 193.982 688.757 190.948 684.965 190.948Z" fill="white"/>
<path d="M684.964 192.086C681.741 192.086 679.086 194.74 679.086 197.964C679.086 201.187 681.741 203.841 684.964 203.841C688.188 203.841 690.843 201.187 690.843 197.964C690.843 194.74 688.188 192.086 684.964 192.086ZM684.964 205.927C680.603 205.927 677 202.325 677 197.964C677 193.603 680.603 190 684.964 190C689.326 190 692.929 193.603 692.929 197.964C692.929 202.325 689.326 205.927 684.964 205.927Z" fill="#4F46E5"/>
<path d="M544 152.5L576 171L608 152.5V115.5L576 97L544 115.5V152.5Z" fill="#4F46E5"/>
<path d="M341 75.75L357 85L373 75.75V57.25L357 48L341 57.25V75.75Z" fill="#4F46E5"/>
<path d="M506.519 206.759C506.519 219.838 495.838 230.52 482.759 230.52C469.681 230.52 459 219.838 459 206.759C459 193.681 469.681 183 482.759 183C495.947 183 506.519 193.681 506.519 206.759Z" fill="#4F46E5"/>
<path d="M488.536 280L472.732 270.518V216.241H488.536V280Z" fill="#4F46E5"/>
<path d="M494.858 275.532L490.498 279.891V271.281L494.858 275.532Z" fill="#4F46E5"/>
<path d="M494.858 265.722L490.498 269.973V261.363L494.858 265.722Z" fill="#4F46E5"/>
<path d="M494.858 255.804L490.498 260.164V251.445L494.858 255.804Z" fill="#4F46E5"/>
<path d="M498.019 245.887L490.498 250.246V241.527L498.019 245.887Z" fill="#4F46E5"/>
<path d="M498.019 235.969L490.498 240.328V231.718L498.019 235.969Z" fill="#4F46E5"/>
<path d="M331.529 180H217" stroke="#4F46E5" stroke-width="1.51"/>
<path d="M208.964 174.086C205.741 174.086 203.086 176.74 203.086 179.964C203.086 183.187 205.741 185.841 208.964 185.841C212.188 185.841 214.843 183.187 214.843 179.964C214.653 176.74 212.188 174.086 208.964 174.086ZM208.964 187.927C204.603 187.927 201 184.325 201 179.964C201 175.603 204.603 172 208.964 172C213.326 172 216.929 175.603 216.929 179.964C216.929 184.325 213.326 187.927 208.964 187.927Z" fill="#FC9D4F"/>
<defs>
<clipPath id="clip0_9320_47683">
<rect width="157" height="157" fill="white" transform="translate(27 101)"/>
</clipPath>
</defs>
</svg>
