<svg width="838" height="428" viewBox="0 0 838 428" fill="none" xmlns="http://www.w3.org/2000/svg">
<path d="M349.968 335.519H303.543C299.381 335.519 296 331.477 296 326.503V271.014C296 266.04 299.381 262 303.543 262H349.968C354.13 262 357.511 266.04 357.511 271.014V326.503C357.511 331.477 354.13 335.519 349.968 335.519Z" fill="#FFEDD5"/>
<path d="M835.688 149H796.313C795.656 149 795 148.444 795 147.609V134.391C795 133.696 795.525 133 796.313 133H835.688C836.344 133 837 133.556 837 134.391V147.609C837 148.444 836.344 149 835.688 149Z" fill="#FC9D4F"/>
<path d="M835.684 173H808.316C807.658 173 807 172.444 807 171.609V158.392C807 157.696 807.526 157 808.316 157H835.684C836.342 157 837 157.556 837 158.392V171.609C837 172.444 836.342 173 835.684 173Z" fill="#FC9D4F"/>
<path d="M809.178 110.094C809.049 110.094 808.921 110.232 808.921 110.373V123.627C808.921 123.767 809.049 123.906 809.178 123.906H835.822C835.95 123.906 836.078 123.767 836.078 123.627V110.373C836.078 110.232 835.95 110.094 835.822 110.094H809.178ZM835.822 126H809.178C808.025 126 807 124.883 807 123.627V110.373C807 109.117 808.025 108 809.178 108H835.822C836.975 108 838 109.117 838 110.373V123.627C838 124.883 836.975 126 835.822 126Z" fill="#FC9D4F"/>
<path d="M754.912 427.87H735.552C735.01 427.87 734.605 427.464 734.605 426.922C734.605 426.381 735.01 425.975 735.552 425.975H754.912C776.572 425.975 786.997 407.835 786.997 407.563C786.997 407.428 791.871 399.982 795.39 381.57C796.744 374.124 797.151 363.835 796.338 351.109C795.661 339.738 792.548 338.113 789.569 338.113C787.403 338.113 782.393 338.79 781.852 344.475C781.852 349.214 781.988 352.192 781.988 352.192C781.988 352.599 781.717 353.005 781.311 353.14C780.904 353.276 780.499 353.14 780.228 352.869C780.092 352.734 780.092 352.733 780.092 352.328C779.957 351.651 779.957 349.891 779.957 345.423C779.957 345.152 779.957 344.882 779.957 344.611C779.957 342.58 779.957 340.279 779.957 337.706C779.957 333.916 777.114 329.989 772.512 329.989C766.284 329.989 764.795 334.864 764.795 336.758C764.524 348.13 764.524 350.568 764.524 350.568C764.524 351.109 764.118 351.515 763.576 351.515C763.034 351.515 762.629 351.109 762.629 350.568C762.629 350.568 762.222 339.872 761.816 330.532C761.681 327.823 759.785 323.763 754.912 323.763C750.986 323.763 748.82 326.064 748.413 330.666C747.602 338.79 747.33 345.423 747.33 348.673V350.703C747.33 351.244 746.924 351.651 746.382 351.651C745.841 351.651 745.435 351.244 745.435 350.703C745.435 350.703 745.435 349.891 745.435 348.673L746.111 303.726C746.111 303.726 746.111 298.31 743.133 295.196C741.779 293.843 739.885 293.03 737.719 293.03C735.417 293.03 733.657 293.707 732.303 295.196C729.459 298.31 729.866 303.861 729.866 303.861C729.866 303.861 729.866 303.861 729.866 303.997L730.272 368.844C730.272 369.25 730.002 369.657 729.595 369.792C729.189 369.928 728.783 369.792 728.513 369.385C728.513 369.25 722.285 359.909 715.109 353.005C709.559 347.725 706.851 348.943 705.227 350.296C699.541 355.035 706.445 364.106 706.445 364.106C706.716 364.512 706.716 365.189 706.31 365.459C705.904 365.73 705.227 365.73 704.956 365.325C702.113 361.668 698.187 353.546 704.008 348.807C709.152 344.34 714.703 349.755 716.598 351.515C721.608 356.39 726.075 362.346 728.513 365.595L727.97 303.861C727.97 303.32 727.565 297.363 730.95 293.707C732.573 291.948 734.875 291 737.719 291C740.561 291 742.863 291.948 744.622 293.707C748.143 297.363 748.143 303.32 748.143 303.59L747.736 325.793C749.091 323.086 751.662 321.597 755.047 321.597C760.597 321.597 763.847 326.064 763.982 330.26C763.982 331.073 763.982 331.885 764.118 332.833C765.471 330.26 768.179 327.823 772.782 327.823C778.062 327.823 782.123 332.021 782.123 337.436C782.123 337.977 782.123 338.654 782.123 339.195C783.613 337.301 786.05 336.082 789.84 336.082C796.744 336.082 798.098 343.934 798.504 350.839C799.317 363.7 798.911 374.124 797.422 381.705C793.901 400.118 789.164 407.835 788.757 408.376C788.216 409.458 777.249 427.87 754.912 427.87Z" fill="#4F46E5"/>
<path d="M15 229.811L85.3236 270.414L155.647 229.811V148.604L85.3236 108L15 148.604V229.811Z" fill="#4F46E5"/>
<path d="M78.1238 117.711L27.0555 147.18C27.1392 148.099 27.1392 149.024 27.0555 149.943L78.0401 179.412C82.3436 176.23 88.2199 176.23 92.5234 179.412L143.508 149.943C143.424 149.024 143.424 148.099 143.508 147.18L92.6071 117.711C88.3036 120.893 82.4273 120.893 78.1238 117.711ZM148.447 158.064L97.3791 187.867C97.9468 193.17 95.042 198.236 90.1793 200.425L90.263 259.028C91.0886 259.392 91.8742 259.841 92.6071 260.368L143.592 230.899C143.024 225.596 145.929 220.53 150.792 218.341V159.403C149.975 159.02 149.191 158.572 148.447 158.064ZM22.1998 158.398C21.4669 158.925 20.6813 159.374 19.8557 159.738V218.676C24.7852 220.79 27.7212 225.911 27.0555 231.234L78.0401 260.702C78.773 260.176 79.5586 259.727 80.3842 259.363V200.425C75.4547 198.311 72.5188 193.19 73.1844 187.867L22.1998 158.398Z" fill="#DFDEF2"/>
<path d="M85.3236 116.791L148.196 153.125V225.709L85.3236 262.042L22.4509 225.709V153.041L85.3236 116.791ZM85.3236 108.168L15 148.771V229.978L85.3236 270.582L155.647 229.978V148.771L85.3236 108.168Z" fill="#4F46E5"/>
<path d="M85.8259 203.021H84.8213C81.3326 203.03 77.9842 201.648 75.5173 199.181C73.0504 196.714 71.6685 193.366 71.6774 189.877V188.872C71.6685 185.384 73.0504 182.035 75.5173 179.568C77.9842 177.102 81.3326 175.72 84.8213 175.729H85.8259C89.3146 175.72 92.6629 177.102 95.1298 179.568C97.5967 182.035 98.9786 185.384 98.9697 188.872V189.877C98.9786 193.366 97.5967 196.714 95.1298 199.181C92.6629 201.648 89.3146 203.03 85.8259 203.021ZM85.8259 257.019H84.8213C80.066 257.005 75.6763 259.568 73.3518 263.717L85.3236 270.582L97.2953 263.717C94.9709 259.568 90.5812 257.005 85.8259 257.019ZM155.731 216.416H155.229C151.74 216.407 148.392 217.789 145.925 220.256C143.458 222.723 142.076 226.071 142.085 229.56V230.564C142.073 232.796 142.65 234.99 143.759 236.927L155.731 229.978V216.416ZM143.759 141.906C142.66 143.847 142.083 146.039 142.085 148.269V149.274C142.076 152.762 143.458 156.111 145.925 158.577C148.392 161.044 151.74 162.426 155.229 162.417H155.731V148.771L143.759 141.906ZM85.3236 108.168L73.3518 115.033C75.6651 119.203 80.0523 121.797 84.8213 121.814H85.8259C90.5812 121.828 94.9709 119.265 97.2953 115.116L85.3236 108.168ZM26.9718 141.823L15 148.771V162.417H15.5023C18.991 162.426 22.3394 161.044 24.8062 158.577C27.2731 156.111 28.655 152.762 28.6462 149.274V148.269C28.6178 146.016 28.0432 143.804 26.9718 141.823ZM15.5023 216.416H15V229.978L26.9718 236.927C28.0707 234.986 28.6476 232.794 28.6462 230.564V229.56C28.655 226.071 27.2731 222.723 24.8062 220.256C22.3394 217.789 18.991 216.407 15.5023 216.416Z" fill="#4F46E5"/>
<path d="M85.3236 271V189.71L15 149.106V230.397L85.3236 271Z" fill="#4F46E5" fill-opacity="0.04"/>
<path d="M155.731 229.644V148.437L85.4072 189.04V270.331L155.731 229.644Z" fill="#083B54" fill-opacity="0.05"/>
<path d="M17.9859 308.374C16.1046 308.374 14.3252 308.136 12.6479 307.66C10.9932 307.184 9.61057 306.538 8.49991 305.722L10.0299 301.574C11.0952 302.322 12.3079 302.912 13.6679 303.342C15.0506 303.773 16.4899 303.988 17.9859 303.988C19.6179 303.988 20.7852 303.739 21.4879 303.24C22.2132 302.719 22.5759 302.073 22.5759 301.302C22.5759 300.645 22.3266 300.124 21.8279 299.738C21.3292 299.353 20.4566 299.024 19.2099 298.752L15.3679 297.936C11.0839 297.03 8.94191 294.808 8.94191 291.272C8.94191 289.754 9.34991 288.428 10.1659 287.294C10.9819 286.138 12.1152 285.243 13.5659 284.608C15.0392 283.974 16.7392 283.656 18.6659 283.656C20.3206 283.656 21.8732 283.894 23.3239 284.37C24.7746 284.846 25.9759 285.515 26.9279 286.376L25.3979 290.252C23.5392 288.779 21.2839 288.042 18.6319 288.042C17.2039 288.042 16.0932 288.326 15.2999 288.892C14.5292 289.436 14.1439 290.15 14.1439 291.034C14.1439 291.692 14.3819 292.224 14.8579 292.632C15.3339 293.04 16.1612 293.369 17.3399 293.618L21.1819 294.434C25.5792 295.386 27.7779 297.54 27.7779 300.894C27.7779 302.39 27.3699 303.705 26.5539 304.838C25.7606 305.949 24.6272 306.822 23.1539 307.456C21.7032 308.068 19.9806 308.374 17.9859 308.374ZM30.5532 288.076V283.282H36.0952V288.076H30.5532ZM30.7572 308V291.306H35.8912V308H30.7572ZM46.3488 308.374C44.8981 308.374 43.6175 308.023 42.5068 307.32C41.4188 306.595 40.5688 305.586 39.9568 304.294C39.3448 302.98 39.0388 301.427 39.0388 299.636C39.0388 297.846 39.3448 296.304 39.9568 295.012C40.5688 293.72 41.4188 292.723 42.5068 292.02C43.6175 291.318 44.8981 290.966 46.3488 290.966C47.4595 290.966 48.4795 291.204 49.4088 291.68C50.3381 292.156 51.0408 292.791 51.5168 293.584V284.03H56.6508V308H51.6188V305.484C51.1655 306.368 50.4628 307.071 49.5108 307.592C48.5815 308.114 47.5275 308.374 46.3488 308.374ZM47.8788 304.532C48.9668 304.532 49.8508 304.136 50.5308 303.342C51.2335 302.549 51.5848 301.314 51.5848 299.636C51.5848 297.982 51.2335 296.769 50.5308 295.998C49.8508 295.205 48.9668 294.808 47.8788 294.808C46.7908 294.808 45.9068 295.205 45.2268 295.998C44.5468 296.769 44.2068 297.982 44.2068 299.636C44.2068 301.314 44.5468 302.549 45.2268 303.342C45.9068 304.136 46.7908 304.532 47.8788 304.532ZM69.2768 308.374C67.3048 308.374 65.6048 308.023 64.1768 307.32C62.7714 306.595 61.6834 305.586 60.9128 304.294C60.1648 302.98 59.7908 301.438 59.7908 299.67C59.7908 297.948 60.1534 296.44 60.8788 295.148C61.6268 293.834 62.6354 292.814 63.9048 292.088C65.1968 291.34 66.6814 290.966 68.3588 290.966C70.7841 290.966 72.7108 291.737 74.1388 293.278C75.5668 294.797 76.2808 296.86 76.2808 299.466V300.758H64.6868C64.8681 302.073 65.3441 303.036 66.1148 303.648C66.9081 304.238 67.9961 304.532 69.3788 304.532C70.2854 304.532 71.2034 304.396 72.1328 304.124C73.0621 303.852 73.9008 303.433 74.6488 302.866L76.0088 306.3C75.1701 306.935 74.1388 307.445 72.9148 307.83C71.7134 308.193 70.5008 308.374 69.2768 308.374ZM68.5628 294.366C67.4748 294.366 66.5908 294.695 65.9108 295.352C65.2534 296.01 64.8454 296.928 64.6868 298.106H72.0308C71.8948 295.613 70.7388 294.366 68.5628 294.366ZM87.3929 308.374C85.5796 308.374 83.9929 308.023 82.6329 307.32C81.2956 306.595 80.2643 305.575 79.5389 304.26C78.8136 302.946 78.4509 301.393 78.4509 299.602C78.4509 297.812 78.8136 296.27 79.5389 294.978C80.2643 293.686 81.2956 292.7 82.6329 292.02C83.9929 291.318 85.5796 290.966 87.3929 290.966C88.4583 290.966 89.5349 291.125 90.6229 291.442C91.7109 291.76 92.5949 292.213 93.2749 292.802L91.8469 296.338C91.2803 295.885 90.6456 295.534 89.9429 295.284C89.2403 295.012 88.5603 294.876 87.9029 294.876C86.5656 294.876 85.5229 295.296 84.7749 296.134C84.0496 296.95 83.6869 298.118 83.6869 299.636C83.6869 301.132 84.0496 302.311 84.7749 303.172C85.5229 304.011 86.5656 304.43 87.9029 304.43C88.5376 304.43 89.2063 304.306 89.9089 304.056C90.6343 303.807 91.2803 303.444 91.8469 302.968L93.2749 306.504C92.5949 307.094 91.7109 307.558 90.6229 307.898C89.5349 308.216 88.4583 308.374 87.3929 308.374ZM95.5033 308V284.03H100.637V293.584C101.227 292.723 101.986 292.077 102.915 291.646C103.845 291.193 104.876 290.966 106.009 290.966C109.931 290.966 111.891 293.301 111.891 297.97V308H106.757V298.208C106.757 297.052 106.542 296.225 106.111 295.726C105.681 295.205 105.046 294.944 104.207 294.944C103.119 294.944 102.247 295.284 101.589 295.964C100.955 296.644 100.637 297.551 100.637 298.684V308H95.5033ZM121.368 308.374C120.121 308.374 119.022 308.136 118.07 307.66C117.118 307.184 116.359 306.538 115.792 305.722C115.248 304.906 114.976 303.988 114.976 302.968C114.976 301.767 115.293 300.804 115.928 300.078C116.563 299.353 117.594 298.843 119.022 298.548C120.45 298.231 122.343 298.072 124.7 298.072H125.924V297.494C125.924 296.497 125.697 295.794 125.244 295.386C124.791 294.956 124.02 294.74 122.932 294.74C122.025 294.74 121.062 294.888 120.042 295.182C119.045 295.454 118.047 295.874 117.05 296.44L115.656 293.006C116.245 292.621 116.959 292.27 117.798 291.952C118.659 291.635 119.555 291.397 120.484 291.238C121.413 291.057 122.297 290.966 123.136 290.966C125.72 290.966 127.647 291.556 128.916 292.734C130.185 293.89 130.82 295.692 130.82 298.14V308H126.026V305.484C125.686 306.368 125.108 307.071 124.292 307.592C123.499 308.114 122.524 308.374 121.368 308.374ZM122.524 304.94C123.476 304.94 124.281 304.612 124.938 303.954C125.595 303.297 125.924 302.447 125.924 301.404V300.724H124.734C122.989 300.724 121.753 300.883 121.028 301.2C120.303 301.495 119.94 302.016 119.94 302.764C119.94 303.399 120.155 303.92 120.586 304.328C121.039 304.736 121.685 304.94 122.524 304.94ZM134.446 288.076V283.282H139.988V288.076H134.446ZM134.65 308V291.306H139.784V308H134.65ZM143.747 308V291.306H148.779V293.754C149.346 292.848 150.105 292.156 151.057 291.68C152.009 291.204 153.075 290.966 154.253 290.966C156.225 290.966 157.699 291.544 158.673 292.7C159.648 293.834 160.135 295.59 160.135 297.97V308H155.001V298.208C155.001 297.052 154.786 296.225 154.355 295.726C153.925 295.205 153.29 294.944 152.451 294.944C151.363 294.944 150.491 295.284 149.833 295.964C149.199 296.644 148.881 297.551 148.881 298.684V308H143.747ZM16.872 348V324.03H20.782L32.75 339.296V324.03H37.646V348H33.77L21.768 332.7V348H16.872ZM50.6996 348.374C48.7276 348.374 47.0276 348.023 45.5996 347.32C44.1943 346.595 43.1063 345.586 42.3356 344.294C41.5876 342.98 41.2136 341.438 41.2136 339.67C41.2136 337.948 41.5763 336.44 42.3016 335.148C43.0496 333.834 44.0583 332.814 45.3276 332.088C46.6196 331.34 48.1043 330.966 49.7816 330.966C52.207 330.966 54.1336 331.737 55.5616 333.278C56.9896 334.797 57.7036 336.86 57.7036 339.466V340.758H46.1096C46.291 342.073 46.767 343.036 47.5376 343.648C48.331 344.238 49.419 344.532 50.8016 344.532C51.7083 344.532 52.6263 344.396 53.5556 344.124C54.485 343.852 55.3236 343.433 56.0716 342.866L57.4316 346.3C56.593 346.935 55.5616 347.445 54.3376 347.83C53.1363 348.193 51.9236 348.374 50.6996 348.374ZM49.9856 334.366C48.8976 334.366 48.0136 334.695 47.3336 335.352C46.6763 336.01 46.2683 336.928 46.1096 338.106H53.4536C53.3176 335.613 52.1616 334.366 49.9856 334.366ZM68.7842 348.374C64.0922 348.374 61.7462 346.096 61.7462 341.54V335.148H58.5842V331.306H61.7462V326.41H66.8802V331.306H71.8102V335.148H66.8802V341.336C66.8802 342.288 67.0955 343.002 67.5262 343.478C67.9795 343.954 68.6935 344.192 69.6682 344.192C69.9628 344.192 70.2688 344.158 70.5862 344.09C70.9262 344.022 71.2888 343.932 71.6742 343.818L72.4222 347.558C71.9462 347.808 71.3795 348 70.7222 348.136C70.0648 348.295 69.4188 348.374 68.7842 348.374ZM79.3611 348L72.5611 331.306H77.7631L81.7411 342.016L85.7191 331.306H89.1191L93.0971 342.152L97.0751 331.306H102.005L95.2731 348H90.9211L87.2491 338.514L83.6791 348H79.3611ZM111.546 348.374C109.755 348.374 108.191 348.023 106.854 347.32C105.539 346.595 104.519 345.586 103.794 344.294C103.068 342.98 102.706 341.427 102.706 339.636C102.706 337.868 103.068 336.338 103.794 335.046C104.519 333.732 105.539 332.723 106.854 332.02C108.191 331.318 109.755 330.966 111.546 330.966C113.336 330.966 114.889 331.318 116.204 332.02C117.541 332.723 118.572 333.732 119.298 335.046C120.046 336.338 120.42 337.868 120.42 339.636C120.42 341.427 120.046 342.98 119.298 344.294C118.572 345.586 117.541 346.595 116.204 347.32C114.889 348.023 113.336 348.374 111.546 348.374ZM111.546 344.532C112.634 344.532 113.518 344.136 114.198 343.342C114.9 342.549 115.252 341.314 115.252 339.636C115.252 337.982 114.9 336.769 114.198 335.998C113.518 335.205 112.634 334.808 111.546 334.808C110.458 334.808 109.574 335.205 108.894 335.998C108.214 336.769 107.874 337.982 107.874 339.636C107.874 341.314 108.214 342.549 108.894 343.342C109.574 344.136 110.458 344.532 111.546 344.532ZM123.543 348V331.306H128.575V334.196C129.369 332.247 131.069 331.17 133.675 330.966L135.171 330.864L135.477 335.182L132.587 335.488C130.049 335.738 128.779 337.03 128.779 339.364V348H123.543ZM137.555 348V324.03H142.689V338.208H142.757L148.911 331.306H154.997L147.925 339.296L155.337 348H149.149L142.757 340.792H142.689V348H137.555Z" fill="#4F46E5"/>
<path d="M807.781 27.0002H343.219C338.209 27.0002 334 30.8891 334 35.5188V328.112C334 332.742 338.209 336.63 343.219 336.63H560.067V399.223H468.678C466.072 399.223 464.069 401.074 464.069 403.482V412H699.155V403.482C699.155 401.074 697.151 399.223 694.546 399.223H591.332V336.63H807.781C812.791 336.63 817 332.742 817 328.112V35.5188C817 30.8891 812.791 27.0002 807.781 27.0002Z" fill="#CBD5E1" fill-opacity="0.19"/>
<path d="M402.277 202.582C401.709 202.582 401.14 202.014 401.14 201.444V186.275C401.14 185.706 401.709 185.138 402.277 185.138H417.448C418.017 185.138 418.586 185.706 418.586 186.275V201.444C418.586 202.014 418.017 202.582 417.448 202.582H402.277Z" fill="white"/>
<path d="M417.446 184H402.275C401.138 184 400 184.949 400 186.275V201.444C400 202.582 400.948 203.721 402.275 203.721H417.446C418.584 203.721 419.721 202.772 419.721 201.444V186.275C419.721 185.138 418.773 184 417.446 184ZM417.446 201.444H402.275V186.275H417.446V201.444Z" fill="#FC9D4F"/>
<path d="M401 193H229" stroke="#4F46E5" stroke-width="1.51"/>
<path d="M220.964 187.086C217.741 187.086 215.086 189.74 215.086 192.964C215.086 196.187 217.741 198.842 220.964 198.842C224.188 198.842 226.843 196.187 226.843 192.964C226.653 189.74 224.188 187.086 220.964 187.086ZM220.964 200.928C216.603 200.928 213 197.325 213 192.964C213 188.603 216.603 185 220.964 185C225.326 185 228.929 188.603 228.929 192.964C228.929 197.325 225.326 200.928 220.964 200.928Z" fill="#FC9D4F"/>
<path d="M582.967 269.722H647.264" stroke="#4F46E5" stroke-opacity="0.38" stroke-width="5" stroke-linecap="square"/>
<path d="M629.18 336.028L646.862 269.32" stroke="#4F46E5" stroke-opacity="0.38" stroke-width="5" stroke-linecap="square"/>
<path d="M647.264 269.722L699.505 290.618" stroke="#4F46E5" stroke-opacity="0.38" stroke-width="5" stroke-linecap="square"/>
<path d="M674.992 202.612L647.264 269.722" stroke="#4F46E5" stroke-opacity="0.38" stroke-width="5" stroke-linecap="square"/>
<path d="M709.552 241.994L647.264 269.722" stroke="#4F46E5" stroke-opacity="0.38" stroke-width="5" stroke-linecap="square"/>
<path d="M469.177 173.175L486.471 229.221" stroke="#4F46E5" stroke-opacity="0.38" stroke-width="5" stroke-linecap="square"/>
<path d="M486.011 228.888L431.144 216.42" stroke="#4F46E5" stroke-opacity="0.38" stroke-width="5" stroke-linecap="square"/>
<path d="M492.951 279.367L486.011 228.888" stroke="#4F46E5" stroke-opacity="0.38" stroke-width="5" stroke-linecap="square"/>
<path d="M574.528 179.304L486.011 228.888" stroke="#4F46E5" stroke-opacity="0.38" stroke-width="5" stroke-linecap="square"/>
<path d="M574.929 179.706L647.264 269.722" stroke="#4F46E5" stroke-opacity="0.38" stroke-width="5" stroke-linecap="square"/>
<path d="M428.829 266.019L486.011 228.888" stroke="#4F46E5" stroke-opacity="0.38" stroke-width="5" stroke-linecap="square"/>
<path d="M672.443 136.548L626.129 100.556" stroke="#4F46E5" stroke-opacity="0.38" stroke-width="5" stroke-linecap="square"/>
<path d="M626.697 100.567L678.793 79.3083" stroke="#4F46E5" stroke-opacity="0.38" stroke-width="5" stroke-linecap="square"/>
<path d="M523.492 121.839L626.697 100.567" stroke="#4F46E5" stroke-opacity="0.38" stroke-width="5" stroke-linecap="square"/>
<path d="M543.585 51.915L528.314 121.838" stroke="#4F46E5" stroke-opacity="0.38" stroke-width="5" stroke-linecap="square"/>
<path d="M528.314 121.838L574.929 179.705" stroke="#4F46E5" stroke-opacity="0.38" stroke-width="5" stroke-linecap="square"/>
<path d="M463.213 88.0823L528.314 121.035" stroke="#4F46E5" stroke-opacity="0.38" stroke-width="5" stroke-linecap="square"/>
<path d="M509.025 172.473L528.314 121.035" stroke="#4F46E5" stroke-opacity="0.38" stroke-width="5" stroke-linecap="square"/>
<path d="M574.528 179.304L626.697 100.567" stroke="#4F46E5" stroke-opacity="0.38" stroke-width="5" stroke-linecap="square"/>
<path d="M652.242 37.3513L626.697 100.567" stroke="#4F46E5" stroke-opacity="0.38" stroke-width="5" stroke-linecap="square"/>
<path d="M646.862 279.769C652.632 279.769 657.31 275.091 657.31 269.321C657.31 263.55 652.632 258.872 646.862 258.872C641.091 258.872 636.414 263.55 636.414 269.321C636.414 275.091 641.091 279.769 646.862 279.769Z" fill="#FC9D4F"/>
<path d="M484.837 218.902C479.138 219.805 475.25 225.157 476.152 230.856C477.055 236.556 482.407 240.444 488.106 239.541C493.806 238.639 497.694 233.287 496.792 227.587C495.889 221.888 490.537 217.999 484.837 218.902Z" fill="#FC9D4F"/>
<path d="M535.17 128.953C539.321 124.945 539.437 118.33 535.428 114.179C531.42 110.028 524.805 109.913 520.654 113.921C516.503 117.93 516.388 124.544 520.396 128.695C524.405 132.846 531.019 132.962 535.17 128.953Z" fill="#FC9D4F"/>
<path d="M358.638 177C357.066 177 355.69 175.626 355.69 174.056C355.69 172.485 357.066 171.111 358.638 171.111H370.431C372.003 171.111 373.379 172.485 373.379 174.056C373.379 175.626 372.003 177 370.431 177H358.638ZM335.052 177C333.479 177 332.103 175.626 332.103 174.056C332.103 172.485 333.479 171.111 335.052 171.111H346.845C348.417 171.111 349.793 172.485 349.793 174.056C349.793 175.626 348.417 177 346.845 177H335.052ZM371.414 162.278C371.414 160.708 372.79 159.334 374.362 159.334C375.934 159.334 377.31 160.708 377.31 162.278C377.31 163.848 375.934 165.222 374.362 165.222C372.79 165.222 371.414 163.848 371.414 162.278ZM352.741 165.222C351.169 165.222 349.793 163.848 349.793 162.278C349.793 160.708 351.169 159.334 352.741 159.334H362.569C364.141 159.334 365.517 160.708 365.517 162.278C365.517 163.848 364.141 165.222 362.569 165.222H352.741ZM307.534 165.222C305.962 165.222 304.586 163.848 304.586 162.278C304.586 160.708 305.962 159.334 307.534 159.334H340.948C342.521 159.334 343.897 160.708 343.897 162.278C343.897 163.848 342.521 165.222 340.948 165.222H307.534ZM352.741 153.445C351.169 153.445 349.793 152.071 349.793 150.5C349.793 148.93 351.169 147.556 352.741 147.556H392.052C393.624 147.556 395 148.93 395 150.5C395 152.071 393.624 153.445 392.052 153.445H352.741ZM338 150.5C338 148.93 339.376 147.556 340.948 147.556C342.521 147.556 343.897 148.93 343.897 150.5C343.897 152.071 342.521 153.445 340.948 153.445C339.376 153.445 338 152.071 338 150.5ZM317.362 153.445C315.79 153.445 314.414 152.071 314.414 150.5C314.414 148.93 315.79 147.556 317.362 147.556H329.155C330.728 147.556 332.103 148.93 332.103 150.5C332.103 152.071 330.728 153.445 329.155 153.445H317.362ZM352.741 141.667C351.169 141.667 349.793 140.293 349.793 138.722C349.793 137.152 351.169 135.778 352.741 135.778H390.086C391.659 135.778 393.034 137.152 393.034 138.722C393.034 140.293 391.659 141.667 390.086 141.667H352.741ZM295.741 141.667C294.169 141.667 292.793 140.293 292.793 138.722C292.793 137.152 294.169 135.778 295.741 135.778H340.948C342.521 135.778 343.897 137.152 343.897 138.722C343.897 140.293 342.521 141.667 340.948 141.667H295.741ZM281 138.722C281 137.152 282.376 135.778 283.948 135.778C285.521 135.778 286.897 137.152 286.897 138.722C286.897 140.293 285.521 141.667 283.948 141.667C282.376 141.667 281 140.293 281 138.722ZM358.638 129.889C357.066 129.889 355.69 128.515 355.69 126.945C355.69 125.374 357.066 124 358.638 124H370.431C372.003 124 373.379 125.374 373.379 126.945C373.379 128.515 372.003 129.889 370.431 129.889H358.638ZM335.052 129.889C333.479 129.889 332.103 128.515 332.103 126.945C332.103 125.374 333.479 124 335.052 124H346.845C348.417 124 349.793 125.374 349.793 126.945C349.793 128.515 348.417 129.889 346.845 129.889H335.052ZM303.603 129.889C302.031 129.889 300.655 128.515 300.655 126.945C300.655 125.374 302.031 124 303.603 124H323.259C324.831 124 326.207 125.374 326.207 126.945C326.207 128.515 324.831 129.889 323.259 129.889H303.603Z" fill="#4F46E5"/>
<path d="M581.761 279.769C587.532 279.769 592.21 275.091 592.21 269.321C592.21 263.55 587.532 258.872 581.761 258.872C575.991 258.872 571.313 263.55 571.313 269.321C571.313 275.091 575.991 279.769 581.761 279.769Z" fill="#4F46E5"/>
<path d="M674.992 213.061C680.762 213.061 685.44 208.383 685.44 202.613C685.44 196.842 680.762 192.164 674.992 192.164C669.222 192.164 664.544 196.842 664.544 202.613C664.544 208.383 669.222 213.061 674.992 213.061Z" fill="#4F46E5"/>
<path d="M749.5 277C776.286 277 798 255.286 798 228.5C798 201.714 776.286 180 749.5 180C722.714 180 701 201.714 701 228.5C701 255.286 722.714 277 749.5 277Z" fill="#4F46E5"/>
<path d="M699.104 300.664C704.874 300.664 709.552 295.987 709.552 290.216C709.552 284.446 704.874 279.768 699.104 279.768C693.333 279.768 688.655 284.446 688.655 290.216C688.655 295.987 693.333 300.664 699.104 300.664Z" fill="#4F46E5"/>
<path d="M629.18 346.477C634.951 346.477 639.629 341.799 639.629 336.029C639.629 330.258 634.951 325.58 629.18 325.58C623.41 325.58 618.732 330.258 618.732 336.029C618.732 341.799 623.41 346.477 629.18 346.477Z" fill="#4F46E5"/>
<path d="M492.594 267.263C481.22 269.064 473.46 279.745 475.262 291.119C477.063 302.493 487.744 310.253 499.118 308.452C510.492 306.65 518.252 295.969 516.451 284.595C514.649 273.221 503.968 265.461 492.594 267.263Z" fill="#4F46E5"/>
<path d="M427.32 256.493C421.62 257.396 417.732 262.748 418.634 268.448C419.537 274.147 424.889 278.035 430.589 277.133C436.288 276.23 440.176 270.878 439.274 265.179C438.371 259.479 433.019 255.591 427.32 256.493Z" fill="#4F46E5"/>
<path d="M429.97 206.435C424.271 207.338 420.382 212.69 421.285 218.389C422.188 224.088 427.54 227.977 433.239 227.074C438.939 226.171 442.827 220.819 441.924 215.12C441.022 209.421 435.67 205.532 429.97 206.435Z" fill="#4F46E5"/>
<path d="M467.14 162.453C461.441 163.356 457.553 168.708 458.455 174.408C459.358 180.107 464.71 183.995 470.409 183.093C476.109 182.19 479.997 176.838 479.095 171.139C478.192 165.439 472.84 161.551 467.14 162.453Z" fill="#4F46E5"/>
<path d="M572.894 168.986C567.194 169.888 563.306 175.24 564.209 180.94C565.111 186.639 570.463 190.528 576.163 189.625C581.862 188.722 585.751 183.37 584.848 177.671C583.945 171.971 578.593 168.083 572.894 168.986Z" fill="#4F46E5"/>
<path d="M550.441 59.8336C554.592 55.8251 554.707 49.2106 550.699 45.0597C546.69 40.9088 540.076 40.7933 535.925 44.8018C531.774 48.8103 531.659 55.4248 535.667 59.5757C539.676 63.7266 546.29 63.842 550.441 59.8336Z" fill="#4F46E5"/>
<path d="M470.069 95.1968C474.22 91.1884 474.336 84.5739 470.327 80.423C466.319 76.2721 459.704 76.1566 455.553 80.1651C451.403 84.1736 451.287 90.7881 455.296 94.939C459.304 99.0899 465.919 99.2053 470.069 95.1968Z" fill="#4F46E5"/>
<path d="M658.941 44.2896C663.092 40.2811 663.208 33.6667 659.199 29.5158C655.191 25.3649 648.576 25.2494 644.425 29.2579C640.274 33.2664 640.159 39.8808 644.167 44.0317C648.176 48.1826 654.79 48.2981 658.941 44.2896Z" fill="#4F46E5"/>
<path d="M749.139 92.2057C766.31 75.6238 766.787 48.2618 750.206 31.0908C733.624 13.9199 706.262 13.4422 689.091 30.0241C671.92 46.6059 671.442 73.9679 688.024 91.1389C704.606 108.31 731.968 108.787 749.139 92.2057Z" fill="#4F46E5"/>
<path d="M515.881 180.391C520.032 176.383 520.148 169.768 516.139 165.617C512.131 161.466 505.516 161.351 501.365 165.359C497.214 169.368 497.099 175.982 501.107 180.133C505.116 184.284 511.73 184.4 515.881 180.391Z" fill="#4F46E5"/>
<path d="M680.261 144.163C684.412 140.154 684.527 133.54 680.519 129.389C676.51 125.238 669.896 125.122 665.745 129.131C661.594 133.139 661.479 139.754 665.487 143.905C669.495 148.056 676.11 148.171 680.261 144.163Z" fill="#4F46E5"/>
<path d="M633.387 108.073C637.538 104.064 637.653 97.4499 633.644 93.2989C629.636 89.148 623.022 89.0326 618.871 93.0411C614.72 97.0495 614.604 103.664 618.613 107.815C622.621 111.966 629.236 112.081 633.387 108.073Z" fill="#4F46E5"/>
<path d="M718.604 87.0002L703.416 64.4381L719.02 73.8036L734 64.4381L718.604 87.0002ZM718.604 69.9721L703 60.6066L718.188 34.0002L733.792 60.6066L718.604 69.9721ZM720.06 44.43V61.4581L726.302 57.2011L720.06 44.43Z" fill="white"/>
<path d="M750.05 257C748.693 257 747.789 256.093 747.789 254.733V248.612H736.261C734.904 248.612 734 247.705 734 246.344V245.211C734 243.851 734.904 242.944 736.261 242.944H739.425V215.057H736.261C734.904 215.057 734 214.15 734 212.79V211.656C734 210.296 734.904 209.389 736.261 209.389H748.015V203.267C748.015 201.907 748.919 201 750.276 201H751.18C752.536 201 753.441 201.907 753.441 203.267V209.389H755.475C758.866 209.162 762.483 210.069 765.195 212.109C767.23 213.923 768.586 216.644 768.36 219.365C768.36 221.405 767.682 223.446 766.326 225.033C764.969 226.393 763.161 227.526 761.352 227.753V228.207C762.935 228.207 764.291 228.66 765.647 229.567C767.004 230.474 768.134 231.381 768.812 232.741C769.716 234.328 770.168 235.915 769.942 237.729C769.942 239.769 769.49 241.583 768.36 243.397C767.23 245.211 765.647 246.344 763.839 247.251C761.578 248.158 758.866 248.838 756.379 248.612H753.441V254.733C753.441 256.093 752.536 257 751.18 257H750.05ZM748.015 241.81H754.797C756.605 242.037 758.414 241.583 759.77 240.449C760.9 239.543 761.352 238.182 761.352 236.822C761.352 235.235 760.674 233.875 759.544 232.741C758.188 231.608 756.605 231.154 754.797 231.154H747.789L748.015 241.81ZM748.015 225.713H754.119C755.701 225.713 757.057 225.259 758.414 224.352C759.544 223.445 760.222 222.085 759.996 220.725C759.996 219.365 759.544 218.231 758.414 217.324C757.284 216.417 755.701 215.964 754.119 215.964H747.789L748.015 225.713Z" fill="white"/>
<path d="M496.054 280.348L481 296L496.054 272L511 296L496.054 280.348ZM489.387 292.348L491.753 290.47H500.247L502.613 292.348H489.387ZM492.183 288.696L495.946 285.044L499.71 288.696H492.183Z" fill="white"/>
</svg>
