<svg width="922" height="315" viewBox="0 0 922 315" fill="none" xmlns="http://www.w3.org/2000/svg">
<path d="M417.947 54.4256C413.832 54.4256 410.478 51.0917 410.478 46.9628C410.478 42.8331 413.813 39.5 417.947 39.5C422.062 39.5 425.417 42.8339 425.417 46.9628C425.417 51.0925 422.081 54.4256 417.947 54.4256Z" fill="#FFD2A4" fill-opacity="0.27" stroke="#4F46E5"/>
<path d="M417.947 97.105C413.832 97.105 410.478 93.7711 410.478 89.6422C410.478 85.5314 413.814 82.1794 417.947 82.1794C422.062 82.1794 425.417 85.5133 425.417 89.6422C425.417 93.7529 422.081 97.105 417.947 97.105Z" fill="#FFD2A4" fill-opacity="0.27" stroke="#4F46E5"/>
<path d="M417.947 139.784C413.832 139.784 410.478 136.45 410.478 132.321C410.478 128.191 413.813 124.858 417.947 124.858C422.062 124.858 425.417 128.192 425.417 132.321C425.417 136.451 422.081 139.784 417.947 139.784Z" fill="#FFD2A4" fill-opacity="0.27" stroke="#4F46E5"/>
<path d="M417.947 182.443C413.832 182.443 410.478 179.109 410.478 174.98C410.478 170.851 413.813 167.518 417.947 167.518C422.062 167.518 425.417 170.852 425.417 174.98C425.417 179.11 422.081 182.443 417.947 182.443Z" fill="#1D262D" fill-opacity="0.16" stroke="#4F46E5"/>
<path d="M417.947 225.123C413.832 225.123 410.478 221.789 410.478 217.66C410.478 213.549 413.814 210.197 417.947 210.197C422.062 210.197 425.417 213.531 425.417 217.66C425.417 221.79 422.081 225.123 417.947 225.123Z" fill="#FFD2A4" fill-opacity="0.27" stroke="#4F46E5"/>
<path d="M417.947 267.802C413.832 267.802 410.478 264.468 410.478 260.339C410.478 256.209 413.813 252.876 417.947 252.876C422.062 252.876 425.417 256.21 425.417 260.339C425.417 264.468 422.081 267.802 417.947 267.802Z" fill="#FFD2A4" fill-opacity="0.27" stroke="#4F46E5"/>
<path d="M417.947 310.48C413.832 310.48 410.478 307.147 410.478 303.018C410.478 298.888 413.813 295.555 417.947 295.555C422.062 295.555 425.417 298.889 425.417 303.018C425.417 307.147 422.081 310.48 417.947 310.48Z" fill="#1D262D" fill-opacity="0.16" stroke="#4F46E5"/>
<path d="M392.432 46.9628C392.432 51.084 389.089 54.4256 384.963 54.4256C380.837 54.4256 377.494 51.084 377.494 46.9628C377.494 42.8416 380.837 39.5 384.963 39.5C389.089 39.5 392.432 42.8416 392.432 46.9628Z" fill="#FFD2A4" fill-opacity="0.27" stroke="#4F46E5"/>
<path d="M384.963 97.605C380.573 97.605 376.994 94.0484 376.994 89.6422C376.994 85.2557 380.553 81.6794 384.963 81.6794C389.353 81.6794 392.932 85.2359 392.932 89.6422C392.932 94.0286 389.353 97.605 384.963 97.605Z" stroke="#4F46E5" stroke-miterlimit="10"/>
<path d="M392.432 132.321C392.432 136.442 389.089 139.784 384.963 139.784C380.837 139.784 377.494 136.442 377.494 132.321C377.494 128.2 380.837 124.858 384.963 124.858C389.089 124.858 392.432 128.2 392.432 132.321Z" fill="#FFD2A4" fill-opacity="0.27" stroke="#4F46E5"/>
<path d="M392.432 175C392.432 179.121 389.089 182.463 384.963 182.463C380.837 182.463 377.494 179.121 377.494 175C377.494 170.879 380.837 167.537 384.963 167.537C389.089 167.537 392.432 170.879 392.432 175Z" fill="#FFD2A4" fill-opacity="0.27" stroke="#4F46E5"/>
<path d="M384.963 225.123C380.848 225.123 377.494 221.789 377.494 217.66C377.494 213.549 380.83 210.197 384.963 210.197C389.078 210.197 392.432 213.531 392.432 217.66C392.432 221.789 389.078 225.123 384.963 225.123Z" fill="#FFD2A4" fill-opacity="0.27" stroke="#4F46E5"/>
<path d="M384.963 268.321C389.364 268.321 392.932 264.756 392.932 260.358C392.932 255.961 389.364 252.396 384.963 252.396C380.562 252.396 376.994 255.961 376.994 260.358C376.994 264.756 380.562 268.321 384.963 268.321Z" stroke="#4F46E5" stroke-miterlimit="10"/>
<path d="M392.432 303.037C392.432 307.158 389.089 310.5 384.963 310.5C380.837 310.5 377.494 307.158 377.494 303.037C377.494 298.916 380.837 295.574 384.963 295.574C389.089 295.574 392.432 298.916 392.432 303.037Z" fill="#FFD2A4" fill-opacity="0.27" stroke="#4F46E5"/>
<path d="M359.428 46.9628C359.428 51.084 356.084 54.4256 351.958 54.4256C347.833 54.4256 344.489 51.084 344.489 46.9628C344.489 42.8416 347.833 39.5 351.958 39.5C356.084 39.5 359.428 42.8416 359.428 46.9628Z" fill="#FFD2A4" fill-opacity="0.27" stroke="#4F46E5"/>
<path d="M351.958 97.105C347.843 97.105 344.489 93.7711 344.489 89.6422C344.489 85.5314 347.825 82.1794 351.958 82.1794C356.092 82.1794 359.428 85.5125 359.428 89.6422C359.428 93.7529 356.092 97.105 351.958 97.105Z" fill="#FFD2A4" fill-opacity="0.27" stroke="#4F46E5"/>
<path d="M359.428 132.321C359.428 136.442 356.084 139.784 351.958 139.784C347.833 139.784 344.489 136.442 344.489 132.321C344.489 128.2 347.833 124.858 351.958 124.858C356.084 124.858 359.428 128.2 359.428 132.321Z" fill="#FFD2A4" fill-opacity="0.27" stroke="#4F46E5"/>
<path d="M359.428 175C359.428 179.121 356.084 182.463 351.958 182.463C347.833 182.463 344.489 179.121 344.489 175C344.489 170.879 347.833 167.537 351.958 167.537C356.084 167.537 359.428 170.879 359.428 175Z" fill="#FFD2A4" fill-opacity="0.27" stroke="#4F46E5"/>
<path d="M351.958 225.123C347.843 225.123 344.489 221.789 344.489 217.66C344.489 213.549 347.825 210.197 351.958 210.197C356.092 210.197 359.428 213.53 359.428 217.66C359.428 221.79 356.092 225.123 351.958 225.123Z" fill="#1D262D" fill-opacity="0.16" stroke="#4F46E5"/>
<path d="M359.428 260.358C359.428 264.48 356.084 267.821 351.958 267.821C347.833 267.821 344.489 264.48 344.489 260.358C344.489 256.237 347.833 252.896 351.958 252.896C356.084 252.896 359.428 256.237 359.428 260.358Z" fill="#FFD2A4" fill-opacity="0.27" stroke="#4F46E5"/>
<path d="M359.428 303.037C359.428 307.158 356.084 310.5 351.958 310.5C347.833 310.5 344.489 307.158 344.489 303.037C344.489 298.916 347.833 295.574 351.958 295.574C356.084 295.574 359.428 298.916 359.428 303.037Z" fill="#FFD2A4" fill-opacity="0.27" stroke="#4F46E5"/>
<path d="M326.423 46.9628C326.423 51.084 323.079 54.4256 318.954 54.4256C314.828 54.4256 311.484 51.084 311.484 46.9628C311.484 42.8416 314.828 39.5 318.954 39.5C323.079 39.5 326.423 42.8416 326.423 46.9628Z" fill="#FFD2A4" fill-opacity="0.27" stroke="#4F46E5"/>
<path d="M318.954 97.105C314.839 97.105 311.484 93.7711 311.484 89.6422C311.484 85.5314 314.82 82.1794 318.954 82.1794C323.088 82.1794 326.423 85.5125 326.423 89.6422C326.423 93.7529 323.087 97.105 318.954 97.105Z" fill="#1D262D" fill-opacity="0.16" stroke="#4F46E5"/>
<path d="M326.423 132.321C326.423 136.442 323.079 139.784 318.954 139.784C314.828 139.784 311.484 136.442 311.484 132.321C311.484 128.2 314.828 124.858 318.954 124.858C323.079 124.858 326.423 128.2 326.423 132.321Z" fill="#FFD2A4" fill-opacity="0.27" stroke="#4F46E5"/>
<path d="M318.954 182.963C323.355 182.963 326.923 179.398 326.923 175C326.923 170.602 323.355 167.037 318.954 167.037C314.552 167.037 310.984 170.602 310.984 175C310.984 179.398 314.552 182.963 318.954 182.963Z" stroke="#4F46E5" stroke-miterlimit="10"/>
<path d="M318.954 225.123C314.839 225.123 311.484 221.789 311.484 217.66C311.484 213.549 314.82 210.197 318.954 210.197C323.088 210.197 326.423 213.53 326.423 217.66C326.423 221.79 323.088 225.123 318.954 225.123Z" fill="#FFD2A4" fill-opacity="0.27" stroke="#4F46E5"/>
<path d="M326.423 260.358C326.423 264.48 323.079 267.821 318.954 267.821C314.828 267.821 311.484 264.48 311.484 260.358C311.484 256.237 314.828 252.896 318.954 252.896C323.079 252.896 326.423 256.237 326.423 260.358Z" fill="#FFD2A4" fill-opacity="0.27" stroke="#4F46E5"/>
<path d="M326.423 303.037C326.423 307.158 323.079 310.5 318.954 310.5C314.828 310.5 311.484 307.158 311.484 303.037C311.484 298.916 314.828 295.574 318.954 295.574C323.079 295.574 326.423 298.916 326.423 303.037Z" fill="#FFD2A4" fill-opacity="0.27" stroke="#4F46E5"/>
<path d="M285.969 54.9256C290.371 54.9256 293.939 51.3606 293.939 46.9628C293.939 42.5651 290.371 39 285.969 39C281.568 39 278 42.5651 278 46.9628C278 51.3606 281.568 54.9256 285.969 54.9256Z" stroke="#4F46E5" stroke-miterlimit="10"/>
<path d="M285.969 97.1045C281.854 97.1045 278.5 93.7706 278.5 89.6417C278.5 85.531 281.836 82.1789 285.969 82.1789C290.084 82.1789 293.439 85.5128 293.439 89.6417C293.439 93.7517 290.084 97.1045 285.969 97.1045Z" fill="#FFD2A4" fill-opacity="0.27" stroke="#4F46E5"/>
<path d="M293.439 132.321C293.439 136.442 290.095 139.784 285.969 139.784C281.844 139.784 278.5 136.442 278.5 132.321C278.5 128.2 281.844 124.858 285.969 124.858C290.095 124.858 293.439 128.2 293.439 132.321Z" fill="#FFD2A4" fill-opacity="0.27" stroke="#4F46E5"/>
<path d="M293.439 175C293.439 179.121 290.095 182.463 285.969 182.463C281.844 182.463 278.5 179.121 278.5 175C278.5 170.879 281.844 167.537 285.969 167.537C290.095 167.537 293.439 170.879 293.439 175Z" fill="#FFD2A4" fill-opacity="0.27" stroke="#4F46E5"/>
<path d="M285.969 225.123C281.854 225.123 278.5 221.789 278.5 217.66C278.5 213.549 281.836 210.197 285.969 210.197C290.084 210.197 293.439 213.531 293.439 217.66C293.439 221.789 290.084 225.123 285.969 225.123Z" fill="#FFD2A4" fill-opacity="0.27" stroke="#4F46E5"/>
<path d="M293.439 260.358C293.439 264.48 290.095 267.821 285.969 267.821C281.844 267.821 278.5 264.48 278.5 260.358C278.5 256.237 281.844 252.896 285.969 252.896C290.095 252.896 293.439 256.237 293.439 260.358Z" fill="#FFD2A4" fill-opacity="0.27" stroke="#4F46E5"/>
<path d="M293.439 303.038C293.439 307.159 290.095 310.501 285.969 310.501C281.844 310.501 278.5 307.159 278.5 303.038C278.5 298.916 281.844 295.575 285.969 295.575C290.095 295.575 293.439 298.916 293.439 303.038Z" fill="#FFD2A4" fill-opacity="0.27" stroke="#4F46E5"/>
<path d="M657.742 196.398C657.742 193.261 660.288 190.703 663.442 190.703C666.597 190.703 669.142 193.246 669.142 196.398C669.142 199.535 666.596 202.093 663.442 202.093C660.287 202.093 657.742 199.549 657.742 196.398Z" fill="#FFD2A4" fill-opacity="0.27" stroke="#4F46E5"/>
<path d="M624.51 196.398C624.51 193.261 627.056 190.703 630.211 190.703C633.351 190.703 635.911 193.247 635.911 196.398C635.911 199.535 633.365 202.093 630.211 202.093C627.07 202.093 624.51 199.548 624.51 196.398Z" fill="#FFD2A4" fill-opacity="0.27" stroke="#4F46E5"/>
<path d="M591.279 196.398C591.279 193.261 593.825 190.703 596.979 190.703C600.134 190.703 602.679 193.246 602.679 196.398C602.679 199.535 600.133 202.093 596.979 202.093C593.824 202.093 591.279 199.549 591.279 196.398Z" fill="#FFD2A4" fill-opacity="0.27" stroke="#4F46E5"/>
<path d="M558.063 196.398C558.063 193.261 560.609 190.703 563.763 190.703C566.918 190.703 569.463 193.246 569.463 196.398C569.463 199.535 566.918 202.093 563.763 202.093C560.608 202.093 558.063 199.549 558.063 196.398Z" fill="#1D262D" fill-opacity="0.16" stroke="#4F46E5"/>
<path d="M524.831 196.398C524.831 193.261 527.377 190.703 530.532 190.703C533.672 190.703 536.232 193.247 536.232 196.398C536.232 199.535 533.686 202.093 530.532 202.093C527.376 202.093 524.831 199.549 524.831 196.398Z" fill="#FFD2A4" fill-opacity="0.27" stroke="#4F46E5"/>
<path d="M491.599 196.398C491.599 193.261 494.145 190.703 497.299 190.703C500.454 190.703 503 193.246 503 196.398C503 199.535 500.454 202.093 497.299 202.093C494.144 202.093 491.599 199.549 491.599 196.398Z" fill="#FFD2A4" fill-opacity="0.27" stroke="#4F46E5"/>
<path d="M458.368 196.398C458.368 193.261 460.914 190.703 464.068 190.703C467.224 190.703 469.769 193.246 469.769 196.398C469.769 199.535 467.223 202.093 464.068 202.093C460.913 202.093 458.368 199.549 458.368 196.398Z" fill="#1D262D" fill-opacity="0.16" stroke="#4F46E5"/>
<path d="M663.442 176.452C660.294 176.452 657.742 173.902 657.742 170.757C657.742 167.612 660.294 165.062 663.442 165.062C666.591 165.062 669.142 167.612 669.142 170.757C669.142 173.902 666.591 176.452 663.442 176.452Z" fill="#FFD2A4" fill-opacity="0.27" stroke="#4F46E5"/>
<path d="M624.01 170.757C624.01 167.344 626.78 164.562 630.211 164.562C633.626 164.562 636.411 167.329 636.411 170.757C636.411 174.17 633.641 176.952 630.211 176.952C626.795 176.952 624.01 174.17 624.01 170.757Z" stroke="#4F46E5" stroke-miterlimit="10"/>
<path d="M596.979 176.452C593.831 176.452 591.279 173.902 591.279 170.757C591.279 167.612 593.831 165.062 596.979 165.062C600.128 165.062 602.679 167.612 602.679 170.757C602.679 173.902 600.128 176.452 596.979 176.452Z" fill="#FFD2A4" fill-opacity="0.27" stroke="#4F46E5"/>
<path d="M563.747 176.452C560.599 176.452 558.047 173.902 558.047 170.757C558.047 167.612 560.599 165.062 563.747 165.062C566.896 165.062 569.448 167.612 569.448 170.757C569.448 173.902 566.896 176.452 563.747 176.452Z" fill="#FFD2A4" fill-opacity="0.27" stroke="#4F46E5"/>
<path d="M524.831 170.757C524.831 167.62 527.377 165.062 530.532 165.062C533.672 165.062 536.232 167.606 536.232 170.757C536.232 173.894 533.686 176.452 530.532 176.452C527.377 176.452 524.831 173.894 524.831 170.757Z" fill="#FFD2A4" fill-opacity="0.27" stroke="#4F46E5"/>
<path d="M491.085 170.757C491.085 174.178 493.86 176.952 497.285 176.952C500.709 176.952 503.485 174.178 503.485 170.757C503.485 167.335 500.709 164.562 497.285 164.562C493.86 164.562 491.085 167.335 491.085 170.757Z" stroke="#4F46E5" stroke-miterlimit="10"/>
<path d="M464.053 176.452C460.905 176.452 458.353 173.902 458.353 170.757C458.353 167.612 460.905 165.062 464.053 165.062C467.202 165.062 469.753 167.612 469.753 170.757C469.753 173.902 467.202 176.452 464.053 176.452Z" fill="#FFD2A4" fill-opacity="0.27" stroke="#4F46E5"/>
<path d="M663.442 150.795C660.294 150.795 657.742 148.245 657.742 145.1C657.742 141.955 660.294 139.405 663.442 139.405C666.591 139.405 669.142 141.955 669.142 145.1C669.142 148.245 666.591 150.795 663.442 150.795Z" fill="#FFD2A4" fill-opacity="0.27" stroke="#4F46E5"/>
<path d="M624.51 145.1C624.51 141.963 627.056 139.405 630.211 139.405C633.351 139.405 635.911 141.949 635.911 145.1C635.911 148.251 633.366 150.795 630.211 150.795C627.07 150.795 624.51 148.25 624.51 145.1Z" fill="#FFD2A4" fill-opacity="0.27" stroke="#4F46E5"/>
<path d="M596.979 150.795C593.831 150.795 591.279 148.245 591.279 145.1C591.279 141.955 593.831 139.405 596.979 139.405C600.128 139.405 602.679 141.955 602.679 145.1C602.679 148.245 600.128 150.795 596.979 150.795Z" fill="#FFD2A4" fill-opacity="0.27" stroke="#4F46E5"/>
<path d="M563.747 150.795C560.599 150.795 558.047 148.245 558.047 145.1C558.047 141.955 560.599 139.405 563.747 139.405C566.896 139.405 569.448 141.955 569.448 145.1C569.448 148.245 566.896 150.795 563.747 150.795Z" fill="#FFD2A4" fill-opacity="0.27" stroke="#4F46E5"/>
<path d="M524.831 145.1C524.831 141.963 527.377 139.405 530.531 139.405C533.672 139.405 536.231 141.949 536.231 145.1C536.231 148.252 533.686 150.795 530.531 150.795C527.376 150.795 524.831 148.252 524.831 145.1Z" fill="#1D262D" fill-opacity="0.16" stroke="#4F46E5"/>
<path d="M497.285 150.795C494.136 150.795 491.585 148.245 491.585 145.1C491.585 141.955 494.136 139.405 497.285 139.405C500.433 139.405 502.985 141.955 502.985 145.1C502.985 148.245 500.433 150.795 497.285 150.795Z" fill="#FFD2A4" fill-opacity="0.27" stroke="#4F46E5"/>
<path d="M464.053 150.795C460.905 150.795 458.353 148.245 458.353 145.1C458.353 141.955 460.905 139.405 464.053 139.405C467.202 139.405 469.753 141.955 469.753 145.1C469.753 148.245 467.202 150.795 464.053 150.795Z" fill="#FFD2A4" fill-opacity="0.27" stroke="#4F46E5"/>
<path d="M663.442 125.138C660.294 125.138 657.742 122.588 657.742 119.443C657.742 116.298 660.294 113.748 663.442 113.748C666.591 113.748 669.142 116.298 669.142 119.443C669.142 122.588 666.591 125.138 663.442 125.138Z" fill="#FFD2A4" fill-opacity="0.27" stroke="#4F46E5"/>
<path d="M624.51 119.443C624.51 116.306 627.056 113.748 630.211 113.748C633.351 113.748 635.911 116.293 635.911 119.443C635.911 122.595 633.366 125.138 630.211 125.138C627.07 125.138 624.51 122.594 624.51 119.443Z" fill="#1D262D" fill-opacity="0.16" stroke="#4F46E5"/>
<path d="M596.979 125.138C593.831 125.138 591.279 122.588 591.279 119.443C591.279 116.298 593.831 113.748 596.979 113.748C600.128 113.748 602.679 116.298 602.679 119.443C602.679 122.588 600.128 125.138 596.979 125.138Z" fill="#FFD2A4" fill-opacity="0.27" stroke="#4F46E5"/>
<path d="M557.547 119.443C557.547 122.865 560.323 125.638 563.747 125.638C567.172 125.638 569.948 122.865 569.948 119.443C569.948 116.022 567.172 113.248 563.747 113.248C560.323 113.248 557.547 116.022 557.547 119.443Z" stroke="#4F46E5" stroke-miterlimit="10"/>
<path d="M524.831 119.443C524.831 116.306 527.377 113.748 530.531 113.748C533.672 113.748 536.231 116.293 536.231 119.443C536.231 122.595 533.686 125.138 530.531 125.138C527.376 125.138 524.831 122.595 524.831 119.443Z" fill="#FFD2A4" fill-opacity="0.27" stroke="#4F46E5"/>
<path d="M497.285 125.138C494.136 125.138 491.585 122.588 491.585 119.443C491.585 116.298 494.136 113.748 497.285 113.748C500.433 113.748 502.985 116.298 502.985 119.443C502.985 122.588 500.433 125.138 497.285 125.138Z" fill="#FFD2A4" fill-opacity="0.27" stroke="#4F46E5"/>
<path d="M464.053 125.138C460.905 125.138 458.353 122.588 458.353 119.443C458.353 116.298 460.905 113.748 464.053 113.748C467.202 113.748 469.753 116.298 469.753 119.443C469.753 122.588 467.202 125.138 464.053 125.138Z" fill="#FFD2A4" fill-opacity="0.27" stroke="#4F46E5"/>
<path d="M657.242 93.802C657.242 97.2235 660.018 99.9971 663.442 99.9971C666.866 99.9971 669.642 97.2235 669.642 93.802C669.642 90.3806 666.866 87.6069 663.442 87.6069C660.018 87.6069 657.242 90.3806 657.242 93.802Z" stroke="#4F46E5" stroke-miterlimit="10"/>
<path d="M624.51 93.802C624.51 90.6651 627.056 88.1069 630.211 88.1069C633.351 88.1069 635.911 90.6513 635.911 93.802C635.911 96.939 633.365 99.4971 630.211 99.4971C627.071 99.4971 624.51 96.9382 624.51 93.802Z" fill="#FFD2A4" fill-opacity="0.27" stroke="#4F46E5"/>
<path d="M596.979 99.4971C593.831 99.4971 591.279 96.947 591.279 93.802C591.279 90.6571 593.831 88.1069 596.979 88.1069C600.128 88.1069 602.679 90.6571 602.679 93.802C602.679 96.947 600.128 99.4971 596.979 99.4971Z" fill="#FFD2A4" fill-opacity="0.27" stroke="#4F46E5"/>
<path d="M563.748 99.4971C560.599 99.4971 558.048 96.947 558.048 93.802C558.048 90.6571 560.599 88.1069 563.748 88.1069C566.896 88.1069 569.448 90.6571 569.448 93.802C569.448 96.947 566.896 99.4971 563.748 99.4971Z" fill="#FFD2A4" fill-opacity="0.27" stroke="#4F46E5"/>
<path d="M524.831 93.802C524.831 90.6651 527.377 88.1069 530.531 88.1069C533.672 88.1069 536.231 90.6513 536.231 93.802C536.231 96.939 533.685 99.4971 530.531 99.4971C527.377 99.4971 524.831 96.939 524.831 93.802Z" fill="#FFD2A4" fill-opacity="0.27" stroke="#4F46E5"/>
<path d="M497.285 99.4971C494.136 99.4971 491.585 96.947 491.585 93.802C491.585 90.6571 494.136 88.1069 497.285 88.1069C500.433 88.1069 502.985 90.6571 502.985 93.802C502.985 96.947 500.433 99.4971 497.285 99.4971Z" fill="#FFD2A4" fill-opacity="0.27" stroke="#4F46E5"/>
<path d="M464.053 99.4971C460.905 99.4971 458.353 96.947 458.353 93.802C458.353 90.6571 460.905 88.1069 464.053 88.1069C467.202 88.1069 469.753 90.6571 469.753 93.802C469.753 96.947 467.202 99.4971 464.053 99.4971Z" fill="#FFD2A4" fill-opacity="0.27" stroke="#4F46E5"/>
<path d="M584 228.5L616 247L648 228.5V191.5L616 173L584 191.5V228.5Z" fill="#4F46E5"/>
<path d="M35.126 311V291.382H27.204V287.03H48.318V291.382H40.396V311H35.126ZM55.789 311.374C53.9983 311.374 52.4343 311.023 51.097 310.32C49.7823 309.595 48.7623 308.586 48.037 307.294C47.3116 305.979 46.949 304.427 46.949 302.636C46.949 300.868 47.3116 299.338 48.037 298.046C48.7623 296.731 49.7823 295.723 51.097 295.02C52.4343 294.317 53.9983 293.966 55.789 293.966C57.5796 293.966 59.1323 294.317 60.447 295.02C61.7843 295.723 62.8156 296.731 63.541 298.046C64.289 299.338 64.663 300.868 64.663 302.636C64.663 304.427 64.289 305.979 63.541 307.294C62.8156 308.586 61.7843 309.595 60.447 310.32C59.1323 311.023 57.5796 311.374 55.789 311.374ZM55.789 307.532C56.877 307.532 57.761 307.135 58.441 306.342C59.1436 305.549 59.495 304.313 59.495 302.636C59.495 300.981 59.1436 299.769 58.441 298.998C57.761 298.205 56.877 297.808 55.789 297.808C54.701 297.808 53.817 298.205 53.137 298.998C52.457 299.769 52.117 300.981 52.117 302.636C52.117 304.313 52.457 305.549 53.137 306.342C53.817 307.135 54.701 307.532 55.789 307.532ZM67.7865 311V287.03H72.9205V301.208H72.9885L79.1425 294.306H85.2285L78.1565 302.296L85.5685 311H79.3805L72.9885 303.792H72.9205V311H67.7865ZM95.1498 311.374C93.1778 311.374 91.4778 311.023 90.0498 310.32C88.6445 309.595 87.5565 308.586 86.7858 307.294C86.0378 305.979 85.6638 304.438 85.6638 302.67C85.6638 300.947 86.0265 299.44 86.7518 298.148C87.4998 296.833 88.5085 295.813 89.7778 295.088C91.0698 294.34 92.5545 293.966 94.2318 293.966C96.6571 293.966 98.5838 294.737 100.012 296.278C101.44 297.797 102.154 299.859 102.154 302.466V303.758H90.5598C90.7411 305.073 91.2171 306.036 91.9878 306.648C92.7811 307.237 93.8691 307.532 95.2518 307.532C96.1585 307.532 97.0765 307.396 98.0058 307.124C98.9351 306.852 99.7738 306.433 100.522 305.866L101.882 309.3C101.043 309.935 100.012 310.445 98.7878 310.83C97.5865 311.193 96.3738 311.374 95.1498 311.374ZM94.4358 297.366C93.3478 297.366 92.4638 297.695 91.7838 298.352C91.1265 299.009 90.7185 299.927 90.5598 301.106H97.9038C97.7678 298.613 96.6118 297.366 94.4358 297.366ZM105.14 311V294.306H110.172V296.754C110.739 295.847 111.498 295.156 112.45 294.68C113.402 294.204 114.467 293.966 115.646 293.966C117.618 293.966 119.091 294.544 120.066 295.7C121.041 296.833 121.528 298.59 121.528 300.97V311H116.394V301.208C116.394 300.052 116.179 299.225 115.748 298.726C115.317 298.205 114.683 297.944 113.844 297.944C112.756 297.944 111.883 298.284 111.226 298.964C110.591 299.644 110.274 300.551 110.274 301.684V311H105.14Z" fill="#4F46E5"/>
<path d="M154.202 120.57C154.001 120.684 153.8 120.799 153.599 120.914C151.62 122.061 149.669 123.209 147.689 124.357C146.857 124.844 146.025 125.418 145.165 125.877C145.165 126.68 145.079 127.512 145.021 128.287C144.992 129.062 144.964 129.808 144.964 130.554C144.964 135.086 144.935 139.619 144.935 144.152C144.935 146.677 144.935 149.202 144.906 151.726C144.906 154.94 144.878 158.124 144.878 161.337C148.32 159.329 151.734 157.349 155.177 155.341C157.185 154.194 159.165 153.017 161.173 151.87C161.259 151.812 161.374 151.755 161.46 151.698C162.206 151.181 163.095 150.751 163.927 150.263C164.788 149.775 165.649 149.259 166.509 148.771C166.854 148.57 167.227 148.37 167.571 148.169C167.6 148.14 167.628 148.14 167.657 148.111C169.723 146.906 171.788 145.702 173.854 144.497C174.399 144.181 174.915 143.837 175.461 143.55C175.461 142.345 175.461 141.14 175.461 139.935C175.461 136.894 175.489 133.853 175.489 130.812C175.489 129.836 175.403 128.832 175.489 127.914C175.489 127.799 175.489 127.685 175.489 127.541C175.489 126.394 175.489 125.246 175.489 124.127C175.489 120.914 175.518 117.701 175.518 114.487C175.518 112.422 175.518 110.385 175.547 108.319C171.932 110.442 168.202 112.479 164.587 114.574C161.145 116.553 157.673 118.561 154.202 120.57Z" fill="#4F46E5" fill-opacity="0.3"/>
<path d="M178.416 165.468C178.014 165.038 177.526 164.637 176.952 164.321C172.19 161.567 167.428 158.813 162.665 156.087C166.366 153.935 170.096 151.784 173.797 149.603C176.465 148.054 179.707 147.021 179.764 143.521C179.85 139.046 179.793 134.541 179.793 130.066C179.793 126.365 174.055 126.365 174.055 130.066C174.055 133.853 174.026 137.668 174.026 141.455C174.026 141.828 173.997 142.23 173.969 142.632C173.022 143.177 171.989 144.038 171.415 144.353C166.108 147.452 160.8 150.521 155.493 153.62C154.46 154.222 153.427 154.825 152.394 155.427C150.386 156.575 148.406 157.751 146.398 158.899C146.283 158.956 146.169 159.013 146.083 159.099C146.083 156.173 146.111 153.247 146.111 150.321C146.111 150.234 146.111 150.177 146.111 150.091C146.14 142.919 146.37 135.718 146.255 128.517C146.312 127.943 146.341 127.312 146.37 126.738C147.001 126.336 147.632 125.906 148.177 125.59C148.808 125.217 149.411 124.873 150.042 124.5C154.89 121.689 159.739 118.877 164.587 116.037C167.686 114.229 170.784 112.422 173.911 110.614C173.997 110.557 174.083 110.5 174.198 110.442C174.198 111.188 174.198 111.905 174.198 112.651C174.198 114.918 174.198 117.156 174.17 119.422C174.17 123.123 179.907 123.123 179.907 119.422C179.907 116.926 179.907 114.43 179.936 111.934C179.936 109.696 180.596 106.225 179.42 104.217C179.391 104.159 179.334 104.102 179.305 104.045C178.616 102.954 177.211 102.208 176.063 101.549C173.51 100.085 170.956 98.5936 168.403 97.1304C162.034 93.4582 155.665 89.7859 149.296 86.1137C147.804 85.253 146.312 84.1915 144.734 83.4743C142.439 82.4128 140.603 83.962 138.681 85.0809C134.693 87.4047 130.734 89.6999 126.746 92.0237C126.746 88.5236 126.775 84.9948 126.775 81.4947C126.775 79.1422 127.521 75.2978 126.287 73.1174C126.258 73.0887 126.258 73.06 126.23 73.0313C125.57 71.7403 123.963 71.0231 122.701 70.3058C116.733 66.8631 110.766 63.4204 104.799 59.9777C100.467 57.4817 96.1344 54.4406 91.6015 52.3463C89.5072 51.4282 88.0727 52.5184 86.38 53.4939C83.8267 54.957 81.302 56.4489 78.7487 57.912C72.3796 61.613 66.0106 65.3139 59.6415 69.0148C58.1784 69.8755 56.5718 70.6214 55.1947 71.5969C54.2766 72.2567 53.8176 73.0026 53.7028 73.7772C53.4733 74.3223 53.3299 74.9822 53.3299 75.6707C53.2151 81.1217 53.2438 86.5727 53.2725 92.0237C50.4896 90.4171 47.7354 88.8105 44.9526 87.2326C42.8296 85.9989 40.7065 84.5071 38.4688 83.4743C36.4031 82.5275 34.9687 83.589 33.2473 84.5931C30.694 86.0563 28.1693 87.5481 25.6159 89.0113C19.2469 92.7122 12.8778 96.4132 6.5088 100.114C5.04564 100.975 3.43904 101.721 2.06195 102.696C1.31602 103.241 0.885683 103.844 0.684857 104.446C0.254517 105.479 0.197138 106.799 0.197138 107.918C0.197138 110.787 0.168448 113.655 0.168448 116.524C0.139759 123.984 0.139759 131.443 0.11107 138.873C0.11107 140.623 -0.0610666 142.431 0.0823803 144.181C0.283206 146.648 2.37753 147.394 4.24234 148.484C8.57444 150.98 12.8778 153.562 17.1813 156.116C14.7713 157.522 12.3901 158.899 9.98022 160.304C8.43099 161.194 3.66855 163.202 1.51685 165.612C0.828304 166.042 0.340585 166.817 0.197138 168.079C-0.089756 170.575 0.168448 173.243 0.168448 175.768C0.168448 179.469 5.90632 179.469 5.90632 175.768C5.90632 174.706 5.90632 173.674 5.90632 172.612C6.48011 172.956 7.08259 173.301 7.65638 173.616C8.45968 174.075 9.23429 174.534 10.0376 174.993C15.3164 178.034 20.5953 181.076 25.8741 184.145C27.6529 185.178 29.4316 186.211 31.2104 187.244C32.0137 187.703 33.0178 188.477 33.9932 189.051C33.8785 191.748 34.0793 194.56 34.0793 197.228C34.0506 203.281 34.0506 209.335 34.0219 215.359C34.0219 217.339 34.0219 219.318 33.9932 221.298C33.8211 221.183 33.6203 221.097 33.4481 220.982C29.9767 218.974 26.5053 216.995 23.0626 214.986C19.3903 212.863 15.7181 210.74 12.0459 208.617C10.0663 207.47 7.94327 205.892 5.82026 204.888C5.82026 204.83 5.82026 204.802 5.82026 204.744C5.82026 202.793 5.82026 200.871 5.84895 198.92C5.84895 195.219 0.11107 195.219 0.11107 198.92C0.11107 201.359 -0.118445 203.912 0.0823803 206.351C0.254517 208.388 1.48816 209.105 3.03739 209.994C7.74244 212.72 12.4475 215.417 17.1239 218.142C22.3167 221.126 27.4807 224.138 32.6735 227.122C33.735 227.724 34.9113 228.643 36.1449 228.843C36.4318 228.901 36.69 228.901 36.9482 228.872C36.9769 228.872 37.0056 228.872 37.0343 228.872C38.3827 228.872 39.3868 228.097 40.5057 227.466C42.3132 226.405 44.1206 225.372 45.928 224.31C48.3666 222.905 50.8052 221.47 53.2438 220.064C53.1864 225.802 52.9282 231.598 53.2151 237.335C53.3299 239.544 54.707 240.262 56.3423 241.208C58.7522 242.586 61.1621 243.991 63.572 245.368C70.0558 249.098 76.5109 252.856 82.9947 256.586C84.6587 257.561 86.294 258.594 88.0153 259.484C88.5891 259.77 89.1342 259.914 89.6506 259.943C89.8228 259.971 89.9949 260 90.167 260C91.8023 260 93.4089 258.709 94.7573 257.934C97.5115 256.328 100.266 254.75 102.991 253.143C109.131 249.586 115.27 246 121.41 242.442C122.615 241.754 123.963 241.122 125.082 240.319C127.176 238.77 126.631 235.958 126.631 233.634C126.631 229.102 126.66 224.569 126.66 220.064C129.07 221.441 131.48 222.847 133.861 224.224C135.984 225.458 138.107 226.663 140.201 227.897C140.775 228.212 141.378 228.47 141.98 228.614C142.382 228.815 142.812 228.929 143.242 228.929C144.878 228.929 146.484 227.638 147.833 226.864C150.587 225.257 153.341 223.679 156.067 222.073C162.206 218.515 168.346 214.929 174.485 211.372C175.69 210.683 177.038 210.052 178.157 209.248C179.965 207.9 179.707 205.978 179.707 203.998C179.735 197.256 179.735 190.514 179.764 183.772C179.764 179.957 179.793 176.17 179.793 172.354C179.793 170.575 180.223 168.079 179.276 166.444C179.133 166.042 178.789 165.698 178.416 165.468ZM125.225 99.5403C129.5 97.0443 133.775 94.577 138.05 92.0811C139.312 91.3351 140.574 90.6179 141.837 89.872C142.009 89.7572 142.583 89.5277 143.128 89.2408C143.558 89.4703 143.988 89.6712 144.361 89.9007C150.157 93.2286 155.923 96.5853 161.718 99.9133C164.817 101.692 167.887 103.471 170.985 105.249C171.071 105.307 171.186 105.364 171.272 105.422C170.698 105.737 170.124 106.081 169.579 106.397C167.657 107.516 165.764 108.635 163.841 109.725C158.964 112.565 154.058 115.406 149.181 118.246C148.091 118.877 147.001 119.508 145.911 120.139C145.136 120.57 144.074 121.029 143.156 121.545C142.697 121.287 142.21 121.029 141.751 120.77C140.287 119.938 138.824 119.078 137.361 118.246C133.345 115.922 129.328 113.598 125.312 111.303C121.897 109.323 118.483 107.373 115.098 105.393C116.016 104.848 116.934 104.331 117.852 103.786C120.234 102.438 122.93 101.176 125.225 99.5403ZM126.717 136.722C126.717 136.607 126.689 136.521 126.66 136.406C126.66 136.377 126.631 136.32 126.631 136.291C126.603 136.148 126.545 136.005 126.516 135.861C126.516 135.832 126.488 135.804 126.488 135.775C126.43 135.603 126.344 135.459 126.258 135.287C126.258 135.287 126.258 135.287 126.258 135.259C126.144 135.029 126 134.828 125.857 134.627C125.828 134.599 125.828 134.57 125.799 134.541C125.197 133.767 124.193 133.336 123.361 132.849C121.811 131.959 120.262 131.07 118.713 130.152C116.533 128.89 114.381 127.656 112.2 126.394C112.2 124.701 112.2 122.98 112.229 121.287C112.287 120.57 112.229 119.824 112.229 119.049C112.229 116.352 112.258 113.655 112.258 110.959C112.258 110.758 112.258 110.557 112.258 110.356C120.693 115.233 129.156 120.111 137.591 124.988C138.423 125.476 139.427 126.279 140.431 126.824C140.431 127.283 140.46 127.771 140.46 128.201C140.431 134.771 140.431 141.341 140.402 147.882C140.402 151.583 140.373 155.312 140.373 159.013C138.136 157.722 135.898 156.431 133.66 155.14C131.365 153.821 129.07 152.501 126.775 151.181C126.775 148.857 126.775 146.505 126.803 144.181C126.803 142.66 126.803 141.14 126.803 139.619C126.746 138.701 126.861 137.697 126.717 136.722ZM120.951 162.227C120.951 165.009 120.922 167.792 120.922 170.575C120.922 171.694 120.922 172.784 120.922 173.903C120.434 174.19 119.947 174.506 119.459 174.793C117.565 175.883 115.672 177.002 113.778 178.092C113.75 178.121 113.721 178.121 113.692 178.149C113.377 178.35 113.061 178.522 112.717 178.723C111.942 179.182 111.139 179.641 110.364 180.1C109.618 180.53 108.786 180.932 108.098 181.42C108.012 181.477 107.926 181.535 107.84 181.563C106.004 182.625 104.196 183.686 102.36 184.748C99.2329 186.584 96.077 188.391 92.9499 190.227C92.9499 187.301 92.9786 184.375 92.9786 181.448C92.9786 179.153 92.9786 176.829 93.0073 174.534C93.0073 170.403 93.036 166.243 93.036 162.112C93.036 161.423 93.0647 160.735 93.0934 160.046C93.1507 159.358 93.2368 158.583 93.2368 157.866C94.0114 157.435 94.786 156.919 95.532 156.46C97.3394 155.399 99.1468 154.366 100.954 153.304C101.155 153.189 101.327 153.075 101.528 152.989C104.684 151.152 107.868 149.316 111.024 147.452C114.352 145.529 117.738 143.693 121.037 141.742C121.037 143.636 121.037 145.501 121.008 147.394C121.008 150.321 120.979 153.276 120.979 156.202C120.979 157.235 120.979 158.296 120.979 159.329C120.979 159.444 120.979 159.558 120.979 159.645C120.893 160.419 120.951 161.337 120.951 162.227ZM53.3299 137.267C53.3299 137.468 53.3299 137.64 53.3299 137.841C53.3299 138.013 53.3299 138.185 53.3299 138.386C53.3299 139.189 53.3299 139.992 53.3299 140.767C53.3299 144.267 53.3012 147.767 53.3012 151.239C51.9528 152.013 50.6044 152.816 49.2273 153.591C48.051 154.28 46.9035 154.939 45.7272 155.628C43.7476 156.776 41.7681 157.923 39.8172 159.071C39.8172 156.144 39.8459 153.218 39.8459 150.292C39.8746 143.464 39.8745 136.607 39.9032 129.779C39.9032 128.947 40.0754 127.742 40.0754 126.68C40.85 126.25 41.6246 125.734 42.3705 125.275C47.592 122.234 52.8422 119.193 58.0636 116.151C59.1825 115.492 60.3014 114.86 61.3916 114.201C63.1703 113.168 64.9778 112.106 66.7565 111.073C67.0721 110.901 67.445 110.7 67.8467 110.5C67.8467 113.11 67.818 115.75 67.818 118.361C67.818 121.057 67.7893 123.783 67.7893 126.48C65.3794 127.885 62.9408 129.291 60.5309 130.697C59.2399 131.443 56.9734 132.39 55.3668 133.681C55.0225 133.824 54.707 134.054 54.4201 134.369C54.1619 134.627 53.9897 134.943 53.875 135.259C53.6741 135.517 53.502 135.832 53.4159 136.205C53.3299 136.578 53.3012 136.923 53.3299 137.267ZM58.9817 171.006C58.9817 169.858 58.9817 168.71 58.9817 167.563C58.9817 165.928 58.9817 164.292 58.9817 162.657C58.9817 159.53 59.0104 156.403 59.0104 153.276C59.0104 153.103 59.0104 152.903 59.0104 152.73C59.1538 151.239 59.0104 149.689 59.0104 148.197C59.0104 147.939 59.0104 147.71 59.0104 147.452C59.0104 146.935 59.0104 146.419 59.0104 145.902C59.0104 145.443 59.0104 144.956 59.0104 144.497C59.0104 143.521 59.0104 142.517 59.0104 141.542C59.7276 141.972 60.4448 142.374 61.1621 142.804C62.9408 143.837 64.7482 144.87 66.527 145.902C72.2075 149.173 77.9167 152.472 83.5972 155.743C84.0275 156.001 84.4865 156.259 84.9169 156.546C85.6054 157.005 86.4087 157.579 87.1833 158.009C87.1833 158.468 87.212 158.956 87.212 159.386C87.1833 165.956 87.1833 172.526 87.1547 179.067C87.1547 182.768 87.126 186.498 87.126 190.199C85.9784 189.539 84.8308 188.879 83.6832 188.219C81.6463 187.043 79.6093 185.867 77.5724 184.69C75.765 183.629 73.9288 182.596 72.1214 181.535C68.4779 179.44 64.8343 177.317 61.1621 175.223C60.9899 175.108 60.8178 175.022 60.617 174.907C60.1006 174.62 59.5268 174.161 58.9243 173.817C58.9243 173.588 58.9243 173.358 58.9243 173.157C58.9817 172.44 58.9817 171.723 58.9817 171.006ZM73.7854 143.378C73.4985 143.206 73.2116 143.062 72.9247 142.89C69.3099 140.796 65.695 138.558 62.0514 136.492C62.9408 135.976 63.8302 135.459 64.6909 134.943C67.1295 133.537 69.7976 132.275 72.0927 130.64C72.1214 130.64 72.1214 130.611 72.1501 130.611C72.4944 130.41 72.8673 130.209 73.2116 129.98C76.683 127.971 80.1544 125.935 83.6259 123.926C85.1751 123.008 86.753 122.119 88.3022 121.201C88.7613 120.943 89.4498 120.656 90.0523 120.311C94.1549 122.664 98.2574 125.045 102.331 127.398C103.594 128.115 104.827 128.832 106.09 129.578C106.606 129.865 107.122 130.181 107.639 130.467C107.668 130.496 107.696 130.496 107.725 130.525C107.754 130.525 107.782 130.554 107.782 130.554C110.164 131.931 112.516 133.308 114.897 134.656C115.93 135.259 116.992 135.861 118.024 136.464C117.422 136.865 116.877 137.238 116.36 137.525C113.692 139.074 111.053 140.623 108.385 142.144C106.864 143.033 105.315 143.923 103.795 144.812C101.614 146.074 99.4624 147.337 97.282 148.599C96.9951 148.771 96.6795 148.943 96.3926 149.116C95.5893 149.575 94.7573 150.062 93.954 150.521C92.7778 151.21 91.2859 151.841 89.9662 152.644C89.5072 152.386 89.0195 152.128 88.5604 151.87C83.6832 149.087 78.72 146.218 73.7854 143.378ZM120.979 85.9129C120.979 89.0687 120.951 92.2245 120.951 95.3803C117.881 97.1304 114.754 98.8231 111.713 100.631C110.594 101.204 109.36 101.893 108.413 102.667C107.84 103.04 107.409 103.528 107.122 104.073C106.95 104.36 106.836 104.647 106.721 104.991C106.004 107.086 106.434 110.184 106.434 111.963C106.434 114.688 106.405 117.414 106.405 120.139C105.545 120.656 104.655 121.143 103.795 121.66C100.237 119.594 96.6508 117.557 93.0934 115.492C93.036 115.463 93.0073 115.434 92.9499 115.406C92.9499 111.819 92.9786 108.233 92.9786 104.618C92.9786 103.327 92.9786 102.008 92.9786 100.717C92.9786 99.6551 92.9786 98.5649 92.9786 97.5034C92.9786 96.9583 93.0073 96.4132 93.0073 95.8394C93.0073 95.8107 93.0073 95.7533 93.0073 95.7246C93.6098 95.323 94.2409 94.8639 94.4418 94.7205C97.1386 93.1713 99.8067 91.5934 102.503 90.0441C106.75 87.5768 111.024 85.0809 115.27 82.6136C117.164 81.5234 119.029 80.4332 120.922 79.3143C121.008 81.5234 121.008 83.7325 120.979 85.9129ZM69.3959 70.0189C75.3633 66.5475 81.3594 63.0761 87.3268 59.6047C88.1014 59.1744 89.1629 58.7153 90.081 58.1989C90.54 58.4571 91.0277 58.7153 91.4867 58.9735C97.1959 62.2728 102.905 65.5721 108.614 68.8714C111.713 70.6501 114.783 72.4288 117.881 74.2076C117.967 74.265 118.082 74.3223 118.168 74.3797C117.766 74.6092 117.365 74.8388 116.963 75.097C113.119 77.3347 109.303 79.5438 105.458 81.7816C103.364 82.9865 101.299 84.1915 99.2042 85.4251C96.2492 87.1465 93.036 88.6957 90.1384 90.5892C88.8186 89.7859 87.4129 89.0974 86.0931 88.3515C82.3062 86.1711 78.5191 83.9907 74.7608 81.8103C71.5189 79.9455 68.277 78.0807 65.0638 76.2158C64.031 75.6134 62.9982 75.0109 61.9654 74.4084C64.4327 72.8879 66.8999 71.4534 69.3959 70.0189ZM59.0677 85.8842C59.0677 83.7038 59.0677 81.4947 59.0964 79.3143C66.5557 83.6464 73.9862 88.0933 81.5028 92.3393C83.3677 93.4869 85.2325 94.6631 87.1547 95.5812C87.0112 97.5894 87.2981 99.7698 87.2981 101.319C87.2981 105.881 87.2694 110.442 87.2694 115.004C85.5767 115.865 83.9128 117.127 82.8226 117.787C80.6135 119.049 78.4331 120.34 76.224 121.602C75.3633 121.115 74.5026 120.598 73.642 120.111C73.642 119.881 73.642 119.652 73.642 119.422C73.642 117.328 73.642 115.205 73.6707 113.11C73.6707 111.418 73.6706 109.725 73.6993 108.004C73.6993 107.315 73.7567 106.627 73.6993 105.967C73.6993 105.881 73.6707 105.795 73.6707 105.737C73.6707 105.68 73.6706 105.622 73.642 105.565C73.6133 105.422 73.5846 105.307 73.5559 105.163C73.5559 105.135 73.5559 105.135 73.5559 105.106C73.5272 104.963 73.4698 104.819 73.4124 104.676V104.647C73.3551 104.504 73.269 104.36 73.1829 104.188C73.0969 104.045 72.9821 103.901 72.8673 103.758C72.3796 103.069 71.6337 102.467 70.8304 101.95C69.3099 100.946 67.5024 100.143 66.3835 99.5116C63.9449 98.1058 61.5063 96.7001 59.0677 95.2943C59.0391 92.1958 59.0391 89.04 59.0677 85.8842ZM16.2632 101.118C22.2306 97.6468 28.2267 94.1754 34.1941 90.704C34.9687 90.2449 36.0589 89.8146 36.9769 89.2695C37.9811 89.8433 38.9852 90.4171 39.9893 91.0196C44.8952 93.8598 49.7724 96.6714 54.6783 99.5116C57.0595 100.889 59.412 102.266 61.7932 103.614C62.8261 104.217 63.8876 104.819 64.9204 105.422C64.3179 105.823 63.7728 106.196 63.2564 106.483C61.2768 107.631 59.2973 108.778 57.3177 109.926C56.6292 110.328 55.9693 110.7 55.2808 111.102C52.8708 112.508 50.4609 113.885 48.051 115.291C45.6411 116.697 43.2312 118.102 40.8213 119.479C39.645 120.168 38.1819 120.799 36.8622 121.574C36.2597 121.258 35.6572 120.971 35.1695 120.684C34.8826 120.512 34.6244 120.369 34.3375 120.197C33.8498 119.91 33.3908 119.652 32.903 119.365C29.116 117.184 25.329 115.004 21.5707 112.823C17.7837 110.643 13.9967 108.463 10.2384 106.282C9.86546 106.053 9.4925 105.852 9.09085 105.622C8.97609 105.565 8.86133 105.479 8.74657 105.422C11.2999 103.987 13.7959 102.553 16.2632 101.118ZM10.7261 145.615C9.23429 144.755 7.57031 143.435 5.90632 142.632C5.90632 142.144 5.84895 141.685 5.84895 141.226C5.87764 134.656 5.87764 128.086 5.90632 121.545C5.90632 117.959 5.93501 114.373 5.93501 110.787C5.93501 110.672 5.93501 110.557 5.93501 110.442C14.6566 115.52 23.3495 120.713 32.1858 125.648C32.7883 126.078 33.4768 126.537 34.1367 126.91C34.1367 127.369 34.1654 127.857 34.1654 128.287C34.1367 134.857 34.1367 141.427 34.108 147.968C34.108 151.669 34.0793 155.399 34.0793 159.099C33.1325 158.554 32.2145 158.009 31.2677 157.464C29.03 156.173 26.7635 154.882 24.5257 153.562C19.9354 150.923 15.3164 148.255 10.7261 145.615ZM37.0343 183.944C36.9482 183.887 36.8622 183.858 36.7761 183.801C35.5138 183.055 34.2514 182.338 32.9604 181.592C29.1734 179.412 25.3864 177.231 21.6281 175.051C17.8411 172.87 14.0541 170.69 10.2958 168.51C9.80808 168.223 9.32036 167.936 8.80395 167.649C10.7835 166.501 12.7344 165.354 14.714 164.235C17.4395 162.657 20.1649 161.079 22.8617 159.501C26.6487 161.71 30.4644 163.862 34.3088 165.899C34.4809 165.985 34.6531 166.1 34.8252 166.186C34.8826 166.214 34.94 166.243 34.9974 166.272C35.026 166.3 35.0834 166.3 35.1121 166.329C35.1695 166.358 35.2269 166.387 35.2843 166.387C35.6859 166.53 36.0876 166.645 36.4892 166.673C36.6613 166.702 36.8335 166.731 37.0343 166.731C37.2064 166.731 37.4073 166.702 37.5794 166.673C37.6081 166.673 37.6368 166.673 37.6368 166.673C37.7802 166.645 37.9524 166.616 38.0958 166.559C38.1245 166.559 38.1532 166.53 38.1819 166.53C38.2679 166.501 38.3827 166.473 38.4688 166.415C39.3868 166.071 40.2475 165.44 41.0795 164.981C42.5714 164.12 44.0345 163.259 45.5264 162.399C47.2477 161.395 48.9691 160.39 50.6904 159.415C51.5511 159.903 52.4118 160.419 53.2725 160.907C53.2725 163.604 53.2438 166.3 53.2438 168.997C53.2438 170.575 52.9282 172.698 53.1577 174.592C50.174 176.313 47.219 178.063 44.2353 179.784C44.0919 179.871 43.9484 179.957 43.7763 180.043C41.7107 181.248 39.645 182.453 37.5794 183.658C37.4073 183.744 37.2064 183.83 37.0343 183.944ZM54.8504 196.396C54.334 196.74 53.961 197.285 53.7315 197.945C53.7028 198.002 53.6741 198.06 53.6741 198.117C52.8422 200.211 53.3299 203.453 53.3012 205.261C53.3012 206.15 53.3012 207.039 53.3012 207.9C53.3012 209.736 53.3012 211.572 53.2725 213.437C50.6044 214.986 47.9363 216.536 45.2682 218.085C43.432 219.146 41.6246 220.208 39.7885 221.269C39.8172 213.81 39.8172 206.351 39.8459 198.892C39.8459 196.683 39.8459 194.473 39.8745 192.293C39.8745 191.576 39.9319 190.83 39.9606 190.055C40.1901 189.854 40.3336 189.424 40.2475 188.707C45.6985 185.522 51.1782 182.367 56.6292 179.182C58.7235 180.387 60.8178 181.592 62.8834 182.797C64.5187 183.744 66.1827 184.69 67.818 185.637C67.818 186.641 67.818 187.645 67.818 188.678C67.5598 188.822 67.3016 188.965 67.0434 189.109C64.8917 190.371 62.7113 191.633 60.5596 192.896C59.1538 193.756 56.4283 194.846 54.8504 196.396ZM87.2407 241.754C87.2407 244.02 87.2407 246.315 87.212 248.582C87.212 249.385 87.212 250.217 87.212 251.02C87.212 251.479 87.212 251.938 87.212 252.426C84.7734 251.02 82.3348 249.614 79.8676 248.18C73.8715 244.709 67.8754 241.266 61.8793 237.794C61.076 237.335 60.0432 236.503 59.0391 235.958C59.0677 234.954 58.9817 233.893 59.0104 232.889C59.0391 227.007 59.0391 221.097 59.0677 215.216C59.0677 215.13 59.0677 215.015 59.0677 214.929C59.2112 213.437 59.0677 211.888 59.0677 210.396C59.0677 210.339 59.0677 210.281 59.0677 210.224C59.0677 209.507 59.0677 208.789 59.0677 208.101C59.0677 206.638 59.0677 205.175 59.0677 203.74C59.5555 204.027 60.0432 204.314 60.5309 204.572C64.3179 206.753 68.1049 208.933 71.8632 211.113C72.9247 211.716 73.9862 212.347 75.0477 212.949C76.3674 213.724 77.7159 214.499 79.0356 215.245C81.7324 216.794 84.4292 218.659 87.2407 220.093C87.2407 220.523 87.2694 220.925 87.2694 221.298C87.2694 228.126 87.2407 234.925 87.2407 241.754ZM90.0523 214.929C89.5646 214.671 89.0481 214.413 88.6178 214.154C85.8349 212.548 83.0234 210.912 80.2405 209.306C74.1584 205.777 68.0475 202.277 61.9654 198.748C62.0514 198.691 62.1375 198.662 62.2236 198.605C62.2523 198.576 62.3096 198.547 62.3383 198.519C64.7769 197.113 67.2155 195.678 69.6541 194.273C70.4001 193.842 71.232 193.441 71.9206 192.953C72.0067 192.896 72.0927 192.838 72.1788 192.809C73.5272 192.035 74.8756 191.26 76.224 190.457C78.72 191.891 81.2446 193.355 83.7406 194.789C85.1464 195.592 86.5522 196.482 87.9866 197.256C88.2735 197.486 88.6465 197.658 89.0481 197.715C89.3924 197.801 89.708 197.801 90.0236 197.773C90.0523 197.773 90.1097 197.773 90.1384 197.773C90.4826 197.83 90.8556 197.801 91.2285 197.687C91.4007 197.629 91.5728 197.572 91.7163 197.515C93.7819 196.826 95.9623 195.047 97.5689 194.1C99.6632 192.896 101.758 191.662 103.823 190.457C105.172 191.232 106.491 192.006 107.84 192.781C110.221 194.158 112.573 195.535 114.955 196.883C115.041 196.941 115.127 196.998 115.213 197.027C116.131 197.543 117.02 198.088 117.938 198.605C118.024 198.662 118.082 198.691 118.168 198.748C109.877 203.568 101.585 208.388 93.2942 213.208C92.4048 213.753 91.1712 214.269 90.0523 214.929ZM121.008 206.695C121.008 209.449 120.979 212.204 120.979 214.958C120.951 220.093 120.951 225.228 120.922 230.335C120.922 231.798 120.922 233.262 120.922 234.725C120.922 234.925 120.836 235.528 120.807 236.13C120.377 236.389 119.947 236.676 119.545 236.905C113.864 240.204 108.184 243.504 102.532 246.803C99.4337 248.61 96.3353 250.418 93.2081 252.225C93.1507 252.254 93.0934 252.283 93.036 252.34C93.2368 242.499 93.0647 232.602 93.036 222.761C93.0647 221.958 93.2081 220.925 93.2081 220.007C93.9827 219.577 94.7573 219.06 95.5033 218.601C97.0238 217.712 98.5157 216.851 100.036 215.962C100.581 215.646 101.098 215.331 101.643 215.015C104.827 213.15 108.012 211.314 111.196 209.449C113.893 207.871 116.59 206.322 119.315 204.744C119.746 204.486 120.348 204.199 121.008 203.855C121.008 204.802 121.008 205.748 121.008 206.695ZM140.345 210.626C140.345 212.892 140.345 215.187 140.316 217.454C140.316 218.257 140.316 219.089 140.316 219.892C140.316 220.351 140.316 220.81 140.316 221.298C138.48 220.237 136.615 219.175 134.779 218.085C132.111 216.536 129.414 214.986 126.746 213.437C126.746 211.343 126.746 209.248 126.775 207.154C126.775 205.175 126.775 203.166 126.803 201.187C126.803 200.527 126.832 199.896 126.803 199.265C126.803 199.179 126.775 199.121 126.775 199.035C126.775 198.978 126.775 198.92 126.746 198.834C126.717 198.719 126.689 198.605 126.66 198.49C126.66 198.461 126.66 198.433 126.631 198.404C126.603 198.26 126.545 198.146 126.488 198.031C126.488 198.002 126.488 198.002 126.459 197.974C126.402 197.83 126.344 197.687 126.258 197.543C126.258 197.543 126.258 197.543 126.258 197.515C126.029 197.027 125.684 196.625 125.283 196.31C125.111 196.166 124.939 196.051 124.766 195.908C122.471 194.445 120.033 193.182 117.68 191.805C115.844 190.744 114.008 189.682 112.2 188.65C112.2 187.645 112.2 186.641 112.2 185.608C113.692 184.748 115.213 183.858 116.705 182.998C117.422 182.567 118.139 182.166 118.856 181.735C120.377 180.846 121.926 179.957 123.447 179.067C128.553 182.022 133.689 184.977 138.796 187.932C139.341 188.248 139.857 188.592 140.402 188.908C140.402 189.367 140.431 189.797 140.431 190.17C140.373 197.027 140.373 203.826 140.345 210.626ZM143.214 183.887C142.869 183.715 142.554 183.543 142.238 183.371C140.546 182.395 138.853 181.42 137.16 180.444C133.689 178.436 130.217 176.428 126.746 174.448C126.918 172.555 126.631 170.46 126.66 169.026C126.66 166.329 126.689 163.632 126.689 160.936C127.549 160.448 128.381 159.96 129.242 159.444C132.828 161.595 136.443 163.718 140.115 165.669C140.431 165.841 140.746 166.014 141.091 166.186C141.55 166.415 142.009 166.559 142.496 166.616C142.755 166.702 143.013 166.731 143.3 166.731C143.415 166.731 143.558 166.731 143.673 166.702C143.73 166.702 143.787 166.702 143.845 166.673C143.902 166.673 143.96 166.645 144.017 166.645C144.103 166.616 144.218 166.616 144.304 166.587C144.39 166.559 144.476 166.53 144.562 166.501H144.591C145.681 166.128 146.714 165.354 147.661 164.809C149.066 163.977 150.472 163.173 151.878 162.341C153.571 161.366 155.235 160.39 156.927 159.415C159.739 161.022 162.522 162.657 165.333 164.264C167.313 165.411 169.292 166.559 171.272 167.706C163.44 172.268 155.608 176.801 147.775 181.362C147.23 181.678 146.714 181.994 146.169 182.28C145.251 182.797 144.16 183.285 143.214 183.887ZM174.112 180.989C174.083 187.875 174.083 194.76 174.055 201.646C174.055 202.105 173.825 203.826 173.825 205.089C173.424 205.318 173.051 205.605 172.678 205.806C166.997 209.105 161.317 212.404 155.665 215.704C152.566 217.511 149.468 219.318 146.341 221.126C146.283 221.155 146.226 221.183 146.169 221.212C146.14 219.749 146.054 218.257 146.083 216.851C146.083 215.388 146.083 213.954 146.083 212.49C146.083 211.085 146.083 209.679 146.083 208.273C146.083 205.089 146.111 201.904 146.111 198.719C146.111 196.424 146.14 194.129 146.14 191.863C146.14 191.031 146.312 189.912 146.312 188.908C147.775 188.104 149.181 187.158 150.587 186.326C155.235 183.629 159.882 180.932 164.53 178.235C166.911 176.858 169.292 175.452 171.674 174.075C172.477 173.616 173.309 173.157 174.112 172.698C174.112 175.452 174.112 178.235 174.112 180.989Z" fill="#4F46E5"/>
<path d="M5.9062 190.314C5.9062 188.535 5.93489 186.756 5.93489 184.977C5.96357 181.276 0.19701 181.276 0.19701 184.977C0.19701 186.756 0.16832 188.535 0.16832 190.314C0.139631 194.014 5.87751 194.014 5.9062 190.314Z" fill="#4F46E5"/>
<path d="M101.471 152.903C101.27 153.017 101.098 153.132 100.897 153.218C99.0895 154.28 97.2821 155.312 95.4746 156.374C94.7287 156.804 93.9541 157.321 93.1795 157.78C93.1795 158.497 93.0934 159.272 93.036 159.96C93.0073 160.649 92.9786 161.366 92.9786 162.026C92.9786 166.157 92.95 170.317 92.95 174.448C92.95 176.743 92.9499 179.067 92.9213 181.362C92.9213 184.289 92.8926 187.215 92.8926 190.141C96.0197 188.305 99.1755 186.498 102.303 184.662C104.139 183.6 105.946 182.539 107.782 181.477C107.868 181.42 107.954 181.362 108.041 181.334C108.729 180.846 109.532 180.473 110.307 180.014C111.082 179.555 111.885 179.096 112.66 178.637C112.975 178.436 113.291 178.264 113.635 178.063C113.664 178.034 113.692 178.034 113.721 178.006C115.615 176.916 117.508 175.797 119.402 174.706C119.889 174.42 120.377 174.104 120.865 173.817C120.865 172.698 120.865 171.608 120.865 170.489C120.865 167.706 120.893 164.923 120.893 162.141C120.893 161.251 120.836 160.333 120.893 159.472C120.893 159.358 120.893 159.243 120.893 159.157C120.893 158.124 120.893 157.063 120.893 156.03C120.893 153.103 120.922 150.148 120.922 147.222C120.922 145.329 120.922 143.464 120.951 141.57C117.623 143.521 114.237 145.357 110.938 147.279C107.811 149.23 104.655 151.066 101.471 152.903Z" fill="#4F46E5" fill-opacity="0.3"/>
<path d="M61.4202 114.201C60.3014 114.86 59.1825 115.492 58.0923 116.151C52.8708 119.193 47.6206 122.234 42.3992 125.275C41.6533 125.705 40.8786 126.221 40.104 126.68C40.104 127.742 39.9319 128.918 39.9319 129.779C39.9032 136.607 39.9032 143.464 39.8745 150.292C39.8745 153.218 39.8458 156.144 39.8458 159.071C41.8254 157.923 43.805 156.776 45.7558 155.628C46.9321 154.939 48.0797 154.28 49.2559 153.591C50.6043 152.816 51.9527 152.013 53.3298 151.239C53.3298 147.738 53.3585 144.238 53.3585 140.767C53.3585 139.964 53.3585 139.16 53.3585 138.386C53.3585 138.214 53.3585 138.013 53.3585 137.841C53.3585 137.64 53.3585 137.468 53.3585 137.267C53.3298 136.923 53.3585 136.578 53.4733 136.205C53.5593 135.832 53.7315 135.517 53.9323 135.259C54.0471 134.943 54.2192 134.656 54.4774 134.369C54.7643 134.054 55.0799 133.824 55.4242 133.681C57.0308 132.39 59.2972 131.443 60.5882 130.697C62.9982 129.291 65.4367 127.885 67.8467 126.48C67.8467 123.783 67.8753 121.057 67.8753 118.361C67.8753 115.75 67.904 113.11 67.904 110.5C67.5024 110.7 67.1294 110.901 66.8138 111.073C65.0064 112.106 63.2277 113.168 61.4202 114.201Z" fill="#4F46E5" fill-opacity="0.3"/>
<path d="M102.59 90.044C99.8929 91.5933 97.2248 93.1712 94.528 94.7204C94.2985 94.8352 93.696 95.3229 93.0935 95.7245C93.0935 95.7532 93.0935 95.8106 93.0935 95.8393C93.0935 96.3844 93.0648 96.9582 93.0648 97.5033C93.0648 98.5648 93.0648 99.655 93.0648 100.716C93.0648 102.008 93.0648 103.327 93.0648 104.618C93.0648 108.204 93.0361 111.791 93.0361 115.405C93.0935 115.434 93.1222 115.463 93.1796 115.492C96.7371 117.557 100.323 119.594 103.881 121.66C104.741 121.143 105.631 120.656 106.491 120.139C106.491 117.414 106.52 114.688 106.52 111.963C106.52 110.213 106.09 107.086 106.807 104.991C106.893 104.647 107.037 104.36 107.209 104.073C107.496 103.528 107.955 103.069 108.5 102.667C109.446 101.864 110.68 101.204 111.799 100.63C114.84 98.823 117.967 97.1303 121.037 95.3803C121.037 92.2244 121.066 89.0686 121.066 85.9128C121.066 83.7324 121.066 81.5233 121.094 79.3429C119.201 80.4331 117.336 81.5233 115.443 82.6422C111.11 85.1095 106.836 87.5767 102.59 90.044Z" fill="#4F46E5" fill-opacity="0.3"/>
<path d="M111.197 209.449C108.012 211.314 104.827 213.15 101.643 215.015C101.098 215.331 100.581 215.646 100.036 215.962C98.5158 216.851 97.0239 217.712 95.5034 218.601C94.7575 219.032 93.9829 219.548 93.2083 220.007C93.2083 220.954 93.0648 221.958 93.0361 222.761C93.0648 232.602 93.237 242.5 93.0361 252.34C93.0935 252.311 93.1509 252.283 93.2083 252.225C96.3067 250.418 99.4052 248.61 102.532 246.803C108.213 243.504 113.893 240.204 119.545 236.905C119.947 236.676 120.377 236.389 120.807 236.131C120.836 235.528 120.922 234.926 120.922 234.725C120.922 233.262 120.922 231.798 120.922 230.335C120.951 225.2 120.951 220.064 120.98 214.958C120.98 212.204 121.008 209.449 121.008 206.695C121.008 205.749 121.008 204.83 121.008 203.884C120.348 204.199 119.775 204.515 119.316 204.773C116.619 206.322 113.922 207.9 111.197 209.449Z" fill="#4F46E5" fill-opacity="0.3"/>
<path d="M171.702 174.075C169.321 175.452 166.94 176.858 164.559 178.235C159.911 180.932 155.263 183.629 150.616 186.326C149.21 187.158 147.775 188.076 146.341 188.908C146.341 189.912 146.169 191.059 146.169 191.863C146.169 194.158 146.14 196.453 146.14 198.72C146.14 201.904 146.111 205.089 146.111 208.273C146.111 209.679 146.111 211.085 146.111 212.49C146.111 213.954 146.111 215.388 146.111 216.851C146.111 218.286 146.169 219.749 146.197 221.212C146.255 221.183 146.312 221.155 146.37 221.126C149.468 219.318 152.566 217.511 155.694 215.704C161.374 212.404 167.055 209.105 172.706 205.806C173.079 205.605 173.452 205.318 173.854 205.089C173.854 203.826 174.083 202.105 174.083 201.646C174.112 194.76 174.112 187.875 174.141 180.989C174.141 178.235 174.17 175.452 174.17 172.698C173.309 173.157 172.506 173.616 171.702 174.075Z" fill="#4F46E5" fill-opacity="0.3"/>
<path d="M56.6578 179.182C51.2068 182.367 45.7272 185.522 40.2762 188.707C40.3909 189.424 40.2475 189.855 39.9893 190.055C39.9606 190.801 39.9032 191.576 39.9032 192.293C39.9032 194.502 39.9032 196.711 39.8745 198.892C39.8458 206.351 39.8458 213.81 39.8171 221.269C41.6533 220.208 43.4607 219.146 45.2968 218.085C47.9649 216.536 50.633 214.986 53.3011 213.437C53.3011 211.601 53.3011 209.765 53.3298 207.9C53.3298 207.011 53.3298 206.121 53.3298 205.261C53.3298 203.453 52.8708 200.211 53.7028 198.117C53.7315 198.06 53.7315 198.002 53.7602 197.945C53.9897 197.285 54.334 196.74 54.8791 196.396C56.457 194.847 59.1538 193.756 60.6169 192.896C62.7686 191.633 64.949 190.371 67.1007 189.109C67.3589 188.965 67.6171 188.822 67.8754 188.678C67.8754 187.674 67.8754 186.67 67.8754 185.637C66.2401 184.69 64.5761 183.744 62.9408 182.797C60.8178 181.592 58.7234 180.387 56.6578 179.182Z" fill="#4F46E5" fill-opacity="0.3"/>
<path d="M866.631 242.686C866.473 242.686 866.314 242.527 866.314 242.369V228.106C866.314 227.947 866.473 227.789 866.631 227.789H906.093C906.252 227.789 906.41 227.947 906.41 228.106V242.369C906.41 242.527 906.252 242.686 906.093 242.686H866.631Z" fill="white"/>
<path d="M796.317 271.312C796.158 271.312 796 271.154 796 270.995V256.415C796 256.257 796.158 256.098 796.317 256.098H830.548C830.706 256.098 830.865 256.257 830.865 256.415V270.995C830.865 271.154 830.706 271.312 830.548 271.312H796.317Z" fill="#F8FAFC"/>
<path d="M813.328 215.669C813.169 215.669 813.011 215.669 812.852 215.512L797.005 206.161C796.529 205.844 796.054 205.21 796.054 204.576C796.054 203.943 796.371 203.307 796.846 202.991L812.694 193.165C813.169 192.848 813.645 193.006 813.962 193.482C814.279 193.958 814.12 194.433 813.645 194.75L797.796 204.576L813.645 213.927C814.12 214.244 814.279 214.719 813.962 215.195C813.962 215.512 813.645 215.669 813.328 215.669Z" fill="#4F46E5"/>
<path d="M840.328 215.669C840.009 215.669 839.692 215.512 839.535 215.195C839.218 214.719 839.376 214.244 839.852 213.927L855.699 204.576L839.852 194.75C839.376 194.433 839.218 193.958 839.535 193.482C839.852 193.006 840.328 192.848 840.802 193.165L856.651 202.991C857.125 203.307 857.442 203.943 857.442 204.576C857.442 205.21 857.125 205.844 856.492 206.161L840.644 215.512C840.644 215.669 840.485 215.669 840.328 215.669Z" fill="#4F46E5"/>
<path d="M822.145 215.564C821.986 215.564 821.828 215.564 821.828 215.564C821.352 215.406 821.195 214.773 821.352 214.296L830.545 193.534C830.703 193.06 831.336 192.901 831.812 193.06C832.287 193.218 832.446 193.853 832.287 194.327L823.096 215.089C822.937 215.406 822.62 215.564 822.145 215.564Z" fill="#4F46E5"/>
<path d="M857.702 243.907H797.322C796.688 243.907 796.054 243.431 796.054 242.638V228.374C796.054 227.741 796.53 227.107 797.322 227.107H857.702C858.336 227.107 858.97 227.583 858.97 228.374V242.638C858.812 243.272 858.336 243.907 857.702 243.907Z" fill="#4F46E5"/>
<path d="M920.731 272.19H839.273C838.639 272.19 838.005 271.716 838.005 270.923V256.342C838.005 255.708 838.481 255.075 839.273 255.075H920.731C921.365 255.075 921.999 255.549 921.999 256.342V270.923C921.841 271.716 921.365 272.19 920.731 272.19Z" fill="#4F46E5"/>
<path d="M857.702 300H797.322C796.688 300 796.054 299.524 796.054 298.731V284.31C796.054 283.676 796.529 283.042 797.322 283.042H857.702C858.336 283.042 858.97 283.517 858.97 284.31V298.731C858.81 299.524 858.336 300 857.702 300Z" fill="#4F46E5"/>
<path d="M508.277 164.581C507.709 164.581 507.14 164.014 507.14 163.444V148.275C507.14 147.705 507.709 147.137 508.277 147.137H523.448C524.017 147.137 524.586 147.705 524.586 148.275V163.444C524.586 164.014 524.017 164.581 523.448 164.581H508.277Z" fill="white"/>
<path d="M523.446 146H508.275C507.138 146 506 146.949 506 148.275V163.444C506 164.581 506.948 165.72 508.275 165.72H523.446C524.584 165.72 525.721 164.772 525.721 163.444V148.275C525.721 147.137 524.773 146 523.446 146ZM523.446 163.444H508.275V148.275H523.446V163.444Z" fill="#FC9D4F"/>
<path d="M506 156H205" stroke="#4F46E5" stroke-width="1.51"/>
<path d="M196.964 150.086C193.741 150.086 191.086 152.74 191.086 155.964C191.086 159.187 193.741 161.841 196.964 161.841C200.188 161.841 202.843 159.187 202.843 155.964C202.653 152.74 200.188 150.086 196.964 150.086ZM196.964 163.927C192.603 163.927 189 160.325 189 155.964C189 151.603 192.603 148 196.964 148C201.326 148 204.929 151.603 204.929 155.964C204.929 160.325 201.326 163.927 196.964 163.927Z" fill="#FC9D4F"/>
<path d="M715 57.8949H374V37.6685C374 37.3343 374.334 37 374.669 37H714.332C714.666 37 715 37.3343 715 37.6685V57.8949Z" fill="#CFDCF9"/>
<path d="M390.213 47.3635C390.213 49.0348 388.876 50.5397 387.037 50.5397C385.366 50.5397 383.861 49.2013 383.861 47.3635C383.861 45.6908 385.198 44.1873 387.037 44.1873C388.876 44.1873 390.213 45.5244 390.213 47.3635Z" fill="white"/>
<path d="M399.241 47.3635C399.241 49.0348 397.904 50.5397 396.066 50.5397C394.393 50.5397 392.89 49.2013 392.89 47.3635C392.89 45.6908 394.227 44.1873 396.066 44.1873C397.904 44.1873 399.241 45.5244 399.241 47.3635Z" fill="white"/>
<path d="M408.266 47.3635C408.266 49.0348 406.929 50.5397 405.09 50.5397C403.418 50.5397 401.914 49.2013 401.914 47.3635C401.914 45.6908 403.251 44.1873 405.09 44.1873C406.929 44.1873 408.266 45.5244 408.266 47.3635Z" fill="white"/>
<path d="M668.106 115.053C667.819 115.053 667.244 114.767 666.955 114.478C666.38 113.903 666.38 112.752 666.955 112.177L727.358 51.7747C727.933 51.1995 729.083 51.1995 729.661 51.7747C730.236 52.3499 730.236 53.5005 729.661 54.0757L669.256 114.478C668.97 114.767 668.394 115.053 668.106 115.053Z" fill="#4F46E5"/>
<path d="M656.604 117.641C656.604 122.531 660.63 126.558 665.52 126.558C670.41 126.558 674.437 122.531 674.437 117.641C674.437 112.753 670.41 108.724 665.52 108.724C660.63 108.724 656.604 112.753 656.604 117.641Z" fill="white"/>
<path d="M665.52 110.449C661.494 110.449 658.329 113.614 658.329 117.64C658.329 121.668 661.494 124.831 665.52 124.831C669.547 124.831 672.711 121.668 672.711 117.64C672.711 113.614 669.547 110.449 665.52 110.449ZM665.52 127.996C659.768 127.996 655.165 123.394 655.165 117.64C655.165 111.888 659.768 107.286 665.52 107.286C671.272 107.286 675.874 111.888 675.874 117.64C675.874 123.394 671.272 127.996 665.52 127.996Z" fill="#FFC24D"/>
<path d="M662.353 205.656C710.963 205.656 750.656 165.963 750.656 117.354C750.656 68.7436 710.963 29.0506 662.353 29.0506C613.744 29.0506 574.051 68.7436 574.051 117.354H545C545 52.6363 597.638 0 662.353 0C727.071 0 779.707 52.6363 779.707 117.354C779.707 182.071 727.071 234.707 662.353 234.707V205.656Z" fill="#4F46E5"/>
<path d="M779.499 117.854C779.23 181.9 727.19 233.937 663.147 234.207V206.156C711.638 205.885 751.178 166.345 751.448 117.854H779.499Z" fill="white" stroke="#4F46E5"/>
<path d="M854.786 123.004H809.215C802.402 123.004 797 117.601 797 110.789V65.2158C797 58.4024 802.402 53 809.215 53H854.786C861.598 53 867 58.4024 867 65.2158V110.789C867 117.367 861.363 123.004 854.786 123.004ZM809.215 55.1138C803.577 55.1138 799.114 59.5773 799.114 65.2158V110.789C799.114 116.426 803.577 120.89 809.215 120.89H854.786C860.423 120.89 864.886 116.426 864.886 110.789V65.2158C864.886 59.5773 860.423 55.1138 854.786 55.1138H809.215Z" fill="#4F46E5"/>
<path d="M848.491 82.3647C848.491 91.2918 841.208 98.5733 832.282 98.5733C823.356 98.5733 816.074 91.2918 816.074 82.3647C816.074 73.4389 823.356 66.156 832.282 66.156C841.208 66.156 848.491 73.4389 848.491 82.3647Z" fill="#4F46E5"/>
<path d="M846.612 102.567H817.719C809.497 102.567 802.92 109.145 802.92 117.366C802.92 119.951 805.035 121.83 807.383 121.83H861.41V117.366C861.41 109.145 854.833 102.567 846.612 102.567Z" fill="#4F46E5"/>
<path d="M512.786 314.004H467.215C460.402 314.004 455 308.601 455 301.789V256.216C455 249.402 460.402 244 467.215 244H512.786C519.598 244 525 249.402 525 256.216V301.789C525 308.367 519.363 314.004 512.786 314.004ZM467.215 246.114C461.577 246.114 457.114 250.577 457.114 256.216V301.789C457.114 307.426 461.577 311.89 467.215 311.89H512.786C518.423 311.89 522.886 307.426 522.886 301.789V256.216C522.886 250.577 518.423 246.114 512.786 246.114H467.215Z" fill="#4F46E5"/>
<path d="M506.491 273.365C506.491 282.292 499.208 289.573 490.282 289.573C481.356 289.573 474.074 282.292 474.074 273.365C474.074 264.439 481.356 257.156 490.282 257.156C499.208 257.156 506.491 264.439 506.491 273.365Z" fill="#4F46E5"/>
<path d="M504.612 293.567H475.719C467.497 293.567 460.92 300.145 460.92 308.366C460.92 310.951 463.035 312.83 465.383 312.83H519.41V308.366C519.41 300.145 512.833 293.567 504.612 293.567Z" fill="#4F46E5"/>
</svg>
