<svg width="36" height="42" viewBox="0 0 36 42" fill="none" xmlns="http://www.w3.org/2000/svg">
<path d="M35.6592 22.6643C35.5789 22.5783 35.4815 22.4981 35.3668 22.435C34.4149 21.8849 33.4631 21.3348 32.5112 20.7904C33.2509 20.3606 33.9964 19.9308 34.736 19.4953C35.2693 19.1859 35.9173 18.9796 35.9287 18.2805C35.9459 17.3865 35.9345 16.4869 35.9345 15.5929C35.9345 14.8537 34.7877 14.8537 34.7877 15.5929C34.7877 16.3493 34.7819 17.1115 34.7819 17.8679C34.7819 17.9424 34.7762 18.0226 34.7705 18.1028C34.5812 18.2117 34.3748 18.3836 34.2601 18.4467C33.1993 19.0655 32.1385 19.6787 31.0777 20.2976C30.8713 20.4179 30.6649 20.5383 30.4585 20.6586C30.0571 20.8878 29.6614 21.1228 29.26 21.352C29.2371 21.3634 29.2142 21.3749 29.197 21.3921C29.197 20.8076 29.2027 20.2231 29.2027 19.6386C29.2027 19.6214 29.2027 19.6099 29.2027 19.5927C29.2084 18.1601 29.2543 16.7218 29.2314 15.2835C29.2428 15.1689 29.2486 15.0428 29.2543 14.9282C29.3805 14.8479 29.5066 14.762 29.6156 14.699C29.7417 14.6245 29.8621 14.5557 29.9883 14.4812C30.9573 13.9196 31.9264 13.358 32.8954 12.7907C33.5147 12.4297 34.134 12.0687 34.759 11.7077C34.7762 11.6962 34.7934 11.6848 34.8163 11.6733C34.8163 11.8223 34.8163 11.9655 34.8163 12.1145C34.8163 12.5672 34.8163 13.0142 34.8106 13.4669C34.8106 14.2061 35.9574 14.2061 35.9574 13.4669C35.9574 12.9684 35.9574 12.4698 35.9631 11.9713C35.9631 11.5243 36.095 10.8309 35.8599 10.4298C35.8542 10.4183 35.8427 10.4069 35.837 10.3954C35.6994 10.1776 35.4184 10.0287 35.189 9.89686C34.6787 9.6046 34.1684 9.30662 33.6581 9.01437C32.3851 8.28088 31.1121 7.54738 29.8392 6.81388C29.541 6.64197 29.2428 6.42995 28.9275 6.28668C28.4687 6.07466 28.1018 6.3841 27.7176 6.60759C26.9206 7.07175 26.1293 7.53019 25.3322 7.99435C25.3322 7.29524 25.338 6.5904 25.338 5.89128C25.338 5.42139 25.487 4.65351 25.2405 4.218C25.2348 4.21227 25.2348 4.20654 25.229 4.20081C25.0971 3.94294 24.776 3.79968 24.5237 3.65642C23.3311 2.96876 22.1384 2.28111 20.9457 1.59346C20.0799 1.09491 19.214 0.487488 18.308 0.0691663C17.8895 -0.114207 17.6028 0.103549 17.2644 0.298384C16.7541 0.590636 16.2495 0.888618 15.7392 1.18087C14.4662 1.9201 13.1933 2.65932 11.9203 3.39855C11.6279 3.57046 11.3068 3.71945 11.0315 3.91429C10.8481 4.04609 10.7563 4.19508 10.7334 4.3498C10.6875 4.45868 10.6588 4.59048 10.6588 4.72801C10.6359 5.81679 10.6416 6.90557 10.6474 7.99435C10.0912 7.67345 9.5407 7.35255 8.9845 7.03737C8.56018 6.79096 8.13586 6.49298 7.6886 6.28668C7.27575 6.09758 6.98905 6.30961 6.64501 6.51017C6.13468 6.80242 5.63008 7.10041 5.11976 7.39266C3.8468 8.13188 2.57384 8.87111 1.30089 9.61033C1.00845 9.78225 0.687347 9.93124 0.412113 10.1261C0.263029 10.235 0.177018 10.3553 0.13688 10.4756C0.0508692 10.6819 0.0394012 10.9455 0.0394012 11.169C0.0394012 11.7421 0.0336671 12.3151 0.0336671 12.8881C0.0279331 14.3781 0.0279331 15.868 0.0221991 17.3521C0.0221991 17.7017 -0.0122051 18.0627 0.016465 18.4123C0.0566033 18.9051 0.475188 19.0541 0.8479 19.2718C1.71374 19.7704 2.57384 20.2861 3.43395 20.7961C2.95229 21.0769 2.47637 21.352 1.99471 21.6328C1.68507 21.8104 0.733219 22.2116 0.303167 22.6929C0.16555 22.7789 0.0680713 22.9336 0.0394012 23.1857C-0.0179392 23.6843 0.0336671 24.2172 0.0336671 24.7215C0.0336671 25.4607 1.18047 25.4607 1.18047 24.7215C1.18047 24.5095 1.18047 24.3032 1.18047 24.0911C1.29515 24.1599 1.41557 24.2287 1.53025 24.2917C1.6908 24.3834 1.84562 24.4751 2.00618 24.5668C3.06124 25.1742 4.1163 25.7816 5.17136 26.3948C5.52687 26.6011 5.88238 26.8074 6.23789 27.0137C6.39845 27.1053 6.59914 27.2601 6.79409 27.3747C6.77116 27.9133 6.8113 28.4749 6.8113 29.0078C6.80556 30.217 6.80556 31.4261 6.79983 32.6295C6.79983 33.0249 6.79983 33.4203 6.79409 33.8157C6.75969 33.7928 6.71955 33.7756 6.68515 33.7526C5.99133 33.3515 5.29751 32.9561 4.60943 32.555C3.87547 32.1309 3.14151 31.7069 2.40756 31.2828C2.01191 31.0536 1.58759 30.7384 1.16327 30.5379C1.16327 30.5264 1.16327 30.5207 1.16327 30.5092C1.16327 30.1196 1.16327 29.7356 1.16901 29.3459C1.16901 28.6067 0.0221991 28.6067 0.0221991 29.3459C0.0221991 29.833 -0.0236732 30.343 0.016465 30.8301C0.0508692 31.237 0.297433 31.3802 0.607071 31.5579C1.54745 32.1023 2.48783 32.6409 3.42248 33.1853C4.46034 33.7813 5.49247 34.383 6.53033 34.979C6.74249 35.0993 6.97758 35.2827 7.22415 35.3228C7.28149 35.3342 7.33309 35.3342 7.3847 35.3285C7.39043 35.3285 7.39617 35.3285 7.4019 35.3285C7.6714 35.3285 7.87209 35.1738 8.09572 35.0477C8.45696 34.8357 8.81821 34.6294 9.17945 34.4174C9.66685 34.1366 10.1542 33.8501 10.6416 33.5693C10.6302 34.7154 10.5786 35.8729 10.6359 37.019C10.6588 37.4602 10.9341 37.6035 11.2609 37.7926C11.7426 38.0677 12.2242 38.3484 12.7059 38.6235C14.0018 39.3685 15.2919 40.1192 16.5878 40.8641C16.9204 41.0589 17.2472 41.2652 17.5913 41.4429C17.706 41.5002 17.8149 41.5288 17.9181 41.5346C17.9525 41.5403 17.9869 41.546 18.0213 41.546C18.3482 41.546 18.6693 41.2882 18.9388 41.1334C19.4893 40.8125 20.0397 40.4974 20.5844 40.1765C21.8115 39.4659 23.0386 38.7496 24.2657 38.039C24.5065 37.9015 24.776 37.7754 24.9997 37.615C25.4182 37.3055 25.3093 36.7439 25.3093 36.2798C25.3093 35.3744 25.315 34.4689 25.315 33.5693C25.7967 33.8443 26.2783 34.1251 26.7543 34.4002C27.1786 34.6466 27.6029 34.8873 28.0215 35.1337C28.1362 35.1967 28.2566 35.2483 28.377 35.2769C28.4573 35.3171 28.5433 35.34 28.6293 35.34C28.9561 35.34 29.2772 35.0821 29.5467 34.9274C30.0972 34.6065 30.6477 34.2913 31.1924 33.9704C32.4195 33.2598 33.6466 32.5435 34.8737 31.8329C35.1145 31.6954 35.384 31.5693 35.6076 31.4089C35.9689 31.1396 35.9173 30.7556 35.9173 30.3602C35.923 29.0136 35.923 27.6669 35.9287 26.3203C35.9287 25.5581 35.9345 24.8017 35.9345 24.0396C35.9345 23.6843 36.0205 23.1857 35.8312 22.8591C35.8026 22.7789 35.7338 22.7101 35.6592 22.6643ZM25.0283 9.49573C25.8827 8.99718 26.7371 8.50436 27.5914 8.00581C27.8437 7.85682 28.096 7.71356 28.3483 7.56457C28.3827 7.54165 28.4974 7.49581 28.6064 7.4385C28.6924 7.48434 28.7784 7.52446 28.8529 7.5703C30.0112 8.23503 31.1637 8.90549 32.322 9.57022C32.9413 9.92551 33.5548 10.2808 34.1741 10.6361C34.1913 10.6475 34.2143 10.659 34.2315 10.6705C34.1168 10.7335 34.0021 10.8023 33.8931 10.8653C33.509 11.0888 33.1305 11.3123 32.7463 11.53C31.7716 12.0973 30.791 12.6647 29.8162 13.232C29.5984 13.358 29.3805 13.4841 29.1626 13.6102C29.0077 13.6961 28.7956 13.7878 28.6121 13.891C28.5204 13.8394 28.4229 13.7878 28.3311 13.7362C28.0387 13.5701 27.7463 13.3981 27.4538 13.232C26.6511 12.7678 25.8483 12.3036 25.0455 11.8452C24.3632 11.4498 23.6808 11.0601 23.0042 10.6647C23.1877 10.5559 23.3712 10.4527 23.5547 10.3438C24.0306 10.0745 24.5696 9.82236 25.0283 9.49573ZM25.3265 16.9224C25.3265 16.8994 25.3208 16.8823 25.315 16.8593C25.315 16.8536 25.3093 16.8421 25.3093 16.8364C25.3036 16.8078 25.2921 16.7791 25.2864 16.7505C25.2864 16.7447 25.2806 16.739 25.2806 16.7333C25.2692 16.6989 25.252 16.6702 25.2348 16.6358C25.2348 16.6358 25.2348 16.6358 25.2348 16.6301C25.2118 16.5843 25.1831 16.5442 25.1545 16.504C25.1487 16.4983 25.1487 16.4926 25.143 16.4869C25.0226 16.3321 24.8219 16.2462 24.6556 16.1488C24.346 15.9711 24.0363 15.7935 23.7267 15.6101C23.2909 15.358 22.8609 15.1115 22.4251 14.8594C22.4251 14.5213 22.4251 14.1775 22.4308 13.8394C22.4423 13.6961 22.4308 13.5471 22.4308 13.3924C22.4308 12.8538 22.4365 12.3151 22.4365 11.7764C22.4365 11.7363 22.4365 11.6962 22.4365 11.6561C24.1223 12.6303 25.8139 13.6044 27.4997 14.5786C27.666 14.676 27.8667 14.8365 28.0674 14.9454C28.0674 15.0371 28.0731 15.1345 28.0731 15.2204C28.0674 16.5327 28.0674 17.845 28.0616 19.1515C28.0616 19.8907 28.0559 20.6357 28.0559 21.3749C27.6086 21.117 27.1614 20.8592 26.7141 20.6013C26.2554 20.3377 25.7967 20.0741 25.338 19.8105C25.338 19.3463 25.338 18.8764 25.3437 18.4123C25.3437 18.1086 25.3437 17.8049 25.3437 17.5011C25.3322 17.3178 25.3552 17.1172 25.3265 16.9224ZM24.174 22.0167C24.174 22.5726 24.1682 23.1284 24.1682 23.6843C24.1682 23.9078 24.1682 24.1255 24.1682 24.349C24.0707 24.4063 23.9733 24.4693 23.8758 24.5266C23.4973 24.7444 23.1189 24.9679 22.7404 25.1856C22.7347 25.1914 22.729 25.1914 22.7232 25.1971C22.6602 25.2372 22.5971 25.2716 22.5283 25.3117C22.3735 25.4034 22.2129 25.4951 22.0581 25.5868C21.909 25.6727 21.7427 25.753 21.6051 25.8504C21.5879 25.8618 21.5707 25.8733 21.5535 25.879C21.1865 26.0911 20.8253 26.3031 20.4583 26.5151C19.8333 26.8819 19.2025 27.2429 18.5775 27.6096C18.5775 27.0251 18.5833 26.4406 18.5833 25.8561C18.5833 25.3977 18.5833 24.9335 18.589 24.4751C18.589 23.6499 18.5947 22.819 18.5947 21.9938C18.5947 21.8563 18.6005 21.7187 18.6062 21.5812C18.6177 21.4437 18.6349 21.289 18.6349 21.1457C18.7897 21.0597 18.9445 20.9566 19.0936 20.8649C19.4548 20.6529 19.8161 20.4466 20.1773 20.2346C20.2175 20.2116 20.2519 20.1887 20.292 20.1715C20.9228 19.8048 21.5592 19.438 22.19 19.0655C22.8551 18.6816 23.5317 18.3149 24.1912 17.9252C24.1912 18.3034 24.1912 18.6759 24.1854 19.0541C24.1854 19.6386 24.1797 20.2288 24.1797 20.8133C24.1797 21.0196 24.1797 21.2316 24.1797 21.4379C24.1797 21.4609 24.1797 21.4838 24.1797 21.501C24.1625 21.6557 24.174 21.8391 24.174 22.0167ZM10.6588 17.0312C10.6588 17.0714 10.6588 17.1057 10.6588 17.1459C10.6588 17.1802 10.6588 17.2146 10.6588 17.2547C10.6588 17.4152 10.6588 17.5756 10.6588 17.7304C10.6588 18.4295 10.6531 19.1286 10.6531 19.822C10.3836 19.9767 10.1141 20.1371 9.83887 20.2919C9.60377 20.4294 9.37441 20.5612 9.13931 20.6987C8.74367 20.9279 8.34802 21.1572 7.9581 21.3864C7.9581 20.8019 7.96384 20.2174 7.96384 19.6329C7.96957 18.269 7.96957 16.8994 7.97531 15.5356C7.97531 15.3694 8.00971 15.1287 8.00971 14.9167C8.16453 14.8308 8.31935 14.7276 8.46843 14.6359C9.51203 14.0285 10.5614 13.4211 11.6049 12.8136C11.8286 12.6818 12.0522 12.5558 12.2701 12.424C12.6256 12.2177 12.9869 12.0057 13.3424 11.7994C13.4054 11.765 13.48 11.7249 13.5603 11.6848C13.5603 12.2062 13.5545 12.7334 13.5545 13.2549C13.5545 13.7936 13.5488 14.3379 13.5488 14.8766C13.0671 15.1574 12.5797 15.4382 12.0981 15.719C11.84 15.868 11.3871 16.0571 11.066 16.3149C10.9971 16.3436 10.9341 16.3894 10.8767 16.4525C10.8251 16.504 10.7907 16.5671 10.7678 16.6301C10.7276 16.6817 10.6932 16.7447 10.676 16.8192C10.6588 16.8937 10.6531 16.9625 10.6588 17.0312ZM11.7884 23.7702C11.7884 23.541 11.7884 23.3118 11.7884 23.0826C11.7884 22.7559 11.7884 22.4293 11.7884 22.1027C11.7884 21.4781 11.7942 20.8534 11.7942 20.2288C11.7942 20.1944 11.7942 20.1543 11.7942 20.1199C11.8228 19.822 11.7942 19.5125 11.7942 19.2145C11.7942 19.163 11.7942 19.1171 11.7942 19.0655C11.7942 18.9624 11.7942 18.8592 11.7942 18.7561C11.7942 18.6644 11.7942 18.567 11.7942 18.4753C11.7942 18.2805 11.7942 18.0799 11.7942 17.8851C11.9375 17.971 12.0809 18.0513 12.2242 18.1372C12.5797 18.3435 12.941 18.5498 13.2965 18.7561C14.4318 19.4094 15.5729 20.0684 16.7082 20.7216C16.7943 20.7732 16.886 20.8248 16.972 20.8821C17.1096 20.9738 17.2702 21.0884 17.425 21.1743C17.425 21.266 17.4307 21.3634 17.4307 21.4494C17.425 22.7617 17.425 24.0739 17.4193 25.3805C17.4193 26.1197 17.4135 26.8647 17.4135 27.6039C17.1842 27.4721 16.9548 27.3403 16.7254 27.2085C16.3183 26.9735 15.9112 26.7386 15.5041 26.5036C15.1428 26.2916 14.7759 26.0853 14.4146 25.8733C13.6864 25.455 12.9582 25.0309 12.2242 24.6126C12.1898 24.5897 12.1554 24.5725 12.1153 24.5496C12.0121 24.4923 11.8974 24.4006 11.777 24.3318C11.777 24.286 11.777 24.2401 11.777 24.2C11.7884 24.0568 11.7884 23.9135 11.7884 23.7702ZM14.7472 18.2518C14.6899 18.2174 14.6325 18.1888 14.5752 18.1544C13.8527 17.7361 13.1302 17.2891 12.402 16.8765C12.5797 16.7734 12.7575 16.6702 12.9295 16.5671C13.4169 16.2863 13.9502 16.0341 14.4089 15.7075C14.4146 15.7075 14.4146 15.7018 14.4204 15.7018C14.4892 15.6617 14.5637 15.6216 14.6325 15.5757C15.3263 15.1746 16.0202 14.7677 16.714 14.3666C17.0236 14.1832 17.339 14.0056 17.6486 13.8222C17.7404 13.7706 17.878 13.7133 17.9984 13.6446C18.8184 14.1145 19.6383 14.5901 20.4526 15.06C20.7049 15.2032 20.9514 15.3465 21.2037 15.4955C21.3069 15.5528 21.4102 15.6158 21.5134 15.6731C21.5191 15.6789 21.5248 15.6789 21.5306 15.6846C21.5363 15.6846 21.542 15.6903 21.542 15.6903C22.018 15.9654 22.4881 16.2404 22.9641 16.5098C23.1705 16.6301 23.3827 16.7505 23.5891 16.8708C23.4687 16.951 23.3597 17.0255 23.2565 17.0828C22.7232 17.3923 22.1957 17.7017 21.6624 18.0054C21.3585 18.1831 21.0489 18.3607 20.745 18.5383C20.3092 18.7905 19.8792 19.0426 19.4434 19.2948C19.386 19.3291 19.323 19.3635 19.2656 19.3979C19.1051 19.4896 18.9388 19.587 18.7782 19.6787C18.5431 19.8162 18.245 19.9423 17.9812 20.1028C17.8895 20.0512 17.792 19.9996 17.7002 19.948C16.7254 19.3922 15.7335 18.8191 14.7472 18.2518ZM24.1797 6.77377C24.1797 7.40412 24.174 8.03447 24.174 8.66481C23.5604 9.01437 22.9354 9.35247 22.3276 9.71348C22.104 9.82809 21.8574 9.96562 21.6682 10.1203C21.5535 10.1948 21.4675 10.2923 21.4102 10.4011C21.3757 10.4584 21.3528 10.5157 21.3299 10.5845C21.1865 11.0028 21.2725 11.6217 21.2725 11.977C21.2725 12.5214 21.2668 13.0658 21.2668 13.6102C21.0948 13.7133 20.917 13.8107 20.745 13.9139C20.034 13.5013 19.3172 13.0944 18.6062 12.6818C18.5947 12.6761 18.589 12.6704 18.5775 12.6647C18.5775 11.9484 18.5833 11.232 18.5833 10.51C18.5833 10.2521 18.5833 9.98854 18.5833 9.73067C18.5833 9.51865 18.5833 9.30089 18.5833 9.08887C18.5833 8.97999 18.589 8.87111 18.589 8.7565C18.589 8.75077 18.589 8.73931 18.589 8.73358C18.7094 8.65335 18.8356 8.56167 18.8757 8.53301C19.4147 8.22357 19.948 7.9084 20.487 7.59895C21.3356 7.10614 22.19 6.60759 23.0386 6.11477C23.4171 5.89702 23.7898 5.67926 24.1682 5.45577C24.1854 5.89702 24.1854 6.33826 24.1797 6.77377ZM13.8699 3.59911C15.0626 2.90573 16.261 2.21235 17.4537 1.51897C17.6085 1.43301 17.8206 1.34132 18.0041 1.23817C18.0959 1.28975 18.1934 1.34132 18.2851 1.3929C19.4262 2.0519 20.5672 2.7109 21.7083 3.36989C22.3276 3.72518 22.9411 4.08047 23.5604 4.43576C23.5776 4.44722 23.6006 4.45868 23.6178 4.47014C23.5375 4.51598 23.4572 4.56182 23.3769 4.6134C22.6086 5.06037 21.8459 5.50162 21.0776 5.94859C20.659 6.18927 20.2461 6.42995 19.8276 6.67635C19.237 7.02018 18.5947 7.32962 18.0156 7.70783C17.7518 7.54738 17.4709 7.40985 17.2071 7.26086C16.4502 6.82535 15.6933 6.38983 14.9422 5.95432C14.2942 5.58184 13.6463 5.20936 13.0041 4.83689C12.7976 4.71655 12.5912 4.59621 12.3848 4.47587C12.8779 4.17216 13.371 3.88563 13.8699 3.59911ZM11.8056 6.76804C11.8056 6.33253 11.8056 5.89128 11.8114 5.45577C13.3022 6.32107 14.7873 7.20928 16.2897 8.05739C16.6624 8.28661 17.0351 8.52155 17.4193 8.70493C17.3906 9.10606 17.4479 9.54157 17.4479 9.85101C17.4479 10.7622 17.4422 11.6733 17.4422 12.5844C17.1039 12.7563 16.7713 13.0085 16.5534 13.1403C16.1119 13.3924 15.6761 13.6503 15.2346 13.9024C15.0626 13.805 14.8906 13.7019 14.7185 13.6044C14.7185 13.5586 14.7185 13.5128 14.7185 13.4669C14.7185 13.0486 14.7185 12.6245 14.7243 12.2062C14.7243 11.8681 14.7243 11.53 14.73 11.1862C14.73 11.0487 14.7415 10.9111 14.73 10.7793C14.73 10.7622 14.7243 10.745 14.7243 10.7335C14.7243 10.722 14.7243 10.7106 14.7185 10.6991C14.7128 10.6705 14.7071 10.6475 14.7013 10.6189C14.7013 10.6132 14.7013 10.6132 14.7013 10.6074C14.6956 10.5788 14.6841 10.5501 14.6727 10.5215V10.5157C14.6612 10.4871 14.644 10.4584 14.6268 10.4241C14.6096 10.3954 14.5866 10.3668 14.5637 10.3381C14.4662 10.2006 14.3171 10.0802 14.1566 9.97708C13.8527 9.77652 13.4914 9.61607 13.2678 9.49C12.7804 9.20921 12.293 8.92841 11.8056 8.64762C11.7999 8.02874 11.7999 7.39839 11.8056 6.76804ZM3.25046 9.8109C4.44314 9.11752 5.64155 8.42414 6.83423 7.73075C6.98905 7.63907 7.20694 7.55311 7.39043 7.44423C7.59113 7.55884 7.79182 7.67345 7.99251 7.79379C8.97303 8.3611 9.94781 8.92268 10.9283 9.49C11.4043 9.76506 11.8744 10.0401 12.3504 10.3094C12.5568 10.4298 12.769 10.5501 12.9754 10.6705C12.855 10.7507 12.746 10.8252 12.6428 10.8825C12.2472 11.1117 11.8515 11.3409 11.4559 11.5701C11.3182 11.6504 11.1864 11.7249 11.0487 11.8051C10.5671 12.0859 10.0854 12.3609 9.60377 12.6417C9.12211 12.9225 8.64045 13.2033 8.15879 13.4784C7.9237 13.6159 7.63126 13.742 7.3675 13.8967C7.24708 13.8337 7.12667 13.7764 7.02919 13.7191C6.97185 13.6847 6.92024 13.656 6.8629 13.6216C6.76542 13.5643 6.67368 13.5128 6.5762 13.4555C5.81931 13.0199 5.06242 12.5844 4.31126 12.1489C3.55436 11.7134 2.79747 11.2779 2.04631 10.8424C1.97177 10.7965 1.89723 10.7564 1.81695 10.7106C1.79402 10.6991 1.77108 10.6819 1.74814 10.6705C2.25847 10.3839 2.75733 10.0974 3.25046 9.8109ZM2.14379 18.6988C1.84562 18.5269 1.51305 18.2633 1.18047 18.1028C1.18047 18.0054 1.16901 17.9137 1.16901 17.822C1.17474 16.5098 1.17474 15.1975 1.18047 13.891C1.18047 13.1747 1.18621 12.4584 1.18621 11.7421C1.18621 11.7191 1.18621 11.6962 1.18621 11.6733C2.92935 12.6876 4.66677 13.7248 6.43285 14.7104C6.55326 14.7964 6.69088 14.8881 6.82276 14.9626C6.82276 15.0542 6.8285 15.1517 6.8285 15.2376C6.82276 16.5499 6.82276 17.8622 6.81703 19.1687C6.81703 19.9079 6.8113 20.6529 6.8113 21.3921C6.62207 21.2832 6.43858 21.1743 6.24936 21.0655C5.80211 20.8076 5.34912 20.5497 4.90186 20.2861C3.98442 19.7589 3.06124 19.226 2.14379 18.6988ZM7.4019 26.3547C7.3847 26.3432 7.3675 26.3375 7.3503 26.326C7.098 26.177 6.8457 26.0338 6.58767 25.8848C5.83078 25.4492 5.07388 25.0137 4.32273 24.5782C3.56583 24.1427 2.80894 23.7072 2.05778 23.2717C1.9603 23.2144 1.86282 23.1571 1.75961 23.0998C2.15526 22.8706 2.54517 22.6413 2.94082 22.4178C3.48556 22.1027 4.03029 21.7875 4.56929 21.4723C5.32618 21.9136 6.08881 22.3434 6.85717 22.7502C6.89157 22.7674 6.92598 22.7903 6.96038 22.8075C6.97185 22.8132 6.98332 22.819 6.99479 22.8247C7.00052 22.8304 7.01199 22.8304 7.01772 22.8362C7.02919 22.8419 7.04066 22.8476 7.05213 22.8476C7.1324 22.8763 7.21268 22.8992 7.29296 22.9049C7.32736 22.9107 7.36176 22.9164 7.4019 22.9164C7.43631 22.9164 7.47644 22.9107 7.51085 22.9049C7.51658 22.9049 7.52232 22.9049 7.52232 22.9049C7.55099 22.8992 7.58539 22.8935 7.61406 22.882C7.6198 22.882 7.62553 22.8763 7.63126 22.8763C7.64847 22.8706 7.6714 22.8648 7.6886 22.8534C7.87209 22.7846 8.04411 22.6585 8.2104 22.5668C8.50857 22.3949 8.80101 22.223 9.09918 22.0511C9.44322 21.8505 9.78726 21.65 10.1313 21.4551C10.3033 21.5526 10.4753 21.6557 10.6474 21.7531C10.6474 22.2918 10.6416 22.8304 10.6416 23.3691C10.6416 23.6843 10.5786 24.1083 10.6244 24.4865C10.0281 24.8304 9.43748 25.1799 8.84115 25.5237C8.81248 25.5409 8.7838 25.5581 8.7494 25.5753C8.33655 25.816 7.9237 26.0567 7.51085 26.2973C7.47644 26.3145 7.43631 26.3317 7.4019 26.3547ZM10.9627 28.8417C10.8595 28.9104 10.785 29.0193 10.7391 29.1511C10.7334 29.1626 10.7276 29.174 10.7276 29.1855C10.5614 29.6038 10.6588 30.2514 10.6531 30.6124C10.6531 30.79 10.6531 30.9677 10.6531 31.1396C10.6531 31.5063 10.6531 31.8731 10.6474 32.2455C10.1141 32.555 9.58084 32.8644 9.04757 33.1739C8.68059 33.3859 8.31935 33.5979 7.95237 33.8099C7.9581 32.32 7.9581 30.8301 7.96384 29.3402C7.96384 28.899 7.96384 28.4577 7.96957 28.0222C7.96957 27.879 7.98104 27.73 7.98677 27.5752C8.03265 27.5351 8.06132 27.4492 8.04411 27.3059C9.13358 26.6698 10.2288 26.0395 11.3182 25.4034C11.7368 25.6441 12.1554 25.8848 12.5683 26.1254C12.8951 26.3145 13.2277 26.5036 13.5545 26.6927C13.5545 26.8933 13.5545 27.0939 13.5545 27.3002C13.5029 27.3288 13.4513 27.3575 13.3997 27.3861C12.9697 27.6383 12.5339 27.8904 12.1038 28.1425C11.8228 28.3145 11.2781 28.5322 10.9627 28.8417ZM17.4365 37.9015C17.4365 38.3542 17.4365 38.8126 17.4307 39.2653C17.4307 39.4258 17.4307 39.592 17.4307 39.7524C17.4307 39.8441 17.4307 39.9358 17.4307 40.0332C16.9433 39.7524 16.4559 39.4716 15.9628 39.1851C14.7644 38.4917 13.566 37.8041 12.3676 37.1107C12.207 37.019 12.0006 36.8528 11.7999 36.7439C11.8056 36.5434 11.7884 36.3313 11.7942 36.1308C11.7999 34.956 11.7999 33.7756 11.8056 32.6008C11.8056 32.5836 11.8056 32.5607 11.8056 32.5435C11.8343 32.2455 11.8056 31.9361 11.8056 31.6381C11.8056 31.6267 11.8056 31.6152 11.8056 31.6037C11.8056 31.4605 11.8056 31.3172 11.8056 31.1797C11.8056 30.8874 11.8056 30.5952 11.8056 30.3087C11.9031 30.366 12.0006 30.4233 12.0981 30.4748C12.855 30.9103 13.6119 31.3459 14.363 31.7814C14.5752 31.9017 14.7873 32.0278 14.9995 32.1481C15.2633 32.3028 15.5328 32.4576 15.7965 32.6066C16.3355 32.916 16.8745 33.2885 17.4365 33.575C17.4365 33.661 17.4422 33.7412 17.4422 33.8157C17.4422 35.1795 17.4365 36.5376 17.4365 37.9015ZM17.9984 32.5435C17.9009 32.492 17.7977 32.4404 17.7117 32.3888C17.1555 32.0679 16.5936 31.7413 16.0374 31.4204C14.8217 30.7155 13.6004 30.0164 12.3848 29.3116C12.402 29.3001 12.4192 29.2944 12.4364 29.2829C12.4421 29.2772 12.4536 29.2714 12.4593 29.2657C12.9467 28.9849 13.4341 28.6984 13.9215 28.4176C14.0706 28.3317 14.2369 28.2514 14.3745 28.154C14.3917 28.1425 14.4089 28.1311 14.4261 28.1254C14.6956 27.9706 14.9651 27.8159 15.2346 27.6555C15.7335 27.942 16.2381 28.2342 16.7369 28.5208C17.0179 28.6812 17.2988 28.8589 17.5855 29.0136C17.6429 29.0594 17.7174 29.0938 17.7977 29.1053C17.8665 29.1225 17.9296 29.1225 17.9927 29.1167C17.9984 29.1167 18.0099 29.1167 18.0156 29.1167C18.0844 29.1282 18.159 29.1225 18.2335 29.0995C18.2679 29.0881 18.3023 29.0766 18.331 29.0651C18.7438 28.9276 19.1796 28.5723 19.5007 28.3832C19.9193 28.1425 20.3379 27.8961 20.7507 27.6555C21.0202 27.8102 21.284 27.9649 21.5535 28.1196C22.0294 28.3947 22.4996 28.6698 22.9755 28.9391C22.9927 28.9505 23.0099 28.962 23.0271 28.9677C23.2106 29.0709 23.3884 29.1798 23.5719 29.2829C23.5891 29.2944 23.6006 29.3001 23.6178 29.3116C21.9606 30.2743 20.3035 31.237 18.6463 32.1997C18.4686 32.3086 18.222 32.4117 17.9984 32.5435ZM24.1854 30.8989C24.1854 31.449 24.1797 31.9991 24.1797 32.5493C24.174 33.575 24.174 34.6007 24.1682 35.6208C24.1682 35.913 24.1682 36.2053 24.1682 36.4975C24.1682 36.5376 24.151 36.658 24.1453 36.7783C24.0593 36.8299 23.9733 36.8872 23.893 36.933C22.7576 37.592 21.6223 38.251 20.4927 38.91C19.8734 39.271 19.2542 39.6321 18.6291 39.9931C18.6177 39.9988 18.6062 40.0045 18.5947 40.016C18.6349 38.0505 18.6005 36.0735 18.5947 34.1079C18.6005 33.9475 18.6291 33.7412 18.6291 33.5578C18.784 33.4719 18.9388 33.3687 19.0879 33.277C19.3918 33.0994 19.6899 32.9275 19.9938 32.7498C20.1028 32.6868 20.206 32.6237 20.315 32.5607C20.9514 32.1882 21.5879 31.8215 22.2244 31.449C22.7634 31.1338 23.3024 30.8244 23.8471 30.5092C23.9331 30.4576 24.0535 30.4003 24.1854 30.3316C24.1854 30.5207 24.1854 30.7098 24.1854 30.8989ZM28.0502 31.684C28.0502 32.1367 28.0502 32.5951 28.0444 33.0478C28.0444 33.2083 28.0444 33.3744 28.0444 33.5349C28.0444 33.6266 28.0444 33.7183 28.0444 33.8157C27.6775 33.6037 27.3047 33.3916 26.9378 33.1739C26.4045 32.8644 25.8655 32.555 25.3322 32.2455C25.3322 31.8272 25.3322 31.4089 25.338 30.9906C25.338 30.5952 25.338 30.194 25.3437 29.7986C25.3437 29.6668 25.3494 29.5408 25.3437 29.4147C25.3437 29.3975 25.338 29.3861 25.338 29.3689C25.338 29.3574 25.338 29.3459 25.3322 29.3287C25.3265 29.3058 25.3208 29.2829 25.315 29.26C25.315 29.2543 25.315 29.2485 25.3093 29.2428C25.3036 29.2141 25.2921 29.1912 25.2806 29.1683C25.2806 29.1626 25.2806 29.1626 25.2749 29.1568C25.2634 29.1282 25.252 29.0995 25.2348 29.0709C25.2348 29.0709 25.2348 29.0709 25.2348 29.0651C25.1889 28.9677 25.1201 28.8875 25.0398 28.8245C25.0054 28.7958 24.971 28.7729 24.9366 28.7442C24.4779 28.452 23.9905 28.1999 23.5203 27.9248C23.1533 27.7128 22.7863 27.5007 22.4251 27.2944C22.4251 27.0939 22.4251 26.8933 22.4251 26.687C22.7232 26.5151 23.0271 26.3375 23.3253 26.1656C23.4687 26.0796 23.612 25.9994 23.7554 25.9134C24.0593 25.7358 24.3689 25.5581 24.6728 25.3805C25.6935 25.9707 26.7199 26.5609 27.7405 27.1512C27.8495 27.2142 27.9527 27.283 28.0616 27.346C28.0616 27.4377 28.0674 27.5237 28.0674 27.5982C28.0559 28.9677 28.0559 30.3258 28.0502 31.684ZM28.6236 26.3432C28.5548 26.3088 28.4917 26.2744 28.4286 26.24C28.0903 26.0452 27.752 25.8504 27.4137 25.6555C26.7199 25.2544 26.026 24.8533 25.3322 24.4579C25.3666 24.0797 25.3093 23.6614 25.315 23.3748C25.315 22.8362 25.3208 22.2975 25.3208 21.7589C25.4928 21.6614 25.6591 21.564 25.8311 21.4609C26.5478 21.8906 27.2703 22.3147 28.0043 22.7044C28.0674 22.7388 28.1304 22.7731 28.1992 22.8075C28.291 22.8534 28.3827 22.882 28.4802 22.8935C28.5318 22.9107 28.5834 22.9164 28.6408 22.9164C28.6637 22.9164 28.6924 22.9164 28.7153 22.9107C28.7268 22.9107 28.7382 22.9107 28.7497 22.9049C28.7612 22.9049 28.7727 22.8992 28.7841 22.8992C28.8013 22.8935 28.8243 22.8935 28.8415 22.8877C28.8587 22.882 28.8759 22.8763 28.8931 22.8706H28.8988C29.1167 22.7961 29.3231 22.6413 29.5123 22.5325C29.7933 22.3663 30.0743 22.2058 30.3552 22.0396C30.6936 21.8448 31.0261 21.65 31.3644 21.4551C31.9264 21.776 32.4826 22.1027 33.0445 22.4236C33.4402 22.6528 33.8358 22.882 34.2315 23.1112C32.6661 24.0224 31.1007 24.9278 29.5353 25.8389C29.4263 25.902 29.3231 25.965 29.2142 26.0223C29.0307 26.1254 28.8128 26.2229 28.6236 26.3432ZM34.7991 25.7644C34.7934 27.1397 34.7934 28.515 34.7877 29.8903C34.7877 29.982 34.7418 30.3258 34.7418 30.578C34.6615 30.6238 34.587 30.6811 34.5124 30.7212C33.3771 31.3802 32.2417 32.0392 31.1121 32.6982C30.4929 33.0593 29.8736 33.4203 29.2486 33.7813C29.2371 33.787 29.2256 33.7928 29.2142 33.7985C29.2084 33.5062 29.1912 33.2083 29.197 32.9275C29.197 32.6352 29.197 32.3487 29.197 32.0564C29.197 31.7756 29.197 31.4949 29.197 31.2141C29.197 30.578 29.2027 29.9419 29.2027 29.3058C29.2027 28.8474 29.2084 28.389 29.2084 27.9363C29.2084 27.7701 29.2428 27.5466 29.2428 27.346C29.5353 27.1856 29.8162 26.9965 30.0972 26.8303C31.0261 26.2916 31.955 25.753 32.884 25.2143C33.3599 24.9392 33.8358 24.6584 34.3117 24.3834C34.4723 24.2917 34.6386 24.2 34.7991 24.1083C34.7991 24.6584 34.7991 25.2143 34.7991 25.7644Z" fill="white"/>
</svg>
