<svg width="46" height="45" viewBox="0 0 46 45" fill="none" xmlns="http://www.w3.org/2000/svg">
<path d="M23.402 22.5C31.9451 22.5 38.8707 18.7224 38.8707 14.0625C38.8707 9.4026 31.9451 5.625 23.402 5.625C14.8588 5.625 7.93321 9.4026 7.93321 14.0625C7.93321 18.7224 14.8588 22.5 23.402 22.5Z" stroke="white" stroke-width="2" stroke-linecap="round" stroke-linejoin="round"/>
<path d="M7.93321 14.0625V22.5C7.93321 27.1582 14.859 30.9375 23.402 30.9375C31.9449 30.9375 38.8707 27.1582 38.8707 22.5V14.0625" stroke="white" stroke-width="2" stroke-linecap="round" stroke-linejoin="round"/>
<path d="M7.93321 22.5V30.9375C7.93321 35.5957 14.859 39.375 23.402 39.375C31.9449 39.375 38.8707 35.5957 38.8707 30.9375V22.5" stroke="white" stroke-width="2" stroke-linecap="round" stroke-linejoin="round"/>
</svg>
