<svg width="46" height="45" viewBox="0 0 46 45" fill="none" xmlns="http://www.w3.org/2000/svg">
<path d="M12.1021 37.9688C14.8204 37.9688 17.024 35.7652 17.024 33.0469C17.024 30.3286 14.8204 28.125 12.1021 28.125C9.38384 28.125 7.18024 30.3286 7.18024 33.0469C7.18024 35.7652 9.38384 37.9688 12.1021 37.9688Z" stroke="white" stroke-width="2" stroke-linecap="round" stroke-linejoin="round"/>
<path d="M33.1959 16.875C35.9141 16.875 38.1177 14.6714 38.1177 11.9531C38.1177 9.23485 35.9141 7.03125 33.1959 7.03125C30.4776 7.03125 28.274 9.23485 28.274 11.9531C28.274 14.6714 30.4776 16.875 33.1959 16.875Z" stroke="white" stroke-width="2" stroke-linecap="round" stroke-linejoin="round"/>
<path d="M12.1021 16.875C14.8204 16.875 17.024 14.6714 17.024 11.9531C17.024 9.23485 14.8204 7.03125 12.1021 7.03125C9.38384 7.03125 7.18024 9.23485 7.18024 11.9531C7.18024 14.6714 9.38384 16.875 12.1021 16.875Z" stroke="white" stroke-width="2" stroke-linecap="round" stroke-linejoin="round"/>
<path d="M12.1021 28.125V26.7188C12.0998 26.1641 12.2073 25.6145 12.4185 25.1016C12.6297 24.5887 12.9404 24.1227 13.3326 23.7305C13.7248 23.3382 14.1908 23.0276 14.7037 22.8164C15.2166 22.6052 15.7662 22.4977 16.3209 22.5H28.9771C29.5318 22.5023 30.0814 22.3948 30.5943 22.1836C31.1072 21.9724 31.5732 21.6618 31.9654 21.2695C32.3576 20.8773 32.6683 20.4113 32.8795 19.8984C33.0907 19.3856 33.1982 18.8359 33.1959 18.2812V16.875" stroke="white" stroke-width="2" stroke-linecap="round" stroke-linejoin="round"/>
<path d="M12.1021 16.875V28.125" stroke="white" stroke-width="2" stroke-linecap="round" stroke-linejoin="round"/>
</svg>
