<svg width="102" height="91" viewBox="0 0 102 91" fill="none" xmlns="http://www.w3.org/2000/svg">
<path d="M82.0768 60.6667H76.798C75.9466 60.6667 75.0952 59.9888 75.0952 58.9721C75.0952 58.1248 75.7763 57.2775 76.798 57.2775H82.0768C91.2721 57.2775 98.7646 49.8212 98.7646 40.6704C98.7646 31.5195 91.2721 24.0633 82.0768 24.0633C81.2254 24.0633 80.2037 24.0633 79.182 24.4022C78.6711 24.5717 78.1603 24.2328 77.6494 23.8939C77.1386 23.5549 77.1386 22.8771 77.1386 22.3687C77.3088 21.352 77.4791 20.1657 77.4791 18.9795C77.4791 10.1676 70.3272 3.05028 61.4725 3.05028C52.9583 3.05028 45.9766 9.65922 45.4658 18.3017C45.4658 18.9795 44.9549 19.4879 44.4441 19.8268C43.9332 19.9963 43.0818 19.9963 42.7412 19.4879C40.3573 17.2849 37.1219 15.9292 33.7162 15.9292C26.394 15.9292 20.4341 21.8603 20.4341 29.1471V29.3166C20.4341 29.8249 20.2638 30.3333 19.9232 30.6722C19.5826 31.0112 19.0718 31.1806 18.5609 31.0112C17.7095 30.8417 17.0284 30.8417 16.3472 30.8417C9.02504 30.8417 3.06511 36.7728 3.06511 44.0596C3.06511 51.3464 9.02504 57.2775 16.3472 57.2775H24.8614C25.7129 57.2775 26.5643 57.9553 26.5643 58.9721C26.5643 59.8194 25.8831 60.6667 24.8614 60.6667H16.3472C7.49249 60.6667 0 53.2104 0 44.0596C0 34.9087 7.49249 27.622 16.5175 27.622C16.8581 27.622 17.1987 27.622 17.3689 27.622C18.2204 19.3184 25.202 12.7095 33.8865 12.7095C36.9516 12.7095 40.0167 13.5568 42.7412 15.2514C44.6144 6.60894 52.4474 0 61.6427 0C72.3706 0 81.0551 8.64246 81.0551 19.3184C81.0551 19.8268 81.0551 20.5047 81.0551 21.013C81.3957 21.013 81.7362 21.013 82.2471 21.013C93.3155 21.013 102.17 29.9944 102.17 40.8398C102 51.6853 93.1452 60.6667 82.0768 60.6667Z" fill="#4F46E5"/>
<path d="M51.0847 91.0001C50.7441 91.0001 50.4035 90.8306 50.2333 90.6611C37.2917 82.5271 29.6289 69.4786 29.6289 55.7524V49.4824C29.6289 48.8045 30.1398 48.1267 30.8209 47.9572C41.0379 45.4153 49.8927 39.1453 50.063 39.1453C50.5738 38.8064 51.4252 38.8064 51.9361 39.1453C52.1064 39.1453 60.9611 45.4153 71.1782 47.9572C71.8593 48.1267 72.3702 48.8045 72.3702 49.4824V55.7524C72.3702 69.4786 64.7074 82.5271 51.7658 90.6611C51.5955 91 51.255 91.0001 51.0847 91.0001ZM32.8643 50.838V55.7524C32.8643 68.123 39.6757 79.8157 51.0847 87.4414C62.4937 79.8157 69.305 68.123 69.305 55.7524V50.838C60.9611 48.4656 53.6389 44.0596 51.0847 42.365C48.5304 44.0596 41.2082 48.4656 32.8643 50.838Z" fill="#4F46E5"/>
<path d="M77.6499 42.704C77.4796 42.704 77.3093 42.704 77.139 42.704C75.7768 42.3651 74.4145 41.8567 73.0522 41.3483C72.2008 41.0094 71.6899 40.1621 72.0305 39.3148C72.3711 38.4675 73.2225 37.9591 74.0739 38.2981C75.2659 38.8064 76.6282 39.1454 77.9904 39.4843C78.8419 39.8232 79.3527 40.6705 79.1824 41.5178C79.0121 42.1956 78.331 42.704 77.6499 42.704Z" fill="#4F46E5"/>
<path d="M68.2834 39.3149C68.1131 39.3149 67.7726 39.3149 67.6023 39.1455C65.8995 38.4676 64.0263 37.6203 62.3235 36.6036C61.4721 36.2646 61.1315 35.2479 61.6424 34.4006C61.9829 33.5533 63.0046 33.2144 63.8561 33.7227C65.5589 34.57 67.2617 35.4173 68.9646 36.0952C69.816 36.4341 70.1566 37.4509 69.816 38.2982C69.4754 38.8065 68.9646 39.3149 68.2834 39.3149Z" fill="#4F46E5"/>
<path d="M57.8965 34.0617C57.5559 34.0617 57.3856 34.0617 57.0451 33.8922C55.6828 33.0449 54.4908 32.3671 53.4691 31.6892C52.6177 31.1808 52.4474 30.1641 52.9583 29.4862C53.4691 28.6389 54.4908 28.4695 55.1719 28.9779C56.1936 29.6557 57.3856 30.3335 58.7479 31.0114C59.5993 31.5198 59.7696 32.5365 59.429 33.2144C58.9182 33.7227 58.4073 34.0617 57.8965 34.0617Z" fill="#4F46E5"/>
<path d="M51.0855 80.8323C50.7449 80.8323 50.4044 80.6629 50.2341 80.4934C42.5713 75.5791 37.9736 67.7839 37.9736 59.6498V55.9217C37.9736 55.2439 38.4845 54.566 39.1656 54.3966C44.9553 52.8714 50.0638 49.3128 50.0638 49.3128C50.5746 48.9739 51.4261 48.9739 51.9369 49.3128C51.9369 49.3128 57.0454 52.8714 62.8351 54.3966C63.5162 54.566 64.0271 55.2439 64.0271 55.9217V59.4804C64.0271 67.7839 59.4294 75.5791 51.7666 80.324C51.5963 80.6629 51.2558 80.8323 51.0855 80.8323ZM41.209 57.2774V59.6498C41.209 66.4282 44.785 72.8677 51.0855 77.1042C57.2157 72.8677 60.9619 66.4282 60.9619 59.6498V57.2774C56.5346 55.9217 52.7883 53.7187 51.0855 52.702C49.3826 53.7187 45.4661 55.9217 41.209 57.2774Z" fill="#4F46E5"/>
</svg>
