<svg width="70" height="86" viewBox="0 0 70 86" fill="none" xmlns="http://www.w3.org/2000/svg">
<path d="M23.1737 18.8126C22.3746 18.8126 21.7354 18.1802 21.7354 17.3898V16.2831C21.7354 15.4927 22.3746 14.8604 23.1737 14.8604C23.9728 14.8604 24.6121 15.4927 24.6121 16.2831V17.3898C24.4522 18.1802 23.9728 18.8126 23.1737 18.8126Z" fill="#4F46E5"/>
<path d="M23.1734 35.7279C16.3013 35.7279 10.5479 30.1949 10.5479 23.239C10.5479 16.2831 16.1415 10.75 23.1734 10.75C30.0456 10.75 35.799 16.2831 35.799 23.239C35.799 30.1949 30.0456 35.7279 23.1734 35.7279ZM23.1734 13.5956C17.7396 13.5956 13.4246 17.864 13.4246 23.239C13.4246 28.614 17.7396 32.8824 23.1734 32.8824C28.6072 32.8824 32.9223 28.614 32.9223 23.239C32.9223 17.864 28.4474 13.5956 23.1734 13.5956Z" fill="#4F46E5"/>
<path d="M23.1731 30.3528C20.6161 30.3528 18.6982 28.4558 18.6982 26.0844C18.6982 25.294 19.3375 24.6617 20.1366 24.6617C20.9357 24.6617 21.575 25.294 21.575 26.0844C21.575 26.8749 22.374 27.6653 23.3329 27.6653C24.2919 27.6653 25.0909 27.033 25.0909 26.0844C25.0909 25.294 24.2919 24.5036 23.3329 24.5036C20.7759 24.5036 18.8581 22.6065 18.8581 20.2352C18.8581 17.8639 20.9357 15.9668 23.3329 15.9668C25.89 15.9668 27.8078 17.8639 27.8078 20.2352C27.8078 21.0256 27.1686 21.658 26.3695 21.658C25.5704 21.658 24.9311 21.0256 24.9311 20.2352C24.9311 19.4447 24.132 18.6543 23.1731 18.6543C22.2142 18.6543 21.4151 19.2866 21.4151 20.2352C21.4151 21.0256 22.2142 21.8161 23.1731 21.8161C25.7302 21.8161 27.648 23.7131 27.648 26.0844C27.648 28.4558 25.5704 30.3528 23.1731 30.3528Z" fill="#4F46E5"/>
<path d="M23.1737 31.7758C22.3746 31.7758 21.7354 31.1435 21.7354 30.353V29.0883C21.7354 28.2979 22.3746 27.6655 23.1737 27.6655C23.9728 27.6655 24.6121 28.2979 24.6121 29.0883V30.353C24.4522 31.1435 23.9728 31.7758 23.1737 31.7758Z" fill="#4F46E5"/>
<path d="M15.6617 45.0551C15.1822 45.0551 14.8626 44.897 14.543 44.5808C12.6252 42.0514 12.6252 38.4154 13.1046 35.0955C9.90826 36.2021 6.23246 36.8345 3.51556 35.4117C3.03611 35.0955 2.71648 34.6213 2.71648 34.147C2.87629 31.1433 5.27355 28.1396 7.83063 25.9264C4.63428 24.6617 1.43794 22.7646 0.319216 19.9191C0.159398 19.4448 0.159398 18.8124 0.63885 18.4963C2.55666 16.283 6.23246 15.4926 9.58862 15.4926C7.99045 12.4889 6.71191 9.01097 7.67081 6.0073C7.83063 5.53303 8.31008 5.05877 8.78954 5.05877C11.8261 4.74259 15.1822 6.48156 17.7393 8.53671C18.3786 5.21685 19.6571 1.73891 22.374 0.158031C22.8535 -0.158146 23.4927 -0.158146 23.9722 0.158031C26.5293 1.897 27.9676 5.21685 28.6069 8.53671C31.164 6.48156 34.5201 4.5845 37.5567 5.05877C38.0361 5.05877 38.5156 5.53303 38.6754 6.0073C39.6343 9.01097 38.3557 12.4889 36.7576 15.4926C40.1137 15.6507 43.7895 16.283 45.8672 18.4963C46.1868 18.9705 46.3466 19.4448 46.1868 19.9191C44.9083 22.7646 41.7119 24.6617 38.6754 25.9264C41.2325 28.1396 43.6297 30.9852 43.7895 34.147C43.7895 34.6213 43.4699 35.2536 42.9904 35.4117C40.2736 36.8345 36.5978 36.2021 33.4014 35.0955C33.8809 38.4154 33.8809 42.0514 31.9631 44.5808C31.6434 45.0551 31.0041 45.2132 30.5247 45.0551C27.4882 44.4227 25.0909 41.5771 23.3329 38.7316C21.5749 41.5771 19.1777 44.4227 16.1411 45.0551C15.8215 45.0551 15.6617 45.0551 15.6617 45.0551ZM14.8626 31.4595C15.1822 31.4595 15.5019 31.6176 15.8215 31.7757C16.301 32.0919 16.4608 32.7242 16.301 33.1985C15.342 36.9926 15.342 40.1544 16.301 42.0514C18.2188 41.1029 20.1366 38.7316 21.8946 35.2536C22.0544 34.7794 22.6936 34.4632 23.1731 34.4632C23.6525 34.4632 24.132 34.7794 24.4516 35.2536C26.2096 38.7316 28.2873 41.1029 30.0452 42.0514C30.8443 40.1544 30.8443 37.1507 30.0452 33.1985C29.8854 32.7242 30.0452 32.0919 30.5247 31.7757C31.0041 31.4595 31.4836 31.3014 31.9631 31.6176C35.6389 33.1985 38.6754 33.6727 40.753 33.1985C40.1137 31.1433 38.1959 28.9301 34.9996 26.5588C34.5201 26.2426 34.3603 25.7683 34.5201 25.136C34.6799 24.6617 34.9996 24.1874 35.479 24.0294C39.3147 22.9227 42.0315 21.3419 43.1503 19.761C41.3923 18.6544 38.3557 18.022 34.3603 18.3382C33.8809 18.3382 33.4014 18.022 33.0818 17.7058C32.7621 17.2316 32.7621 16.7573 33.0818 16.283C35.3192 12.9632 36.2781 10.1176 36.1183 8.06244C34.0407 8.22053 31.3238 9.80141 28.4471 12.4889C28.1274 12.647 27.4882 12.8051 27.0087 12.647C26.5293 12.4889 26.2096 12.0146 26.0498 11.5404C25.5704 7.58818 24.6115 4.74259 23.1731 3.16171C21.7347 4.5845 20.616 7.58818 20.1366 11.3823C20.1366 11.8566 19.6571 12.3308 19.1777 12.4889C18.6982 12.647 18.0589 12.4889 17.7393 12.1727C14.8626 9.64332 12.1457 8.06244 10.0681 7.90435C9.90826 9.9595 11.027 12.8051 13.1046 16.1249C13.4242 16.5992 13.4242 17.0735 13.1046 17.5477C12.785 18.022 12.3055 18.3382 11.8261 18.1801C7.99045 18.022 4.95392 18.4963 3.19593 19.761C4.47447 21.4999 7.19136 22.9227 10.8672 24.0294C11.3466 24.1874 11.8261 24.6617 11.8261 25.136C11.9859 25.6102 11.6662 26.2426 11.3466 26.5588C8.15027 28.9301 6.23246 31.3014 5.59319 33.1985C7.67081 33.6727 10.7073 33.1985 14.3831 31.6176C14.543 31.6176 14.7028 31.4595 14.8626 31.4595Z" fill="#4F46E5"/>
<path d="M50.662 41.8932C49.8629 41.8932 49.2236 41.2609 49.2236 40.4704V39.5219C49.2236 38.7315 49.8629 38.0991 50.662 38.0991C51.4611 38.0991 52.1003 38.7315 52.1003 39.5219V40.4704C52.1003 41.2609 51.4611 41.8932 50.662 41.8932Z" fill="#4F46E5"/>
<path d="M50.6619 55.8049C44.7486 55.8049 39.9541 51.0623 39.9541 45.213C39.9541 39.3637 44.7486 34.6211 50.6619 34.6211C56.5751 34.6211 61.3696 39.3637 61.3696 45.213C61.3696 51.0623 56.5751 55.8049 50.6619 55.8049ZM50.6619 37.6248C46.3468 37.6248 42.8308 41.1027 42.8308 45.3711C42.8308 49.6395 46.3468 53.1174 50.6619 53.1174C54.9769 53.1174 58.4929 49.6395 58.4929 45.3711C58.4929 41.1027 54.9769 37.6248 50.6619 37.6248Z" fill="#4F46E5"/>
<path d="M50.6624 51.5369C48.425 51.5369 46.667 49.798 46.667 47.7428C46.667 46.9524 47.3063 46.32 48.1053 46.32C48.9044 46.32 49.5437 46.9524 49.5437 47.7428C49.5437 48.3752 50.0232 48.6913 50.6624 48.6913C51.3017 48.6913 51.7811 48.2171 51.7811 47.7428C51.7811 47.2686 51.3017 46.7943 50.6624 46.7943C48.425 46.7943 46.667 45.0553 46.667 43.0002C46.667 40.945 48.425 39.2061 50.6624 39.2061C52.8999 39.2061 54.6579 40.945 54.6579 43.0002C54.6579 43.7906 54.0186 44.423 53.2195 44.423C52.4204 44.423 51.7811 43.7906 51.7811 43.0002C51.7811 42.3678 51.3017 42.0516 50.6624 42.0516C50.0232 42.0516 49.5437 42.5259 49.5437 43.0002C49.5437 43.4744 50.0232 43.9487 50.6624 43.9487C52.8999 43.9487 54.6579 45.6877 54.6579 47.7428C54.6579 49.798 52.8999 51.5369 50.6624 51.5369Z" fill="#4F46E5"/>
<path d="M50.662 52.6431C49.8629 52.6431 49.2236 52.0108 49.2236 51.2203V50.1137C49.2236 49.3233 49.8629 48.6909 50.662 48.6909C51.4611 48.6909 52.1003 49.3233 52.1003 50.1137V51.2203C52.1003 52.0108 51.4611 52.6431 50.662 52.6431Z" fill="#4F46E5"/>
<path d="M56.8949 63.7093C56.735 63.7093 56.735 63.7093 56.5752 63.7093C54.178 63.0769 52.1003 61.0218 50.662 58.6505C49.2236 60.8637 47.146 63.0769 44.7487 63.7093C44.2693 63.8674 43.63 63.5512 43.3104 63.235C41.7122 61.1799 41.7122 58.3343 42.0318 55.6468C39.4748 56.4372 36.4382 56.9115 34.2008 55.8049C33.7213 55.3306 33.5615 54.8564 33.5615 54.224C33.7213 51.6946 35.4793 49.4814 37.557 47.5843C36.5981 47.2681 35.799 46.7939 34.9999 46.3196C34.3606 45.8453 34.2008 45.0549 34.5204 44.4225C34.9999 43.7902 35.799 43.6321 36.4382 43.9483C37.557 44.5806 38.9953 45.213 40.7533 45.6872C41.2328 45.8453 41.7122 46.3196 41.7122 46.7939C41.872 47.2681 41.5524 47.9005 41.2328 48.2167C38.8355 49.9556 37.2373 51.8527 36.5981 53.4336C38.1962 53.7497 40.5935 53.2755 43.4702 52.0108C43.9497 51.8527 44.5889 51.8527 44.9086 52.1689C45.388 52.485 45.5478 53.1174 45.388 53.5917C44.7487 56.4372 44.5889 58.9667 45.2282 60.5475C46.6665 59.7571 48.2647 57.86 49.5433 55.1725C49.7031 54.6983 50.3423 54.3821 50.8218 54.3821C51.3012 54.3821 51.7807 54.6983 52.1003 55.1725C53.5387 57.86 54.977 59.7571 56.4154 60.5475C57.0547 58.9667 56.8949 56.5953 56.2556 53.5917C56.0958 53.1174 56.2556 52.485 56.735 52.1689C57.2145 51.8527 57.6939 51.6946 58.1734 52.0108C60.8903 53.1174 63.2876 53.5917 65.0455 53.4336C64.5661 51.8527 62.8081 50.1137 60.4108 48.2167C59.9314 47.9005 59.7716 47.4262 59.9314 46.7939C60.0912 46.3196 60.4108 45.8453 60.8903 45.6872C63.767 44.8968 66.0044 43.6321 66.9634 42.3674C65.525 41.5769 63.1277 41.1027 60.0912 41.2608C59.6117 41.2608 59.1323 40.9446 58.8127 40.6284C58.493 40.1542 58.493 39.6799 58.8127 39.2056C60.4108 36.6762 61.3697 34.463 61.3697 32.724C59.7716 33.0402 57.6939 34.3049 55.4565 36.36C55.1369 36.6762 54.4976 36.8343 54.0181 36.6762C53.5387 36.5181 53.2191 36.0439 53.0592 35.5696C52.7396 32.5659 51.9405 30.3527 50.8218 29.088C49.7031 30.3527 48.904 32.5659 48.5844 35.5696C48.4245 36.36 47.7853 36.8343 46.9862 36.8343C46.1871 36.6762 45.7076 36.0439 45.7076 35.2534C46.0273 32.0917 47.146 27.8233 50.0227 26.0843C50.5022 25.7681 51.1414 25.7681 51.6209 26.0843C53.6985 27.5071 54.8172 30.1946 55.4565 32.8821C57.6939 31.3012 60.251 29.8784 62.8081 30.1946C63.2875 30.1946 63.767 30.6689 63.9268 31.1431C64.7259 33.5144 63.767 36.36 62.4885 38.7314C65.2054 38.8894 68.0821 39.5218 69.8401 41.2608C70.1597 41.735 70.3195 42.2093 70.1597 42.6836C69.2008 45.0549 66.6437 46.4777 64.0866 47.5843C66.1643 49.4814 67.9223 51.6946 68.0821 54.224C68.0821 54.6983 67.7624 55.3306 67.283 55.4887C65.0455 56.5953 62.009 56.2792 59.4519 55.3306C59.7716 58.0181 59.7716 61.0218 58.1734 62.9189C57.8538 63.3931 57.3743 63.7093 56.8949 63.7093Z" fill="#4F46E5"/>
<path d="M28.6069 86.0002C27.8078 86.0002 27.1685 85.3678 27.1685 84.5774C27.8078 66.8715 21.7347 36.3605 21.7347 36.0443C21.5749 35.2538 22.0544 34.6215 22.8534 34.4634C23.6525 34.3053 24.2918 34.7796 24.4516 35.57C24.7713 36.8347 30.5247 66.7134 29.8854 84.7355C29.8854 85.3678 29.2461 86.0002 28.6069 86.0002Z" fill="#4F46E5"/>
<path d="M33.0819 85.9998C32.2828 85.9998 31.6436 85.2094 31.6436 84.577C31.6436 83.6285 33.5614 59.441 42.9906 52.327C43.6299 51.8528 44.4289 52.0109 44.9084 52.6432C45.3879 53.2756 45.228 54.066 44.5888 54.5403C36.2783 61.0219 34.3605 84.577 34.3605 84.8932C34.5203 85.5256 33.881 85.9998 33.0819 85.9998Z" fill="#4F46E5"/>
<path d="M68.7215 85.9999H1.43836C0.639269 85.9999 0 85.3675 0 84.5771C0 83.7867 0.639269 83.1543 1.43836 83.1543H68.7215C69.5205 83.1543 70.1598 83.7867 70.1598 84.5771C70 85.3675 69.5205 85.9999 68.7215 85.9999Z" fill="#4F46E5"/>
<path d="M27.1688 63.0773C16.3013 62.2868 13.1049 51.3788 12.9451 51.0626C12.7853 50.7464 12.9451 50.2721 13.1049 49.956C13.2647 49.6398 13.5844 49.3236 14.0638 49.3236C23.0136 47.5846 26.8492 51.6949 27.009 51.853C27.4885 52.4854 27.4885 53.2758 26.8492 53.7501C26.2099 54.2243 25.4109 54.2243 24.9314 53.592C24.7716 53.4339 22.2145 50.9045 16.1415 51.6949C17.2602 54.3824 20.4565 59.7574 27.1688 60.2317C27.9679 60.2317 28.4474 61.0221 28.4474 61.6545C28.6072 62.603 27.9679 63.0773 27.1688 63.0773Z" fill="#4F46E5"/>
<path d="M33.8817 79.202C33.0826 79.202 32.6032 78.5696 32.4434 77.9373C32.4434 77.1468 32.9228 76.5145 33.7219 76.5145C43.1511 75.8821 45.7082 70.9814 46.3475 68.452C39.6351 68.1358 36.4388 70.8233 36.279 70.9814C35.6397 71.4557 34.8406 71.4557 34.3612 70.8233C33.8817 70.191 33.8817 69.4005 34.521 68.9262C34.6808 68.7682 39.1557 64.816 48.1055 65.7645C48.9045 65.7645 49.384 66.5549 49.384 67.1873C49.5438 67.3454 48.7447 78.2535 33.8817 79.202C34.0415 79.202 34.0415 79.202 33.8817 79.202Z" fill="#4F46E5"/>
<path d="M27.9682 70.3494C27.6486 70.3494 27.1691 70.1913 27.0093 69.8751C26.5299 69.2428 26.5299 68.4523 27.0093 67.9781C30.6851 64.5001 31.0047 60.8641 30.8449 58.967C29.0869 59.7575 27.9682 60.706 27.9682 60.706C27.4888 61.3383 26.5299 61.3383 26.0504 60.8641C25.4111 60.3898 25.4111 59.4413 25.8906 58.967C26.0504 58.8089 27.9682 56.7538 31.4842 55.9634C32.1235 55.8053 32.9226 56.1214 33.0824 56.9119C33.2422 57.2281 35.3198 63.8678 28.7673 70.0332C28.6075 70.1913 28.2878 70.3494 27.9682 70.3494Z" fill="#4F46E5"/>
<path d="M15.5026 85.9999C15.183 85.9999 14.8634 85.9999 14.3839 85.9999C11.9867 85.6837 9.74921 84.5771 8.15104 82.522C6.55286 80.6249 5.91359 78.2536 6.23323 75.7242C6.55286 73.3529 7.67158 71.1396 9.58939 69.7168C11.5072 68.1359 13.9045 67.5036 16.4615 67.8198C18.8588 68.1359 21.0962 69.2426 22.6944 71.2977C24.2926 73.1948 24.9319 75.5661 24.6122 78.0955C24.2926 80.4668 23.1739 82.6801 21.0962 84.2609C19.6579 85.3676 17.5803 85.9999 15.5026 85.9999ZM15.5026 70.5073C14.0643 70.5073 12.6259 70.9815 11.5072 71.9301C10.2287 73.0367 9.26976 74.4595 9.10994 76.1984C8.95012 77.9374 9.42958 79.5183 10.5483 80.9411C11.667 82.2058 13.1054 83.1543 14.8634 83.3124C16.6214 83.4705 18.2195 82.9962 19.6579 81.8896C20.9364 80.783 21.8953 79.3602 22.0551 77.6212C22.215 75.8823 21.7355 74.3014 20.6168 72.8786C19.4981 71.6139 18.0597 70.6653 16.3017 70.5073C15.9821 70.5073 15.6625 70.5073 15.5026 70.5073Z" fill="#4F46E5"/>
<path d="M16.6213 81.8899C16.3016 81.8899 15.982 81.8899 15.6624 81.7318C14.8633 81.5737 14.5437 80.7832 14.7035 79.9928C14.8633 79.2024 15.6624 78.8862 16.4615 79.0443C16.7811 79.0443 16.9409 79.0443 17.2605 78.8862C17.5802 78.57 17.74 78.0957 17.4204 77.9377C17.2605 77.7796 17.1007 77.7796 16.9409 77.7796C16.7811 77.7796 16.4615 77.7796 16.3016 77.9377C14.7035 79.2024 12.466 79.0443 11.3473 77.4634C10.708 76.673 10.5482 75.8825 10.708 74.934C10.8679 73.9855 11.3473 73.195 12.1464 72.5627C12.9455 71.9303 14.0642 71.6141 15.0231 71.7722C15.8222 71.9303 16.3016 72.5627 16.1418 73.3531C15.982 74.1435 15.3427 74.6178 14.5437 74.4597C14.3838 74.4597 14.0642 74.4597 13.9044 74.6178C13.7446 74.7759 13.5847 74.934 13.5847 75.0921C13.5847 75.2502 13.5847 75.4082 13.7446 75.5663C13.9044 75.8825 14.3838 75.8825 14.8633 75.5663C15.6624 74.934 16.4615 74.7759 17.4204 74.7759C18.3793 74.7759 19.1784 75.2502 19.8176 76.0406C20.9363 77.4634 20.7765 79.6766 19.1784 80.9413C18.2194 81.7318 17.4204 81.8899 16.6213 81.8899Z" fill="#4F46E5"/>
</svg>
