<svg width="98" height="88" viewBox="0 0 98 88" fill="none" xmlns="http://www.w3.org/2000/svg">
<path d="M67.7094 62.556H29.6433C23.1639 62.556 17.9805 57.37 17.9805 50.8875C17.9805 44.405 23.1639 39.219 29.6433 39.219C30.2912 39.219 30.9391 39.219 31.7491 39.3811C32.397 33.5468 37.4185 29.0091 43.4119 29.0091C44.8697 29.0091 46.1656 29.3332 47.6234 29.8194C49.8912 24.7955 54.7507 21.5542 60.4201 21.5542C68.0334 21.5542 74.3507 27.8746 74.3507 35.4916C74.3507 37.2743 74.0267 39.057 73.3788 40.6776C77.1044 42.6223 79.5342 46.6739 79.5342 51.0496C79.3722 57.208 74.1887 62.556 67.7094 62.556ZM29.6433 42.2982C24.9458 42.2982 21.0582 46.1877 21.0582 50.8875C21.0582 55.5873 24.9458 59.4769 29.6433 59.4769H67.7094C72.4069 59.4769 76.2945 55.5873 76.2945 50.8875C76.2945 47.3222 74.0267 44.0809 70.6251 42.7844C70.1391 42.6223 69.8152 42.2982 69.6532 41.812C69.4912 41.3258 69.4912 40.8396 69.8152 40.5155C70.6251 38.8949 71.111 37.1122 71.111 35.3295C71.111 29.3332 66.2515 24.6334 60.4201 24.6334C55.7226 24.6334 51.3491 27.8746 50.0532 32.4124C49.8912 32.8986 49.5672 33.2227 49.0813 33.3848C48.5953 33.5468 48.1094 33.5468 47.7854 33.2227C46.4896 32.4124 45.0317 32.0883 43.5739 32.0883C38.8763 32.0883 34.9887 35.9778 34.9887 40.6776C34.9887 40.8396 34.9887 41.0017 34.9887 41.1638C34.9887 41.65 34.8267 42.2982 34.3408 42.6223C33.8548 42.9465 33.3689 43.1085 32.8829 42.9465C31.7491 42.4603 30.7772 42.2982 29.6433 42.2982Z" fill="#4F46E5"/>
<path d="M60.2575 24.6335C59.4476 24.6335 58.6377 23.9852 58.6377 23.0129V8.26516C58.6377 7.45484 59.2856 6.64453 60.2575 6.64453C61.2294 6.64453 61.8774 7.29278 61.8774 8.26516V23.0129C61.8774 23.8232 61.0674 24.6335 60.2575 24.6335Z" fill="#4F46E5"/>
<path d="M43.4118 32.0886C42.6019 32.0886 41.792 31.4403 41.792 30.4679V15.7202C41.792 14.9099 42.4399 14.0996 43.4118 14.0996C44.3837 14.0996 45.0317 14.7479 45.0317 15.7202V30.63C44.8697 31.4403 44.2217 32.0886 43.4118 32.0886Z" fill="#4F46E5"/>
<path d="M27.0515 42.4606C26.2416 42.4606 25.4316 41.8123 25.4316 40.8399V24.1475C25.4316 23.3372 26.0796 22.5269 27.0515 22.5269C28.0234 22.5269 28.6713 23.1751 28.6713 24.1475V41.002C28.6713 41.8123 28.0234 42.4606 27.0515 42.4606Z" fill="#4F46E5"/>
<path d="M89.2533 36.9502H72.5691C71.7591 36.9502 70.9492 36.302 70.9492 35.3296C70.9492 34.3572 71.5972 33.709 72.5691 33.709H89.2533C90.0633 33.709 90.8732 34.3572 90.8732 35.3296C90.8732 36.302 90.0633 36.9502 89.2533 36.9502Z" fill="#4F46E5"/>
<path d="M89.2526 52.3462H77.9138C77.1039 52.3462 76.2939 51.698 76.2939 50.7256C76.2939 49.7532 76.9419 49.105 77.9138 49.105H89.2526C90.0625 49.105 90.8725 49.7532 90.8725 50.7256C90.8725 51.698 90.0625 52.3462 89.2526 52.3462Z" fill="#4F46E5"/>
<path d="M19.6003 52.3462H8.26144C7.45152 52.3462 6.6416 51.698 6.6416 50.7256C6.6416 49.7532 7.28954 49.105 8.26144 49.105H19.4383C20.2482 49.105 21.0581 49.7532 21.0581 50.7256C21.0581 51.698 20.4102 52.3462 19.6003 52.3462Z" fill="#4F46E5"/>
<path d="M68.8432 28.0367C68.3573 28.0367 68.0333 27.8747 67.7093 27.5505C67.0614 26.9023 67.2234 25.9299 67.8713 25.2817L79.8581 14.5855C80.506 13.9373 81.4779 14.0993 82.1259 14.7476C82.7738 15.3958 82.6118 16.3682 81.9639 17.0165L69.9771 27.7126C69.4912 27.8747 69.1672 28.0367 68.8432 28.0367Z" fill="#4F46E5"/>
<path d="M21.706 46.1878C21.2201 46.1878 20.7341 46.0257 20.4102 45.5396L10.8531 33.3849C10.3672 32.7366 10.3672 31.7642 11.1771 31.116C11.825 30.6298 12.7969 30.6298 13.4449 31.4401L23.0019 43.5948C23.4878 44.2431 23.4878 45.2154 22.6779 45.8637C22.354 46.0257 22.03 46.1878 21.706 46.1878Z" fill="#4F46E5"/>
<path d="M60.2578 9.88582C57.5041 9.88582 55.2363 7.61694 55.2363 4.86188C55.2363 2.10681 57.5041 0 60.2578 0C63.0115 0 65.2793 2.26888 65.2793 5.02394C65.2793 7.77901 63.0115 9.88582 60.2578 9.88582ZM60.2578 3.07919C59.2859 3.07919 58.476 3.8895 58.476 4.86188C58.476 5.83425 59.2859 6.64457 60.2578 6.64457C61.2297 6.64457 62.0396 5.83425 62.0396 4.86188C62.0396 3.8895 61.2297 3.07919 60.2578 3.07919Z" fill="#4F46E5"/>
<path d="M27.0508 25.7681C24.2971 25.7681 22.0293 23.4992 22.0293 20.7442C22.0293 17.9891 24.2971 15.7202 27.0508 15.7202C29.8045 15.7202 32.0723 17.9891 32.0723 20.7442C32.0723 23.4992 29.8045 25.7681 27.0508 25.7681ZM27.0508 18.9615C26.0789 18.9615 25.269 19.7718 25.269 20.7442C25.269 21.7165 26.0789 22.5268 27.0508 22.5268C28.0227 22.5268 28.8326 21.7165 28.8326 20.7442C28.8326 19.7718 28.0227 18.9615 27.0508 18.9615Z" fill="#4F46E5"/>
<path d="M43.4111 17.3409C40.6574 17.3409 38.3896 15.072 38.3896 12.3169C38.3896 9.56185 40.6574 7.29297 43.4111 7.29297C46.1649 7.29297 48.4326 9.56185 48.4326 12.3169C48.2706 15.072 46.0029 17.3409 43.4111 17.3409ZM43.4111 10.5342C42.4392 10.5342 41.6293 11.3445 41.6293 12.3169C41.6293 13.2893 42.4392 14.0996 43.4111 14.0996C44.383 14.0996 45.193 13.2893 45.193 12.3169C45.193 11.3445 44.383 10.5342 43.4111 10.5342Z" fill="#4F46E5"/>
<path d="M45.3552 74.873C44.5453 74.873 43.7354 74.2247 43.7354 73.2523V60.9356C43.7354 60.1253 44.3833 59.3149 45.3552 59.3149C46.3271 59.3149 46.975 59.9632 46.975 60.9356V73.2523C46.975 74.0626 46.1651 74.873 45.3552 74.873Z" fill="#4F46E5"/>
<path d="M45.3555 81.5176C42.6018 81.5176 40.334 79.2487 40.334 76.4937C40.334 73.7386 42.6018 71.4697 45.3555 71.4697C48.1092 71.4697 50.377 73.7386 50.377 76.4937C50.215 79.2487 48.1092 81.5176 45.3555 81.5176ZM45.3555 74.711C44.3836 74.711 43.5737 75.5213 43.5737 76.4937C43.5737 77.466 44.3836 78.2764 45.3555 78.2764C46.3274 78.2764 47.1373 77.466 47.1373 76.4937C47.1373 75.5213 46.3274 74.711 45.3555 74.711Z" fill="#4F46E5"/>
<path d="M31.2624 81.3555C30.4525 81.3555 29.6426 80.7072 29.6426 79.7348V60.9356C29.6426 60.1253 30.2905 59.3149 31.2624 59.3149C32.2343 59.3149 32.8822 59.9632 32.8822 60.9356V79.7348C32.8822 80.5452 32.0723 81.3555 31.2624 81.3555Z" fill="#4F46E5"/>
<path d="M31.2627 88C28.509 88 26.2412 85.7312 26.2412 82.9761C26.2412 80.221 28.509 77.9521 31.2627 77.9521C34.0164 77.9521 36.2842 80.221 36.2842 82.9761C36.2842 85.7312 34.0164 88 31.2627 88ZM31.2627 81.3555C30.2908 81.3555 29.4809 82.1658 29.4809 83.1382C29.4809 84.1105 30.2908 84.9208 31.2627 84.9208C32.2346 84.9208 33.0445 84.1105 33.0445 83.1382C33.0445 82.1658 32.2346 81.3555 31.2627 81.3555Z" fill="#4F46E5"/>
<path d="M62.364 80.059C61.5541 80.059 60.7441 79.4107 60.7441 78.4383V60.9356C60.7441 60.1253 61.3921 59.3149 62.364 59.3149C63.3359 59.3149 63.9838 59.9632 63.9838 60.9356V78.4383C63.9838 79.2487 63.1739 80.059 62.364 80.059Z" fill="#4F46E5"/>
<path d="M62.3633 86.7036C59.6096 86.7036 57.3418 84.4348 57.3418 81.6797C57.3418 78.9246 59.6096 76.6558 62.3633 76.6558C65.117 76.6558 67.3848 78.9246 67.3848 81.6797C67.3848 84.4348 65.117 86.7036 62.3633 86.7036ZM62.3633 79.897C61.3914 79.897 60.5815 80.7073 60.5815 81.6797C60.5815 82.6521 61.3914 83.4624 62.3633 83.4624C63.3352 83.4624 64.1451 82.6521 64.1451 81.6797C64.1451 80.7073 63.3352 79.897 62.3633 79.897Z" fill="#4F46E5"/>
<path d="M5.02149 55.7496C2.26777 55.7496 0 53.4807 0 50.8877C0 48.1326 2.26777 45.8638 5.02149 45.8638C7.77521 45.8638 10.043 48.1326 10.043 50.8877C9.88099 53.4807 7.61322 55.7496 5.02149 55.7496ZM5.02149 48.943C4.04959 48.943 3.23967 49.7533 3.23967 50.7256C3.23967 51.698 4.04959 52.5083 5.02149 52.5083C5.99339 52.5083 6.80331 51.698 6.80331 50.7256C6.80331 49.7533 5.99339 48.943 5.02149 48.943Z" fill="#4F46E5"/>
<path d="M10.043 34.6812C7.28925 34.6812 5.02148 32.4123 5.02148 29.6572C5.02148 26.9022 7.28925 24.6333 10.043 24.6333C12.7967 24.6333 15.0645 26.9022 15.0645 29.6572C15.0645 32.4123 12.7967 34.6812 10.043 34.6812ZM10.043 27.8746C9.07107 27.8746 8.26115 28.6849 8.26115 29.6572C8.26115 30.6296 9.07107 31.4399 10.043 31.4399C11.0149 31.4399 11.8248 30.6296 11.8248 29.6572C11.8248 28.6849 11.0149 27.8746 10.043 27.8746Z" fill="#4F46E5"/>
<path d="M12.1487 71.6317C11.8248 71.6317 11.5008 71.4697 11.1768 71.3076C10.5289 70.8214 10.3669 69.849 10.8529 69.0387L20.8958 56.3978C21.3818 55.7496 22.3537 55.5875 23.1636 56.0737C23.8115 56.5599 23.9735 57.5323 23.4876 58.3426L13.4446 70.9835C12.9587 71.4697 12.6347 71.6317 12.1487 71.6317Z" fill="#4F46E5"/>
<path d="M10.043 77.7901C7.28925 77.7901 5.02148 75.5212 5.02148 72.7661C5.02148 70.0111 7.28925 67.7422 10.043 67.7422C12.7967 67.7422 15.0645 70.0111 15.0645 72.7661C15.0645 75.5212 12.7967 77.7901 10.043 77.7901ZM10.043 70.9834C9.07107 70.9834 8.26115 71.7938 8.26115 72.7661C8.26115 73.7385 9.07107 74.5488 10.043 74.5488C11.0149 74.5488 11.8248 73.7385 11.8248 72.7661C11.8248 71.7938 11.0149 70.9834 10.043 70.9834Z" fill="#4F46E5"/>
<path d="M83.4219 18.4751C80.6682 18.4751 78.4004 16.2063 78.4004 13.4512C78.4004 10.6961 80.6682 8.42725 83.4219 8.42725C86.1756 8.42725 88.4434 10.6961 88.4434 13.4512C88.4434 16.2063 86.1756 18.4751 83.4219 18.4751ZM83.4219 11.6685C82.45 11.6685 81.6401 12.4788 81.6401 13.4512C81.6401 14.4236 82.45 15.2339 83.4219 15.2339C84.3938 15.2339 85.2037 14.4236 85.2037 13.4512C85.2037 12.4788 84.3938 11.6685 83.4219 11.6685Z" fill="#4F46E5"/>
<path d="M86.6614 70.6591C86.3374 70.6591 85.8515 70.497 85.6895 70.335L73.7027 59.6388C73.0548 58.9906 73.0548 58.0182 73.5407 57.37C74.1887 56.7217 75.1606 56.7217 75.8085 57.2079L87.7953 67.904C88.4432 68.5523 88.4432 69.5247 87.9572 70.1729C87.4713 70.497 86.9853 70.6591 86.6614 70.6591Z" fill="#4F46E5"/>
<path d="M89.0908 76.3316C86.3371 76.3316 84.0693 74.0627 84.0693 71.3077C84.0693 68.5526 86.3371 66.4458 89.0908 66.4458C91.8445 66.4458 94.1123 68.7147 94.1123 71.4697C94.1123 74.2248 91.8445 76.3316 89.0908 76.3316ZM89.0908 69.525C88.1189 69.525 87.309 70.3353 87.309 71.3077C87.309 72.2801 88.1189 73.0904 89.0908 73.0904C90.0627 73.0904 90.8726 72.2801 90.8726 71.3077C90.8726 70.3353 90.0627 69.525 89.0908 69.525Z" fill="#4F46E5"/>
<path d="M92.6543 40.3535C89.9006 40.3535 87.6328 38.0847 87.6328 35.3296C87.6328 32.5745 89.9006 30.3057 92.6543 30.3057C95.408 30.3057 97.6758 32.5745 97.6758 35.3296C97.5138 38.0847 95.246 40.3535 92.6543 40.3535ZM92.6543 33.5469C91.6824 33.5469 90.8725 34.3572 90.8725 35.3296C90.8725 36.302 91.6824 37.1123 92.6543 37.1123C93.6262 37.1123 94.4361 36.302 94.4361 35.3296C94.4361 34.3572 93.6262 33.5469 92.6543 33.5469Z" fill="#4F46E5"/>
<path d="M92.9785 55.7495C90.2248 55.7495 87.957 53.4807 87.957 50.7256C87.957 47.9705 90.2248 45.7017 92.9785 45.7017C95.7322 45.7017 98 47.9705 98 50.7256C98 53.4807 95.7322 55.7495 92.9785 55.7495ZM92.9785 48.9429C92.0066 48.9429 91.1967 49.7532 91.1967 50.7256C91.1967 51.698 92.0066 52.5083 92.9785 52.5083C93.9504 52.5083 94.7603 51.698 94.7603 50.7256C94.7603 49.7532 93.9504 48.9429 92.9785 48.9429Z" fill="#4F46E5"/>
<path d="M35.15 55.7496H31.2624C30.4525 55.7496 29.6426 55.1013 29.6426 54.1289C29.6426 53.3186 30.2905 52.5083 31.2624 52.5083H35.15C35.9599 52.5083 36.7699 53.1566 36.7699 54.1289C36.7699 55.1013 36.1219 55.7496 35.15 55.7496Z" fill="#4F46E5"/>
<path d="M46.9757 55.7496H41.1442C40.3343 55.7496 39.5244 55.1013 39.5244 54.1289C39.5244 53.3186 40.1723 52.5083 41.1442 52.5083H46.9757C47.7856 52.5083 48.5955 53.1566 48.5955 54.1289C48.5955 55.1013 47.9476 55.7496 46.9757 55.7496Z" fill="#4F46E5"/>
<path d="M56.8561 55.7496H52.9685C52.1585 55.7496 51.3486 55.1013 51.3486 54.1289C51.3486 53.3186 51.9966 52.5083 52.9685 52.5083H56.8561C57.666 52.5083 58.4759 53.1566 58.4759 54.1289C58.4759 55.1013 57.666 55.7496 56.8561 55.7496Z" fill="#4F46E5"/>
</svg>
