<svg width="106" height="106" viewBox="0 0 106 106" fill="none" xmlns="http://www.w3.org/2000/svg">
<path d="M73.1936 59.3451C73.2095 56.4738 73.2095 53.6184 73.2253 50.7471C73.2253 48.669 69.9892 48.6532 69.9892 50.7471C69.9892 53.0473 69.9733 55.3475 69.9733 57.6319C69.9733 59.0913 69.9575 60.5349 69.9575 61.9943C69.9575 62.1371 69.9416 62.2957 69.9257 62.4702C69.5133 62.724 69.0533 63.0889 68.7994 63.2317C67.7049 63.8662 66.6261 64.5007 65.5316 65.1353C62.692 66.7851 59.8525 68.4348 56.997 70.0846C56.0611 70.624 55.141 71.1634 54.2051 71.7027C54.332 65.6746 54.1892 59.6307 54.2051 53.6026C54.2051 53.5708 54.2051 53.555 54.2051 53.5074C54.3161 53.4439 54.4272 53.3805 54.5382 53.3011C59.7414 50.414 64.8494 47.3365 69.9892 44.3225C69.9892 44.957 69.9892 45.6074 69.9892 46.2419C69.9892 48.32 73.2253 48.3359 73.2253 46.2419C73.2253 45.3377 73.2253 44.4335 73.2253 43.5451C73.2253 42.6885 73.4157 41.5146 72.9715 40.7532C72.8922 40.6104 72.7812 40.4835 72.6543 40.3725C72.2101 39.8807 71.5438 39.5951 70.941 39.2462C69.4498 38.3895 67.9587 37.517 66.4675 36.6604C62.8824 34.5823 59.2972 32.5201 55.6963 30.442C54.9189 29.9978 54.1416 29.4426 53.3326 29.0777C52.2063 28.5701 51.429 29.1729 50.493 29.7122C47.1776 31.6317 43.8621 33.567 40.5625 35.4865C38.0244 36.9618 35.2007 38.2785 32.8053 39.9917C32.2818 40.3725 32.028 40.8008 31.9804 41.2449C31.8535 41.705 31.8218 42.2126 31.8218 42.6568C31.8059 46.4481 31.8059 50.2236 31.7901 54.015C31.7742 57.1084 31.6156 60.2335 31.7583 63.3268C31.8218 64.4849 32.5357 64.8815 33.3923 65.3891C34.7248 66.1505 36.0573 66.9278 37.3899 67.6893C41.0702 69.815 44.7663 71.9407 48.4467 74.0664C49.4461 74.6374 50.4137 75.2561 51.429 75.7955C51.6511 75.9065 51.8573 75.9858 52.0635 76.0176C52.2222 76.0652 52.3967 76.0969 52.5712 76.0969C53.2691 76.0969 53.872 75.6368 54.4589 75.3037C55.4424 74.7326 56.426 74.1615 57.4254 73.5905C60.3442 71.8931 63.279 70.1957 66.1978 68.4983C68.1649 67.3561 70.1954 66.2774 72.1308 65.0559C73.7964 63.9931 73.1777 61.0425 73.1936 59.3451ZM50.9372 64.0883C50.9372 66.3567 50.9214 68.6252 50.9214 70.9095C50.9214 71.1951 50.9214 71.4806 50.9214 71.7503C49.5254 70.9413 48.1294 70.1322 46.7334 69.3232C43.3704 67.372 39.9915 65.4367 36.6284 63.4855C36.1366 63.1999 35.6449 62.9144 35.1373 62.6288C35.1214 62.613 35.0738 62.5971 35.0421 62.5654C35.0421 62.2798 35.0103 61.9943 35.0103 61.7246C35.0262 57.9491 35.0262 54.1736 35.0421 50.3981C35.0421 48.3835 35.0579 46.3688 35.0579 44.3542C35.0579 44.3383 35.0579 44.3066 35.0579 44.2907C35.1214 44.3225 35.1848 44.3542 35.2483 44.4018C35.8035 44.719 36.3746 45.0522 36.9298 45.3694C39.2776 46.7178 41.6254 48.0821 43.9732 49.4305C45.3057 50.1919 46.6224 50.9692 47.9549 51.7307C48.9543 52.3176 49.9537 52.9204 50.9689 53.4756C50.9689 53.6501 50.9689 53.8246 50.9689 54.015C50.9689 57.378 50.9531 60.7411 50.9372 64.0883ZM53.872 49.9381C53.4595 50.1761 53.0153 50.3981 52.587 50.6361C52.2856 50.4775 51.9842 50.3347 51.7463 50.1919C48.5101 48.32 45.2581 46.4482 42.022 44.5763C40.626 43.7672 39.2459 42.9741 37.8499 42.165C37.4533 41.9429 37.0726 41.7209 36.676 41.4988C41.4192 38.7544 46.1465 35.9942 50.8896 33.2498C51.3814 32.9642 51.8732 32.6787 52.3649 32.3932C52.3808 32.3773 52.4125 32.3614 52.4601 32.3456C52.7139 32.4883 52.9677 32.5994 53.1898 32.7422C56.4736 34.6458 59.7573 36.5335 63.041 38.4371C64.8177 39.4682 66.6103 40.4994 68.387 41.5146C67.0703 42.2761 65.7537 43.0375 64.437 43.8148C62.2161 45.0998 60.0111 46.3847 57.7902 47.6696C56.5846 48.3676 55.379 49.0656 54.1734 49.7636C54.0782 49.8271 53.9671 49.8746 53.872 49.9381Z" fill="#4F46E5"/>
<path d="M50.8739 13.0239C50.8739 14.8006 50.8739 16.5773 50.8739 18.354C50.8739 20.4321 54.1101 20.448 54.1101 18.354C54.1101 16.5773 54.1101 14.8006 54.1101 13.0239C56.8544 12.3259 58.8215 9.88291 59.0753 6.99577C59.0912 6.88472 59.107 6.75782 59.107 6.63091C59.107 6.504 59.107 6.3771 59.0753 6.26605C58.7898 2.82369 56.0613 0 52.492 0C48.891 0 45.877 3.01405 45.877 6.61505C45.8928 9.64496 48.0344 12.2783 50.8739 13.0239ZM55.8709 6.61505C55.7123 10.9616 49.129 10.9775 49.129 6.61505C49.129 2.23674 55.7123 2.26847 55.8709 6.61505Z" fill="#4F46E5"/>
<path d="M52.4921 21.273C51.6196 21.3047 50.874 21.9869 50.874 22.8911C50.874 23.6366 50.874 24.3664 50.874 25.1119C50.874 25.9527 51.6196 26.7776 52.4921 26.73C53.3646 26.6983 54.1102 26.0162 54.1102 25.1119C54.1102 24.3664 54.1102 23.6366 54.1102 22.8911C54.1102 22.0344 53.3805 21.2254 52.4921 21.273Z" fill="#4F46E5"/>
<path d="M59.0914 98.0199C58.8376 95.1328 56.8705 92.6898 54.1262 91.976C54.1262 87.9466 54.1262 83.9173 54.1262 79.9039C54.1262 77.8258 50.89 77.8099 50.89 79.9039C50.89 83.9332 50.89 87.9625 50.89 91.9918C48.0505 92.7374 45.8931 95.3549 45.8931 98.4007C45.8931 101.986 48.9071 105.032 52.5081 105.016C56.0774 105 58.79 102.208 59.0914 98.7814C59.1073 98.6703 59.1231 98.5434 59.1231 98.4165C59.1231 98.2579 59.1073 98.131 59.0914 98.0199ZM49.1292 98.3848C49.1292 94.0223 55.7125 94.0541 55.8711 98.3848C55.7125 102.716 49.1292 102.747 49.1292 98.3848Z" fill="#4F46E5"/>
<path d="M13.2301 52.492C13.2142 48.9227 10.4223 46.2101 6.99577 45.9087C6.88473 45.8928 6.75782 45.877 6.63091 45.877C6.504 45.877 6.3771 45.877 6.26605 45.9087C2.82369 46.2101 0 48.9386 0 52.492C0 56.093 3.01405 59.107 6.61505 59.107C10.2002 59.107 13.246 56.093 13.2301 52.492ZM6.61505 55.8709C2.25261 55.8709 2.28433 49.2876 6.61505 49.129C10.9458 49.2876 10.9775 55.8709 6.61505 55.8709Z" fill="#4F46E5"/>
<path d="M16.1807 50.874C14.1026 50.874 14.0868 54.1102 16.1807 54.1102C19.1631 54.1102 22.1295 54.1102 25.1119 54.1102C27.19 54.1102 27.2058 50.874 25.1119 50.874C22.1295 50.874 19.1472 50.874 16.1807 50.874Z" fill="#4F46E5"/>
<path d="M98.7497 45.9087C98.6386 45.8928 98.5117 45.877 98.3848 45.877C98.2579 45.877 98.131 45.877 98.0199 45.9087C95.1328 46.1625 92.6898 48.1296 91.976 50.8739C87.9466 50.8739 83.9173 50.8739 79.9039 50.8739C77.8258 50.8739 77.8099 54.1101 79.9039 54.1101C83.9332 54.1101 87.9625 54.1101 91.9918 54.1101C92.7374 56.9496 95.3549 59.107 98.4007 59.107C101.986 59.107 105.032 56.093 105.016 52.492C104.984 48.9386 102.192 46.2101 98.7497 45.9087ZM98.3848 55.8709C94.0223 55.8709 94.0541 49.2876 98.3848 49.129C102.716 49.2876 102.747 55.8709 98.3848 55.8709Z" fill="#4F46E5"/>
<path d="M27.7449 74.9707C26.8883 75.8273 26.0476 76.6681 25.1909 77.5247C21.6851 75.05 16.9578 75.5894 13.8327 78.3972C13.7693 78.4448 13.7058 78.5082 13.6424 78.5717C13.5631 78.651 13.4996 78.7303 13.4361 78.7938C10.9773 81.554 10.2793 85.4247 11.8657 88.8195C13.4203 92.1666 17.0847 94.2923 20.765 93.9592C24.5564 93.6102 27.8401 90.9293 28.7919 87.2014C29.4423 84.6157 28.903 81.9506 27.4435 79.8249C28.3002 78.9683 29.1568 78.1117 30.0134 77.255C31.5046 75.7797 29.2202 73.4795 27.7449 74.9707ZM24.1598 89.0415C21.9072 91.2783 18.1952 91.2783 15.9584 89.0415C13.6741 86.7572 13.7851 83.1404 15.9584 80.8402C18.2586 78.651 21.8755 78.5558 24.1598 80.8402C26.3966 83.0769 26.3966 86.8207 24.1598 89.0415Z" fill="#4F46E5"/>
<path d="M31.9808 70.719C31.4732 71.2266 30.9655 71.7342 30.4579 72.2419C29.8551 72.8447 29.8075 73.9393 30.4579 74.5262C31.1083 75.1132 32.1077 75.1608 32.7423 74.5262C33.2499 74.0186 33.7575 73.511 34.2651 73.0033C34.868 72.4005 34.9155 71.3059 34.2651 70.719C33.6306 70.132 32.6153 70.0844 31.9808 70.719Z" fill="#4F46E5"/>
<path d="M73.0192 34.2648C75.2877 31.9963 77.5562 29.7279 79.8088 27.4753C81.5062 28.6492 83.5843 29.252 85.6782 29.0616C89.4696 28.7126 92.7533 26.0317 93.7051 22.3038C94.6252 18.6552 93.1658 14.8163 90.12 12.643C86.6142 10.1365 81.8552 10.6759 78.7301 13.4837C78.6666 13.5313 78.6032 13.5948 78.5397 13.6582C78.4604 13.7375 78.3969 13.8169 78.3335 13.8803C75.8746 16.6405 75.1766 20.5112 76.763 23.906C76.9692 24.3502 77.223 24.7785 77.4927 25.1751C75.2242 27.4435 72.9716 29.6961 70.7032 31.9646C69.2437 33.4558 71.5439 35.7401 73.0192 34.2648ZM89.0413 15.9426C91.278 18.1793 91.278 21.9231 89.0413 24.1439C86.7887 26.3807 83.0766 26.3807 80.8399 24.1439C78.5556 21.8596 78.6666 18.2428 80.8399 15.9426C83.1401 13.7693 86.757 13.6741 89.0413 15.9426Z" fill="#4F46E5"/>
<path d="M91.3416 78.5557C91.2623 78.4763 91.1829 78.4129 91.1195 78.3494C88.3593 75.8906 84.4886 75.1926 81.0938 76.779C80.6496 76.9852 80.2213 77.239 79.8247 77.5087C77.5563 75.2402 75.3037 72.9876 73.0352 70.7191C71.5599 69.2438 69.2756 71.5282 70.7509 73.0035C73.0193 75.2719 75.2878 77.5404 77.5404 79.793C76.3665 81.4904 75.7637 83.5685 75.9541 85.6625C76.3031 89.4538 78.984 92.7376 82.7119 93.6894C86.3605 94.6094 90.1994 93.15 92.3727 90.1042C94.8791 86.5984 94.3398 81.8394 91.5319 78.7143C91.4526 78.6667 91.405 78.6032 91.3416 78.5557ZM89.0414 89.0414C86.8046 91.2781 83.0609 91.2781 80.84 89.0414C78.6033 86.7888 78.6033 83.0767 80.84 80.84C83.1243 78.5557 86.7412 78.6667 89.0414 80.84C91.2305 83.1402 91.3257 86.7571 89.0414 89.0414Z" fill="#4F46E5"/>
<path d="M17.7987 28.8078C20.3844 29.4582 23.0495 28.9189 25.1752 27.4594C27.4437 29.7279 29.7121 31.9964 31.9806 34.2648C33.4559 35.7401 35.7402 33.4558 34.2649 31.9805C31.9965 29.712 29.7439 27.4594 27.4754 25.1909C29.9501 21.6851 29.4107 16.9578 26.6029 13.8327C26.5553 13.7693 26.4919 13.7058 26.4284 13.6424C26.3491 13.5631 26.2698 13.4996 26.2063 13.4361C23.4461 10.9773 19.5754 10.2793 16.1806 11.8657C12.8493 13.4362 10.7077 17.1006 11.0409 20.7809C11.4057 24.5723 14.0708 27.8719 17.7987 28.8078ZM15.9427 15.9426C18.227 13.6582 21.8439 13.7693 24.1441 15.9426C26.3332 18.2428 26.4284 21.8596 24.1441 24.144C21.9073 26.3807 18.1636 26.3807 15.9427 24.144C13.7059 21.9072 13.7059 18.1952 15.9427 15.9426Z" fill="#4F46E5"/>
</svg>
