<svg width="89" height="78" viewBox="0 0 89 78" fill="none" xmlns="http://www.w3.org/2000/svg">
<path d="M38.8639 78C17.4972 78 0 60.6104 0 39C0 17.5584 17.4972 0 38.8639 0C45.2571 0 51.482 1.51948 57.034 4.55844C57.707 4.8961 58.0435 5.90909 57.707 6.58442C57.3705 7.25974 56.3611 7.5974 55.6881 7.25974C50.4726 4.55844 44.7524 3.03896 38.8639 3.03896C19.0113 3.03896 2.86011 19.2468 2.86011 39.1688C2.86011 59.0909 19.0113 75.2987 38.8639 75.2987C48.6219 75.2987 57.707 71.4156 64.6049 64.3247C65.1096 63.8182 66.1191 63.6493 66.6238 64.3247C67.1285 64.8312 67.2968 65.8442 66.6238 66.3506C59.3894 73.7792 49.4631 78 38.8639 78Z" fill="#4F46E5"/>
<path d="M38.8635 78C26.9183 78 17.665 60.7792 17.665 39C17.665 17.2208 26.9183 0 38.8635 0C43.7425 0 48.4533 2.87013 52.1546 8.44156C52.6594 9.11688 52.4911 9.96104 51.8182 10.4675C51.1452 10.974 50.304 10.8052 49.7993 10.1299C47.6121 6.92208 43.9108 2.87013 38.8635 2.87013C28.9373 2.87013 20.5252 19.4156 20.5252 39C20.5252 58.5844 28.9373 75.1299 38.8635 75.1299C45.5932 75.1299 51.6499 67.8701 54.8465 56.2208C55.0148 55.3766 55.856 55.039 56.6972 55.2078C57.5384 55.3766 57.8749 56.2208 57.7066 57.0649C54.1735 69.8961 46.9391 78 38.8635 78Z" fill="#4F46E5"/>
<path d="M38.8639 60.2725C17.1607 60.2725 0 50.9868 0 38.9998C0 27.0128 17.1607 17.7271 38.8639 17.7271C42.0605 17.7271 45.0888 17.8959 48.1172 18.4024C48.9584 18.5712 49.4631 19.2465 49.4631 20.0907C49.2949 20.9348 48.6219 21.4413 47.7807 21.4413C44.9206 21.1037 41.8923 20.9348 38.8639 20.9348C19.3478 20.9348 2.86011 29.3764 2.86011 39.3374C3.02836 48.9608 19.3478 57.4024 38.8639 57.4024C44.7524 57.4024 50.6408 56.5582 56.0246 55.2076C56.8658 55.0387 57.707 55.3764 57.8752 56.2206C58.0435 57.0647 57.707 57.9089 56.8658 58.0777C51.3138 59.5972 45.0888 60.2725 38.8639 60.2725Z" fill="#4F46E5"/>
<path d="M38.8638 78C38.0226 78 37.3496 77.3247 37.3496 76.4805V1.51948C37.3496 0.675325 38.0226 0 38.8638 0C39.705 0 40.378 0.675325 40.378 1.51948V76.6494C40.378 77.3247 39.705 78 38.8638 78Z" fill="#4F46E5"/>
<path d="M50.6408 40.5194H1.51418C0.672968 40.5194 0 39.8441 0 38.9999C0 38.1558 0.672968 37.4805 1.51418 37.4805H50.6408C51.482 37.4805 52.155 38.1558 52.155 38.9999C52.155 39.8441 51.482 40.5194 50.6408 40.5194Z" fill="#4F46E5"/>
<path d="M69.8208 17.0519C68.9796 17.0519 68.3066 16.3765 68.3066 15.5324V13.6752C68.3066 12.8311 68.9796 12.1558 69.8208 12.1558C70.662 12.1558 71.335 12.8311 71.335 13.6752V15.5324C71.335 16.3765 70.662 17.0519 69.8208 17.0519Z" fill="#4F46E5"/>
<path d="M72.3439 34.9479C71.8391 34.9479 71.3344 34.6102 70.9979 34.2725C70.6614 33.5972 70.8297 32.5842 71.5026 32.2466C72.5121 31.7401 73.1851 30.7271 73.1851 29.5453C73.1851 27.857 71.6709 26.3375 69.652 26.3375C66.1189 26.3375 63.2588 23.6362 63.2588 20.2596C63.2588 16.8829 66.1189 14.1816 69.652 14.1816C73.1851 14.1816 76.0452 16.8829 76.0452 20.2596C76.0452 21.1037 75.3722 21.779 74.531 21.779C73.6898 21.779 73.0168 21.1037 73.0168 20.2596C73.0168 18.5713 71.5026 17.0518 69.4837 17.0518C67.6331 17.0518 65.9507 18.4024 65.9507 20.2596C65.9507 21.9479 67.4648 23.4674 69.4837 23.4674C73.0168 23.4674 75.8769 26.1687 75.8769 29.5453C75.8769 31.7401 74.6992 33.7661 72.6803 34.779C72.8486 34.9479 72.6803 34.9479 72.3439 34.9479Z" fill="#4F46E5"/>
<path d="M67.4646 35.1168C67.2963 35.1168 66.9598 35.1168 66.7916 34.948C64.7727 33.935 63.4268 31.7402 63.4268 29.5454C63.4268 28.7012 64.0997 28.0259 64.9409 28.0259C65.7821 28.0259 66.4551 28.7012 66.4551 29.5454C66.4551 30.7272 67.1281 31.7402 68.3058 32.2467C68.9787 32.5843 69.3152 33.4285 68.9787 34.2726C68.474 34.7791 67.9693 35.1168 67.4646 35.1168Z" fill="#4F46E5"/>
<path d="M69.8208 41.0258C68.9796 41.0258 68.3066 40.3505 68.3066 39.5064V38.1557C68.3066 37.3116 68.9796 36.6362 69.8208 36.6362C70.662 36.6362 71.335 37.3116 71.335 38.1557V39.5064C71.335 40.3505 70.662 41.0258 69.8208 41.0258Z" fill="#4F46E5"/>
<path d="M69.8205 59.9352C62.0814 59.9352 55.8564 53.6884 55.8564 45.9222C55.8564 38.1559 62.0814 31.9092 69.8205 31.9092C77.5597 31.9092 83.7846 38.1559 83.7846 45.9222C83.7846 53.6884 77.3914 59.9352 69.8205 59.9352ZM69.8205 35.117C63.7638 35.117 58.8848 40.0131 58.8848 46.091C58.8848 52.1689 63.7638 57.065 69.8205 57.065C75.8772 57.065 80.7563 52.1689 80.7563 46.091C80.7563 40.0131 75.8772 35.117 69.8205 35.117Z" fill="#4F46E5"/>
<path d="M69.8207 54.0258C67.1288 54.0258 64.7734 51.831 64.7734 49.2985C64.7734 48.4543 65.4464 47.779 66.2876 47.779C67.1288 47.779 67.8018 48.4543 67.8018 49.2985C67.8018 50.3115 68.643 51.1556 69.8207 51.1556C70.9984 51.1556 71.8396 50.3115 71.8396 49.2985C71.8396 48.2855 70.9984 47.4414 69.8207 47.4414C67.1288 47.4414 64.7734 45.2466 64.7734 42.7141C64.7734 40.0128 66.9606 37.9868 69.8207 37.9868C72.5126 37.9868 74.868 40.1816 74.868 42.7141C74.868 43.5582 74.195 44.2336 73.3538 44.2336C72.5126 44.2336 71.8396 43.5582 71.8396 42.7141C71.8396 41.7011 70.9984 40.8569 69.8207 40.8569C68.643 40.8569 67.8018 41.7011 67.8018 42.7141C67.8018 43.7271 68.643 44.5712 69.8207 44.5712C72.5126 44.5712 74.868 46.766 74.868 49.2985C74.6997 51.9998 72.5126 54.0258 69.8207 54.0258Z" fill="#4F46E5"/>
<path d="M69.8208 55.5453C68.9796 55.5453 68.3066 54.8699 68.3066 54.0258V52.5063C68.3066 51.6621 68.9796 50.9868 69.8208 50.9868C70.662 50.9868 71.335 51.6621 71.335 52.5063V54.0258C71.335 54.8699 70.662 55.5453 69.8208 55.5453Z" fill="#4F46E5"/>
<path d="M87.4859 44.5713C86.6446 44.5713 85.9717 43.896 85.9717 43.0518V40.3505C85.9717 39.5064 86.6446 38.8311 87.4859 38.8311C88.3271 38.8311 89 39.5064 89 40.3505V43.0518C89 44.0648 88.3271 44.5713 87.4859 44.5713Z" fill="#4F46E5"/>
<path d="M86.3081 59.4284C85.4669 59.4284 84.7939 58.7531 84.7939 57.9089V54.0258C84.7939 53.1817 85.4669 52.5063 86.3081 52.5063C87.1493 52.5063 87.8223 53.1817 87.8223 54.0258V57.9089C87.8223 58.7531 87.1493 59.4284 86.3081 59.4284Z" fill="#4F46E5"/>
<path d="M76.2134 69.5584C75.3722 69.5584 74.6992 68.883 74.6992 68.0389V62.8051C74.6992 61.961 75.3722 61.2856 76.2134 61.2856C77.0546 61.2856 77.7276 61.961 77.7276 62.8051V68.0389C77.7276 68.883 77.0546 69.5584 76.2134 69.5584Z" fill="#4F46E5"/>
<path d="M80.0832 40.6882C79.915 40.6882 79.915 40.6882 79.7468 40.6882C79.4103 40.6882 79.0738 40.3505 78.7373 40.0128C76.7184 36.9739 73.3536 35.1167 69.6522 35.1167C65.9509 35.1167 62.5861 36.9739 60.5672 40.0128C60.3989 40.3505 60.0624 40.5193 59.5577 40.6882C59.2212 40.6882 58.7165 40.6882 58.38 40.3505C53.501 36.8051 50.4727 30.896 50.4727 24.818C50.4727 14.1817 59.053 5.57129 69.6522 5.57129C80.2515 5.57129 88.8318 14.1817 88.8318 24.818C88.8318 30.896 85.8035 36.8051 80.9244 40.3505C80.7562 40.5193 80.4197 40.6882 80.0832 40.6882ZM69.8205 8.61025C60.9037 8.61025 53.6693 15.87 53.6693 24.818C53.6693 29.5453 55.6882 33.9349 59.2212 36.9739C61.9131 33.7661 65.7827 32.0778 69.8205 32.0778C73.8583 32.0778 77.8961 33.9349 80.4197 36.9739C83.9528 33.9349 85.9717 29.3765 85.9717 24.818C85.9717 15.87 78.7373 8.61025 69.8205 8.61025Z" fill="#4F46E5"/>
</svg>
