<svg width="71" height="93" viewBox="0 0 71 93" fill="none" xmlns="http://www.w3.org/2000/svg">
<path d="M15.8931 62.1731C10.0196 62.1731 5.18262 57.3239 5.18262 51.4357C5.18262 45.5474 10.0196 40.6982 15.8931 40.6982C21.7666 40.6982 26.6035 45.5474 26.6035 51.4357C26.6035 57.3239 21.7666 62.1731 15.8931 62.1731ZM15.8931 43.6424C11.7471 43.6424 8.29211 47.1061 8.29211 51.2625C8.29211 55.4189 11.7471 58.8826 15.8931 58.8826C20.0391 58.8826 23.4941 55.4189 23.4941 51.2625C23.4941 47.1061 20.0391 43.6424 15.8931 43.6424Z" fill="#4F46E5"/>
<path d="M15.8933 56.631C12.9566 56.631 10.5381 54.2064 10.5381 51.2623C10.5381 48.3181 12.9566 45.8936 15.8933 45.8936C16.7571 45.8936 17.4481 46.5863 17.4481 47.4522C17.4481 48.3181 16.7571 49.0109 15.8933 49.0109C14.6841 49.0109 13.6476 50.05 13.6476 51.2623C13.6476 52.4746 14.5113 53.6869 15.8933 53.6869C17.1026 53.6869 18.1391 52.6477 18.1391 51.4355C18.1391 50.5695 18.8301 49.8768 19.6938 49.8768C20.5576 49.8768 21.2485 50.5695 21.2485 51.4355C21.0758 54.3796 18.6573 56.631 15.8933 56.631Z" fill="#4F46E5"/>
<path d="M15.8929 67.1955C7.08272 67.1955 0 60.095 0 51.2626C0 42.4301 7.08272 35.3296 15.8929 35.3296C24.7032 35.3296 31.7859 42.4301 31.7859 51.2626C31.7859 60.095 24.5304 67.1955 15.8929 67.1955ZM15.8929 38.6201C8.81022 38.6201 3.10949 44.3352 3.10949 51.4357C3.10949 58.5363 8.81022 64.2514 15.8929 64.2514C22.9757 64.2514 28.6764 58.5363 28.6764 51.4357C28.6764 44.3352 22.8029 38.6201 15.8929 38.6201Z" fill="#4F46E5"/>
<path d="M46.1245 26.497C41.633 26.497 37.8325 23.8992 36.1051 19.7428C35.7596 18.8769 36.1051 18.011 36.9688 17.8378C37.8325 17.4914 38.6963 17.8378 38.869 18.7037C40.0783 21.6478 42.8423 23.5529 45.9518 23.5529C50.0978 23.5529 53.5527 20.0892 53.5527 15.9327C53.5527 11.7763 50.0978 8.31263 45.9518 8.31263C43.706 8.31263 41.633 9.35174 40.0783 10.9104C39.56 11.6031 38.5235 11.6031 38.0053 11.0836C37.487 10.3908 37.487 9.52492 38.0053 8.83218C39.9055 6.58079 43.015 5.19531 46.1245 5.19531C51.998 5.19531 56.835 10.0445 56.835 15.9327C56.6622 21.821 51.998 26.497 46.1245 26.497Z" fill="#4F46E5"/>
<path d="M46.1244 31.6926C37.3142 31.6926 30.2314 24.592 30.2314 15.7596C30.2314 6.92722 37.3142 -0.17334 46.1244 -0.17334C47.5064 -0.17334 48.8884 -0.000155494 50.2704 0.346213C51.1341 0.519397 51.4796 1.38532 51.3069 2.25124C50.9614 3.29035 50.0976 3.63672 49.4066 3.46353C48.3701 3.11716 47.1609 3.11716 46.1244 3.11716C39.0417 3.11716 33.3409 8.83225 33.3409 15.9328C33.3409 23.0334 39.0417 28.7484 46.1244 28.7484C52.1706 28.7484 57.5259 24.4188 58.7351 18.5306C58.9079 17.6646 59.7716 17.1451 60.4626 17.3183C61.3263 17.4915 61.8446 18.3574 61.6718 19.0501C60.1171 26.3239 53.5526 31.6926 46.1244 31.6926Z" fill="#4F46E5"/>
<path d="M55.2797 92.9997C46.4694 92.9997 39.3867 85.8992 39.3867 77.0668C39.3867 68.2344 46.4694 61.1338 55.2797 61.1338C64.0899 61.1338 71.1726 68.2344 71.1726 77.0668C70.9999 85.8992 63.9171 92.9997 55.2797 92.9997ZM55.2797 64.4243C48.1969 64.4243 42.4962 70.1394 42.4962 77.2399C42.4962 84.3405 48.1969 90.0556 55.2797 90.0556C62.3624 90.0556 68.0631 84.3405 68.0631 77.2399C68.0631 70.1394 62.1896 64.4243 55.2797 64.4243Z" fill="#4F46E5"/>
<path d="M43.1871 70.8323C42.8416 70.8323 42.6688 70.8323 42.3233 70.6591L26.9486 60.6144C26.6031 60.4412 26.4304 60.0949 26.2576 59.5753C26.2576 59.229 26.2576 58.7094 26.4304 58.363C27.8124 56.2848 28.5034 53.8602 28.5034 51.4357C28.5034 47.6256 26.9486 44.1619 24.0119 41.7373C23.3209 41.2178 23.3209 40.1787 23.8391 39.6591L35.4133 25.9776C35.7588 25.6312 36.1043 25.458 36.4498 25.458C36.7953 25.458 37.3136 25.6312 37.4863 25.8044C39.7321 27.7094 42.6688 28.9217 45.7783 28.9217C46.2966 28.9217 46.9876 28.9217 47.6786 28.7485C48.5423 28.5753 49.2333 29.2681 49.406 29.9608L54.4158 62.8658C54.4158 63.2122 54.4158 63.7318 54.0703 64.0781C53.8975 64.4245 53.552 64.5977 53.0338 64.5977C49.406 65.1172 46.2966 67.1954 44.2236 70.3128C44.2236 70.6591 43.7053 70.8323 43.1871 70.8323ZM29.8854 58.7094L42.8416 67.1954C45.0873 64.4245 48.0241 62.5195 51.3063 61.6535L46.8148 31.5195C46.4693 31.5195 46.2966 31.5195 45.9511 31.5195C42.6688 31.5195 39.5593 30.4804 36.9681 28.5753L27.1214 40.0055C29.8854 42.9496 31.6129 46.9329 31.6129 51.0893C31.6129 54.0334 31.0946 56.458 29.8854 58.7094Z" fill="#4F46E5"/>
<path d="M55.2794 71.6981C54.4156 71.6981 53.7246 71.0054 53.7246 70.1395V68.754C53.7246 67.8881 54.4156 67.1953 55.2794 67.1953C56.1431 67.1953 56.8341 67.8881 56.8341 68.754V70.1395C56.6613 71.1786 55.9703 71.6981 55.2794 71.6981Z" fill="#4F46E5"/>
<path d="M55.2801 85.726C52.3434 85.726 50.0977 83.4746 50.0977 80.7036C50.0977 79.8377 50.7887 79.145 51.6524 79.145C52.5161 79.145 53.2071 79.8377 53.2071 80.7036C53.2071 81.7427 54.2436 82.6087 55.4529 82.6087C56.6621 82.6087 57.6986 81.7427 57.6986 80.7036C57.6986 79.6645 56.6621 78.7986 55.4529 78.7986C52.5161 78.7986 50.2704 76.5472 50.2704 73.7762C50.2704 71.0053 52.6889 68.7539 55.4529 68.7539C58.3896 68.7539 60.6354 71.0053 60.6354 73.7762C60.6354 74.6422 59.9444 75.3349 59.0806 75.3349C58.2169 75.3349 57.5259 74.6422 57.5259 73.7762C57.5259 72.7371 56.4894 71.8712 55.2801 71.8712C54.0709 71.8712 53.0344 72.7371 53.0344 73.7762C53.0344 74.8154 54.0709 75.6813 55.2801 75.6813C58.2169 75.6813 60.4626 77.9327 60.4626 80.7036C60.4626 83.4746 58.0441 85.726 55.2801 85.726Z" fill="#4F46E5"/>
<path d="M55.2794 87.2849C54.4156 87.2849 53.7246 86.5921 53.7246 85.7262V84.1675C53.7246 83.3016 54.4156 82.6089 55.2794 82.6089C56.1431 82.6089 56.8341 83.3016 56.8341 84.1675V85.7262C56.6613 86.5921 55.9703 87.2849 55.2794 87.2849Z" fill="#4F46E5"/>
</svg>
