<svg width="43" height="42" viewBox="0 0 43 42" fill="none" xmlns="http://www.w3.org/2000/svg">
<path d="M42.5295 17.9898L28.2926 3.87031L27.2783 2.86689L25.6843 1.2901L24.6338 0.250853L24.3802 0L17.8595 0.716724L1.19546 17.2014L0.289809 18.0973L0 23.9386H0.0362261L17.9319 41.6416L24.4889 42L41.334 25.3362L42.0223 24.6553L42.1672 24.5119L42.2034 24.4761L42.1672 24.4403L42.5295 18.0256V17.9898ZM24.7424 2.18601L26.3364 3.7628L23.8006 6.27133L22.8949 7.16724L21.0111 9.03072L20.1055 9.92662L9.59992 20.3549L7.96974 18.7782L24.7424 2.18601ZM21.1923 10.8942L31.7703 21.3584L21.1923 31.8225L10.6143 21.3584L21.1923 10.8942ZM18.5478 2.04266L23.3658 1.50512L6.95541 17.7389L6.08599 18.599V18.6348L20.2866 32.6826L18.584 34.4027L2.20979 18.2048L18.5478 2.04266ZM1.41282 23.5802L1.63017 19.4232L17.6783 35.2986L15.4685 37.4846L1.41282 23.5802ZM16.4829 38.4881L18.6927 36.302L19.5983 35.4061L21.301 33.7218L22.2066 32.8259L32.7846 22.3618L34.3786 23.9386L18.1131 40.0648L16.4829 38.4881ZM23.9092 40.5307L19.8881 40.3157L35.3929 24.9778L36.2986 24.0819L35.2842 23.0785L33.6541 21.5017L32.6397 20.4983L22.0617 10.0341L23.9455 8.17065L40.2834 24.3328L23.9092 40.5307ZM40.8268 23.0785L24.8511 7.27474L27.3869 4.76621L41.0804 18.3123L40.8268 23.0785Z" fill="#DE8D09"/>
</svg>
