<svg width="94" height="98" viewBox="0 0 94 98" fill="none" xmlns="http://www.w3.org/2000/svg">
<path d="M47 19.6393C45.0335 19.6393 0 19.4429 0 9.81964C0 0.196393 45.0335 0 47 0C48.9665 0 94 0.196393 94 9.81964C94 19.4429 48.9665 19.6393 47 19.6393ZM47 3.53507C19.6653 3.53507 4.32636 7.65932 3.53975 9.81964C4.32636 11.98 19.6653 16.1042 47 16.1042C74.1381 16.1042 89.477 12.1764 90.4603 9.81964C89.477 7.46293 74.1381 3.53507 47 3.53507Z" fill="#4F46E5"/>
<path d="M47 35.7436C45.0335 35.7436 0 35.5472 0 25.924V9.81978C0 8.83782 0.786611 8.05225 1.76987 8.05225C2.75314 8.05225 3.53975 8.83782 3.53975 9.81978C4.32636 11.9801 19.6653 16.1044 47 16.1044C74.3347 16.1044 89.6736 11.9801 90.4603 9.81978V9.62339C90.6569 8.83782 91.2469 8.05225 92.2301 8.05225C93.2134 8.05225 94 8.83782 94 9.81978V25.924C94 35.7436 48.9665 35.7436 47 35.7436ZM3.53975 13.944V25.924C4.32636 28.0843 19.6653 32.2086 47 32.2086C74.5314 32.2086 89.6736 28.0843 90.4603 25.7276V13.7476C80.0377 19.6394 48.5732 19.6394 47 19.6394C45.4268 19.6394 14.159 19.6394 3.53975 13.944Z" fill="#4F46E5"/>
<path d="M47 98C45.0335 98 0 97.8036 0 88.1803V72.0761C0 71.0942 0.786611 70.3086 1.76987 70.3086C2.75314 70.3086 3.53975 71.0942 3.53975 72.0761C4.32636 74.2365 19.6653 78.3607 47 78.3607C74.3347 78.3607 89.6736 74.2365 90.4603 72.0761V71.8797C90.6569 71.0942 91.2469 70.3086 92.2301 70.3086C93.2134 70.3086 94 71.0942 94 72.0761V88.1803C94 97.8036 48.9665 98 47 98ZM3.53975 76.2004V88.1803C4.32636 90.3407 19.6653 94.4649 47 94.4649C74.5314 94.4649 89.6736 90.3407 90.4603 87.9839V76.004C79.841 81.503 48.5732 81.6994 47 81.6994C45.4268 81.6994 14.159 81.6994 3.53975 76.2004Z" fill="#4F46E5"/>
<path d="M17.6989 26.3165H17.5022C14.5524 25.9238 11.7993 25.3346 9.63612 24.7454C8.65286 24.549 8.0629 23.567 8.4562 22.5851C8.65286 21.6031 9.63612 21.0139 10.6194 21.4067C12.7826 21.9959 15.339 22.3887 18.0922 22.9779C19.0754 23.1743 19.6654 23.9598 19.4688 24.9418C19.2721 25.7274 18.4855 26.3165 17.6989 26.3165Z" fill="#4F46E5"/>
<path d="M35.3973 27.8879C32.4475 27.6915 29.4977 27.4952 26.7446 27.2988C25.7613 27.2988 25.1714 26.3168 25.1714 25.3348C25.1714 24.3529 26.1547 23.5673 27.1379 23.7637C29.8911 23.9601 32.6442 24.1565 35.3973 24.3529C36.3806 24.3529 37.1672 25.1384 36.9705 26.1204C37.1672 27.2988 36.3806 27.8879 35.3973 27.8879Z" fill="#4F46E5"/>
<path d="M64.8954 35.1545C64.5021 35.1545 64.1088 34.9582 63.7155 34.7618C63.3221 34.369 63.1255 33.9762 63.1255 33.387V17.2828C63.1255 16.3008 63.9121 15.7117 64.6987 15.5153C68.8284 15.1225 72.5648 14.7297 76.1046 14.3369C76.6945 14.3369 77.0878 14.3369 77.4811 14.7297C77.8744 15.1225 78.0711 15.5153 78.0711 16.1044V32.2087C78.0711 32.9942 77.4811 33.7798 76.4979 33.9762C73.1548 34.369 69.2217 34.7618 64.8954 35.1545C65.092 35.1545 64.8954 35.1545 64.8954 35.1545ZM66.6652 18.8539V31.4231C69.4184 31.2267 72.1715 30.8339 74.5314 30.4411V18.0684C72.1715 18.2648 69.4184 18.6576 66.6652 18.8539Z" fill="#4F46E5"/>
<path d="M47.0001 45.3665C45.2302 45.3665 5.50635 45.1702 5.50635 36.5289V29.8515C5.50635 29.2623 5.703 28.6732 6.29296 28.4768C6.68626 28.084 7.27622 28.084 7.86618 28.2804C15.7323 30.8335 30.6779 32.4046 47.1967 32.4046C63.7156 32.4046 78.6612 30.8335 86.5273 28.2804C87.1172 28.084 87.7072 28.2804 88.1005 28.4768C88.4938 28.8695 88.8871 29.2623 88.8871 29.8515V36.5289C88.6905 45.3665 48.77 45.3665 47.0001 45.3665ZM8.84944 36.5289C10.0294 38.4928 23.5984 42.0279 47.0001 42.0279C70.4017 42.0279 83.9708 38.4928 85.1507 36.5289V32.2082C76.6946 34.5649 62.339 35.9397 47.0001 35.9397C31.6612 35.9397 17.5022 34.5649 8.84944 32.2082V36.5289Z" fill="#4F46E5"/>
<path d="M47 66.9697C45.0335 66.9697 0 66.7733 0 57.1501V41.0459C0 40.0639 0.786611 39.2783 1.76987 39.2783C2.75314 39.2783 3.53975 40.0639 3.53975 41.0459C4.32636 43.2062 19.6653 47.3304 47 47.3304C74.3347 47.3304 89.6736 43.2062 90.4603 41.0459V40.8495C90.6569 40.0639 91.2469 39.2783 92.2301 39.2783C93.2134 39.2783 94 40.0639 94 41.0459V57.1501C94 66.7733 48.9665 66.9697 47 66.9697ZM3.53975 45.1701V57.1501C4.32636 59.3104 19.6653 63.4346 47 63.4346C74.5314 63.4346 89.6736 59.3104 90.4603 56.9537V44.9737C79.841 50.4727 48.5732 50.6691 47 50.6691C45.4268 50.6691 14.159 50.6691 3.53975 45.1701Z" fill="#4F46E5"/>
<path d="M17.6989 57.3468H17.5022C14.5524 56.954 11.7993 56.3648 9.63612 55.7757C8.65286 55.5793 8.0629 54.5973 8.4562 53.6154C8.65286 52.6334 9.63612 52.0442 10.6194 52.437C12.7826 53.0262 15.339 53.419 18.0922 54.0081C19.0754 54.2045 19.6654 54.9901 19.4688 55.9721C19.2721 56.7576 18.4855 57.3468 17.6989 57.3468Z" fill="#4F46E5"/>
<path d="M35.3973 59.114C32.4475 58.9176 29.4977 58.7212 26.7446 58.5248C25.7613 58.5248 25.1714 57.5429 25.1714 56.5609C25.1714 55.5789 26.1547 54.7934 27.1379 54.9898C29.8911 55.1862 32.6442 55.3826 35.3973 55.5789C36.3806 55.5789 37.1672 56.3645 36.9705 57.3465C37.1672 58.3284 36.3806 59.114 35.3973 59.114Z" fill="#4F46E5"/>
<path d="M64.8954 66.1843C64.5021 66.1843 64.1088 65.9879 63.7155 65.7916C63.3221 65.3988 63.1255 65.006 63.1255 64.4168V48.3126C63.1255 47.3306 63.9121 46.7414 64.6987 46.5451C68.8284 46.1523 72.5648 45.7595 76.1046 45.3667C76.6945 45.3667 77.0878 45.3667 77.4811 45.7595C77.8744 46.1523 78.0711 46.5451 78.0711 47.1342V63.2384C78.0711 64.024 77.4811 64.8096 76.4979 65.006C73.1548 65.3988 69.2217 65.9879 64.8954 66.1843C65.092 66.1843 64.8954 66.1843 64.8954 66.1843ZM66.6652 49.8837V62.4529C69.4184 62.2565 72.1715 61.8637 74.5314 61.4709V49.0982C72.1715 49.4909 69.4184 49.6873 66.6652 49.8837Z" fill="#4F46E5"/>
<path d="M64.8954 97.2146C64.5021 97.2146 64.1088 97.0182 63.7155 96.8218C63.3221 96.429 63.1255 96.0362 63.1255 95.4471V79.3429C63.1255 78.3609 63.9121 77.7717 64.6987 77.5753C68.8284 77.1825 72.5648 76.7898 76.1046 76.397C76.6945 76.397 77.0878 76.397 77.4811 76.7898C77.8744 77.1825 78.0711 77.5753 78.0711 78.1645V94.2687C78.0711 95.0543 77.4811 95.8399 76.4979 96.0362C73.1548 96.429 69.2217 97.0182 64.8954 97.2146C65.092 97.2146 64.8954 97.2146 64.8954 97.2146ZM66.6652 80.914V93.4831C69.4184 93.2867 72.1715 92.894 74.5314 92.5012V79.932C72.1715 80.5212 69.4184 80.7176 66.6652 80.914Z" fill="#4F46E5"/>
<path d="M47.0001 76.397C45.2302 76.397 5.50635 76.2006 5.50635 67.5593V60.882C5.50635 60.2928 5.703 59.7036 6.29296 59.5072C6.88292 59.3108 7.27622 59.1144 7.86618 59.3108C15.7323 61.8639 30.6779 63.4351 47.1967 63.4351C63.7156 63.4351 78.6612 61.8639 86.5273 59.3108C87.1172 59.1144 87.7072 59.3108 88.1005 59.5072C88.4938 59.9 88.8871 60.2928 88.8871 60.882V67.5593C88.6905 76.397 48.77 76.397 47.0001 76.397ZM8.84944 67.5593C10.0294 69.5233 23.5984 73.0583 47.0001 73.0583C70.4017 73.0583 83.9708 69.5233 85.1507 67.5593V63.2387C76.6946 65.5954 62.339 66.9702 47.0001 66.9702C31.6612 66.9702 17.5022 65.5954 8.84944 63.2387V67.5593Z" fill="#4F46E5"/>
<path d="M47 50.6692C45.0335 50.6692 0 50.4729 0 40.8496C0 37.9037 3.93305 36.3326 6.68619 35.3506C7.66946 35.1542 8.45607 35.547 8.84937 36.3326C9.83264 38.2965 23.4017 41.8316 47 41.8316C70.5983 41.8316 84.1674 38.2965 85.1506 36.3326C85.5439 35.547 86.5272 34.9578 87.3138 35.3506C90.2636 36.3326 94 37.9037 94 40.8496C94 50.6692 48.9665 50.6692 47 50.6692ZM6.68619 39.0821C3.93305 40.064 3.53975 41.046 3.53975 41.046C4.32636 43.2063 19.6653 47.3306 47 47.3306C74.3347 47.3306 89.6736 43.2063 90.4603 40.8496C90.4603 40.8496 89.8703 40.064 87.3138 39.0821C82.0042 43.9919 59.9791 45.3666 47 45.3666C34.0209 45.3666 11.9958 43.9919 6.68619 39.0821Z" fill="#4F46E5"/>
<path d="M47 81.6996C45.0335 81.6996 0 81.5032 0 71.88C0 68.9341 3.93305 67.3629 6.68619 66.381C7.66946 66.1846 8.45607 66.5774 8.84937 67.3629C9.83264 69.3269 23.4017 72.8619 47 72.8619C70.5983 72.8619 84.1674 69.3269 85.1506 67.3629C85.5439 66.381 86.5272 65.9882 87.3138 66.381C90.2636 67.3629 94 68.9341 94 71.88C94 81.6996 48.9665 81.6996 47 81.6996ZM6.68619 70.1125C3.93305 71.0944 3.53975 72.0764 3.53975 72.0764C4.32636 74.2367 19.6653 78.361 47 78.361C74.3347 78.361 89.6736 74.2367 90.4603 71.88C90.4603 71.88 89.8703 71.0944 87.3138 70.1125C82.0042 75.0223 59.9791 76.397 47 76.397C33.8243 76.397 11.9958 75.0223 6.68619 70.1125Z" fill="#4F46E5"/>
<path d="M9.63609 94.4647C8.65282 94.4647 7.86621 93.6792 7.86621 92.6972V87.1982C7.86621 86.2162 8.65282 85.4307 9.63609 85.4307C10.6193 85.4307 11.406 86.2162 11.406 87.1982V92.6972C11.406 93.6792 10.6193 94.4647 9.63609 94.4647Z" fill="#4F46E5"/>
<path d="M18.0921 96.0359C17.1089 96.0359 16.3223 95.2503 16.3223 94.2683V84.4487C16.3223 83.4667 17.1089 82.6812 18.0921 82.6812C19.0754 82.6812 19.862 83.4667 19.862 84.4487V94.2683C19.862 95.2503 19.0754 96.0359 18.0921 96.0359Z" fill="#4F46E5"/>
</svg>
