<svg width="98" height="77" viewBox="0 0 98 77" fill="none" xmlns="http://www.w3.org/2000/svg">
<path d="M96.348 62.1566C95.4304 62.1566 94.6963 61.4144 94.6963 60.4867V57.8891C94.6963 56.9614 95.4304 56.2192 96.348 56.2192C97.2656 56.2192 97.9997 56.9614 97.9997 57.8891V60.4867C97.9997 61.4144 97.2656 62.1566 96.348 62.1566Z" fill="#4F46E5"/>
<path d="M96.348 48.6122C95.4304 48.6122 94.6963 47.87 94.6963 46.9423V41.376C94.6963 40.4483 95.4304 39.7061 96.348 39.7061C97.2656 39.7061 97.9997 40.4483 97.9997 41.376V46.9423C97.9997 47.87 97.2656 48.6122 96.348 48.6122ZM96.348 32.2844C95.4304 32.2844 94.6963 31.5423 94.6963 30.6146V25.0483C94.6963 24.1206 95.4304 23.3784 96.348 23.3784C97.2656 23.3784 97.9997 24.1206 97.9997 25.0483V30.6146C97.9997 31.5423 97.2656 32.2844 96.348 32.2844Z" fill="#4F46E5"/>
<path d="M96.348 15.7708C95.4304 15.7708 94.6963 15.0287 94.6963 14.101V11.5034C94.6963 10.5757 95.4304 9.8335 96.348 9.8335C97.2656 9.8335 97.9997 10.5757 97.9997 11.5034V14.101C97.9997 15.0287 97.2656 15.7708 96.348 15.7708Z" fill="#4F46E5"/>
<path d="M91.2097 77H6.60674C2.93633 77 0 74.0313 0 70.3205V6.67952C0 2.96867 2.93633 0 6.60674 0H91.2097C94.8801 0 97.8165 2.96867 97.8165 6.67952V11.5036C97.8165 12.4313 97.0824 13.1735 96.1648 13.1735C95.2472 13.1735 94.5131 12.4313 94.5131 11.5036V6.67952C94.5131 4.8241 93.0449 3.33976 91.2097 3.33976H6.60674C4.77154 3.33976 3.30337 4.8241 3.30337 6.67952V70.3205C3.30337 72.1759 4.77154 73.6602 6.60674 73.6602H91.2097C93.0449 73.6602 94.5131 72.1759 94.5131 70.3205V60.6723C94.5131 59.7446 95.2472 59.0024 96.1648 59.0024C97.0824 59.0024 97.8165 59.7446 97.8165 60.6723V70.3205C98 74.0313 94.8801 77 91.2097 77Z" fill="#4F46E5"/>
<path d="M82.7678 13.7299H1.65169C0.734082 13.7299 0 12.9877 0 12.06C0 11.1323 0.734082 10.3901 1.65169 10.3901H82.7678C83.6854 10.3901 84.4195 11.1323 84.4195 12.06C84.4195 12.9877 83.6854 13.7299 82.7678 13.7299Z" fill="#4F46E5"/>
<path d="M10.4603 8.53507C11.3725 8.53507 12.112 7.78744 12.112 6.86519C12.112 5.94294 11.3725 5.19531 10.4603 5.19531C9.54808 5.19531 8.80859 5.94294 8.80859 6.86519C8.80859 7.78744 9.54808 8.53507 10.4603 8.53507Z" fill="#4F46E5"/>
<path d="M17.2513 8.53507C18.1635 8.53507 18.903 7.78744 18.903 6.86519C18.903 5.94294 18.1635 5.19531 17.2513 5.19531C16.3391 5.19531 15.5996 5.94294 15.5996 6.86519C15.5996 7.78744 16.3391 8.53507 17.2513 8.53507Z" fill="#4F46E5"/>
<path d="M23.8577 8.53507C24.7699 8.53507 25.5094 7.78744 25.5094 6.86519C25.5094 5.94294 24.7699 5.19531 23.8577 5.19531C22.9455 5.19531 22.2061 5.94294 22.2061 6.86519C22.2061 7.78744 22.9455 8.53507 23.8577 8.53507Z" fill="#4F46E5"/>
<path d="M68.0865 8.53507H39.2738C38.3562 8.53507 37.6221 7.7929 37.6221 6.86519C37.6221 5.93748 38.3562 5.19531 39.2738 5.19531H68.0865C69.0041 5.19531 69.7382 5.93748 69.7382 6.86519C69.7382 7.7929 69.0041 8.53507 68.0865 8.53507Z" fill="#4F46E5"/>
<path d="M76.3443 22.4506H72.1234C71.2058 22.4506 70.4717 21.7084 70.4717 20.7807C70.4717 19.853 71.2058 19.1108 72.1234 19.1108H76.3443C77.2619 19.1108 77.996 19.853 77.996 20.7807C77.996 21.7084 77.2619 22.4506 76.3443 22.4506Z" fill="#4F46E5"/>
<path d="M63.3146 22.4506H53.0374C52.1198 22.4506 51.3857 21.7084 51.3857 20.7807C51.3857 19.853 52.1198 19.1108 53.0374 19.1108H63.3146C64.2322 19.1108 64.9663 19.853 64.9663 20.7807C64.9663 21.7084 64.2322 22.4506 63.3146 22.4506Z" fill="#4F46E5"/>
<path d="M34.8684 22.4506H32.2991C31.3815 22.4506 30.6475 21.7084 30.6475 20.7807C30.6475 19.853 31.3815 19.1108 32.2991 19.1108H34.8684C35.786 19.1108 36.5201 19.853 36.5201 20.7807C36.5201 21.7084 35.786 22.4506 34.8684 22.4506Z" fill="#4F46E5"/>
<path d="M44.2286 22.4506H41.1087C40.1911 22.4506 39.457 21.7084 39.457 20.7807C39.457 19.853 40.1911 19.1108 41.1087 19.1108H44.2286C45.1462 19.1108 45.8803 19.853 45.8803 20.7807C45.8803 21.7084 45.1462 22.4506 44.2286 22.4506Z" fill="#4F46E5"/>
<path d="M53.0374 22.4506H50.4681C49.5505 22.4506 48.8164 21.7084 48.8164 20.7807C48.8164 19.853 49.5505 19.1108 50.4681 19.1108H53.0374C53.955 19.1108 54.6891 19.853 54.6891 20.7807C54.6891 21.7084 53.955 22.4506 53.0374 22.4506Z" fill="#4F46E5"/>
<path d="M32.2998 22.4506H24.2249C23.3073 22.4506 22.5732 21.7084 22.5732 20.7807C22.5732 19.853 23.3073 19.1108 24.2249 19.1108H32.2998C33.2174 19.1108 33.9515 19.853 33.9515 20.7807C33.9515 21.7084 33.2174 22.4506 32.2998 22.4506Z" fill="#4F46E5"/>
<path d="M15.9665 22.4506H9.54329C8.62568 22.4506 7.8916 21.7084 7.8916 20.7807C7.8916 19.853 8.62568 19.1108 9.54329 19.1108H15.9665C16.8841 19.1108 17.6182 19.853 17.6182 20.7807C17.6182 21.7084 16.8841 22.4506 15.9665 22.4506Z" fill="#4F46E5"/>
<path d="M67.1683 30.2436H59.8275C58.9099 30.2436 58.1758 29.5014 58.1758 28.5737C58.1758 27.646 58.9099 26.9038 59.8275 26.9038H67.1683C68.0859 26.9038 68.82 27.646 68.82 28.5737C68.82 29.5014 68.0859 30.2436 67.1683 30.2436Z" fill="#4F46E5"/>
<path d="M51.753 30.2436H36.3372C35.4196 30.2436 34.6855 29.5014 34.6855 28.5737C34.6855 27.646 35.4196 26.9038 36.3372 26.9038H51.753C52.6706 26.9038 53.4047 27.646 53.4047 28.5737C53.4047 29.5014 52.6706 30.2436 51.753 30.2436Z" fill="#4F46E5"/>
<path d="M24.7755 30.2436H9.54329C8.62568 30.2436 7.8916 29.5014 7.8916 28.5737C7.8916 27.646 8.62568 26.9038 9.54329 26.9038H24.7755C25.6931 26.9038 26.4272 27.646 26.4272 28.5737C26.4272 29.5014 25.6931 30.2436 24.7755 30.2436Z" fill="#4F46E5"/>
<path d="M63.3147 37.8505H53.4046C52.487 37.8505 51.7529 37.1083 51.7529 36.1806C51.7529 35.2529 52.487 34.5107 53.4046 34.5107H63.3147C64.2323 34.5107 64.9664 35.2529 64.9664 36.1806C64.9664 37.1083 64.2323 37.8505 63.3147 37.8505Z" fill="#4F46E5"/>
<path d="M23.6741 37.8505H21.1048C20.1872 37.8505 19.4531 37.1083 19.4531 36.1806C19.4531 35.2529 20.1872 34.5107 21.1048 34.5107H23.6741C24.5917 34.5107 25.3258 35.2529 25.3258 36.1806C25.3258 37.1083 24.5917 37.8505 23.6741 37.8505Z" fill="#4F46E5"/>
<path d="M40.0079 37.8505H34.5023C33.5847 37.8505 32.8506 37.1083 32.8506 36.1806C32.8506 35.2529 33.5847 34.5107 34.5023 34.5107H40.0079C40.9255 34.5107 41.6596 35.2529 41.6596 36.1806C41.4761 37.1083 40.742 37.8505 40.0079 37.8505Z" fill="#4F46E5"/>
<path d="M53.4046 37.8505H50.8353C49.9177 37.8505 49.1836 37.1083 49.1836 36.1806C49.1836 35.2529 49.9177 34.5107 50.8353 34.5107H53.4046C54.3222 34.5107 55.0563 35.2529 55.0563 36.1806C55.0563 37.1083 54.3222 37.8505 53.4046 37.8505Z" fill="#4F46E5"/>
<path d="M21.1051 37.8505H9.54329C8.62568 37.8505 7.8916 37.1083 7.8916 36.1806C7.8916 35.2529 8.62568 34.5107 9.54329 34.5107H21.1051C22.0227 34.5107 22.7568 35.2529 22.7568 36.1806C22.5733 37.1083 21.8392 37.8505 21.1051 37.8505Z" fill="#4F46E5"/>
<path d="M59.461 45.6435H53.9554C53.0378 45.6435 52.3037 44.9013 52.3037 43.9736C52.3037 43.0459 53.0378 42.3037 53.9554 42.3037H59.461C60.3786 42.3037 61.1127 43.0459 61.1127 43.9736C61.1127 44.9013 60.3786 45.6435 59.461 45.6435Z" fill="#4F46E5"/>
<path d="M36.3372 45.6435H33.7679C32.8503 45.6435 32.1162 44.9013 32.1162 43.9736C32.1162 43.0459 32.8503 42.3037 33.7679 42.3037H36.3372C37.2548 42.3037 37.9889 43.0459 37.9889 43.9736C37.9889 44.9013 37.2548 45.6435 36.3372 45.6435Z" fill="#4F46E5"/>
<path d="M45.3292 45.6435H42.3929C41.4753 45.6435 40.7412 44.9013 40.7412 43.9736C40.7412 43.0459 41.4753 42.3037 42.3929 42.3037H45.3292C46.2468 42.3037 46.9809 43.0459 46.9809 43.9736C46.9809 44.9013 46.2468 45.6435 45.3292 45.6435Z" fill="#4F46E5"/>
<path d="M53.9553 45.6435H51.3861C50.4685 45.6435 49.7344 44.9013 49.7344 43.9736C49.7344 43.0459 50.4685 42.3037 51.3861 42.3037H53.9553C54.873 42.3037 55.607 43.0459 55.607 43.9736C55.607 44.9013 54.873 45.6435 53.9553 45.6435Z" fill="#4F46E5"/>
<path d="M33.768 45.6435H9.54329C8.62568 45.6435 7.8916 44.9013 7.8916 43.9736C7.8916 43.0459 8.62568 42.3037 9.54329 42.3037H33.768C34.6856 42.3037 35.4197 43.0459 35.4197 43.9736C35.4197 44.9013 34.6856 45.6435 33.768 45.6435Z" fill="#4F46E5"/>
<path d="M42.5768 53.2504H38.5394C37.6218 53.2504 36.8877 52.5082 36.8877 51.5805C36.8877 50.6528 37.6218 49.9106 38.5394 49.9106H42.5768C43.4944 49.9106 44.2285 50.6528 44.2285 51.5805C44.2285 52.5082 43.3109 53.2504 42.5768 53.2504Z" fill="#4F46E5"/>
<path d="M26.2437 53.2504H9.54329C8.62568 53.2504 7.8916 52.5082 7.8916 51.5805C7.8916 50.6528 8.62568 50.0962 9.54329 50.0962H26.2437C27.1613 50.0962 27.8953 50.8384 27.8953 51.7661C27.8953 52.6938 27.1613 53.2504 26.2437 53.2504Z" fill="#4F46E5"/>
<path d="M59.461 61.0434H53.9554C53.0378 61.0434 52.3037 60.3012 52.3037 59.3735C52.3037 58.4458 53.0378 57.7036 53.9554 57.7036H59.461C60.3786 57.7036 61.1127 58.4458 61.1127 59.3735C61.1127 60.3012 60.3786 61.0434 59.461 61.0434Z" fill="#4F46E5"/>
<path d="M35.052 61.0434H32.4827C31.5651 61.0434 30.8311 60.3012 30.8311 59.3735C30.8311 58.4458 31.5651 57.7036 32.4827 57.7036H35.052C35.9696 57.7036 36.7037 58.4458 36.7037 59.3735C36.7037 60.3012 35.9696 61.0434 35.052 61.0434Z" fill="#4F46E5"/>
<path d="M44.7793 61.0434H41.4759C40.5583 61.0434 39.8242 60.3012 39.8242 59.3735C39.8242 58.4458 40.5583 57.7036 41.4759 57.7036H44.7793C45.6969 57.7036 46.431 58.4458 46.431 59.3735C46.431 60.3012 45.6969 61.0434 44.7793 61.0434Z" fill="#4F46E5"/>
<path d="M53.9553 61.0434H51.3861C50.4685 61.0434 49.7344 60.3012 49.7344 59.3735C49.7344 58.4458 50.4685 57.7036 51.3861 57.7036H53.9553C54.873 57.7036 55.607 58.4458 55.607 59.3735C55.607 60.3012 54.873 61.0434 53.9553 61.0434Z" fill="#4F46E5"/>
<path d="M32.4832 61.0434H26.2435C25.3259 61.0434 24.5918 60.3012 24.5918 59.3735C24.5918 58.4458 25.3259 57.7036 26.2435 57.7036H32.4832C33.4008 57.7036 34.1349 58.4458 34.1349 59.3735C34.1349 60.3012 33.4008 61.0434 32.4832 61.0434Z" fill="#4F46E5"/>
<path d="M15.783 61.0434H9.54329C8.62568 61.0434 7.8916 60.3012 7.8916 59.3735C7.8916 58.4458 8.62568 57.7036 9.54329 57.7036H15.783C16.7006 57.7036 17.4347 58.4458 17.4347 59.3735C17.4347 60.3012 16.7006 61.0434 15.783 61.0434Z" fill="#4F46E5"/>
</svg>
