<svg width="90" height="103" viewBox="0 0 90 103" fill="none" xmlns="http://www.w3.org/2000/svg">
<path d="M88.2436 56.1211C88.045 55.9082 87.8037 55.7096 87.52 55.5535C85.1645 54.1913 82.809 52.8291 80.4535 51.4811C82.284 50.4168 84.1286 49.3526 85.9591 48.2742C87.2787 47.508 88.8822 46.9971 88.9105 45.266C88.9531 43.0524 88.9247 40.8246 88.9247 38.611C88.9247 36.7806 86.0868 36.7806 86.0868 38.611C86.0868 40.4841 86.0726 42.3713 86.0726 44.2443C86.0726 44.4288 86.0584 44.6274 86.0442 44.8261C85.576 45.0957 85.0651 45.5214 84.7813 45.6775C82.1563 47.21 79.5312 48.7283 76.9061 50.2607C76.3953 50.5587 75.8844 50.8567 75.3736 51.1547C74.3803 51.7223 73.4012 52.3041 72.408 52.8716C72.3512 52.9 72.2945 52.9284 72.2519 52.971C72.2519 51.5236 72.2661 50.0763 72.2661 48.6289C72.2661 48.5864 72.2661 48.558 72.2661 48.5154C72.2803 44.968 72.3938 41.4064 72.337 37.8448C72.3654 37.561 72.3796 37.2488 72.3938 36.965C72.706 36.7664 73.0181 36.5535 73.2877 36.3975C73.5999 36.213 73.8979 36.0427 74.2101 35.8582C76.6081 34.4677 79.0062 33.0771 81.4042 31.6723C82.9367 30.7784 84.4692 29.8844 86.0158 28.9905C86.0584 28.9621 86.101 28.9337 86.1577 28.9053C86.1577 29.2742 86.1577 29.629 86.1577 29.9979C86.1577 31.1189 86.1577 32.2257 86.1436 33.3467C86.1436 35.1771 88.9815 35.1771 88.9815 33.3467C88.9815 32.1122 88.9815 30.8777 88.9957 29.6432C88.9957 28.5364 89.322 26.8194 88.7403 25.8262C88.7261 25.7978 88.6977 25.7694 88.6835 25.741C88.3429 25.2018 87.6477 24.8329 87.0801 24.5065C85.8172 23.7829 84.5543 23.045 83.2914 22.3213C80.1413 20.505 76.9912 18.6888 73.8411 16.8725C73.1033 16.4468 72.3654 15.9218 71.585 15.567C70.4498 15.042 69.5417 15.8083 68.591 16.3617C66.6186 17.511 64.6604 18.6462 62.6881 19.7956C62.6881 18.0644 62.7022 16.3191 62.7022 14.588C62.7022 13.4244 63.0712 11.523 62.461 10.4446C62.4468 10.4304 62.4468 10.4162 62.4326 10.402C62.1063 9.76348 61.3117 9.40873 60.6873 9.05399C57.7359 7.35123 54.7844 5.64848 51.833 3.94572C49.6903 2.71122 47.5477 1.20711 45.3057 0.171269C44.2699 -0.2828 43.5604 0.256407 42.7232 0.738855C41.4603 1.46253 40.2117 2.20039 38.9488 2.92406C35.7987 4.75453 32.6486 6.58499 29.4985 8.41546C28.7748 8.84115 27.9802 9.21008 27.2991 9.69253C26.845 10.0189 26.618 10.3878 26.5612 10.7709C26.4477 11.0405 26.3767 11.3669 26.3767 11.7075C26.32 14.4035 26.3342 17.0995 26.3484 19.7956C24.972 19.0009 23.6098 18.2063 22.2334 17.4259C21.1833 16.8157 20.1333 16.0779 19.0265 15.567C18.0048 15.0988 17.2954 15.6238 16.444 16.1204C15.1811 16.8441 13.9324 17.582 12.6695 18.3056C9.51943 20.1361 6.36933 21.9666 3.21923 23.797C2.49555 24.2227 1.70093 24.5917 1.01983 25.0741C0.6509 25.3437 0.438055 25.6417 0.338728 25.9397C0.125883 26.4505 0.0975036 27.1032 0.0975036 27.6566C0.0975036 29.0756 0.0833139 30.4946 0.0833139 31.9135C0.0691243 35.6028 0.0691243 39.2921 0.0549346 42.9673C0.0549346 43.8328 -0.0302033 44.7268 0.040745 45.5923C0.140073 46.8127 1.17592 47.1816 2.09824 47.7208C4.24088 48.9553 6.36933 50.2324 8.49778 51.4952C7.30585 52.1905 6.12811 52.8716 4.93617 53.5669C4.16993 54.0068 1.81445 55.0001 0.750227 56.192C0.409676 56.4049 0.168452 56.788 0.0975036 57.4123C-0.044393 58.6468 0.0833139 59.9665 0.0833139 61.2152C0.0833139 63.0456 2.92124 63.0456 2.92124 61.2152C2.92124 60.6901 2.92124 60.1793 2.92124 59.6543C3.20504 59.8246 3.50302 59.9948 3.78681 60.1509C4.18412 60.378 4.56724 60.605 4.96455 60.832C7.57545 62.3361 10.1863 63.8402 12.7972 65.3585C13.677 65.8694 14.5568 66.3802 15.4365 66.891C15.8338 67.118 16.3305 67.5012 16.8129 67.785C16.7562 69.1188 16.8555 70.5094 16.8555 71.829C16.8413 74.823 16.8413 77.8171 16.8271 80.7969C16.8271 81.776 16.8271 82.7551 16.8129 83.7341C16.7278 83.6774 16.6284 83.6348 16.5433 83.5781C14.8264 82.5848 13.1094 81.6057 11.4067 80.6124C9.59038 79.5624 7.77411 78.5124 5.95783 77.4623C4.97874 76.8947 3.92871 76.1143 2.87868 75.6177C2.87868 75.5893 2.87868 75.5751 2.87868 75.5467C2.87868 74.5818 2.87867 73.6311 2.89286 72.6662C2.89286 70.8357 0.0549346 70.8357 0.0549346 72.6662C0.0549346 73.8723 -0.0585826 75.1352 0.040745 76.3413C0.125883 77.3488 0.736038 77.7035 1.50228 78.1434C3.82938 79.4914 6.15649 80.8253 8.4694 82.1733C11.0377 83.649 13.5919 85.1389 16.1602 86.6146C16.6852 86.9126 17.267 87.3667 17.8771 87.466C18.019 87.4944 18.1467 87.4944 18.2744 87.4802C18.2886 87.4802 18.3028 87.4802 18.317 87.4802C18.9839 87.4802 19.4806 87.0971 20.034 86.7849C20.9279 86.2599 21.8219 85.7491 22.7158 85.2241C23.9219 84.5288 25.128 83.8193 26.3342 83.124C26.3058 85.9619 26.1781 88.8282 26.32 91.6662C26.3767 92.7588 27.0578 93.1135 27.8667 93.5818C29.0586 94.2629 30.2505 94.9582 31.4424 95.6393C34.6493 97.4839 37.842 99.3428 41.0488 101.187C41.8718 101.67 42.6807 102.181 43.532 102.621C43.8158 102.762 44.0854 102.833 44.3408 102.848C44.426 102.862 44.5111 102.876 44.5963 102.876C45.4051 102.876 46.1997 102.237 46.8666 101.854C48.2288 101.06 49.591 100.279 50.939 99.4846C53.9756 97.7251 57.0122 95.9514 60.0488 94.1919C60.6447 93.8514 61.3117 93.5392 61.8651 93.1419C62.9009 92.3756 62.6313 90.985 62.6313 89.8357C62.6313 87.5937 62.6455 85.3518 62.6455 83.124C63.8374 83.8051 65.0294 84.5004 66.2071 85.1815C67.2571 85.7916 68.3072 86.3876 69.343 86.9978C69.6268 87.1538 69.9248 87.2815 70.2228 87.3525C70.4214 87.4518 70.6343 87.5086 70.8471 87.5086C71.6559 87.5086 72.4505 86.87 73.1175 86.4869C74.4797 85.6923 75.8419 84.9119 77.1899 84.1173C80.2265 82.3577 83.263 80.584 86.2996 78.8245C86.8956 78.484 87.5625 78.1718 88.1159 77.7745C89.0099 77.1076 88.8822 76.1569 88.8822 75.1778C88.8963 71.8432 88.8963 68.5086 88.9105 65.1741C88.9105 63.2868 88.9247 61.4138 88.9247 59.5266C88.9247 58.6468 89.1376 57.4123 88.6693 56.6035C88.5984 56.4049 88.4281 56.2346 88.2436 56.1211ZM61.936 23.5132C64.0503 22.2787 66.1645 21.0584 68.2788 19.8239C68.9031 19.455 69.5275 19.1003 70.1518 18.7313C70.237 18.6746 70.5207 18.5611 70.7903 18.4192C71.0032 18.5327 71.216 18.632 71.4005 18.7455C74.2668 20.3915 77.1189 22.0517 79.9852 23.6977C81.5177 24.5775 83.036 25.4572 84.5685 26.337C84.6111 26.3654 84.6678 26.3937 84.7104 26.4221C84.4266 26.5782 84.1428 26.7485 83.8732 26.9046C82.9225 27.458 81.986 28.0114 81.0353 28.5506C78.623 29.9554 76.1966 31.3601 73.7844 32.7649C73.2452 33.0771 72.706 33.3892 72.1667 33.7014C71.7836 33.9143 71.2586 34.1413 70.8045 34.3967C70.5775 34.269 70.3363 34.1413 70.1092 34.0136C69.3856 33.6021 68.6619 33.1764 67.9382 32.7649C65.9517 31.6155 63.9651 30.4662 61.9786 29.331C60.29 28.3519 58.6014 27.387 56.9271 26.4079C57.3811 26.1383 57.8352 25.8829 58.2893 25.6133C59.467 24.9464 60.8008 24.3221 61.936 23.5132ZM62.6739 41.903C62.6739 41.8463 62.6597 41.8037 62.6455 41.747C62.6455 41.7328 62.6313 41.7044 62.6313 41.6902C62.6171 41.6192 62.5887 41.5483 62.5745 41.4773C62.5745 41.4632 62.5603 41.449 62.5603 41.4348C62.532 41.3496 62.4894 41.2787 62.4468 41.1936C62.4468 41.1936 62.4468 41.1936 62.4468 41.1794C62.3901 41.0658 62.3191 40.9665 62.2482 40.8672C62.234 40.853 62.234 40.8388 62.2198 40.8246C61.9218 40.4415 61.4252 40.2287 61.0137 39.9874C60.2474 39.5476 59.4812 39.1077 58.715 38.6536C57.6365 38.0293 56.5723 37.4191 55.4939 36.7948C55.4939 35.9576 55.4939 35.1062 55.5081 34.269C55.5365 33.9143 55.5081 33.5453 55.5081 33.1622C55.5081 31.8284 55.5223 30.4946 55.5223 29.1607C55.5223 29.0614 55.5223 28.9621 55.5223 28.8627C59.694 31.275 63.88 33.6872 68.0518 36.0995C68.4632 36.3407 68.9599 36.738 69.4565 37.0076C69.4565 37.2346 69.4707 37.4759 69.4707 37.6887C69.4565 40.9381 69.4565 44.1876 69.4423 47.4228C69.4423 49.2533 69.4281 51.0979 69.4281 52.9284C68.3214 52.2899 67.2146 51.6513 66.1078 51.0128C64.9726 50.3601 63.8374 49.7073 62.7022 49.0546C62.7022 47.9053 62.7022 46.7417 62.7164 45.5923C62.7164 44.8403 62.7164 44.0882 62.7164 43.3362C62.6881 42.8821 62.7448 42.3855 62.6739 41.903ZM59.8218 54.5176C59.8218 55.894 59.8076 57.2704 59.8076 58.6468C59.8076 59.2002 59.8076 59.7394 59.8076 60.2928C59.5663 60.4347 59.3251 60.5908 59.0839 60.7327C58.1474 61.2719 57.2109 61.8253 56.2743 62.3645C56.2601 62.3787 56.246 62.3787 56.2318 62.3929C56.0757 62.4922 55.9196 62.5774 55.7493 62.6767C55.3662 62.9037 54.9689 63.1308 54.5858 63.3578C54.2168 63.5706 53.8053 63.7693 53.4648 64.0105C53.4222 64.0389 53.3796 64.0673 53.3371 64.0815C52.4289 64.6065 51.535 65.1315 50.6269 65.6565C49.0802 66.5647 47.5193 67.4586 45.9726 68.3667C45.9726 66.9194 45.9868 65.4721 45.9868 64.0247C45.9868 62.8895 45.9868 61.7402 46.001 60.605C46.001 58.5617 46.0152 56.5042 46.0152 54.4609C46.0152 54.1203 46.0294 53.7798 46.0436 53.4392C46.072 53.0987 46.1145 52.7156 46.1145 52.3608C46.4977 52.148 46.8808 51.8926 47.2497 51.6655C48.1437 51.1405 49.0376 50.6297 49.9316 50.1047C50.0309 50.0479 50.116 49.9911 50.2154 49.9486C51.7762 49.0404 53.3513 48.1323 54.9121 47.21C56.5581 46.2593 58.2325 45.3511 59.8643 44.3862C59.8643 45.3227 59.8643 46.2451 59.8501 47.1816C59.8501 48.6289 59.8359 50.0905 59.8359 51.5378C59.8359 52.0486 59.8359 52.5737 59.8359 53.0845C59.8359 53.1412 59.8359 53.198 59.8359 53.2406C59.7934 53.6237 59.8218 54.0778 59.8218 54.5176ZM26.3767 42.1726C26.3767 42.272 26.3767 42.3571 26.3767 42.4564C26.3767 42.5416 26.3767 42.6267 26.3767 42.726C26.3767 43.1233 26.3767 43.5207 26.3767 43.9038C26.3767 45.6349 26.3625 47.3661 26.3625 49.083C25.6956 49.4661 25.0287 49.8634 24.3476 50.2466C23.7658 50.5871 23.1983 50.9135 22.6165 51.254C21.6374 51.8216 20.6583 52.3892 19.6934 52.9568C19.6934 51.5094 19.7076 50.0621 19.7076 48.6147C19.7218 45.2376 19.7218 41.8463 19.736 38.4691C19.736 38.0576 19.8211 37.4617 19.8211 36.9367C20.2042 36.7238 20.5874 36.4684 20.9563 36.2414C23.5388 34.7373 26.1355 33.2332 28.718 31.7291C29.2714 31.4027 29.8248 31.0905 30.364 30.7642C31.2438 30.2533 32.1377 29.7283 33.0175 29.2175C33.1736 29.1324 33.358 29.033 33.5567 28.9337C33.5567 30.225 33.5425 31.5304 33.5425 32.8217C33.5425 34.1555 33.5283 35.5035 33.5283 36.8373C32.3364 37.5326 31.1303 38.2279 29.9383 38.9232C29.2998 39.2921 28.1788 39.7604 27.3842 40.3989C27.2139 40.4699 27.0578 40.5834 26.9159 40.7395C26.7882 40.8672 26.7031 41.0233 26.6463 41.1794C26.547 41.3071 26.4619 41.4632 26.4193 41.6476C26.3767 41.8321 26.3625 42.0024 26.3767 42.1726ZM29.1721 58.8597C29.1721 58.2921 29.1721 57.7245 29.1721 57.1569C29.1721 56.3481 29.1721 55.5393 29.1721 54.7305C29.1721 53.1838 29.1863 51.6371 29.1863 50.0905C29.1863 50.0053 29.1863 49.906 29.1863 49.8209C29.2572 49.083 29.1863 48.3168 29.1863 47.5789C29.1863 47.4512 29.1863 47.3377 29.1863 47.21C29.1863 46.9546 29.1863 46.6991 29.1863 46.4437C29.1863 46.2167 29.1863 45.9755 29.1863 45.7484C29.1863 45.266 29.1863 44.7693 29.1863 44.2869C29.541 44.4997 29.8958 44.6984 30.2505 44.9112C31.1303 45.4221 32.0242 45.9329 32.904 46.4437C35.7135 48.0613 38.5373 49.6932 41.3468 51.3108C41.5597 51.4385 41.7867 51.5662 41.9995 51.7081C42.3401 51.9351 42.7374 52.2189 43.1205 52.4318C43.1205 52.6588 43.1347 52.9 43.1347 53.1129C43.1205 56.3623 43.1205 59.6117 43.1063 62.847C43.1063 64.6774 43.0922 66.5221 43.0922 68.3526C42.5246 68.0262 41.957 67.6998 41.3894 67.3735C40.3819 66.7917 39.3745 66.2099 38.367 65.6281C37.473 65.1031 36.5649 64.5923 35.671 64.0673C33.8689 63.0314 32.0668 61.9814 30.2505 60.9456C30.1654 60.8888 30.0802 60.8462 29.9809 60.7895C29.7255 60.6476 29.4417 60.4205 29.1437 60.2503C29.1437 60.1367 29.1437 60.0232 29.1437 59.9239C29.1721 59.5692 29.1721 59.2144 29.1721 58.8597ZM36.494 45.195C36.3521 45.1099 36.2102 45.0389 36.0683 44.9538C34.2804 43.918 32.4925 42.8112 30.6904 41.7895C31.1303 41.5341 31.5702 41.2787 31.9958 41.0233C33.202 40.328 34.5216 39.7036 35.6568 38.8948C35.671 38.8948 35.671 38.8806 35.6852 38.8806C35.8554 38.7813 36.0399 38.682 36.2102 38.5685C37.9271 37.5752 39.6441 36.5677 41.361 35.5745C42.1273 35.1204 42.9077 34.6805 43.6739 34.2264C43.901 34.0987 44.2415 33.9568 44.5395 33.7866C46.5686 34.9501 48.5977 36.1278 50.6127 37.2914C51.237 37.6461 51.8472 38.0009 52.4715 38.3698C52.7269 38.5117 52.9823 38.6678 53.2378 38.8097C53.2519 38.8239 53.2661 38.8239 53.2803 38.8381C53.2945 38.8381 53.3087 38.8523 53.3087 38.8523C54.4864 39.5334 55.65 40.2145 56.8277 40.8814C57.3386 41.1794 57.8636 41.4773 58.3744 41.7753C58.0764 41.974 57.8068 42.1585 57.5514 42.3004C56.2318 43.0666 54.9263 43.8328 53.6067 44.5849C52.8546 45.0248 52.0884 45.4646 51.3363 45.9045C50.2579 46.5289 49.1937 47.1532 48.1153 47.7776C47.9734 47.8627 47.8173 47.9478 47.6754 48.033C47.2781 48.26 46.8666 48.5012 46.4693 48.7283C45.8875 49.0688 45.1497 49.381 44.4969 49.7783C44.2699 49.6506 44.0287 49.5229 43.8016 49.3952C41.3894 48.0188 38.9346 46.5998 36.494 45.195ZM59.8359 16.7732C59.8359 18.334 59.8218 19.8949 59.8218 21.4557C58.3035 22.3213 56.7568 23.1585 55.2527 24.0525C54.6993 24.3362 54.0891 24.6768 53.6209 25.0599C53.3371 25.2444 53.1242 25.4856 52.9823 25.7552C52.8972 25.8971 52.8404 26.039 52.7837 26.2093C52.4289 27.2451 52.6418 28.7776 52.6418 29.6574C52.6418 31.0054 52.6276 32.3534 52.6276 33.7014C52.2019 33.9568 51.762 34.1981 51.3363 34.4535C49.5768 33.4318 47.8031 32.4244 46.0436 31.4027C46.0152 31.3885 46.001 31.3743 45.9726 31.3601C45.9726 29.5864 45.9868 27.8127 45.9868 26.0248C45.9868 25.3863 45.9868 24.7336 45.9868 24.095C45.9868 23.57 45.9868 23.0308 45.9868 22.5058C45.9868 22.2362 46.001 21.9666 46.001 21.6828C46.001 21.6686 46.001 21.6402 46.001 21.626C46.299 21.4274 46.6112 21.2003 46.7105 21.1294C48.0443 20.3631 49.364 19.5827 50.6978 18.8165C52.7979 17.5962 54.9121 16.3617 57.0122 15.1414C57.9487 14.6021 58.871 14.0629 59.8076 13.5095C59.8501 14.6021 59.8501 15.6947 59.8359 16.7732ZM34.3229 8.9121C37.2744 7.19515 40.24 5.4782 43.1915 3.76125C43.5746 3.54841 44.0996 3.32137 44.5537 3.06596C44.7807 3.19367 45.0219 3.32137 45.249 3.44908C48.0727 5.08089 50.8965 6.7127 53.7202 8.34451C55.2527 9.22427 56.771 10.104 58.3035 10.9838C58.346 11.0122 58.4028 11.0405 58.4454 11.0689C58.2467 11.1824 58.048 11.296 57.8494 11.4237C55.948 12.5305 54.0607 13.6231 52.1593 14.7299C51.1235 15.3258 50.1018 15.9218 49.066 16.5319C47.6045 17.3833 46.0152 18.1496 44.5821 19.0861C43.9293 18.6888 43.234 18.3482 42.5813 17.9793C40.7083 16.9009 38.8353 15.8225 36.9764 14.744C35.373 13.8217 33.7695 12.8994 32.1803 11.9771C31.6695 11.6791 31.1586 11.3811 30.6478 11.0831C31.8681 10.3311 33.0884 9.62158 34.3229 8.9121ZM29.2147 16.759C29.2147 15.6806 29.2147 14.588 29.2289 13.5095C32.9182 15.6522 36.5933 17.8516 40.311 19.9516C41.2333 20.5192 42.1556 21.101 43.1063 21.5551C43.0354 22.5484 43.1773 23.6268 43.1773 24.393C43.1773 26.6492 43.1631 28.9053 43.1631 31.1615C42.3259 31.5872 41.5029 32.2115 40.9637 32.5379C39.8711 33.1622 38.7927 33.8007 37.7001 34.4251C37.2744 34.1839 36.8487 33.9285 36.423 33.6872C36.423 33.5737 36.423 33.4602 36.423 33.3467C36.423 32.3108 36.423 31.2608 36.4372 30.225C36.4372 29.3878 36.4372 28.5506 36.4514 27.6992C36.4514 27.3586 36.4798 27.0181 36.4514 26.6917C36.4514 26.6492 36.4372 26.6066 36.4372 26.5782C36.4372 26.5498 36.4372 26.5215 36.423 26.4931C36.4088 26.4221 36.3946 26.3654 36.3804 26.2944C36.3804 26.2802 36.3804 26.2802 36.3804 26.266C36.3663 26.1951 36.3379 26.1241 36.3095 26.0532V26.039C36.2811 25.9681 36.2385 25.8971 36.196 25.812C36.1534 25.741 36.0966 25.6701 36.0399 25.5991C35.7987 25.2586 35.4297 24.9606 35.0324 24.7052C34.2804 24.2085 33.3864 23.8112 32.833 23.4991C31.6269 22.8038 30.4208 22.1085 29.2147 21.4132C29.2005 19.8807 29.2005 18.3198 29.2147 16.759ZM8.04371 24.2937C10.9952 22.5767 13.9608 20.8598 16.9122 19.1428C17.2954 18.9158 17.8346 18.703 18.2886 18.4334C18.7853 18.7171 19.2819 19.0009 19.7786 19.2989C22.205 20.7037 24.6172 22.0943 27.0437 23.4991C28.2214 24.1802 29.3849 24.8613 30.5627 25.5282C31.0735 25.8262 31.5985 26.1241 32.1094 26.4221C31.8114 26.6208 31.5418 26.8052 31.2864 26.9471C30.3073 27.5147 29.3282 28.0823 28.3491 28.6499C28.0085 28.8486 27.6822 29.033 27.3416 29.2317C26.1497 29.927 24.9578 30.6081 23.7658 31.3034C22.5739 31.9987 21.382 32.694 20.1901 33.3751C19.6083 33.7156 18.8846 34.0278 18.2319 34.4109C17.9339 34.2548 17.6359 34.1129 17.3947 33.971C17.2528 33.8859 17.1251 33.8149 16.9832 33.7298C16.742 33.5879 16.5149 33.4602 16.2737 33.3183C14.4007 32.2399 12.5276 31.1615 10.6688 30.0831C8.79576 29.0046 6.92273 27.9262 5.06388 26.8478C4.87942 26.7343 4.69495 26.635 4.4963 26.5215C4.43954 26.4931 4.38278 26.4505 4.32602 26.4221C5.5889 25.7126 6.8234 25.0032 8.04371 24.2937ZM5.30511 46.3018C4.56724 45.8761 3.74424 45.2234 2.92124 44.8261C2.92124 44.5849 2.89286 44.3578 2.89286 44.1308C2.90705 40.8814 2.90705 37.632 2.92124 34.3967C2.92124 32.623 2.93543 30.8493 2.93543 29.0756C2.93543 29.0188 2.93543 28.9621 2.93543 28.9053C7.24909 31.4169 11.5486 33.9852 15.919 36.4258C16.2169 36.6387 16.5575 36.8657 16.8839 37.0502C16.8839 37.2772 16.8981 37.5184 16.8981 37.7313C16.8839 40.9807 16.8839 44.2301 16.8697 47.4654C16.8697 49.2958 16.8555 51.1405 16.8555 52.971C16.3872 52.7014 15.9332 52.4318 15.4649 52.1622C14.3581 51.5236 13.2371 50.8851 12.1303 50.2324C9.85998 48.9269 7.57545 47.6073 5.30511 46.3018ZM18.317 65.2592C18.2744 65.2308 18.2319 65.2166 18.1893 65.1883C17.565 64.8193 16.9406 64.4646 16.3021 64.0957C14.4291 63.0172 12.556 61.9388 10.6972 60.8604C8.82414 59.782 6.95111 58.7036 5.09226 57.6252C4.85104 57.4833 4.60981 57.3414 4.3544 57.1995C5.33349 56.6319 6.29838 56.0643 7.27747 55.5109C8.62548 54.7305 9.9735 53.9501 11.3073 53.1696C13.1804 54.2622 15.0676 55.3265 16.969 56.3339C17.0541 56.3765 17.1393 56.4332 17.2244 56.4758C17.2528 56.49 17.2812 56.5042 17.3096 56.5184C17.3237 56.5326 17.3521 56.5326 17.3663 56.5468C17.3947 56.5609 17.4231 56.5751 17.4514 56.5751C17.6501 56.6461 17.8488 56.7028 18.0474 56.717C18.1325 56.7312 18.2177 56.7454 18.317 56.7454C18.4022 56.7454 18.5015 56.7312 18.5866 56.717C18.6008 56.717 18.615 56.717 18.615 56.717C18.6859 56.7028 18.7711 56.6887 18.842 56.6603C18.8562 56.6603 18.8704 56.6461 18.8846 56.6461C18.9272 56.6319 18.9839 56.6177 19.0265 56.5893C19.4806 56.4191 19.9063 56.1069 20.3178 55.8798C21.0556 55.4542 21.7793 55.0285 22.5172 54.6028C23.3685 54.1061 24.2199 53.6095 25.0713 53.1271C25.497 53.3683 25.9227 53.6237 26.3484 53.8649C26.3484 55.1987 26.3342 56.5326 26.3342 57.8664C26.3342 58.6468 26.1781 59.6969 26.2916 60.6334C24.8159 61.4848 23.3543 62.3503 21.8786 63.2017C21.8077 63.2443 21.7367 63.2868 21.6516 63.3294C20.6299 63.9254 19.6083 64.5213 18.5866 65.1173C18.5015 65.1599 18.4022 65.2024 18.317 65.2592ZM27.1288 71.4175C26.8734 71.5878 26.6889 71.8574 26.5754 72.1838C26.5612 72.2121 26.547 72.2405 26.547 72.2689C26.1355 73.3047 26.3767 74.9082 26.3625 75.8021C26.3625 76.242 26.3625 76.6819 26.3625 77.1076C26.3625 78.0157 26.3625 78.9239 26.3484 79.8462C25.0287 80.6124 23.7091 81.3787 22.3894 82.1449C21.4813 82.6699 20.5874 83.1949 19.6792 83.7199C19.6934 80.0306 19.6934 76.3413 19.7076 72.652C19.7076 71.5594 19.7076 70.4668 19.7218 69.3884C19.7218 69.0337 19.7502 68.6647 19.7644 68.2816C19.8779 68.1823 19.9488 67.9694 19.9063 67.6147C22.6023 66.0396 25.3125 64.4788 28.0085 62.9037C29.0444 63.4997 30.0802 64.0957 31.1019 64.6916C31.9107 65.1599 32.7337 65.6281 33.5425 66.0964C33.5425 66.593 33.5425 67.0897 33.5425 67.6005C33.4148 67.6714 33.2871 67.7424 33.1594 67.8133C32.0952 68.4377 31.0168 69.062 29.9525 69.6864C29.2572 70.1121 27.9092 70.6513 27.1288 71.4175ZM43.1489 93.8514C43.1489 94.9724 43.1489 96.1075 43.1347 97.2285C43.1347 97.6258 43.1347 98.0373 43.1347 98.4346C43.1347 98.6617 43.1347 98.8887 43.1347 99.1299C41.9286 98.4346 40.7225 97.7393 39.5022 97.0298C36.5365 95.3129 33.5709 93.6101 30.6053 91.8932C30.2079 91.6662 29.6971 91.2547 29.2005 90.9851C29.2147 90.4884 29.1721 89.9634 29.1863 89.4668C29.2005 86.5579 29.2005 83.6348 29.2147 80.7259C29.2147 80.6834 29.2147 80.6266 29.2147 80.584C29.2856 79.8462 29.2147 79.0799 29.2147 78.3421C29.2147 78.3137 29.2147 78.2853 29.2147 78.2569C29.2147 77.9022 29.2147 77.5474 29.2147 77.2069C29.2147 76.4832 29.2147 75.7596 29.2147 75.0501C29.4559 75.192 29.6971 75.3339 29.9383 75.4616C31.8114 76.54 33.6844 77.6184 35.5433 78.6968C36.0683 78.9948 36.5933 79.307 37.1183 79.6049C37.771 79.9881 38.4379 80.3712 39.0907 80.7401C40.4245 81.5064 41.7583 82.4287 43.1489 83.1382C43.1489 83.351 43.1631 83.5497 43.1631 83.7341C43.1631 87.1113 43.1489 90.4742 43.1489 93.8514ZM44.5395 80.584C44.2983 80.4563 44.0429 80.3286 43.83 80.2009C42.4536 79.4063 41.063 78.5975 39.6866 77.8029C36.6784 76.0575 33.656 74.3264 30.6478 72.5811C30.6904 72.5527 30.733 72.5385 30.7755 72.5101C30.7897 72.4959 30.8181 72.4817 30.8323 72.4676C32.0384 71.7723 33.2445 71.0628 34.4506 70.3675C34.8196 70.1546 35.2311 69.956 35.5716 69.7148C35.6142 69.6864 35.6568 69.658 35.6993 69.6438C36.3663 69.2607 37.0332 68.8776 37.7001 68.4803C38.9346 69.1897 40.1833 69.9134 41.4178 70.6229C42.1131 71.0202 42.8084 71.4601 43.5178 71.8432C43.6597 71.9567 43.8442 72.0419 44.0429 72.0702C44.2131 72.1128 44.3692 72.1128 44.5253 72.0986C44.5395 72.0986 44.5679 72.0986 44.5821 72.0986C44.7523 72.127 44.9368 72.1128 45.1213 72.056C45.2064 72.0277 45.2915 71.9993 45.3625 71.9709C46.3842 71.6304 47.4626 70.7506 48.2572 70.2823C49.293 69.6864 50.3289 69.0762 51.3505 68.4803C52.0174 68.8634 52.6702 69.2465 53.3371 69.6296C54.5148 70.3107 55.6784 70.9918 56.8561 71.6587C56.8987 71.6871 56.9412 71.7155 56.9838 71.7297C57.4379 71.9851 57.8778 72.2547 58.3318 72.5101C58.3744 72.5385 58.4028 72.5527 58.4454 72.5811C54.3445 74.9649 50.2437 77.3488 46.1429 79.7327C45.703 80.0023 45.0929 80.2577 44.5395 80.584ZM59.8501 76.5116C59.8501 77.8738 59.8359 79.236 59.8359 80.5982C59.8218 83.1382 59.8217 85.6781 59.8076 88.2039C59.8076 88.9276 59.8076 89.6512 59.8076 90.3749C59.8076 90.4742 59.765 90.7722 59.7508 91.0702C59.538 91.1979 59.3251 91.3398 59.1265 91.4533C56.3169 93.0851 53.5074 94.7169 50.712 96.3487C49.1795 97.2427 47.647 98.1366 46.1004 99.0306C46.072 99.0448 46.0436 99.059 46.0152 99.0873C46.1145 94.2203 46.0294 89.3249 46.0152 84.4578C46.0294 84.0605 46.1004 83.5497 46.1004 83.0956C46.4835 82.8828 46.8666 82.6273 47.2355 82.4003C47.9876 81.9604 48.7254 81.5347 49.4775 81.0949C49.7471 80.9388 50.0025 80.7827 50.2721 80.6266C51.8472 79.7043 53.4222 78.7961 54.9973 77.8738C56.3311 77.0934 57.6649 76.3271 59.0129 75.5467C59.2258 75.419 59.5238 75.2771 59.8501 75.1068C59.8501 75.5751 59.8501 76.0434 59.8501 76.5116ZM69.414 78.4556C69.414 79.5766 69.414 80.7117 69.3998 81.8327C69.3998 82.23 69.3998 82.6415 69.3998 83.0388C69.3998 83.2659 69.3998 83.4929 69.3998 83.7341C68.4916 83.2091 67.5693 82.6841 66.6612 82.1449C65.3415 81.3787 64.0077 80.6124 62.6881 79.8462C62.6881 78.8103 62.6881 77.7745 62.7022 76.7386C62.7022 75.7596 62.7022 74.7663 62.7164 73.7872C62.7164 73.4608 62.7306 73.1487 62.7164 72.8365C62.7164 72.7939 62.7022 72.7655 62.7022 72.723C62.7022 72.6946 62.7023 72.6662 62.6881 72.6236C62.6739 72.5669 62.6597 72.5101 62.6455 72.4534C62.6455 72.4392 62.6455 72.425 62.6313 72.4108C62.6171 72.3398 62.5887 72.2831 62.5603 72.2263C62.5603 72.2121 62.5604 72.2121 62.5462 72.1979C62.5178 72.127 62.4894 72.056 62.4468 71.9851C62.4468 71.9851 62.4468 71.9851 62.4468 71.9709C62.3333 71.7297 62.163 71.531 61.9644 71.3749C61.8792 71.304 61.7941 71.2472 61.709 71.1763C60.5738 70.4526 59.3677 69.8283 58.2041 69.1472C57.296 68.6222 56.3879 68.0971 55.4939 67.5863C55.4939 67.0897 55.4939 66.593 55.4939 66.0822C56.2318 65.6565 56.9838 65.2166 57.7217 64.7909C58.0764 64.5781 58.4312 64.3794 58.7859 64.1666C59.538 63.7267 60.3042 63.2868 61.0563 62.847C63.582 64.3085 66.122 65.77 68.6477 67.2316C68.9173 67.3876 69.1727 67.5579 69.4423 67.714C69.4423 67.9411 69.4565 68.1539 69.4565 68.3384C69.4281 71.7297 69.4281 75.0926 69.414 78.4556ZM70.8329 65.2308C70.6626 65.1457 70.5066 65.0605 70.3505 64.9754C69.5133 64.493 68.6761 64.0105 67.8389 63.5281C66.122 62.5348 64.405 61.5415 62.6881 60.5624C62.7732 59.6259 62.6313 58.5901 62.6455 57.8806C62.6455 56.5468 62.6597 55.2129 62.6597 53.8791C63.0854 53.6379 63.4969 53.3967 63.9226 53.1412C65.6963 54.2055 67.4842 55.2555 69.3004 56.2204C69.4565 56.3055 69.6126 56.3907 69.7829 56.4758C70.0099 56.5893 70.237 56.6603 70.4782 56.6887C70.6059 56.7312 70.7336 56.7454 70.8755 56.7454C70.9322 56.7454 71.0032 56.7454 71.06 56.7312C71.0883 56.7312 71.1167 56.7312 71.1451 56.717C71.1735 56.717 71.2019 56.7028 71.2302 56.7028C71.2728 56.6887 71.3296 56.6887 71.3721 56.6745C71.4147 56.6603 71.4573 56.6461 71.4998 56.6319H71.514C72.0532 56.4474 72.5641 56.0643 73.0323 55.7947C73.7276 55.3832 74.4229 54.9859 75.1182 54.5744C75.9554 54.0919 76.7784 53.6095 77.6156 53.1271C79.0062 53.9217 80.3826 54.7305 81.7731 55.5251C82.7522 56.0927 83.7313 56.6603 84.7104 57.2279C80.8366 59.484 76.9628 61.726 73.0891 63.9821C72.8195 64.1382 72.5641 64.2943 72.2944 64.4362C71.8404 64.6916 71.3012 64.9328 70.8329 65.2308ZM86.1152 63.7977C86.101 67.2032 86.101 70.6087 86.0868 74.0142C86.0868 74.2413 85.9733 75.0926 85.9733 75.717C85.7746 75.8305 85.5902 75.9724 85.4057 76.0717C82.5961 77.7035 79.7866 79.3353 76.9912 80.9672C75.4587 81.8611 73.9263 82.7551 72.3796 83.649C72.3512 83.6632 72.3228 83.6774 72.2944 83.6916C72.2803 82.9679 72.2377 82.23 72.2519 81.5347C72.2519 80.8111 72.2519 80.1016 72.2519 79.3779C72.2519 78.6826 72.2519 77.9873 72.2519 77.292C72.2519 75.717 72.2661 74.1419 72.2661 72.5669C72.2661 71.4317 72.2803 70.2965 72.2803 69.1756C72.2803 68.7641 72.3654 68.2107 72.3654 67.714C73.0891 67.3167 73.7844 66.8484 74.4797 66.437C76.7784 65.1031 79.0771 63.7693 81.3758 62.4355C82.5536 61.7544 83.7313 61.0591 84.909 60.378C85.3064 60.1509 85.7179 59.9239 86.1152 59.6969C86.1152 61.0591 86.1152 62.4355 86.1152 63.7977Z" fill="#4F46E5"/>
<path d="M2.92099 68.4091C2.92099 67.5293 2.93518 66.6496 2.93518 65.7698C2.94937 63.9394 0.0972505 63.9394 0.0972505 65.7698C0.0972505 66.6496 0.0830608 67.5293 0.0830608 68.4091C0.0688712 70.2396 2.9068 70.2396 2.92099 68.4091Z" fill="#4F46E5"/>
</svg>
